<svg width="263" height="234" viewBox="0 0 263 234" fill="none" xmlns="http://www.w3.org/2000/svg">
<path d="M190.933 103.066C194.251 105.495 194.905 110.397 192.386 113.891C186.752 121.703 178.745 134.566 175.917 147.968C174.498 154.696 174.359 161.673 176.581 168.247C177.85 172 179.871 175.567 182.788 178.846C173.351 174.057 160.297 167.229 145.844 159.577C109.413 140.288 64.1796 115.833 45.8084 105.88C42.2909 103.974 41.0919 99.5123 43.1793 96.0916L81.8897 32.6528C84.0243 29.1547 88.6941 28.2309 92.0009 30.6513L190.933 103.066Z" fill="#FCFDE5" stroke="#CC99D8" stroke-width="4.04478"/>
<path d="M92.0131 60.4547C92.7312 60.2015 93.2721 60.0001 93.6355 59.8506C94.0036 59.6937 94.2274 59.553 94.3069 59.4284C94.3723 59.3258 94.3558 59.2225 94.2572 59.1184C94.1707 59.0116 94.0102 58.8835 93.7757 58.7339L94.1661 58.3644L97.0126 60.1803L96.6222 60.5498C96.4464 60.4376 96.2459 60.3561 96.0206 60.3052C95.8074 60.2516 95.5431 60.2377 95.2278 60.2633C94.9245 60.2863 94.5581 60.3515 94.1287 60.459C93.6994 60.5665 93.1939 60.7286 92.6124 60.9453L84.1363 64.0273L83.2131 63.4383L87.7444 58.9531L80.3776 61.6295L79.4544 61.0405L85.287 55.267C85.6179 54.9421 85.8419 54.688 85.9587 54.5048C86.0943 54.2924 86.1158 54.1051 86.0233 53.943C85.9309 53.7809 85.6831 53.5713 85.2801 53.3143L85.6705 52.9448L88.7038 54.8799L88.3135 55.2494C88.1596 55.1512 88.0161 55.0854 87.8828 55.0519C87.7615 55.0158 87.6242 55.021 87.4708 55.0674C87.3248 55.1186 87.1604 55.2147 86.9776 55.3558C86.8021 55.5016 86.5879 55.7 86.335 55.951L82.0629 60.1996L82.1069 60.2276L88.8825 57.8236L89.0457 57.6648C89.3767 57.3399 89.6006 57.0858 89.7174 56.9027C89.853 56.6902 89.8818 56.5076 89.804 56.3548C89.7262 56.2021 89.5078 56.0112 89.1488 55.7822L89.5391 55.4127L92.6824 57.4179L92.292 57.7874C92.0795 57.6519 91.892 57.558 91.7294 57.5058C91.5715 57.4463 91.4122 57.4375 91.2515 57.4793C91.0955 57.5138 90.9261 57.6016 90.7433 57.7427C90.5678 57.8885 90.3513 58.0905 90.0937 58.3489L85.8217 62.5974L85.8656 62.6254L92.0131 60.4547ZM96.1294 66.7145C96.4923 66.4202 96.7696 66.1796 96.9611 65.9925C97.1599 65.8101 97.3131 65.6346 97.4206 65.4661C97.5281 65.2976 97.5736 65.1616 97.557 65.0583C97.5525 64.9523 97.4843 64.8573 97.3524 64.7731C97.1252 64.6282 96.8457 64.5736 96.5137 64.6092C96.1817 64.6448 95.783 64.777 95.3174 65.0058C94.8593 65.2393 94.3246 65.5683 93.7136 65.9929C93.1025 66.4174 92.4044 66.9462 91.6192 67.5793L90.8826 68.1763L89.9594 67.5874L96.8891 61.5241C97.0572 61.3737 97.2004 61.2382 97.3185 61.1177C97.4366 60.9972 97.5214 60.8966 97.5728 60.816C97.6663 60.6695 97.6621 60.5225 97.5603 60.3751C97.4585 60.2276 97.2254 60.0274 96.8611 59.7744L97.2184 59.3838L99.4605 60.8141L95.5013 64.2571L95.5202 64.3002C95.9743 64.1054 96.4137 64.0145 96.8383 64.0277C97.2676 64.0335 97.6507 64.1439 97.9877 64.3589C98.3394 64.5833 98.5414 64.8564 98.5937 65.1785C98.646 65.5005 98.5483 65.8556 98.3006 66.244C98.1463 66.4857 97.9297 66.7445 97.6508 67.0201C97.3719 67.2958 97.0223 67.5933 96.602 67.9128C96.203 68.215 95.8908 68.4539 95.6653 68.6296C95.4398 68.8053 95.269 68.9438 95.1529 69.045C95.0415 69.1388 94.9645 69.2031 94.9218 69.2377C94.8864 69.277 94.8594 69.3113 94.8407 69.3406C94.7332 69.5091 94.749 69.6378 94.8882 69.7266C95.0348 69.8201 95.268 69.8503 95.588 69.8174C95.92 69.7817 96.2941 69.6802 96.7102 69.5127L96.8707 69.9398C96.6179 70.0775 96.3428 70.1855 96.0454 70.2638C95.7554 70.3468 95.4611 70.3961 95.1624 70.4118C94.8758 70.4248 94.5982 70.4075 94.3296 70.3599C94.073 70.3096 93.8532 70.226 93.67 70.1092C93.4722 69.983 93.3643 69.8369 93.3465 69.6709C93.3287 69.5049 93.3969 69.301 93.5512 69.0592C93.6306 68.9346 93.7258 68.8098 93.8366 68.6846C93.9474 68.5594 94.0938 68.4106 94.276 68.2381C94.4702 68.063 94.7107 67.8557 94.9976 67.616C95.2965 67.3737 95.6737 67.0732 96.1294 66.7145ZM101.357 72.8019C100.051 73.443 98.9331 73.4667 98.0026 72.8731C97.4971 72.5506 97.2069 72.149 97.1321 71.6683C97.062 71.1803 97.2092 70.6506 97.5738 70.0791C97.8963 69.5735 98.3214 69.1334 98.8491 68.7587C99.3841 68.3887 99.9486 68.1097 100.543 67.9217C101.142 67.7264 101.729 67.6374 102.306 67.6547C102.887 67.6647 103.386 67.8029 103.804 68.0694C104.156 68.2937 104.383 68.5676 104.486 68.891C104.601 69.2117 104.57 69.5113 104.392 69.7897C104.228 70.0462 103.965 70.2492 103.601 70.3988C103.238 70.5483 102.814 70.6388 102.33 70.6703C101.854 70.7064 101.333 70.6832 100.767 70.6006C100.208 70.5226 99.6485 70.382 99.0875 70.1787C99.0074 70.272 98.9309 70.3675 98.8582 70.4654C98.7901 70.556 98.7233 70.6526 98.6579 70.7552C98.1484 71.5538 98.1757 72.1331 98.7399 72.493C99.011 72.6659 99.3572 72.7373 99.7785 72.7071C100.207 72.6816 100.665 72.5615 101.153 72.3467L101.357 72.8019ZM103.255 68.4457C103.064 68.3242 102.82 68.2712 102.521 68.2869C102.222 68.3026 101.898 68.3742 101.549 68.5018C101.212 68.6267 100.865 68.7976 100.511 69.0145C100.156 69.2314 99.8231 69.478 99.5129 69.7543C99.9253 69.8834 100.331 69.9668 100.729 70.0046C101.128 70.0424 101.494 70.0338 101.828 69.9788C102.174 69.9212 102.477 69.8259 102.737 69.6929C103.002 69.5526 103.205 69.3725 103.345 69.1527C103.541 68.8449 103.511 68.6093 103.255 68.4457ZM104.332 70.7099C104.529 70.5782 104.769 70.4684 105.052 70.3808C105.347 70.2904 105.638 70.2291 105.927 70.1968C106.228 70.1618 106.51 70.1561 106.773 70.1797C107.036 70.2034 107.241 70.2619 107.388 70.3554C107.563 70.4676 107.65 70.6153 107.646 70.7986C107.642 70.9819 107.547 71.2201 107.36 71.5132C107.285 71.6304 107.206 71.7393 107.121 71.8399C107.043 71.9451 106.943 72.0616 106.821 72.1895L106.833 72.2435C107.056 72.0871 107.314 71.9577 107.606 71.8554C107.898 71.7531 108.185 71.6834 108.466 71.6464C108.759 71.6067 109.032 71.6 109.283 71.6263C109.546 71.6499 109.762 71.7155 109.93 71.823C110.143 71.9586 110.274 72.1403 110.325 72.3684C110.387 72.5937 110.355 72.8053 110.229 73.0031C110.108 73.1936 109.945 73.3114 109.741 73.3565C109.544 73.4063 109.351 73.3704 109.16 73.2489C109.043 73.1741 108.962 73.0914 108.916 73.0007C108.878 72.9147 108.848 72.8333 108.825 72.7566C108.806 72.6726 108.789 72.5946 108.773 72.5226C108.757 72.4506 108.716 72.3936 108.65 72.3515C108.511 72.2627 108.289 72.2551 107.984 72.3287C107.684 72.3951 107.332 72.5263 106.929 72.7225C106.525 72.9187 106.087 73.1698 105.613 73.4759C105.147 73.7867 104.674 74.1398 104.195 74.5352L102.733 75.7363L101.711 75.0843L103.877 73.265C104.297 72.9142 104.641 72.624 104.912 72.3943C105.194 72.162 105.421 71.9669 105.594 71.8092C105.772 71.644 105.903 71.5112 105.988 71.4107C106.08 71.3148 106.151 71.2265 106.203 71.1459C106.306 70.9847 106.302 70.8691 106.192 70.799C106.119 70.7522 106.009 70.7231 105.861 70.7116C105.721 70.7048 105.572 70.7126 105.413 70.7351C105.255 70.7576 105.093 70.7934 104.927 70.8426C104.769 70.8964 104.636 70.9605 104.526 71.0351L104.332 70.7099ZM111.296 79.1421C109.99 79.7832 108.872 79.8069 107.941 79.2133C107.436 78.8908 107.145 78.4892 107.071 78.0085C107.001 77.5205 107.148 76.9908 107.512 76.4193C107.835 75.9137 108.26 75.4736 108.788 75.0989C109.323 74.7289 109.887 74.4499 110.481 74.2619C111.08 74.0666 111.668 73.9776 112.244 73.9949C112.826 74.0049 113.325 74.1431 113.743 74.4096C114.094 74.6339 114.322 74.9078 114.425 75.2312C114.54 75.5519 114.508 75.8515 114.331 76.1299C114.167 76.3864 113.904 76.5894 113.54 76.739C113.177 76.8885 112.753 76.979 112.269 77.0105C111.792 77.0466 111.271 77.0234 110.705 76.9408C110.147 76.8628 109.587 76.7222 109.026 76.5189C108.946 76.6122 108.87 76.7077 108.797 76.8056C108.729 76.8962 108.662 76.9928 108.596 77.0954C108.087 77.894 108.114 78.4733 108.679 78.8332C108.95 79.0061 109.296 79.0775 109.717 79.0473C110.146 79.0218 110.604 78.9017 111.091 78.6869L111.296 79.1421ZM113.193 74.7859C113.003 74.6644 112.758 74.6114 112.46 74.6271C112.161 74.6427 111.837 74.7144 111.488 74.842C111.15 74.9669 110.804 75.1378 110.449 75.3547C110.094 75.5716 109.762 75.8182 109.451 76.0945C109.864 76.2236 110.269 76.307 110.668 76.3448C111.067 76.3826 111.433 76.374 111.767 76.319C112.113 76.2614 112.416 76.1661 112.676 76.0331C112.941 75.8928 113.143 75.7127 113.284 75.4929C113.48 75.1851 113.45 74.9495 113.193 74.7859ZM119.553 83.9767C118.857 84.3885 118.201 84.6247 117.585 84.6853C116.977 84.7506 116.442 84.6361 115.98 84.3416C115.504 84.0378 115.226 83.6335 115.146 83.1289C115.07 82.6169 115.205 82.0898 115.551 81.5476C115.757 81.2252 116.015 80.9258 116.325 80.6496C116.635 80.3733 116.972 80.129 117.334 79.9168C117.696 79.7046 118.076 79.5294 118.473 79.3912C118.871 79.253 119.259 79.1608 119.639 79.1145C120.019 79.0683 120.379 79.0707 120.717 79.1217C121.068 79.1701 121.371 79.2761 121.628 79.4397C121.979 79.6641 122.208 79.9439 122.314 80.2793C122.419 80.6147 122.381 80.9253 122.199 81.2111C122.082 81.3942 121.931 81.5094 121.746 81.5565C121.574 81.601 121.403 81.5694 121.234 81.4619C121.066 81.3544 120.959 81.2143 120.915 81.0416C120.883 80.8663 120.915 80.7017 121.014 80.5478C121.074 80.4526 121.138 80.385 121.205 80.3451C121.271 80.3052 121.321 80.2596 121.354 80.2083C121.419 80.1057 121.364 79.9983 121.188 79.8861C120.946 79.7319 120.629 79.6889 120.235 79.7571C119.841 79.8253 119.426 79.9735 118.992 80.2016C118.565 80.4344 118.143 80.7323 117.726 81.0951C117.321 81.4552 116.979 81.8551 116.698 82.2947C116.474 82.6464 116.362 82.9669 116.363 83.2562C116.376 83.5428 116.504 83.7633 116.745 83.9175C116.877 84.0017 117.036 84.0515 117.222 84.067C117.415 84.0872 117.625 84.0818 117.851 84.0507C118.082 84.0123 118.319 83.9473 118.563 83.8556C118.815 83.7685 119.063 83.6538 119.308 83.5115L119.553 83.9767ZM126.246 83.1901C125.968 83.0125 125.597 82.9561 125.133 83.0209C124.676 83.0904 124.203 83.2422 123.713 83.4762C123.228 83.703 122.767 83.9908 122.328 84.3395C121.893 84.681 121.555 85.0422 121.311 85.4232C121.143 85.687 121.063 85.9345 121.07 86.1658C121.081 86.3898 121.183 86.5626 121.373 86.6841C121.542 86.7916 121.76 86.8378 122.027 86.8228C122.299 86.8005 122.589 86.7331 122.898 86.6208C123.219 86.5059 123.547 86.3546 123.883 86.167C124.219 85.9794 124.542 85.7728 124.851 85.5472C125.164 85.3142 125.448 85.0723 125.7 84.8212C125.953 84.5702 126.155 84.3275 126.304 84.093C126.426 83.9025 126.481 83.7266 126.471 83.5653C126.46 83.404 126.385 83.2789 126.246 83.1901ZM127.673 83.4507L128.585 84.0326L126.886 85.3145C126.606 85.5275 126.314 85.7588 126.01 86.0084C125.714 86.2627 125.432 86.5107 125.164 86.7523C124.904 86.9987 124.675 87.2287 124.477 87.4425C124.279 87.6562 124.142 87.8217 124.067 87.9389C123.932 88.1514 123.934 88.302 124.073 88.3909C124.175 88.4563 124.39 88.4435 124.716 88.3526C125.049 88.2663 125.444 88.1318 125.901 87.949L126.039 88.3621C125.386 88.7079 124.784 88.9166 124.233 88.9879C123.694 89.0567 123.26 88.9859 122.93 88.7755C122.762 88.668 122.67 88.5216 122.654 88.3363C122.65 88.1483 122.742 87.9078 122.929 87.6147C122.971 87.5488 123.02 87.4718 123.076 87.3839C123.139 87.3006 123.225 87.1904 123.333 87.0532L123.296 87.0142C123.056 87.1492 122.802 87.2556 122.536 87.3333C122.282 87.4083 122.025 87.4557 121.765 87.4754C121.51 87.4878 121.266 87.4662 121.033 87.4106C120.796 87.3623 120.586 87.2798 120.403 87.1629C120.029 86.9246 119.825 86.5984 119.79 86.1844C119.767 85.7678 119.915 85.3104 120.232 84.8121C120.555 84.3066 120.991 83.8578 121.54 83.4658C122.089 83.0738 122.667 82.7728 123.275 82.5629C123.888 82.3456 124.486 82.2323 125.069 82.223C125.657 82.2063 126.149 82.3241 126.545 82.5765C126.787 82.7308 126.947 82.9156 127.026 83.131C127.11 83.3391 127.118 83.6017 127.049 83.9189L127.673 83.4507ZM133.536 87.8407C133.36 87.7285 133.101 87.6916 132.757 87.7299C132.425 87.7655 132.045 87.8587 131.619 88.0096C131.205 88.1577 130.77 88.3545 130.315 88.6C129.859 88.8454 129.432 89.1193 129.033 89.4214L126.818 91.1007L125.851 90.4837L128.269 88.4857C128.658 88.1669 128.988 87.8926 129.258 87.663C129.528 87.4333 129.75 87.2396 129.923 87.0818C130.108 86.9214 130.248 86.7895 130.345 86.6863C130.447 86.5758 130.521 86.4839 130.567 86.4106C130.694 86.2128 130.694 86.0742 130.57 85.9947C130.489 85.9433 130.361 85.9338 130.186 85.9663C130.011 85.9987 129.811 86.0618 129.586 86.1556C129.373 86.2467 129.148 86.3657 128.91 86.5128C128.671 86.6598 128.446 86.8199 128.232 86.9929L128.008 86.6177C128.745 86.0266 129.386 85.6521 129.93 85.4941C130.482 85.3407 130.963 85.3949 131.373 85.6567C131.608 85.8062 131.73 85.9773 131.741 86.17C131.76 86.3673 131.669 86.6235 131.468 86.9386C131.229 87.3122 130.954 87.6059 130.643 87.8195L130.655 87.8735C131.449 87.4524 132.133 87.2133 132.705 87.1559C133.29 87.0959 133.809 87.2108 134.264 87.5006C134.586 87.7063 134.782 87.9398 134.853 88.2011C134.923 88.4625 134.867 88.7361 134.685 89.0218C134.624 89.1171 134.545 89.2163 134.448 89.3195C134.359 89.4274 134.239 89.5516 134.087 89.692C133.94 89.8252 133.754 89.9796 133.529 90.1553C133.311 90.3357 133.041 90.5557 132.721 90.8153C132.235 91.2061 131.829 91.5349 131.504 91.8018C131.179 92.0687 130.972 92.2718 130.884 92.411C130.813 92.5209 130.815 92.5993 130.888 92.646C130.991 92.7114 131.195 92.723 131.5 92.6807C131.806 92.6384 132.246 92.5379 132.821 92.3792L133.009 92.7154C132.751 92.8604 132.46 92.9784 132.134 93.0693C131.82 93.1576 131.506 93.2206 131.194 93.2582C130.888 93.3006 130.604 93.3099 130.341 93.2863C130.077 93.2627 129.873 93.2041 129.726 93.1106C129.543 92.9938 129.448 92.8197 129.441 92.5884C129.441 92.3618 129.525 92.1166 129.693 91.8528C129.759 91.7502 129.832 91.6523 129.912 91.5591C130.004 91.4632 130.142 91.335 130.327 91.1746C130.512 91.0142 130.764 90.8042 131.085 90.5446C131.417 90.2823 131.857 89.9395 132.406 89.5162C132.593 89.3678 132.751 89.2416 132.879 89.1378C133.007 89.0339 133.112 88.9414 133.195 88.8602C133.29 88.7763 133.364 88.7001 133.418 88.6315C133.48 88.5675 133.532 88.5026 133.574 88.4367C133.747 88.1656 133.734 87.9669 133.536 87.8407ZM138.679 96.0695C138.385 96.3358 138.178 96.5642 138.056 96.7547C137.897 97.0038 137.867 97.2214 137.964 97.4075C138.069 97.5982 138.298 97.8058 138.65 98.0302L138.237 98.3856L134.731 96.1491L135.133 95.7866C135.352 95.9268 135.549 96.0313 135.721 96.1002C135.898 96.1617 136.072 96.1799 136.243 96.1548C136.421 96.1343 136.604 96.0655 136.792 95.9484C136.98 95.8313 137.197 95.6606 137.444 95.4362L141.828 91.3988C142.195 91.0659 142.442 90.8005 142.568 90.6027C142.713 90.3756 142.72 90.179 142.589 90.0128C142.47 89.8441 142.212 89.6335 141.817 89.3811L142.218 89.0186L145.79 91.2972L145.389 91.6597C145.147 91.5055 144.929 91.4026 144.735 91.351C144.546 91.2922 144.351 91.2913 144.149 91.3484C143.948 91.4055 143.725 91.5209 143.48 91.6946C143.242 91.8729 142.957 92.1186 142.623 92.4315L138.679 96.0695ZM144.691 101.374C144.024 102 143.446 102.487 142.956 102.834C142.462 103.189 142.018 103.432 141.625 103.562C141.233 103.693 140.879 103.731 140.565 103.674C140.243 103.613 139.924 103.482 139.609 103.281C139.301 103.085 139.1 102.843 139.005 102.556C138.91 102.268 138.937 102.007 139.087 101.773C139.204 101.59 139.345 101.474 139.51 101.424C139.671 101.383 139.835 101.415 140.004 101.523C140.158 101.621 140.238 101.729 140.246 101.847C140.253 101.965 140.248 102.086 140.231 102.209C140.207 102.328 140.195 102.444 140.195 102.557C140.195 102.67 140.268 102.774 140.414 102.867C140.583 102.975 140.793 102.985 141.044 102.898C141.296 102.811 141.549 102.648 141.805 102.409L147.346 97.2378L146.291 96.5648L146.756 96.1503L147.8 96.8164C148.382 96.2598 148.915 95.8115 149.4 95.4714C149.885 95.1313 150.331 94.8849 150.738 94.732C151.149 94.5718 151.522 94.5053 151.855 94.5323C152.193 94.552 152.505 94.653 152.79 94.8353C153.223 95.1111 153.52 95.4294 153.681 95.7902C153.847 96.1436 153.844 96.4559 153.671 96.727C153.564 96.8955 153.425 97.008 153.255 97.0645C153.092 97.1256 152.927 97.1024 152.758 96.9949C152.619 96.9061 152.525 96.8104 152.477 96.7077C152.437 96.6096 152.42 96.5063 152.428 96.3977C152.443 96.2937 152.467 96.1907 152.501 96.0888C152.543 95.9915 152.574 95.8932 152.596 95.7939C152.619 95.6946 152.617 95.6007 152.591 95.512C152.565 95.4233 152.493 95.3416 152.376 95.2668C152.23 95.1733 152.032 95.1604 151.782 95.2281C151.545 95.2932 151.269 95.4265 150.955 95.6281C150.645 95.8224 150.308 96.0763 149.943 96.3899C149.578 96.7034 149.201 97.0606 148.811 97.4614L149.778 98.0784C150.211 98.3542 150.559 98.5509 150.824 98.6685C151.097 98.7908 151.317 98.9057 151.486 99.0132C151.596 99.0833 151.668 99.1554 151.704 99.2294C151.739 99.3034 151.717 99.4027 151.637 99.5273C151.577 99.6225 151.477 99.7391 151.337 99.8769C151.198 100.015 151.006 100.186 150.762 100.391L148.49 102.328C148.452 102.356 148.398 102.399 148.33 102.458C148.268 102.522 148.201 102.587 148.127 102.654C148.061 102.725 147.995 102.796 147.929 102.868C147.863 102.939 147.814 103 147.781 103.051C147.734 103.125 147.711 103.202 147.71 103.284C147.714 103.359 147.76 103.424 147.848 103.48C147.957 103.551 148.095 103.577 148.261 103.559C148.439 103.538 148.619 103.499 148.801 103.439C148.983 103.38 149.155 103.314 149.315 103.241C149.479 103.161 149.603 103.095 149.687 103.046L149.908 103.45C149.723 103.579 149.496 103.708 149.229 103.836C148.962 103.964 148.681 104.064 148.389 104.135C148.101 104.199 147.807 104.223 147.508 104.207C147.221 104.189 146.96 104.105 146.725 103.955C146.498 103.81 146.366 103.638 146.328 103.439C146.302 103.237 146.383 102.989 146.57 102.696C146.691 102.506 146.852 102.309 147.053 102.108C147.254 101.906 147.516 101.666 147.838 101.387L149.153 100.246C149.333 100.093 149.482 99.9565 149.6 99.8359C149.718 99.7154 149.81 99.6039 149.876 99.5013C150.007 99.2961 150.011 99.1188 149.89 98.9694C149.776 98.8246 149.551 98.6447 149.214 98.4297L148.368 97.8899L144.691 101.374ZM157.352 103.034C157.177 102.922 156.917 102.885 156.573 102.923C156.241 102.959 155.862 103.052 155.436 103.203C155.021 103.351 154.587 103.548 154.131 103.793C153.676 104.039 153.248 104.312 152.849 104.615L150.634 106.294L149.667 105.677L152.086 103.679C152.474 103.36 152.804 103.086 153.074 102.856C153.344 102.626 153.566 102.433 153.739 102.275C153.924 102.115 154.064 101.983 154.161 101.88C154.263 101.769 154.337 101.677 154.383 101.604C154.51 101.406 154.51 101.267 154.386 101.188C154.305 101.136 154.177 101.127 154.002 101.159C153.827 101.192 153.627 101.255 153.402 101.349C153.189 101.44 152.964 101.559 152.726 101.706C152.487 101.853 152.262 102.013 152.048 102.186L151.824 101.811C152.562 101.22 153.203 100.845 153.747 100.687C154.298 100.534 154.779 100.588 155.189 100.85C155.424 100.999 155.546 101.171 155.558 101.363C155.576 101.56 155.485 101.817 155.284 102.132C155.045 102.505 154.77 102.799 154.459 103.013L154.471 103.067C155.265 102.646 155.949 102.406 156.521 102.349C157.106 102.289 157.625 102.404 158.08 102.694C158.402 102.899 158.598 103.133 158.669 103.394C158.739 103.656 158.683 103.929 158.501 104.215C158.44 104.31 158.361 104.409 158.265 104.513C158.175 104.621 158.055 104.745 157.903 104.885C157.756 105.018 157.57 105.173 157.345 105.349C157.127 105.529 156.857 105.749 156.537 106.009C156.051 106.399 155.645 106.728 155.32 106.995C154.995 107.262 154.789 107.465 154.7 107.604C154.63 107.714 154.631 107.792 154.704 107.839C154.807 107.905 155.011 107.916 155.316 107.874C155.622 107.832 156.062 107.731 156.637 107.572L156.825 107.909C156.568 108.054 156.276 108.172 155.95 108.263C155.636 108.351 155.322 108.414 155.01 108.451C154.704 108.494 154.42 108.503 154.157 108.479C153.894 108.456 153.689 108.397 153.542 108.304C153.359 108.187 153.264 108.013 153.257 107.782C153.257 107.555 153.341 107.31 153.51 107.046C153.575 106.943 153.648 106.845 153.728 106.752C153.82 106.656 153.958 106.528 154.143 106.368C154.328 106.207 154.581 105.997 154.901 105.738C155.233 105.475 155.673 105.133 156.222 104.709C156.409 104.561 156.567 104.435 156.695 104.331C156.823 104.227 156.929 104.135 157.011 104.053C157.106 103.969 157.18 103.893 157.235 103.825C157.296 103.761 157.348 103.696 157.39 103.63C157.563 103.359 157.55 103.16 157.352 103.034ZM166.146 105.489C166.331 105.329 166.48 105.192 166.593 105.079C166.707 104.965 166.782 104.88 166.819 104.821C166.889 104.711 166.865 104.587 166.747 104.45C166.628 104.312 166.379 104.122 165.998 103.879L166.399 103.517L168.52 104.87L164.461 108.543C163.942 109.016 163.503 109.421 163.143 109.759C162.784 110.097 162.482 110.383 162.239 110.62C162.007 110.854 161.824 111.051 161.69 111.213C161.556 111.375 161.451 111.514 161.377 111.632C161.269 111.8 161.22 111.934 161.229 112.032C161.238 112.131 161.283 112.206 161.364 112.258C161.525 112.36 161.784 112.335 162.14 112.18C162.503 112.031 162.899 111.783 163.326 111.437L163.68 111.802C162.968 112.369 162.352 112.728 161.832 112.881C161.324 113.031 160.883 112.987 160.509 112.749C160.246 112.58 160.094 112.365 160.055 112.103C160.024 111.846 160.108 111.56 160.309 111.245C160.361 111.164 160.422 111.084 160.492 111.006C160.563 110.927 160.635 110.855 160.709 110.788L160.635 110.71C160.048 111.016 159.472 111.175 158.909 111.186C158.349 111.19 157.89 111.078 157.531 110.849C157.341 110.727 157.19 110.575 157.081 110.391C156.976 110.2 156.911 109.994 156.887 109.773C156.868 109.544 156.888 109.304 156.945 109.052C157.015 108.798 157.131 108.542 157.295 108.286C157.496 107.971 157.752 107.675 158.062 107.399C158.384 107.12 158.73 106.877 159.1 106.669C159.481 106.459 159.877 106.283 160.286 106.142C160.695 106.002 161.092 105.904 161.477 105.851C161.874 105.795 162.244 105.788 162.587 105.832C162.937 105.88 163.241 105.986 163.497 106.15C163.747 106.309 163.903 106.476 163.967 106.65C164.038 106.83 164.07 107.062 164.064 107.346L166.146 105.489ZM163.203 106.782C163.012 106.66 162.778 106.598 162.501 106.597C162.236 106.592 161.946 106.634 161.632 106.723C161.323 106.804 161.003 106.925 160.674 107.086C160.352 107.251 160.041 107.44 159.741 107.651C159.442 107.861 159.162 108.09 158.902 108.336C158.649 108.587 158.441 108.841 158.277 109.098C158.109 109.361 158.039 109.616 158.068 109.861C158.102 110.099 158.229 110.288 158.448 110.429C158.617 110.536 158.831 110.58 159.091 110.56C159.356 110.533 159.643 110.464 159.951 110.351C160.26 110.239 160.576 110.09 160.901 109.905C161.237 109.718 161.553 109.513 161.85 109.29C162.159 109.064 162.438 108.829 162.686 108.586C162.939 108.335 163.14 108.092 163.29 107.857C163.434 107.63 163.503 107.426 163.494 107.246C163.49 107.058 163.393 106.903 163.203 106.782ZM71.7176 75.0834C71.4684 74.9244 71.2644 74.7272 71.1053 74.4918C70.9583 74.2536 70.8649 73.9879 70.8252 73.6946C70.7856 73.4013 70.8046 73.0887 70.8823 72.7568C70.9647 72.4176 71.1157 72.0758 71.3354 71.7315C71.6392 71.2552 72.0263 70.8424 72.4966 70.493C72.9742 70.1482 73.4741 69.8898 73.9962 69.7178C74.5183 69.5457 75.0363 69.469 75.5502 69.4875C76.0714 69.5108 76.5335 69.6509 76.9365 69.908C77.2003 70.0763 77.4094 70.2818 77.5637 70.5246C77.7301 70.7648 77.8295 71.0292 77.8618 71.3178C77.9061 71.6038 77.8881 71.9068 77.8078 72.2266C77.7394 72.5438 77.6048 72.86 77.4038 73.175C77.1093 73.6366 76.7209 74.0435 76.2386 74.3955C75.7563 74.7476 75.2457 75.0147 74.707 75.1967C74.1755 75.3834 73.6421 75.4761 73.1069 75.4749C72.5763 75.4663 72.1132 75.3358 71.7176 75.0834ZM72.1341 74.5759C72.3832 74.7348 72.7104 74.7632 73.1158 74.661C73.5285 74.5635 73.954 74.3813 74.3922 74.1145C74.8424 73.8451 75.2734 73.5169 75.6851 73.1301C76.1041 72.748 76.4469 72.3481 76.7133 71.9305C76.961 71.5421 77.062 71.2303 77.0163 70.9949C76.9779 70.7643 76.8415 70.5741 76.607 70.4246C76.4458 70.3217 76.2435 70.2752 76.0002 70.2849C75.7689 70.292 75.5169 70.3477 75.2442 70.452C74.9714 70.5564 74.6873 70.6947 74.3918 70.867C74.1037 71.044 73.8208 71.245 73.5433 71.47C73.2658 71.695 73.0055 71.9413 72.7626 72.209C72.5244 72.4693 72.3188 72.7351 72.1458 73.0062C71.8841 73.4165 71.7654 73.748 71.7898 74.0006C71.8141 74.2533 71.9289 74.445 72.1341 74.5759ZM77.7773 77.8358C77.8946 77.9106 78.0998 77.9281 78.3932 77.8884C78.6912 77.8415 79.0329 77.7502 79.4183 77.6146C79.8084 77.4718 80.2145 77.2876 80.6367 77.0621C81.0662 76.8413 81.4721 76.5848 81.8544 76.2926L84.0699 74.6133L85.092 75.2654L82.6732 77.2633C82.3222 77.5549 82.0223 77.8069 81.7735 78.0192C81.5293 78.2242 81.3231 78.402 81.155 78.5524C80.9915 78.6956 80.8614 78.8187 80.7646 78.9219C80.6725 79.0178 80.6055 79.0987 80.5634 79.1647C80.4419 79.3552 80.447 79.4925 80.5789 79.5766C80.6522 79.6234 80.7612 79.6465 80.9058 79.646C81.0551 79.6382 81.2185 79.6083 81.3958 79.5565C81.5852 79.5021 81.7742 79.432 81.963 79.3462C82.1637 79.2578 82.3545 79.1527 82.5352 79.0309L82.7598 79.4061C82.5103 79.5871 82.2338 79.7458 81.9304 79.8821C81.6316 80.0111 81.3322 80.1087 81.0322 80.175C80.7395 80.246 80.4592 80.2734 80.1912 80.2571C79.9233 80.2408 79.6941 80.1719 79.5036 80.0503C79.2764 79.9055 79.174 79.7267 79.1962 79.5141C79.2184 79.3015 79.3254 79.045 79.517 78.7446C79.5965 78.62 79.6843 78.4905 79.7804 78.3559C79.8886 78.2187 80.0017 78.0899 80.1198 77.9694L80.1079 77.9154C79.6857 78.1409 79.3069 78.3064 78.9715 78.412C78.6434 78.5223 78.3471 78.591 78.0824 78.618C77.8177 78.645 77.5848 78.6304 77.3836 78.5742C77.1776 78.5253 76.9941 78.4495 76.8329 78.3466C76.4885 78.1269 76.3075 77.8774 76.2898 77.5981C76.2795 77.3235 76.3631 77.047 76.5407 76.7686C76.737 76.4608 77.0107 76.1612 77.3616 75.8696C77.7172 75.5707 78.0661 75.2985 78.4083 75.0529C78.7506 74.8073 79.0381 74.599 79.2709 74.428C79.511 74.2616 79.7058 74.1179 79.8553 73.9967C80.0121 73.8802 80.1318 73.7814 80.2146 73.7002C80.3046 73.6236 80.3684 73.556 80.4058 73.4974C80.4245 73.4681 80.4335 73.4378 80.4329 73.4064C80.4442 73.3725 80.4279 73.3415 80.384 73.3134C80.2887 73.2526 80.0958 73.2481 79.8051 73.2998C79.5217 73.3561 79.107 73.473 78.5609 73.6503L78.3733 73.3142C78.6187 73.1718 78.8935 73.0481 79.1976 72.9431C79.5016 72.8382 79.8027 72.7622 80.1007 72.7152C80.3987 72.6682 80.683 72.6588 80.9536 72.6871C81.2242 72.7154 81.4474 72.7857 81.6232 72.8979C81.9896 73.1316 82.0372 73.4609 81.7661 73.8859C81.6025 74.1423 81.3166 74.4289 80.9083 74.7458C80.512 75.0599 80.0203 75.4267 79.4333 75.8459C79.0577 76.1115 78.7312 76.3567 78.4536 76.5817C78.1761 76.8067 77.9625 77.0364 77.8129 77.2709C77.7148 77.4248 77.6667 77.5487 77.6686 77.6427C77.6751 77.7293 77.7114 77.7937 77.7773 77.8358ZM87.7168 78.2232L84.8765 80.6637C84.4996 80.9799 84.242 81.2382 84.1038 81.4387C84.0617 81.5046 84.039 81.5726 84.0356 81.6426C84.0395 81.7172 84.0817 81.7803 84.1623 81.8317C84.2942 81.9158 84.4638 81.957 84.6711 81.9552C84.8831 81.9461 85.0971 81.9177 85.3131 81.87C85.5411 81.8196 85.7508 81.7575 85.9422 81.6837C86.1456 81.6073 86.2987 81.5451 86.4014 81.4973L86.6009 81.8874C86.3174 82.0571 86.0056 82.1984 85.6656 82.3113C85.3302 82.4169 85.0001 82.4899 84.6755 82.5302C84.3508 82.5705 84.0435 82.5754 83.7536 82.5451C83.4757 82.5122 83.2488 82.4396 83.073 82.3274C82.8165 82.1638 82.6647 81.9897 82.6176 81.805C82.5778 81.625 82.6397 81.4067 82.8033 81.1503C82.8968 81.0037 83.0486 80.8223 83.2589 80.6059C83.4691 80.3895 83.7743 80.1049 84.1747 79.752L86.7057 77.5782L85.7605 76.9753L86.2259 76.5608L87.1821 77.1708L88.9595 75.645L89.9706 76.2901L88.1932 77.8158L89.3911 78.5801L88.9148 78.9875L87.7168 78.2232ZM88.1965 84.3125C87.5292 84.9383 86.9508 85.4249 86.4611 85.7723C85.9668 86.127 85.5233 86.3698 85.1305 86.5007C84.7378 86.6315 84.3841 86.6688 84.0696 86.6125C83.7477 86.5515 83.4292 86.4205 83.1142 86.2195C82.8064 86.0232 82.6051 85.7813 82.5101 85.4939C82.4151 85.2065 82.4424 84.9456 82.5919 84.7111C82.7088 84.5279 82.8499 84.4118 83.0153 84.3626C83.176 84.3208 83.3406 84.3537 83.5091 84.4612C83.6629 84.5593 83.7435 84.6674 83.7507 84.7854C83.7579 84.9034 83.7531 85.024 83.7363 85.1473C83.7121 85.266 83.7 85.3819 83.6999 85.4952C83.6998 85.6085 83.773 85.7119 83.9195 85.8054C84.088 85.9129 84.298 85.9232 84.5494 85.8361C84.8008 85.7491 85.0542 85.5861 85.3098 85.3471L90.8507 80.1761L89.7956 79.503L90.261 79.0886L91.3051 79.7547C91.887 79.1981 92.4204 78.7497 92.9054 78.4097C93.3903 78.0696 93.8362 77.8231 94.243 77.6703C94.6544 77.5101 95.0268 77.4435 95.36 77.4706C95.6979 77.4903 96.0098 77.5913 96.2955 77.7736C96.7278 78.0493 97.0247 78.3676 97.1863 78.7284C97.3526 79.0819 97.3492 79.3942 97.1763 79.6652C97.0688 79.8338 96.93 79.9463 96.76 80.0027C96.5973 80.0639 96.4316 80.0407 96.2631 79.9332C96.1239 79.8444 96.0304 79.7486 95.9825 79.6459C95.9419 79.5479 95.9254 79.4445 95.9328 79.3359C95.9476 79.2319 95.9721 79.129 96.0062 79.027C96.0476 78.9298 96.0794 78.8315 96.1015 78.7322C96.1236 78.6329 96.1217 78.5389 96.0958 78.4502C96.0699 78.3616 95.9983 78.2798 95.8811 78.205C95.7346 78.1115 95.5366 78.0987 95.2873 78.1664C95.0499 78.2314 94.7741 78.3648 94.4599 78.5664C94.1504 78.7607 93.8132 79.0146 93.4482 79.3281C93.0833 79.6417 92.7059 79.9989 92.3162 80.3997L93.2834 81.0167C93.7157 81.2924 94.0644 81.4891 94.3296 81.6068C94.602 81.729 94.8225 81.8439 94.9911 81.9514C95.101 82.0215 95.1735 82.0936 95.2088 82.1676C95.244 82.2417 95.2219 82.341 95.1425 82.4655C95.0817 82.5608 94.9816 82.6773 94.8421 82.8151C94.7027 82.953 94.5108 83.1244 94.2666 83.3294L91.9948 85.2666C91.9568 85.2938 91.9034 85.3371 91.8347 85.3964C91.7733 85.4603 91.7059 85.5255 91.6325 85.5921C91.5664 85.6633 91.5004 85.7346 91.4343 85.8058C91.3682 85.8771 91.3188 85.9384 91.2861 85.9896C91.2394 86.0629 91.2156 86.1405 91.2149 86.2225C91.2188 86.2972 91.2647 86.3626 91.3526 86.4187C91.4625 86.4888 91.6005 86.5149 91.7665 86.4971C91.9445 86.4766 92.1245 86.4368 92.3065 86.3777C92.4886 86.3186 92.6596 86.2525 92.8197 86.1793C92.9844 86.0989 93.1085 86.0337 93.1918 85.9838L93.4133 86.388C93.2279 86.5171 93.0015 86.6458 92.734 86.7741C92.4666 86.9025 92.1865 87.0022 91.8938 87.0732C91.6058 87.1368 91.3121 87.1608 91.0129 87.1452C90.7256 87.1268 90.4647 87.0429 90.2303 86.8933C90.0032 86.7484 89.8707 86.5763 89.8329 86.377C89.8072 86.175 89.8878 85.9274 90.0747 85.6343C90.1962 85.4438 90.3574 85.2477 90.5583 85.046C90.7592 84.8442 91.0207 84.6039 91.343 84.325L92.6581 83.1846C92.8382 83.0315 92.9873 82.8947 93.1054 82.7742C93.2236 82.6537 93.3153 82.5421 93.3808 82.4396C93.5116 82.2344 93.5165 82.0571 93.3954 81.9077C93.2815 81.7629 93.0561 81.583 92.7191 81.368L91.8728 80.8281L88.1965 84.3125ZM98.4818 85.0907L95.6415 87.5311C95.2646 87.8473 95.007 88.1056 94.8688 88.3061C94.8267 88.372 94.804 88.44 94.8006 88.51C94.8045 88.5846 94.8468 88.6477 94.9274 88.6991C95.0592 88.7832 95.2288 88.8244 95.4361 88.8226C95.6481 88.8136 95.8621 88.7851 96.0781 88.7374C96.3061 88.687 96.5158 88.6249 96.7072 88.5511C96.9106 88.4747 97.0637 88.4125 97.1664 88.3647L97.3659 88.7548C97.0824 88.9245 96.7706 89.0658 96.4306 89.1787C96.0952 89.2843 95.7651 89.3573 95.4405 89.3976C95.1158 89.4379 94.8085 89.4428 94.5186 89.4125C94.2407 89.3796 94.0138 89.307 93.838 89.1948C93.5815 89.0312 93.4297 88.8571 93.3826 88.6724C93.3428 88.4924 93.4047 88.2741 93.5683 88.0177C93.6618 87.8711 93.8137 87.6897 94.0239 87.4733C94.2341 87.2569 94.5393 86.9723 94.9397 86.6194L97.4707 84.4456L96.5255 83.8427L96.9909 83.4282L97.9471 84.0382L99.7245 82.5125L100.736 83.1575L98.9582 84.6832L100.156 85.4475L99.6798 85.8549L98.4818 85.0907ZM100.339 87.203C100.493 86.9612 100.68 86.7658 100.898 86.6168C101.124 86.4724 101.365 86.3783 101.62 86.3346C101.879 86.2836 102.144 86.2879 102.415 86.3475C102.699 86.4045 102.972 86.5171 103.236 86.6854C103.588 86.9097 103.825 87.1846 103.947 87.51C104.069 87.8354 104.041 88.1374 103.864 88.4158C103.766 88.5697 103.645 88.6625 103.501 88.6943C103.364 88.7308 103.222 88.7024 103.076 88.6089C102.907 88.5014 102.817 88.3766 102.804 88.2346C102.796 88.0853 102.804 87.9357 102.828 87.7857C102.856 87.6285 102.873 87.4798 102.88 87.3399C102.887 87.1999 102.821 87.0855 102.682 86.9967C102.52 86.8939 102.34 86.877 102.142 86.9461C101.943 87.0152 101.778 87.1523 101.647 87.3575C101.493 87.5993 101.418 87.8708 101.421 88.1721C101.437 88.4707 101.46 88.7897 101.491 89.129C101.522 89.4683 101.521 89.8179 101.487 90.1778C101.461 90.5424 101.331 90.9079 101.097 91.2742C100.938 91.5234 100.734 91.7228 100.483 91.8725C100.241 92.0268 99.974 92.1298 99.6833 92.1815C99.4046 92.2305 99.1176 92.2279 98.8224 92.1735C98.5272 92.1192 98.255 92.0126 98.0059 91.8537C97.5663 91.5732 97.2754 91.2536 97.1331 90.8949C96.9982 90.5408 97.0289 90.2098 97.2252 89.9021C97.3608 89.6896 97.5136 89.5552 97.6836 89.4987C97.8656 89.4396 98.0409 89.4638 98.2094 89.5713C98.5245 89.7723 98.5661 90.1029 98.3343 90.5633C98.2067 90.8117 98.1428 90.9926 98.1427 91.106C98.1546 91.2166 98.2448 91.3257 98.4133 91.4332C98.6771 91.6015 98.935 91.6578 99.187 91.602C99.4437 91.539 99.6609 91.3683 99.8385 91.0899C100.025 90.7968 100.118 90.4899 100.116 90.1693C100.115 89.8487 100.094 89.5261 100.054 89.2014C100.018 88.8694 100.004 88.5358 100.012 88.2005C100.019 87.8652 100.128 87.5327 100.339 87.203ZM111.062 92.4819C110.783 92.3043 110.412 92.2479 109.948 92.3127C109.492 92.3822 109.018 92.534 108.529 92.7681C108.044 92.9948 107.582 93.2826 107.143 93.6314C106.709 93.9728 106.37 94.3341 106.127 94.7151C105.959 94.9788 105.878 95.2264 105.885 95.4577C105.897 95.6817 105.998 95.8544 106.189 95.9759C106.357 96.0834 106.575 96.1297 106.842 96.1146C107.114 96.0923 107.405 96.025 107.714 95.9127C108.034 95.7977 108.363 95.6464 108.699 95.4588C109.035 95.2712 109.358 95.0646 109.666 94.839C109.98 94.6061 110.263 94.3641 110.516 94.1131C110.769 93.8621 110.97 93.6193 111.12 93.3849C111.241 93.1944 111.297 93.0185 111.286 92.8571C111.276 92.6958 111.201 92.5708 111.062 92.4819ZM112.488 92.7425L113.401 93.3244L111.701 94.6063C111.421 94.8193 111.129 95.0506 110.826 95.3002C110.53 95.5545 110.248 95.8025 109.98 96.0442C109.72 96.2905 109.491 96.5205 109.292 96.7343C109.094 96.948 108.958 97.1135 108.883 97.2308C108.747 97.4432 108.749 97.5939 108.888 97.6827C108.991 97.7481 109.205 97.7354 109.531 97.6444C109.865 97.5581 110.26 97.4236 110.717 97.2408L110.855 97.6539C110.202 97.9998 109.599 98.2084 109.049 98.2798C108.51 98.3485 108.076 98.2777 107.746 98.0673C107.578 97.9598 107.485 97.8134 107.47 97.6281C107.466 97.4401 107.557 97.1996 107.744 96.9065C107.787 96.8406 107.836 96.7637 107.892 96.6757C107.955 96.5925 108.041 96.4823 108.149 96.3451L108.112 96.306C107.871 96.4411 107.618 96.5474 107.352 96.6251C107.098 96.7002 106.841 96.7475 106.581 96.7673C106.325 96.7796 106.082 96.758 105.849 96.7024C105.612 96.6542 105.402 96.5716 105.218 96.4548C104.845 96.2164 104.64 95.8902 104.606 95.4762C104.583 95.0596 104.73 94.6022 105.048 94.104C105.371 93.5984 105.806 93.1496 106.355 92.7576C106.904 92.3656 107.483 92.0647 108.091 91.8547C108.704 91.6374 109.302 91.5241 109.885 91.5148C110.473 91.4981 110.965 91.616 111.361 91.8684C111.602 92.0226 111.763 92.2074 111.842 92.4228C111.926 92.6309 111.933 92.8935 111.865 93.2107L112.488 92.7425ZM115.488 100.362C114.792 100.774 114.136 101.01 113.52 101.071C112.912 101.136 112.377 101.021 111.915 100.727C111.439 100.423 111.161 100.019 111.08 99.514C111.005 99.002 111.14 98.4749 111.486 97.9327C111.692 97.6104 111.95 97.311 112.26 97.0348C112.57 96.7585 112.907 96.5142 113.269 96.302C113.631 96.0898 114.011 95.9146 114.408 95.7764C114.806 95.6382 115.194 95.5459 115.574 95.4997C115.954 95.4535 116.313 95.4559 116.652 95.5069C117.003 95.5553 117.306 95.6613 117.563 95.8249C117.914 96.0492 118.143 96.3291 118.248 96.6645C118.354 96.9999 118.316 97.3105 118.133 97.5962C118.017 97.7794 117.866 97.8946 117.681 97.9417C117.508 97.9861 117.338 97.9546 117.169 97.8471C117.001 97.7396 116.894 97.5995 116.85 97.4268C116.817 97.2515 116.85 97.0869 116.948 96.933C117.009 96.8378 117.073 96.7702 117.14 96.7303C117.206 96.6903 117.256 96.6447 117.289 96.5935C117.354 96.4909 117.299 96.3835 117.123 96.2713C116.881 96.1171 116.563 96.0741 116.169 96.1423C115.775 96.2105 115.361 96.3587 114.927 96.5868C114.5 96.8196 114.078 97.1174 113.661 97.4802C113.256 97.8404 112.914 98.2403 112.633 98.6799C112.409 99.0316 112.297 99.3521 112.298 99.6414C112.311 99.928 112.439 100.148 112.68 100.303C112.812 100.387 112.971 100.437 113.157 100.452C113.35 100.472 113.56 100.467 113.786 100.436C114.017 100.398 114.254 100.332 114.498 100.241C114.749 100.154 114.998 100.039 115.243 99.8966L115.488 100.362ZM120.339 103.457C119.643 103.868 118.988 104.105 118.372 104.165C117.763 104.231 117.228 104.116 116.766 103.822C116.29 103.518 116.012 103.113 115.932 102.609C115.856 102.097 115.991 101.57 116.337 101.028C116.543 100.705 116.801 100.406 117.111 100.13C117.422 99.8533 117.758 99.609 118.12 99.3968C118.482 99.1846 118.862 99.0093 119.259 98.8711C119.657 98.7329 120.045 98.6407 120.425 98.5945C120.805 98.5483 121.165 98.5507 121.503 98.6017C121.854 98.6501 122.157 98.7561 122.414 98.9197C122.765 99.144 122.994 99.4239 123.1 99.7593C123.205 100.095 123.167 100.405 122.985 100.691C122.868 100.874 122.717 100.989 122.532 101.036C122.36 101.081 122.189 101.049 122.021 100.942C121.852 100.834 121.746 100.694 121.701 100.522C121.669 100.346 121.701 100.182 121.8 100.028C121.86 99.9325 121.924 99.865 121.991 99.825C122.058 99.7851 122.107 99.7395 122.14 99.6882C122.205 99.5857 122.15 99.4783 121.974 99.3661C121.733 99.2119 121.415 99.1688 121.021 99.2371C120.627 99.3053 120.213 99.4534 119.778 99.6816C119.351 99.9144 118.93 100.212 118.513 100.575C118.108 100.935 117.765 101.335 117.484 101.775C117.26 102.126 117.148 102.447 117.149 102.736C117.162 103.023 117.29 103.243 117.532 103.397C117.663 103.482 117.822 103.531 118.008 103.547C118.202 103.567 118.411 103.562 118.637 103.531C118.868 103.492 119.105 103.427 119.349 103.336C119.601 103.248 119.849 103.134 120.095 102.991L120.339 103.457ZM121.947 107.127C121.698 106.968 121.494 106.771 121.335 106.535C121.188 106.297 121.094 106.031 121.055 105.738C121.015 105.445 121.034 105.132 121.112 104.8C121.194 104.461 121.345 104.119 121.565 103.775C121.869 103.299 122.256 102.886 122.726 102.536C123.204 102.192 123.704 101.933 124.226 101.761C124.748 101.589 125.266 101.512 125.78 101.531C126.301 101.554 126.763 101.694 127.166 101.951C127.43 102.12 127.639 102.325 127.793 102.568C127.96 102.808 128.059 103.072 128.091 103.361C128.136 103.647 128.118 103.95 128.037 104.27C127.969 104.587 127.834 104.903 127.633 105.218C127.339 105.68 126.95 106.087 126.468 106.439C125.986 106.791 125.475 107.058 124.937 107.24C124.405 107.427 123.872 107.519 123.336 107.518C122.806 107.51 122.343 107.379 121.947 107.127ZM122.364 106.619C122.613 106.778 122.94 106.807 123.345 106.704C123.758 106.607 124.184 106.425 124.622 106.158C125.072 105.888 125.503 105.56 125.915 105.173C126.334 104.791 126.676 104.391 126.943 103.974C127.191 103.585 127.292 103.274 127.246 103.038C127.207 102.808 127.071 102.617 126.837 102.468C126.675 102.365 126.473 102.319 126.23 102.328C125.999 102.335 125.746 102.391 125.474 102.495C125.201 102.6 124.917 102.738 124.621 102.91C124.333 103.087 124.05 103.288 123.773 103.513C123.495 103.738 123.235 103.985 122.992 104.252C122.754 104.513 122.548 104.778 122.375 105.049C122.114 105.46 121.995 105.791 122.019 106.044C122.044 106.297 122.158 106.488 122.364 106.619ZM128.687 105.226C128.884 105.094 129.125 104.984 129.407 104.896C129.702 104.806 129.994 104.745 130.282 104.712C130.583 104.677 130.865 104.672 131.128 104.695C131.391 104.719 131.596 104.778 131.743 104.871C131.919 104.983 132.005 105.131 132.001 105.314C131.998 105.498 131.903 105.736 131.716 106.029C131.641 106.146 131.561 106.255 131.476 106.356C131.399 106.461 131.299 106.577 131.176 106.705L131.188 106.759C131.411 106.603 131.669 106.473 131.961 106.371C132.253 106.269 132.54 106.199 132.821 106.162C133.115 106.122 133.387 106.116 133.638 106.142C133.901 106.166 134.117 106.231 134.286 106.339C134.498 106.474 134.63 106.656 134.68 106.884C134.743 107.109 134.711 107.321 134.584 107.519C134.463 107.709 134.3 107.827 134.096 107.872C133.899 107.922 133.706 107.886 133.515 107.765C133.398 107.69 133.317 107.607 133.272 107.516C133.234 107.43 133.203 107.349 133.18 107.272C133.161 107.188 133.144 107.11 133.128 107.038C133.112 106.966 133.071 106.909 133.005 106.867C132.866 106.778 132.644 106.771 132.34 106.844C132.04 106.911 131.688 107.042 131.284 107.238C130.881 107.434 130.442 107.685 129.969 107.992C129.502 108.302 129.03 108.655 128.551 109.051L127.089 110.252L126.067 109.6L128.232 107.781C128.652 107.43 128.997 107.14 129.267 106.91C129.549 106.678 129.777 106.483 129.95 106.325C130.127 106.16 130.258 106.027 130.343 105.926C130.435 105.83 130.507 105.742 130.558 105.662C130.661 105.5 130.658 105.385 130.548 105.315C130.474 105.268 130.364 105.239 130.217 105.227C130.077 105.22 129.927 105.228 129.769 105.251C129.61 105.273 129.448 105.309 129.283 105.358C129.125 105.412 128.991 105.476 128.882 105.551L128.687 105.226ZM140.604 108.174C140.789 108.013 140.938 107.876 141.052 107.763C141.165 107.65 141.24 107.564 141.278 107.506C141.348 107.396 141.324 107.272 141.205 107.134C141.087 106.997 140.837 106.807 140.456 106.564L140.857 106.201L142.979 107.554L138.919 111.227C138.401 111.701 137.962 112.106 137.602 112.444C137.242 112.781 136.941 113.068 136.697 113.304C136.466 113.538 136.283 113.736 136.149 113.898C136.014 114.06 135.91 114.199 135.835 114.316C135.728 114.485 135.678 114.618 135.688 114.717C135.697 114.816 135.742 114.891 135.822 114.942C135.984 115.045 136.242 115.019 136.598 114.865C136.962 114.716 137.357 114.468 137.784 114.122L138.139 114.487C137.427 115.053 136.811 115.413 136.291 115.566C135.783 115.716 135.342 115.672 134.968 115.433C134.704 115.265 134.553 115.05 134.514 114.788C134.482 114.53 134.567 114.244 134.768 113.929C134.819 113.849 134.88 113.769 134.951 113.69C135.022 113.612 135.094 113.539 135.167 113.473L135.093 113.395C134.506 113.701 133.931 113.859 133.367 113.871C132.808 113.875 132.349 113.762 131.99 113.533C131.799 113.412 131.649 113.259 131.539 113.076C131.434 112.885 131.37 112.679 131.346 112.458C131.327 112.229 131.346 111.989 131.404 111.737C131.473 111.482 131.59 111.227 131.754 110.97C131.955 110.655 132.21 110.36 132.52 110.083C132.843 109.804 133.189 109.561 133.558 109.354C133.94 109.143 134.335 108.968 134.744 108.827C135.154 108.686 135.551 108.589 135.936 108.535C136.332 108.479 136.702 108.473 137.045 108.517C137.396 108.565 137.699 108.671 137.956 108.835C138.205 108.993 138.361 109.16 138.425 109.335C138.496 109.514 138.529 109.746 138.522 110.031L140.604 108.174ZM137.661 109.466C137.471 109.345 137.237 109.283 136.96 109.281C136.694 109.277 136.405 109.319 136.091 109.407C135.781 109.488 135.462 109.609 135.132 109.77C134.81 109.936 134.499 110.124 134.2 110.335C133.9 110.546 133.62 110.775 133.36 111.021C133.107 111.272 132.899 111.526 132.735 111.782C132.567 112.046 132.498 112.301 132.527 112.546C132.56 112.784 132.687 112.973 132.907 113.113C133.075 113.221 133.29 113.265 133.55 113.245C133.814 113.218 134.101 113.148 134.41 113.036C134.719 112.924 135.035 112.775 135.359 112.59C135.695 112.402 136.012 112.197 136.309 111.974C136.618 111.749 136.896 111.514 137.144 111.27C137.397 111.019 137.598 110.777 137.748 110.542C137.893 110.315 137.961 110.111 137.953 109.93C137.949 109.742 137.852 109.588 137.661 109.466ZM140.931 113.98C141.216 113.759 141.436 113.575 141.592 113.428C141.749 113.28 141.859 113.155 141.925 113.052C141.99 112.949 142.014 112.872 141.996 112.819C141.99 112.764 141.969 112.724 141.932 112.701C141.852 112.65 141.738 112.634 141.591 112.654C141.449 112.666 141.298 112.693 141.137 112.735C140.977 112.777 140.827 112.826 140.688 112.882C140.549 112.937 140.447 112.985 140.38 113.025L140.188 112.624C140.378 112.519 140.614 112.417 140.894 112.317C141.181 112.222 141.478 112.153 141.783 112.111C142.088 112.069 142.382 112.06 142.665 112.086C142.952 112.104 143.191 112.174 143.381 112.296C143.565 112.413 143.665 112.554 143.683 112.72C143.713 112.883 143.639 113.104 143.461 113.383C143.326 113.595 143.077 113.839 142.716 114.114C142.363 114.393 141.904 114.75 141.338 115.183L140.224 116.034C140.186 116.061 140.126 116.105 140.046 116.167C139.977 116.227 139.9 116.291 139.814 116.36C139.741 116.427 139.668 116.493 139.594 116.56C139.528 116.631 139.479 116.692 139.446 116.744C139.404 116.81 139.385 116.88 139.389 116.954C139.393 117.029 139.435 117.092 139.516 117.144C139.625 117.214 139.767 117.242 139.94 117.229C140.118 117.209 140.302 117.171 140.491 117.117C140.681 117.062 140.859 117.001 141.027 116.932C141.199 116.857 141.33 116.796 141.421 116.751L141.631 117.148C141.431 117.268 141.186 117.385 140.897 117.499C140.615 117.618 140.32 117.708 140.013 117.77C139.71 117.824 139.405 117.841 139.099 117.821C138.797 117.793 138.525 117.702 138.283 117.548C138.071 117.413 137.945 117.255 137.905 117.075C137.872 116.899 137.938 116.684 138.102 116.427C138.237 116.215 138.415 116.009 138.635 115.809C138.867 115.606 139.169 115.36 139.539 115.071L140.931 113.98ZM145.169 110.9C144.986 110.783 144.864 110.618 144.804 110.405C144.752 110.196 144.789 109.993 144.915 109.795C145.041 109.597 145.215 109.471 145.435 109.415C145.656 109.36 145.862 109.394 146.052 109.515C146.257 109.646 146.381 109.823 146.424 110.046C146.468 110.27 146.428 110.477 146.307 110.667C146.185 110.858 146.013 110.975 145.789 111.018C145.566 111.061 145.359 111.021 145.169 110.9ZM149.048 116.715C148.872 116.602 148.612 116.565 148.268 116.604C147.936 116.639 147.557 116.733 147.131 116.883C146.717 117.032 146.282 117.228 145.826 117.474C145.371 117.719 144.944 117.993 144.545 118.295L142.329 119.975L141.362 119.358L143.781 117.36C144.17 117.041 144.499 116.766 144.77 116.537C145.04 116.307 145.261 116.113 145.434 115.956C145.619 115.795 145.76 115.663 145.857 115.56C145.958 115.45 146.032 115.358 146.079 115.284C146.205 115.087 146.206 114.948 146.081 114.869C146.001 114.817 145.873 114.808 145.697 114.84C145.522 114.873 145.322 114.936 145.097 115.029C144.885 115.121 144.659 115.24 144.421 115.387C144.183 115.534 143.957 115.694 143.744 115.867L143.519 115.492C144.257 114.901 144.898 114.526 145.442 114.368C145.993 114.215 146.474 114.269 146.885 114.531C147.119 114.68 147.242 114.851 147.253 115.044C147.271 115.241 147.18 115.497 146.979 115.812C146.741 116.186 146.466 116.48 146.154 116.693L146.166 116.747C146.961 116.326 147.644 116.087 148.217 116.03C148.801 115.97 149.321 116.085 149.775 116.374C150.097 116.58 150.294 116.814 150.364 117.075C150.435 117.336 150.379 117.61 150.196 117.896C150.136 117.991 150.057 118.09 149.96 118.193C149.871 118.301 149.75 118.425 149.599 118.566C149.452 118.699 149.266 118.853 149.04 119.029C148.822 119.21 148.553 119.43 148.233 119.689C147.746 120.08 147.341 120.409 147.016 120.676C146.691 120.943 146.484 121.146 146.395 121.285C146.325 121.395 146.327 121.473 146.4 121.52C146.502 121.585 146.706 121.597 147.012 121.555C147.317 121.512 147.757 121.412 148.333 121.253L148.52 121.589C148.263 121.734 147.971 121.852 147.645 121.943C147.331 122.031 147.018 122.094 146.705 122.132C146.4 122.174 146.115 122.184 145.852 122.16C145.589 122.137 145.384 122.078 145.238 121.984C145.054 121.868 144.959 121.694 144.952 121.462C144.952 121.236 145.037 120.99 145.205 120.727C145.27 120.624 145.343 120.526 145.423 120.433C145.515 120.337 145.654 120.209 145.839 120.048C146.023 119.888 146.276 119.678 146.596 119.418C146.928 119.156 147.369 118.813 147.917 118.39C148.105 118.242 148.262 118.115 148.39 118.012C148.519 117.908 148.624 117.815 148.707 117.734C148.801 117.65 148.876 117.574 148.93 117.505C148.991 117.441 149.043 117.376 149.085 117.311C149.258 117.039 149.246 116.841 149.048 116.715ZM152.115 127.346C151.914 127.661 151.664 127.899 151.366 128.059C151.071 128.231 150.739 128.324 150.37 128.336C150.004 128.36 149.611 128.305 149.191 128.172C148.772 128.038 148.338 127.828 147.891 127.543C147.488 127.286 147.145 127.016 146.862 126.732C146.579 126.449 146.365 126.162 146.219 125.874C146.067 125.58 145.988 125.298 145.985 125.029C145.97 124.761 146.038 124.51 146.187 124.276C146.379 123.975 146.637 123.789 146.961 123.718C147.277 123.642 147.586 123.699 147.886 123.891C147.974 123.947 148.052 124.012 148.118 124.085C148.185 124.158 148.262 124.264 148.349 124.402C147.831 124.309 147.422 124.497 147.123 124.966C146.927 125.274 146.927 125.613 147.122 125.986C147.325 126.362 147.698 126.724 148.24 127.07C148.533 127.257 148.825 127.397 149.116 127.49C149.407 127.583 149.674 127.634 149.915 127.643C150.164 127.658 150.378 127.629 150.557 127.558C150.739 127.499 150.87 127.407 150.949 127.283C151.08 127.078 151.075 126.811 150.933 126.484C150.794 126.168 150.527 125.828 150.131 125.462C149.421 124.813 148.938 124.278 148.681 123.857C148.425 123.435 148.401 123.06 148.612 122.73C148.747 122.517 148.953 122.396 149.23 122.367C149.514 122.342 149.944 122.41 150.521 122.572L150.572 122.542C150.267 121.791 150.314 121.104 150.711 120.482C150.926 120.144 151.199 119.87 151.53 119.659C151.865 119.44 152.223 119.291 152.602 119.214C152.993 119.134 153.389 119.128 153.788 119.197C154.194 119.271 154.573 119.42 154.925 119.644C155.467 119.99 155.795 120.478 155.909 121.107C156.501 120.939 156.959 120.957 157.281 121.163C157.515 121.312 157.674 121.516 157.756 121.775C157.843 122.027 157.826 122.248 157.705 122.438C157.611 122.585 157.48 122.676 157.312 122.714C157.156 122.748 157.005 122.719 156.858 122.625C156.749 122.555 156.675 122.477 156.637 122.391C156.611 122.302 156.595 122.214 156.588 122.128C156.581 122.041 156.563 121.957 156.532 121.876C156.514 121.792 156.457 121.719 156.362 121.659C156.31 121.626 156.256 121.607 156.198 121.6C156.144 121.587 156.033 121.583 155.865 121.589C155.836 121.715 155.798 121.83 155.752 121.935C155.711 122.032 155.646 122.15 155.557 122.29C155.043 123.096 154.408 123.598 153.653 123.796C152.902 123.987 152.116 123.862 151.294 123.421C150.924 123.226 150.643 123.108 150.452 123.069C150.268 123.034 150.139 123.075 150.064 123.192C149.966 123.346 149.972 123.515 150.081 123.698C150.203 123.879 150.372 124.075 150.589 124.285C150.805 124.495 151.04 124.717 151.293 124.95C151.546 125.184 151.764 125.432 151.948 125.693C152.136 125.947 152.257 126.21 152.311 126.481C152.367 126.765 152.302 127.053 152.115 127.346ZM151.658 122.972C151.834 123.084 152.05 123.125 152.308 123.093C152.565 123.061 152.832 122.974 153.109 122.831C153.398 122.685 153.676 122.492 153.943 122.25C154.211 122.008 154.443 121.733 154.639 121.426C154.826 121.133 154.907 120.86 154.883 120.607C154.863 120.347 154.747 120.149 154.535 120.014C154.366 119.906 154.145 119.873 153.871 119.915C153.602 119.95 153.319 120.037 153.023 120.178C152.734 120.324 152.45 120.519 152.17 120.763C151.895 121 151.667 121.261 151.484 121.547C151.307 121.826 151.232 122.097 151.259 122.362C151.29 122.619 151.423 122.823 151.658 122.972ZM162.525 125.946L159.684 128.386C159.307 128.703 159.05 128.961 158.912 129.161C158.869 129.227 158.847 129.295 158.843 129.365C158.847 129.44 158.889 129.503 158.97 129.554C159.102 129.638 159.272 129.68 159.479 129.678C159.691 129.669 159.905 129.64 160.121 129.593C160.349 129.542 160.559 129.48 160.75 129.406C160.953 129.33 161.106 129.268 161.209 129.22L161.409 129.61C161.125 129.78 160.813 129.921 160.473 130.034C160.138 130.14 159.808 130.212 159.483 130.253C159.159 130.293 158.851 130.298 158.561 130.268C158.283 130.235 158.057 130.162 157.881 130.05C157.624 129.886 157.472 129.712 157.425 129.528C157.386 129.348 157.447 129.129 157.611 128.873C157.705 128.726 157.856 128.545 158.067 128.329C158.277 128.112 158.582 127.828 158.982 127.475L161.513 125.301L160.568 124.698L161.034 124.283L161.99 124.893L163.767 123.368L164.778 124.013L163.001 125.538L164.199 126.303L163.722 126.71L162.525 125.946ZM162.807 133.193C162.558 133.034 162.354 132.837 162.195 132.601C162.048 132.363 161.954 132.097 161.915 131.804C161.875 131.511 161.894 131.198 161.972 130.866C162.054 130.527 162.205 130.185 162.425 129.841C162.729 129.365 163.116 128.952 163.586 128.602C164.064 128.258 164.563 127.999 165.086 127.827C165.608 127.655 166.126 127.578 166.64 127.597C167.161 127.62 167.623 127.76 168.026 128.017C168.29 128.186 168.499 128.391 168.653 128.634C168.819 128.874 168.919 129.139 168.951 129.427C168.996 129.713 168.978 130.016 168.897 130.336C168.829 130.653 168.694 130.969 168.493 131.284C168.199 131.746 167.81 132.153 167.328 132.505C166.846 132.857 166.335 133.124 165.796 133.306C165.265 133.493 164.732 133.585 164.196 133.584C163.666 133.576 163.203 133.445 162.807 133.193ZM163.223 132.685C163.473 132.844 163.8 132.873 164.205 132.77C164.618 132.673 165.043 132.491 165.482 132.224C165.932 131.954 166.363 131.626 166.775 131.239C167.194 130.857 167.536 130.457 167.803 130.04C168.05 129.651 168.151 129.34 168.106 129.104C168.067 128.874 167.931 128.683 167.696 128.534C167.535 128.431 167.333 128.385 167.09 128.394C166.858 128.401 166.606 128.457 166.334 128.561C166.061 128.666 165.777 128.804 165.481 128.976C165.193 129.153 164.91 129.354 164.633 129.579C164.355 129.804 164.095 130.051 163.852 130.318C163.614 130.579 163.408 130.844 163.235 131.115C162.973 131.526 162.855 131.857 162.879 132.11C162.904 132.363 163.018 132.554 163.223 132.685ZM70.7487 88.1399C71.0169 87.9296 71.2281 87.7602 71.3822 87.6317C71.5436 87.5079 71.667 87.4114 71.7524 87.3422C71.8425 87.2656 71.9076 87.2041 71.9476 87.1574C71.9877 87.1108 72.0217 87.0655 72.0498 87.0216C72.1853 86.8091 72.1798 86.6561 72.0333 86.5626C71.8354 86.4364 71.5145 86.4224 71.0705 86.5206C70.6311 86.6114 70.0926 86.8091 69.4551 87.1137C69.233 87.2194 69.0159 87.3335 68.8038 87.4559C68.5964 87.571 68.3512 87.729 68.0684 87.93C67.7902 88.1236 67.447 88.3789 67.0387 88.6957C66.6304 89.0125 66.107 89.4209 65.4686 89.9207L64.4355 89.2617L66.5701 87.5154C67.0231 87.1446 67.4014 86.8344 67.7049 86.5848C68.0132 86.3278 68.2644 86.1118 68.4585 85.9367C68.6527 85.7616 68.8005 85.6188 68.902 85.5083C69.0107 85.4024 69.0908 85.3092 69.1422 85.2286C69.2965 84.9868 69.282 84.8075 69.0988 84.6906C68.9523 84.5972 68.7227 84.5692 68.41 84.6069C68.0974 84.6445 67.7483 84.7311 67.3629 84.8667C66.9775 85.0022 66.576 85.1791 66.1585 85.3972C65.753 85.6127 65.3721 85.8543 65.0159 86.1218L62.5011 88.0277L61.534 87.4107L63.9528 85.4128C64.3632 85.0766 64.7034 84.7937 64.9736 84.564C65.2485 84.3271 65.47 84.1333 65.6382 83.9829C65.811 83.8251 65.9434 83.6983 66.0355 83.6024C66.1276 83.5065 66.1971 83.4219 66.2438 83.3487C66.3747 83.1435 66.3778 83.0012 66.2533 82.9217C66.1727 82.8703 66.047 82.8572 65.8764 82.8823C65.713 82.9121 65.5227 82.9762 65.3052 83.0746C65.0925 83.1657 64.8634 83.2825 64.618 83.4248C64.3798 83.5719 64.1457 83.7369 63.9155 83.92L63.691 83.5448C64.4289 82.9537 65.0698 82.5791 65.6139 82.4211C66.1653 82.2677 66.6462 82.3219 67.0565 82.5837C67.291 82.7333 67.4138 82.9044 67.4249 83.097C67.4433 83.2943 67.3544 83.5469 67.1581 83.8546C66.9337 84.2063 66.6564 84.5036 66.3262 84.7465L66.3382 84.8005C67.8282 83.9677 68.9542 83.7943 69.7162 84.2804C70.0019 84.4627 70.1693 84.6932 70.2183 84.9718C70.272 85.2432 70.2007 85.5327 70.0044 85.8405C69.939 85.943 69.8495 86.0509 69.7361 86.1641C69.63 86.282 69.4585 86.4458 69.2216 86.6555L69.2226 86.7025C69.6521 86.4816 70.0355 86.3088 70.373 86.1838C70.7224 86.0562 71.0341 85.9716 71.3081 85.9299C71.5821 85.8882 71.8304 85.8868 72.053 85.9257C72.2829 85.9693 72.4931 86.0519 72.6836 86.1734C72.9694 86.3557 73.1328 86.5682 73.1738 86.8109C73.2222 87.0582 73.1412 87.3467 72.9309 87.6765C72.8654 87.779 72.782 87.8856 72.6806 87.9961C72.5838 88.0993 72.4597 88.2212 72.3082 88.3616C72.1614 88.4948 71.9813 88.6479 71.7678 88.821C71.5663 88.9914 71.3244 89.1927 71.0422 89.4251C70.6793 89.7193 70.3887 89.9566 70.1706 90.137C69.9571 90.31 69.7899 90.4508 69.6692 90.5593C69.5484 90.6679 69.4597 90.7504 69.4029 90.807C69.3535 90.8683 69.3078 90.9319 69.2657 90.9978C69.1769 91.137 69.1692 91.23 69.2424 91.2768C69.3523 91.3469 69.5826 91.3495 69.9333 91.2845C70.2887 91.2123 70.7824 91.0685 71.4146 90.8533L71.6022 91.1894C71.3234 91.3517 71.0079 91.4907 70.6558 91.6063C70.3158 91.7192 69.9787 91.8032 69.6447 91.8581C69.3154 91.9057 69.0071 91.9204 68.7198 91.9021C68.4399 91.8884 68.223 91.8325 68.0691 91.7344C67.8859 91.6175 67.7885 91.4471 67.7767 91.2231C67.777 90.9965 67.8612 90.7513 68.0295 90.4875C68.0856 90.3996 68.156 90.3054 68.2408 90.2048C68.3329 90.1089 68.4737 89.9771 68.6632 89.8093C68.86 89.6462 69.1209 89.4312 69.4458 89.1643C69.778 88.9021 70.2123 88.5606 70.7487 88.1399ZM74.4426 91.1304C74.7087 90.4548 74.8519 89.9637 74.8722 89.6571C74.9045 89.3479 74.8548 89.1512 74.7229 89.067C74.5837 88.9782 74.3877 89.0027 74.1349 89.1404C73.8941 89.2754 73.5702 89.5327 73.1632 89.9122L72.8266 89.5428C73.1149 89.2525 73.4088 89.0019 73.7083 88.791C74.0152 88.5847 74.3037 88.4233 74.5738 88.307C74.8558 88.188 75.1125 88.125 75.3438 88.1179C75.5798 88.1035 75.7784 88.1477 75.9396 88.2505C76.0788 88.3393 76.1633 88.4654 76.1931 88.6288C76.2303 88.7968 76.2113 89.0527 76.1363 89.3966C76.0746 89.6871 75.9712 90.0593 75.8261 90.513C75.6929 90.9642 75.5187 91.4716 75.3035 92.0352L74.5483 94.0431L74.5923 94.0711C74.8437 93.9841 75.1091 93.875 75.3885 93.744C75.68 93.6104 75.9614 93.4601 76.2329 93.2931C76.5091 93.1187 76.7632 92.9304 76.9954 92.728C77.2323 92.5183 77.4208 92.3035 77.561 92.0837C77.6078 92.0105 77.6626 91.9165 77.7253 91.802C77.7928 91.6801 77.8566 91.5558 77.9167 91.4292C77.9842 91.3073 78.047 91.1928 78.1051 91.0855C78.1679 90.9709 78.2203 90.8807 78.2624 90.8147C78.4306 90.551 78.6204 90.3989 78.8318 90.3584C79.0431 90.318 79.2221 90.3445 79.3686 90.438C79.5591 90.5596 79.6469 90.729 79.632 90.9462C79.6171 91.1635 79.5419 91.3784 79.4063 91.5909C79.2147 91.8913 78.8887 92.2245 78.4283 92.5906C77.968 92.9567 77.433 93.3267 76.8234 93.7007C76.2184 94.0673 75.5637 94.4228 74.8595 94.7673C74.1599 95.1045 73.4773 95.3906 72.8118 95.6259C71.7923 95.996 70.9345 96.2013 70.2386 96.2419C69.5453 96.2944 68.9935 96.1898 68.5832 95.9281C68.2754 95.7318 68.0874 95.4933 68.0191 95.2126C67.9434 94.9272 67.9827 94.6636 68.1369 94.4218C68.2538 94.2386 68.4009 94.1212 68.5783 94.0694C68.7509 94.0249 68.9215 94.0564 69.0901 94.1639C69.2366 94.2574 69.3208 94.3678 69.3427 94.4952C69.3525 94.6251 69.3467 94.7555 69.3252 94.8861C69.2991 95.024 69.2859 95.1497 69.2858 95.263C69.2737 95.3789 69.3189 95.4696 69.4215 95.5351C69.5607 95.6239 69.7856 95.6591 70.0963 95.6408C70.4069 95.6225 70.7432 95.5639 71.1053 95.465C71.4627 95.3734 71.8194 95.2505 72.1755 95.0962C72.539 94.9467 72.8358 94.7804 73.0659 94.5973L74.4426 91.1304ZM86.379 95.7143C86.1006 95.5367 85.7294 95.4803 85.2654 95.5451C84.8087 95.6146 84.3356 95.7663 83.8461 96.0004C83.3613 96.2272 82.8993 96.515 82.4603 96.8637C82.026 97.2052 81.6874 97.5664 81.4443 97.9474C81.276 98.2112 81.1954 98.4587 81.2025 98.69C81.2143 98.914 81.3154 99.0868 81.5059 99.2083C81.6744 99.3158 81.8923 99.362 82.1596 99.347C82.4316 99.3246 82.722 99.2573 83.0307 99.145C83.3514 99.0301 83.6799 98.8788 84.0161 98.6912C84.3522 98.5036 84.6747 98.297 84.9836 98.0714C85.2971 97.8384 85.5804 97.5964 85.8333 97.3454C86.0862 97.0944 86.2874 96.8517 86.437 96.6172C86.5585 96.4267 86.614 96.2508 86.6036 96.0895C86.5931 95.9282 86.5182 95.8031 86.379 95.7143ZM87.8055 95.9749L88.7177 96.5568L87.0185 97.8387C86.7383 98.0517 86.4465 98.283 86.1429 98.5326C85.8467 98.7869 85.5648 99.0349 85.2972 99.2765C85.037 99.5229 84.8077 99.7529 84.6095 99.9667C84.4113 100.18 84.2748 100.346 84.2 100.463C84.0645 100.676 84.0663 100.826 84.2055 100.915C84.3081 100.98 84.5224 100.968 84.8485 100.877C85.1819 100.79 85.5769 100.656 86.0337 100.473L86.1723 100.886C85.5186 101.232 84.9165 101.441 84.3658 101.512C83.8272 101.581 83.393 101.51 83.0633 101.3C82.8948 101.192 82.8026 101.046 82.7868 100.86C82.783 100.672 82.8746 100.432 83.0616 100.139C83.1037 100.073 83.1527 99.996 83.2088 99.9081C83.2722 99.8248 83.358 99.7146 83.4661 99.5774L83.4292 99.5384C83.1884 99.6734 82.935 99.7798 82.669 99.8575C82.4149 99.9325 82.1579 99.9799 81.8979 99.9996C81.6426 100.012 81.3987 99.9904 81.1661 99.9348C80.9289 99.8865 80.7187 99.804 80.5355 99.6871C80.1618 99.4488 79.9576 99.1226 79.9227 98.7086C79.8998 98.292 80.0473 97.8345 80.3652 97.3363C80.6877 96.8308 81.1234 96.382 81.6725 95.99C82.2215 95.598 82.8 95.297 83.4082 95.0871C84.021 94.8698 84.619 94.7565 85.2023 94.7471C85.7902 94.7305 86.282 94.8483 86.6777 95.1007C86.9194 95.255 87.0799 95.4398 87.159 95.6552C87.2427 95.8633 87.2504 96.1259 87.1821 96.4431L87.8055 95.9749ZM90.5866 103.888C89.2808 104.529 88.1626 104.553 87.2321 103.959C86.7265 103.637 86.4364 103.235 86.3616 102.754C86.2915 102.266 86.4387 101.737 86.8033 101.165C87.1258 100.66 87.5509 100.219 88.0786 99.8447C88.6135 99.4747 89.1781 99.1957 89.7722 99.0078C90.371 98.8125 90.9587 98.7235 91.5352 98.7408C92.1165 98.7508 92.6159 98.889 93.0335 99.1554C93.3852 99.3798 93.6126 99.6536 93.7155 99.977C93.8305 100.298 93.7991 100.597 93.6215 100.876C93.4579 101.132 93.1944 101.335 92.831 101.485C92.4675 101.634 92.0438 101.725 91.5599 101.756C91.0832 101.792 90.562 101.769 89.9962 101.687C89.4377 101.609 88.8779 101.468 88.3169 101.265C88.2368 101.358 88.1604 101.454 88.0876 101.551C88.0196 101.642 87.9528 101.739 87.8873 101.841C87.3779 102.64 87.4052 103.219 87.9694 103.579C88.2405 103.752 88.5867 103.823 89.008 103.793C89.4366 103.768 89.8947 103.648 90.3822 103.433L90.5866 103.888ZM92.4842 99.5317C92.2937 99.4102 92.0491 99.3573 91.7505 99.3729C91.4519 99.3886 91.1278 99.4602 90.7784 99.5878C90.441 99.7127 90.0949 99.8837 89.74 100.101C89.3851 100.317 89.0526 100.564 88.7423 100.84C89.1548 100.969 89.5603 101.053 89.9589 101.091C90.3574 101.128 90.7237 101.12 91.0577 101.065C91.4037 101.007 91.7068 100.912 91.9669 100.779C92.2317 100.639 92.4342 100.459 92.5744 100.239C92.7707 99.931 92.7406 99.6953 92.4842 99.5317ZM94.1485 102.233C94.3028 101.991 94.4893 101.795 94.7081 101.646C94.9342 101.502 95.1746 101.408 95.4293 101.364C95.6886 101.313 95.9539 101.317 96.2251 101.377C96.5084 101.434 96.7819 101.547 97.0456 101.715C97.3973 101.939 97.6343 102.214 97.7566 102.54C97.8789 102.865 97.8512 103.167 97.6736 103.445C97.5754 103.599 97.4544 103.692 97.3103 103.724C97.1737 103.76 97.032 103.732 96.8855 103.638C96.717 103.531 96.6265 103.406 96.614 103.264C96.6061 103.115 96.614 102.965 96.6375 102.815C96.6656 102.658 96.6831 102.509 96.69 102.369C96.6968 102.229 96.6306 102.115 96.4914 102.026C96.3302 101.923 96.1502 101.906 95.9515 101.976C95.7528 102.045 95.588 102.182 95.4571 102.387C95.3029 102.629 95.2276 102.9 95.2313 103.202C95.2469 103.5 95.2702 103.819 95.3012 104.159C95.3321 104.498 95.3307 104.847 95.297 105.207C95.2706 105.572 95.1405 105.937 94.9068 106.304C94.7479 106.553 94.5434 106.752 94.2933 106.902C94.0505 107.056 93.7837 107.159 93.493 107.211C93.2144 107.26 92.9274 107.257 92.6322 107.203C92.337 107.149 92.0648 107.042 91.8157 106.883C91.3761 106.603 91.0851 106.283 90.9429 105.924C90.808 105.57 90.8387 105.239 91.035 104.932C91.1705 104.719 91.3233 104.585 91.4934 104.528C91.6754 104.469 91.8507 104.493 92.0192 104.601C92.3343 104.802 92.3759 105.132 92.1441 105.593C92.0165 105.841 91.9526 106.022 91.9525 106.135C91.9644 106.246 92.0546 106.355 92.2231 106.463C92.4869 106.631 92.7448 106.687 92.9968 106.632C93.2535 106.569 93.4706 106.398 93.6482 106.119C93.8352 105.826 93.9279 105.519 93.9262 105.199C93.9246 104.878 93.9036 104.556 93.8633 104.231C93.8277 103.899 93.8137 103.565 93.8215 103.23C93.8292 102.895 93.9382 102.562 94.1485 102.233ZM100.491 105.351L97.6512 107.792C97.2742 108.108 97.0166 108.366 96.8784 108.567C96.8364 108.633 96.8136 108.701 96.8102 108.77C96.8141 108.845 96.8564 108.908 96.937 108.96C97.0689 109.044 97.2385 109.085 97.4458 109.083C97.6578 109.074 97.8717 109.046 98.0878 108.998C98.3158 108.947 98.5255 108.885 98.7169 108.812C98.9203 108.735 99.0733 108.673 99.176 108.625L99.3755 109.015C99.0921 109.185 98.7803 109.326 98.4402 109.439C98.1048 109.545 97.7748 109.618 97.4501 109.658C97.1255 109.698 96.8182 109.703 96.5283 109.673C96.2503 109.64 96.0235 109.567 95.8476 109.455C95.5912 109.292 95.4394 109.118 95.3923 108.933C95.3525 108.753 95.4144 108.535 95.578 108.278C95.6715 108.132 95.8233 107.95 96.0335 107.734C96.2437 107.517 96.549 107.233 96.9493 106.88L99.4804 104.706L98.5352 104.103L99.0006 103.689L99.9567 104.299L101.734 102.773L102.745 103.418L100.968 104.944L102.166 105.708L101.689 106.115L100.491 105.351ZM104.882 110.255C105.245 109.961 105.522 109.72 105.714 109.533C105.912 109.351 106.066 109.175 106.173 109.007C106.281 108.838 106.326 108.702 106.309 108.599C106.305 108.493 106.237 108.398 106.105 108.314C105.878 108.169 105.598 108.114 105.266 108.15C104.934 108.185 104.535 108.318 104.07 108.546C103.612 108.78 103.077 109.109 102.466 109.533C101.855 109.958 101.157 110.487 100.372 111.12L99.6351 111.717L98.7119 111.128L105.642 105.065C105.81 104.914 105.953 104.779 106.071 104.658C106.189 104.538 106.274 104.437 106.325 104.356C106.419 104.21 106.415 104.063 106.313 103.916C106.211 103.768 105.978 103.568 105.614 103.315L105.971 102.924L108.213 104.355L104.254 107.798L104.273 107.841C104.727 107.646 105.166 107.555 105.591 107.568C106.02 107.574 106.403 107.684 106.74 107.899C107.092 108.124 107.294 108.397 107.346 108.719C107.398 109.041 107.301 109.396 107.053 109.784C106.899 110.026 106.682 110.285 106.403 110.561C106.124 110.836 105.775 111.134 105.354 111.453C104.956 111.755 104.643 111.994 104.418 112.17C104.192 112.346 104.022 112.484 103.905 112.585C103.794 112.679 103.717 112.744 103.674 112.778C103.639 112.817 103.612 112.852 103.593 112.881C103.486 113.05 103.501 113.178 103.641 113.267C103.787 113.361 104.02 113.391 104.34 113.358C104.672 113.322 105.047 113.221 105.463 113.053L105.623 113.48C105.37 113.618 105.095 113.726 104.798 113.804C104.508 113.887 104.214 113.937 103.915 113.952C103.628 113.965 103.351 113.948 103.082 113.9C102.825 113.85 102.606 113.766 102.422 113.65C102.225 113.523 102.117 113.377 102.099 113.211C102.081 113.045 102.149 112.841 102.304 112.6C102.383 112.475 102.478 112.35 102.589 112.225C102.7 112.1 102.846 111.951 103.028 111.779C103.223 111.604 103.463 111.396 103.75 111.157C104.049 110.914 104.426 110.614 104.882 110.255ZM110.11 116.342C108.804 116.983 107.686 117.007 106.755 116.414C106.25 116.091 105.959 115.689 105.885 115.209C105.814 114.721 105.962 114.191 106.326 113.62C106.649 113.114 107.074 112.674 107.602 112.299C108.137 111.929 108.701 111.65 109.295 111.462C109.894 111.267 110.482 111.178 111.058 111.195C111.639 111.205 112.139 111.343 112.557 111.61C112.908 111.834 113.136 112.108 113.238 112.431C113.353 112.752 113.322 113.052 113.145 113.33C112.981 113.587 112.717 113.79 112.354 113.939C111.991 114.089 111.567 114.179 111.083 114.211C110.606 114.247 110.085 114.224 109.519 114.141C108.961 114.063 108.401 113.922 107.84 113.719C107.76 113.812 107.683 113.908 107.611 114.006C107.543 114.096 107.476 114.193 107.41 114.296C106.901 115.094 106.928 115.674 107.492 116.033C107.763 116.206 108.11 116.278 108.531 116.248C108.96 116.222 109.418 116.102 109.905 115.887L110.11 116.342ZM112.007 111.986C111.817 111.865 111.572 111.812 111.273 111.827C110.975 111.843 110.651 111.915 110.301 112.042C109.964 112.167 109.618 112.338 109.263 112.555C108.908 112.772 108.576 113.018 108.265 113.295C108.678 113.424 109.083 113.507 109.482 113.545C109.88 113.583 110.247 113.574 110.581 113.519C110.927 113.462 111.23 113.366 111.49 113.233C111.755 113.093 111.957 112.913 112.097 112.693C112.294 112.385 112.264 112.15 112.007 111.986ZM115.829 115.135L112.988 117.576C112.611 117.892 112.354 118.15 112.216 118.351C112.174 118.417 112.151 118.485 112.147 118.555C112.151 118.629 112.194 118.692 112.274 118.744C112.406 118.828 112.576 118.869 112.783 118.867C112.995 118.858 113.209 118.83 113.425 118.782C113.653 118.732 113.863 118.67 114.054 118.596C114.257 118.519 114.411 118.457 114.513 118.409L114.713 118.799C114.429 118.969 114.117 119.11 113.777 119.223C113.442 119.329 113.112 119.402 112.787 119.442C112.463 119.483 112.155 119.488 111.865 119.457C111.588 119.424 111.361 119.352 111.185 119.239C110.928 119.076 110.777 118.902 110.729 118.717C110.69 118.537 110.752 118.319 110.915 118.062C111.009 117.916 111.16 117.734 111.371 117.518C111.581 117.302 111.886 117.017 112.287 116.664L114.818 114.49L113.872 113.887L114.338 113.473L115.294 114.083L117.071 112.557L118.082 113.202L116.305 114.728L117.503 115.492L117.027 115.9L115.829 115.135ZM117.879 118.253C118.164 118.032 118.385 117.848 118.541 117.701C118.697 117.553 118.808 117.428 118.873 117.325C118.939 117.222 118.962 117.145 118.945 117.092C118.939 117.037 118.917 116.997 118.881 116.974C118.8 116.923 118.686 116.907 118.54 116.927C118.398 116.939 118.246 116.966 118.086 117.008C117.925 117.05 117.775 117.099 117.637 117.155C117.498 117.211 117.395 117.258 117.329 117.298L117.136 116.897C117.327 116.792 117.562 116.69 117.842 116.59C118.13 116.495 118.426 116.426 118.731 116.384C119.037 116.342 119.331 116.333 119.613 116.359C119.901 116.377 120.139 116.447 120.33 116.569C120.513 116.686 120.614 116.827 120.631 116.993C120.661 117.156 120.587 117.377 120.41 117.656C120.274 117.868 120.026 118.112 119.665 118.387C119.311 118.666 118.852 119.023 118.287 119.456L117.172 120.307C117.134 120.334 117.075 120.379 116.994 120.44C116.925 120.5 116.848 120.564 116.763 120.633C116.69 120.7 116.616 120.766 116.543 120.833C116.477 120.904 116.427 120.965 116.395 121.017C116.352 121.083 116.333 121.153 116.337 121.228C116.341 121.302 116.384 121.365 116.464 121.417C116.574 121.487 116.716 121.515 116.889 121.502C117.067 121.482 117.251 121.444 117.44 121.39C117.629 121.335 117.808 121.274 117.975 121.205C118.147 121.13 118.279 121.069 118.369 121.024L118.58 121.421C118.38 121.541 118.135 121.658 117.845 121.772C117.563 121.891 117.269 121.981 116.961 122.043C116.659 122.097 116.354 122.114 116.047 122.094C115.745 122.066 115.474 121.975 115.232 121.821C115.019 121.686 114.893 121.528 114.853 121.348C114.821 121.173 114.887 120.957 115.05 120.7C115.186 120.488 115.364 120.282 115.584 120.082C115.816 119.88 116.117 119.634 116.487 119.344L117.879 118.253ZM122.117 115.173C121.934 115.056 121.813 114.891 121.753 114.678C121.7 114.469 121.737 114.266 121.863 114.068C121.99 113.87 122.163 113.744 122.384 113.689C122.605 113.633 122.81 113.667 123.001 113.788C123.206 113.919 123.33 114.096 123.373 114.32C123.416 114.543 123.377 114.75 123.255 114.94C123.134 115.131 122.961 115.248 122.738 115.291C122.515 115.334 122.308 115.295 122.117 115.173ZM123.132 124.217C122.436 124.629 121.781 124.865 121.165 124.926C120.556 124.991 120.021 124.876 119.559 124.582C119.083 124.278 118.805 123.874 118.725 123.369C118.649 122.857 118.785 122.33 119.131 121.788C119.336 121.465 119.594 121.166 119.904 120.89C120.215 120.614 120.551 120.369 120.913 120.157C121.275 119.945 121.655 119.77 122.052 119.631C122.45 119.493 122.839 119.401 123.219 119.355C123.599 119.309 123.958 119.311 124.296 119.362C124.647 119.41 124.95 119.516 125.207 119.68C125.559 119.904 125.787 120.184 125.893 120.52C125.998 120.855 125.96 121.166 125.778 121.451C125.661 121.635 125.51 121.75 125.326 121.797C125.153 121.841 124.982 121.81 124.814 121.702C124.645 121.595 124.539 121.455 124.494 121.282C124.462 121.107 124.495 120.942 124.593 120.788C124.654 120.693 124.717 120.625 124.784 120.585C124.851 120.545 124.9 120.5 124.933 120.449C124.999 120.346 124.943 120.239 124.767 120.126C124.526 119.972 124.208 119.929 123.814 119.997C123.42 120.066 123.006 120.214 122.571 120.442C122.145 120.675 121.723 120.973 121.306 121.335C120.901 121.696 120.558 122.095 120.277 122.535C120.053 122.887 119.941 123.207 119.942 123.496C119.955 123.783 120.083 124.004 120.325 124.158C120.457 124.242 120.615 124.292 120.801 124.307C120.995 124.328 121.204 124.322 121.43 124.291C121.661 124.253 121.898 124.188 122.142 124.096C122.394 124.009 122.642 123.894 122.888 123.752L123.132 124.217ZM124.624 127.813C124.434 127.691 124.315 127.523 124.267 127.307C124.219 127.091 124.256 126.887 124.378 126.697C124.504 126.499 124.675 126.376 124.891 126.329C125.119 126.278 125.328 126.314 125.519 126.435C125.709 126.557 125.826 126.729 125.869 126.953C125.919 127.181 125.884 127.39 125.762 127.58C125.641 127.771 125.468 127.888 125.245 127.931C125.029 127.978 124.822 127.939 124.624 127.813ZM126.145 124.144C126.369 123.793 126.634 123.539 126.94 123.383C127.257 123.225 127.593 123.119 127.946 123.066C128.307 123.018 128.67 122.998 129.037 123.005C129.408 123.004 129.761 122.993 130.096 122.969C130.438 122.95 130.743 122.892 131.011 122.795C131.286 122.703 131.503 122.532 131.662 122.283C131.859 121.975 131.908 121.656 131.809 121.325C131.716 120.987 131.493 120.706 131.141 120.481C130.834 120.285 130.525 120.196 130.214 120.214C129.915 120.23 129.691 120.355 129.542 120.59C129.448 120.736 129.425 120.861 129.473 120.964C129.526 121.059 129.588 121.155 129.66 121.253C129.736 121.343 129.799 121.439 129.846 121.542C129.894 121.645 129.867 121.777 129.764 121.938C129.657 122.106 129.517 122.203 129.347 122.228C129.183 122.258 129.007 122.212 128.816 122.091C128.516 121.899 128.331 121.631 128.261 121.288C128.199 120.949 128.268 120.623 128.469 120.308C128.609 120.088 128.794 119.912 129.023 119.779C129.259 119.651 129.515 119.573 129.792 119.543C130.068 119.513 130.357 119.538 130.657 119.616C130.963 119.687 131.255 119.811 131.533 119.989C131.811 120.167 132.036 120.372 132.207 120.605C132.383 120.83 132.499 121.069 132.554 121.321C132.617 121.578 132.623 121.844 132.57 122.12C132.523 122.388 132.415 122.655 132.247 122.918C132.008 123.292 131.72 123.567 131.381 123.742C131.054 123.915 130.703 124.037 130.329 124.107C129.958 124.17 129.581 124.197 129.195 124.188C128.809 124.179 128.447 124.18 128.11 124.191C127.772 124.203 127.469 124.242 127.201 124.307C126.944 124.37 126.753 124.501 126.626 124.699C126.439 124.992 126.515 125.246 126.852 125.461C127.189 125.676 127.579 125.662 128.022 125.419L128.207 125.784C127.564 126.178 126.975 126.205 126.44 125.863C126.118 125.658 125.931 125.41 125.879 125.119C125.832 124.821 125.921 124.496 126.145 124.144Z" fill="#65493B"/>
</svg>
