<svg width="257" height="245" viewBox="0 0 257 245" fill="none" xmlns="http://www.w3.org/2000/svg">
<path d="M34.5856 142.66C31.9984 138.771 33.0573 133.52 36.9501 130.939L150.573 55.6019C153.856 53.4251 158.237 53.7778 161.205 56.4476C169.683 64.0725 185.435 77.6878 201.006 88.2058C208.779 93.4564 216.619 98.0126 223.553 100.643C226.102 101.61 228.649 102.363 231.093 102.758C229.799 103.633 228.388 104.588 226.868 105.612C215.908 112.995 199.396 124.06 181.231 136.211C144.902 160.512 101.977 189.15 83.6774 201.356C79.8167 203.93 74.6398 202.864 72.0378 198.953L34.5856 142.66Z" fill="#FCFDE5" stroke="#CC99D8" stroke-width="4.88127"/>
<path d="M64.1306 140.052C64.1704 139.265 64.19 138.667 64.1896 138.26C64.1839 137.846 64.1371 137.576 64.049 137.451C63.9764 137.348 63.8709 137.323 63.7324 137.377C63.5962 137.418 63.4103 137.521 63.1748 137.687L62.9742 137.168L65.8328 135.154L66.0334 135.674C65.8568 135.798 65.6999 135.958 65.5626 136.154C65.4274 136.337 65.3102 136.585 65.2108 136.897C65.1136 137.197 65.0322 137.573 64.9664 138.027C64.9006 138.481 64.8572 139.028 64.8362 139.671L64.4575 149.003L63.5304 149.656L61.0142 143.552L60.6828 151.662L59.7557 152.315L56.5167 144.457C56.3355 144.012 56.1801 143.698 56.0505 143.514C55.9003 143.301 55.7293 143.206 55.5377 143.231C55.346 143.256 55.0479 143.411 54.6432 143.696L54.4426 143.177L57.4888 141.031L57.6894 141.551C57.5349 141.66 57.4154 141.771 57.3309 141.886C57.2487 141.988 57.1997 142.121 57.1839 142.287C57.1755 142.447 57.203 142.642 57.2664 142.872C57.3371 143.098 57.4429 143.381 57.584 143.722L59.9753 149.485L60.0195 149.454L60.3794 142.017L60.2914 141.799C60.1102 141.354 59.9548 141.039 59.8252 140.855C59.6749 140.642 59.5113 140.543 59.3344 140.557C59.1575 140.572 58.8888 140.706 58.5282 140.96L58.3276 140.441L61.4842 138.217L61.6848 138.737C61.4714 138.887 61.3078 139.03 61.1939 139.165C61.0748 139.293 61.0038 139.442 60.9807 139.612C60.9524 139.775 60.9699 139.972 61.0332 140.203C61.104 140.428 61.2124 140.715 61.3587 141.063L63.75 146.826L63.7941 146.795L64.1306 140.052ZM71.7459 138.569C71.6067 138.105 71.4851 137.745 71.3811 137.488C71.2845 137.226 71.1766 137.01 71.0574 136.841C70.9382 136.672 70.8258 136.575 70.7203 136.55C70.617 136.513 70.4991 136.541 70.3667 136.634C70.1386 136.795 69.9763 137.041 69.88 137.373C69.7836 137.705 69.7535 138.139 69.7898 138.675C69.8333 139.206 69.9384 139.847 70.105 140.6C70.2716 141.352 70.5039 142.229 70.8017 143.23L71.0843 144.17L70.1571 144.823L67.0718 135.801C66.9937 135.581 66.9202 135.39 66.8511 135.23C66.7821 135.069 66.7191 134.949 66.6621 134.868C66.5584 134.72 66.416 134.667 66.2347 134.706C66.0534 134.746 65.77 134.89 65.3844 135.14L65.1507 134.644L67.4022 133.058L69.1447 138.205L69.1934 138.204C69.1853 137.692 69.2709 137.235 69.4504 136.834C69.6247 136.425 69.8811 136.101 70.2195 135.863C70.5727 135.614 70.9139 135.528 71.2429 135.604C71.572 135.681 71.8738 135.914 72.1485 136.304C72.3196 136.547 72.4823 136.856 72.6367 137.231C72.7912 137.607 72.9389 138.059 73.0798 138.587C73.2125 139.088 73.3187 139.481 73.3984 139.766C73.4781 140.051 73.5436 140.269 73.5949 140.42C73.6411 140.564 73.6723 140.663 73.6887 140.718C73.7125 140.767 73.7347 140.806 73.7554 140.836C73.8746 141.005 74.0041 141.04 74.1439 140.942C74.2911 140.838 74.4118 140.627 74.5059 140.307C74.6023 139.975 74.652 139.577 74.6551 139.112L75.1274 139.126C75.1599 139.423 75.1553 139.729 75.1135 140.044C75.079 140.355 75.0105 140.656 74.9082 140.949C74.808 141.228 74.6823 141.487 74.5311 141.726C74.3821 141.952 74.2156 142.13 74.0316 142.259C73.833 142.399 73.6506 142.445 73.4846 142.397C73.3185 142.349 73.15 142.203 72.979 141.961C72.8909 141.835 72.8086 141.695 72.7322 141.54C72.6558 141.385 72.5708 141.186 72.4772 140.943C72.3858 140.689 72.2817 140.377 72.1648 140.008C72.0502 139.626 71.9105 139.146 71.7459 138.569ZM79.6329 135.953C79.7339 137.456 79.3171 138.537 78.3826 139.195C77.8749 139.552 77.3761 139.673 76.8862 139.555C76.3911 139.431 75.9414 139.081 75.5372 138.507C75.1796 138 74.925 137.419 74.7734 136.767C74.6292 136.109 74.5838 135.458 74.6373 134.815C74.6855 134.165 74.8312 133.567 75.0744 133.021C75.3124 132.468 75.6411 132.044 76.0606 131.748C76.4137 131.5 76.7655 131.39 77.1158 131.418C77.4683 131.434 77.743 131.582 77.9399 131.861C78.1213 132.119 78.2122 132.451 78.2127 132.858C78.2131 133.265 78.1333 133.707 77.9732 134.183C77.8205 134.653 77.5934 135.144 77.2918 135.653C76.9976 136.158 76.6429 136.639 76.2276 137.096C76.2855 137.21 76.347 137.321 76.4122 137.429C76.4722 137.53 76.5385 137.632 76.6111 137.735C77.176 138.537 77.7417 138.738 78.3083 138.339C78.5805 138.147 78.785 137.844 78.9216 137.428C79.0657 137.007 79.1306 136.521 79.1165 135.97L79.6329 135.953ZM76.2052 132.423C76.0139 132.557 75.867 132.771 75.7647 133.063C75.6623 133.355 75.6036 133.694 75.5885 134.079C75.5755 134.451 75.6032 134.85 75.6716 135.275C75.7399 135.701 75.8454 136.116 75.9882 136.522C76.274 136.178 76.5133 135.822 76.7062 135.455C76.899 135.088 77.0348 134.734 77.1134 134.392C77.1942 134.038 77.222 133.71 77.1968 133.409C77.1664 133.1 77.0735 132.835 76.918 132.614C76.7003 132.305 76.4627 132.241 76.2052 132.423ZM78.7978 132.281C78.7491 132.04 78.7384 131.767 78.7655 131.461C78.7948 131.144 78.8507 130.84 78.9332 130.551C79.0178 130.249 79.1232 129.977 79.2493 129.734C79.3754 129.491 79.5121 129.317 79.6592 129.214C79.8358 129.089 80.0112 129.065 80.1855 129.14C80.3597 129.216 80.5505 129.401 80.7578 129.695C80.8407 129.813 80.9137 129.932 80.9767 130.053C81.0471 130.168 81.1194 130.31 81.1936 130.478L81.25 130.488C81.188 130.212 81.1654 129.914 81.1822 129.594C81.1989 129.274 81.2449 128.972 81.32 128.688C81.3973 128.391 81.4979 128.128 81.6218 127.897C81.7479 127.655 81.8956 127.473 82.0648 127.354C82.2782 127.204 82.504 127.149 82.7423 127.191C82.9828 127.22 83.173 127.333 83.3129 127.532C83.4476 127.723 83.4965 127.926 83.4595 128.139C83.4299 128.347 83.3194 128.518 83.1281 128.653C83.0104 128.736 82.8992 128.781 82.7945 128.789C82.6972 128.791 82.6073 128.789 82.5246 128.781C82.4369 128.765 82.3554 128.751 82.2801 128.738C82.2049 128.725 82.1341 128.742 82.0679 128.789C81.9281 128.887 81.8336 129.097 81.7844 129.418C81.73 129.731 81.7175 130.12 81.7469 130.583C81.7762 131.047 81.8445 131.566 81.9516 132.14C82.066 132.709 82.2185 133.301 82.4091 133.915L82.9852 135.788L81.9588 136.511L81.067 133.721C80.8958 133.181 80.7533 132.736 80.6395 132.387C80.5279 132.026 80.4304 131.731 80.3472 131.503C80.2588 131.268 80.183 131.091 80.12 130.97C80.0643 130.844 80.008 130.74 79.951 130.659C79.837 130.498 79.7248 130.456 79.6144 130.533C79.5408 130.585 79.4696 130.679 79.4007 130.816C79.3391 130.947 79.2879 131.093 79.2471 131.254C79.2063 131.415 79.1769 131.584 79.159 131.762C79.1485 131.935 79.1574 132.088 79.1858 132.222L78.7978 132.281ZM89.6137 128.923C89.7146 130.426 89.2979 131.507 88.3634 132.165C87.8557 132.522 87.3569 132.643 86.867 132.525C86.3719 132.401 85.9222 132.051 85.518 131.478C85.1604 130.97 84.9058 130.39 84.7542 129.737C84.61 129.079 84.5646 128.428 84.618 127.785C84.6663 127.135 84.812 126.537 85.0552 125.991C85.2932 125.438 85.6219 125.014 86.0413 124.719C86.3945 124.47 86.7463 124.36 87.0966 124.388C87.4491 124.404 87.7238 124.552 87.9207 124.831C88.1021 125.089 88.193 125.421 88.1935 125.828C88.1939 126.235 88.1141 126.677 87.954 127.153C87.8013 127.624 87.5741 128.114 87.2726 128.623C86.9784 129.128 86.6237 129.609 86.2084 130.067C86.2663 130.18 86.3278 130.291 86.393 130.399C86.453 130.5 86.5193 130.602 86.5918 130.705C87.1567 131.507 87.7225 131.708 88.289 131.309C88.5613 131.117 88.7657 130.814 88.9024 130.398C89.0464 129.978 89.1114 129.491 89.0972 128.94L89.6137 128.923ZM86.186 125.393C85.9947 125.528 85.8478 125.741 85.7454 126.033C85.6431 126.326 85.5843 126.664 85.5692 127.049C85.5563 127.421 85.584 127.82 85.6523 128.245C85.7207 128.671 85.8262 129.086 85.969 129.492C86.2548 129.148 86.4941 128.792 86.6869 128.425C86.8798 128.058 87.0155 127.704 87.0942 127.362C87.175 127.008 87.2028 126.68 87.1776 126.379C87.1472 126.07 87.0542 125.805 86.8988 125.584C86.6811 125.275 86.4435 125.211 86.186 125.393ZM97.4911 122.912C97.6122 123.741 97.5808 124.462 97.3967 125.076C97.2201 125.685 96.9 126.152 96.4364 126.479C95.9581 126.816 95.4615 126.923 94.9465 126.802C94.4263 126.673 93.9745 126.336 93.591 125.791C93.3629 125.468 93.1775 125.103 93.0348 124.697C92.8921 124.291 92.7902 123.873 92.7292 123.443C92.6682 123.012 92.6497 122.579 92.6735 122.144C92.6973 121.709 92.7617 121.301 92.8668 120.918C92.9718 120.536 93.1153 120.193 93.2973 119.889C93.4814 119.572 93.7023 119.323 93.9598 119.141C94.313 118.892 94.671 118.783 95.0339 118.814C95.3967 118.845 95.6792 119.003 95.8813 119.29C96.0109 119.474 96.0619 119.664 96.0345 119.86C96.0092 120.042 95.912 120.194 95.7427 120.313C95.5735 120.432 95.3974 120.479 95.2145 120.454C95.0337 120.416 94.8889 120.32 94.7801 120.165C94.7127 120.069 94.673 119.982 94.661 119.902C94.649 119.823 94.6248 119.757 94.5885 119.706C94.516 119.603 94.3914 119.613 94.2148 119.738C93.972 119.909 93.8058 120.196 93.7163 120.601C93.6268 121.005 93.606 121.46 93.6539 121.966C93.7092 122.466 93.8287 122.987 94.0124 123.53C94.1983 124.059 94.4467 124.545 94.7576 124.986C95.0064 125.339 95.2696 125.572 95.5471 125.685C95.8269 125.785 96.0881 125.75 96.3309 125.579C96.4634 125.485 96.5736 125.353 96.6616 125.181C96.7569 125.004 96.8341 124.801 96.8932 124.572C96.947 124.336 96.978 124.083 96.9861 123.813C97.0015 123.538 96.9892 123.255 96.9493 122.964L97.4911 122.912ZM99.3683 116.19C99.0887 116.387 98.8888 116.721 98.7685 117.191C98.6556 117.656 98.615 118.169 98.6469 118.73C98.6736 119.283 98.7677 119.839 98.9293 120.397C99.0858 120.947 99.2987 121.413 99.5682 121.796C99.7548 122.061 99.9603 122.235 100.185 122.319C100.404 122.396 100.609 122.367 100.8 122.233C100.97 122.113 101.1 121.923 101.19 121.661C101.276 121.391 101.325 121.087 101.339 120.747C101.355 120.394 101.339 120.02 101.292 119.624C101.244 119.229 101.173 118.838 101.078 118.454C100.978 118.062 100.858 117.695 100.717 117.354C100.575 117.013 100.422 116.725 100.256 116.49C100.121 116.298 99.9747 116.176 99.816 116.123C99.6574 116.069 99.5081 116.092 99.3683 116.19ZM100.179 114.926L101.095 114.281L101.655 116.413C101.749 116.765 101.856 117.135 101.976 117.524C102.103 117.908 102.23 118.276 102.356 118.627C102.49 118.973 102.62 119.283 102.747 119.557C102.874 119.831 102.979 120.027 103.062 120.145C103.212 120.358 103.357 120.415 103.497 120.317C103.6 120.244 103.672 120.034 103.713 119.686C103.761 119.333 103.788 118.901 103.792 118.392L104.242 118.421C104.317 119.183 104.28 119.842 104.132 120.398C103.986 120.941 103.747 121.329 103.416 121.562C103.247 121.682 103.071 121.712 102.887 121.655C102.705 121.584 102.511 121.402 102.303 121.108C102.257 121.042 102.202 120.964 102.14 120.876C102.085 120.783 102.014 120.657 101.925 120.5L101.873 120.52C101.907 120.803 101.91 121.088 101.88 121.373C101.852 121.646 101.796 121.911 101.713 122.168C101.624 122.417 101.508 122.643 101.363 122.844C101.223 123.052 101.062 123.221 100.878 123.35C100.503 123.615 100.11 123.682 99.6994 123.553C99.2913 123.411 98.911 123.09 98.5586 122.59C98.201 122.082 97.9423 121.488 97.7825 120.808C97.6228 120.128 97.5618 119.455 97.5997 118.79C97.6324 118.118 97.7589 117.5 97.9792 116.938C98.1943 116.368 98.5005 115.943 98.8979 115.663C99.1407 115.492 99.3808 115.411 99.6182 115.42C99.8505 115.421 100.105 115.517 100.382 115.707L100.179 114.926ZM106.689 111.034C106.513 111.158 106.375 111.393 106.277 111.737C106.18 112.069 106.121 112.469 106.098 112.937C106.077 113.392 106.095 113.886 106.151 114.419C106.207 114.952 106.301 115.468 106.434 115.969L107.172 118.752L106.201 119.436L105.237 116.333C105.085 115.835 104.951 115.412 104.838 115.063C104.724 114.714 104.625 114.425 104.542 114.198C104.461 113.958 104.39 113.771 104.329 113.638C104.263 113.497 104.204 113.39 104.152 113.316C104.012 113.118 103.88 113.062 103.755 113.15C103.674 113.207 103.614 113.326 103.577 113.507C103.539 113.688 103.521 113.904 103.522 114.156C103.526 114.396 103.551 114.659 103.598 114.945C103.646 115.231 103.71 115.51 103.792 115.782L103.345 115.85C103.068 114.911 102.961 114.15 103.024 113.566C103.094 112.978 103.335 112.538 103.747 112.248C103.982 112.082 104.194 112.032 104.383 112.097C104.579 112.157 104.789 112.345 105.012 112.661C105.276 113.036 105.449 113.415 105.532 113.798L105.588 113.808C105.497 112.881 105.536 112.132 105.707 111.561C105.879 110.977 106.193 110.525 106.649 110.203C106.973 109.975 107.274 109.879 107.552 109.914C107.83 109.95 108.07 110.111 108.272 110.398C108.34 110.493 108.404 110.608 108.465 110.741C108.533 110.869 108.605 111.033 108.68 111.234C108.749 111.427 108.824 111.666 108.904 111.951C108.991 112.231 109.096 112.575 109.219 112.984C109.402 113.604 109.558 114.121 109.686 114.538C109.814 114.954 109.927 115.232 110.025 115.372C110.103 115.482 110.179 115.511 110.252 115.46C110.355 115.387 110.447 115.196 110.526 114.887C110.606 114.578 110.682 114.116 110.757 113.503L111.152 113.455C111.19 113.759 111.188 114.085 111.147 114.433C111.109 114.768 111.046 115.093 110.959 115.408C110.879 115.717 110.777 115.993 110.651 116.236C110.524 116.479 110.388 116.652 110.241 116.756C110.057 116.885 109.853 116.908 109.628 116.824C109.411 116.735 109.209 116.557 109.023 116.293C108.95 116.19 108.885 116.081 108.827 115.968C108.771 115.842 108.703 115.659 108.622 115.419C108.541 115.179 108.439 114.854 108.316 114.445C108.196 114.024 108.04 113.467 107.85 112.776C107.782 112.538 107.723 112.337 107.674 112.173C107.625 112.01 107.577 111.873 107.532 111.761C107.489 111.638 107.445 111.536 107.401 111.458C107.363 111.374 107.322 111.299 107.275 111.232C107.083 110.96 106.888 110.894 106.689 111.034ZM116.594 109.341C116.734 109.727 116.871 110.016 117.006 110.207C117.182 110.457 117.379 110.572 117.596 110.552C117.82 110.526 118.108 110.389 118.461 110.14L118.64 110.675L115.119 113.155L114.93 112.628C115.15 112.472 115.328 112.325 115.461 112.187C115.59 112.041 115.676 111.882 115.719 111.708C115.769 111.53 115.775 111.327 115.737 111.101C115.699 110.875 115.62 110.6 115.502 110.276L113.357 104.488C113.183 104.005 113.026 103.665 112.886 103.466C112.725 103.238 112.539 103.154 112.329 103.214C112.12 103.262 111.817 103.426 111.42 103.706L111.23 103.179L114.817 100.652L115.007 101.179C114.764 101.35 114.58 101.519 114.454 101.684C114.323 101.842 114.246 102.029 114.221 102.245C114.197 102.46 114.22 102.719 114.29 103.022C114.368 103.32 114.491 103.69 114.659 104.132L116.594 109.341ZM122.888 96.2558C122.807 96.0156 122.735 95.819 122.671 95.6658C122.607 95.5126 122.554 95.4066 122.513 95.3478C122.435 95.2374 122.307 95.2119 122.129 95.2715C121.951 95.331 121.67 95.4955 121.287 95.765L121.098 95.238L123.228 93.7376L125.151 99.0705C125.401 99.7533 125.617 100.333 125.799 100.811C125.981 101.288 126.137 101.69 126.268 102.016C126.401 102.329 126.519 102.582 126.621 102.775C126.723 102.967 126.816 103.122 126.899 103.239C127.018 103.409 127.127 103.508 127.225 103.538C127.323 103.568 127.413 103.555 127.493 103.498C127.655 103.383 127.732 103.126 127.725 102.724C127.724 102.317 127.642 101.841 127.478 101.296L127.968 101.1C128.23 102.004 128.333 102.736 128.275 103.294C128.219 103.84 128.003 104.245 127.628 104.509C127.363 104.696 127.097 104.756 126.831 104.691C126.572 104.62 126.331 104.426 126.108 104.11C126.051 104.029 125.999 103.939 125.952 103.84C125.904 103.742 125.863 103.644 125.828 103.548L125.724 103.588C125.787 104.27 125.712 104.884 125.502 105.429C125.286 105.966 124.997 106.362 124.637 106.616C124.446 106.751 124.241 106.834 124.022 106.868C123.798 106.893 123.575 106.874 123.353 106.81C123.127 106.738 122.904 106.625 122.686 106.471C122.469 106.304 122.27 106.092 122.089 105.835C121.866 105.518 121.683 105.157 121.54 104.751C121.4 104.333 121.303 103.906 121.249 103.47C121.198 103.022 121.185 102.574 121.211 102.127C121.237 101.679 121.3 101.26 121.4 100.871C121.502 100.469 121.641 100.112 121.818 99.8002C122.002 99.4833 122.223 99.2342 122.48 99.0528C122.731 98.8766 122.952 98.7923 123.144 98.7999C123.344 98.8022 123.579 98.8624 123.849 98.9803L122.888 96.2558ZM122.97 99.5834C122.778 99.7181 122.627 99.918 122.517 100.183C122.409 100.436 122.335 100.73 122.296 101.065C122.252 101.393 122.242 101.747 122.267 102.126C122.299 102.5 122.357 102.871 122.442 103.241C122.526 103.611 122.635 103.969 122.769 104.315C122.91 104.656 123.071 104.956 123.253 105.213C123.439 105.478 123.656 105.645 123.902 105.713C124.143 105.774 124.374 105.727 124.595 105.572C124.764 105.453 124.891 105.265 124.974 105.008C125.052 104.744 125.098 104.442 125.112 104.102C125.126 103.762 125.108 103.4 125.058 103.017C125.01 102.621 124.938 102.237 124.841 101.865C124.746 101.48 124.631 101.121 124.495 100.788C124.354 100.447 124.2 100.159 124.035 99.9231C123.874 99.695 123.705 99.5495 123.529 99.4866C123.347 99.4164 123.161 99.4486 122.97 99.5834ZM128.579 98.2249C128.48 97.8653 128.39 97.5817 128.31 97.3741C128.23 97.1664 128.154 97.011 128.081 96.908C128.008 96.805 127.943 96.7517 127.886 96.7482C127.83 96.7321 127.784 96.7371 127.748 96.763C127.667 96.82 127.607 96.9227 127.568 97.071C127.524 97.2119 127.491 97.3676 127.468 97.538C127.445 97.7084 127.433 97.871 127.432 98.0258C127.431 98.1807 127.436 98.2979 127.448 98.3775L126.988 98.4042C126.962 98.1802 126.957 97.9144 126.971 97.6069C126.993 97.2942 127.044 96.9833 127.124 96.6741C127.203 96.3649 127.311 96.08 127.446 95.8194C127.577 95.5513 127.738 95.35 127.929 95.2152C128.113 95.0856 128.288 95.045 128.454 95.0931C128.622 95.1288 128.805 95.2864 129.002 95.566C129.152 95.7794 129.288 96.113 129.409 96.5668C129.538 97.0155 129.699 97.5956 129.892 98.3073L130.269 99.7097C130.28 99.7568 130.3 99.8313 130.327 99.9329C130.357 100.022 130.388 100.121 130.421 100.23C130.456 100.327 130.491 100.423 130.526 100.52C130.568 100.611 130.607 100.682 130.644 100.734C130.69 100.8 130.75 100.846 130.823 100.872C130.896 100.897 130.973 100.881 131.054 100.824C131.165 100.747 131.247 100.622 131.303 100.451C131.353 100.272 131.39 100.082 131.412 99.8789C131.434 99.6761 131.445 99.481 131.446 99.2937C131.441 99.0991 131.434 98.9494 131.427 98.8448L131.89 98.7992C131.926 99.038 131.942 99.3185 131.938 99.6407C131.941 99.9577 131.912 100.276 131.85 100.594C131.783 100.906 131.679 101.204 131.539 101.49C131.394 101.768 131.2 101.993 130.957 102.164C130.744 102.314 130.543 102.373 130.355 102.341C130.174 102.303 129.993 102.155 129.812 101.898C129.662 101.684 129.534 101.433 129.429 101.143C129.327 100.841 129.209 100.456 129.078 99.9874L128.579 98.2249ZM127.294 92.9542C127.11 93.0838 126.904 93.1353 126.676 93.1087C126.456 93.0769 126.276 92.9616 126.136 92.763C125.996 92.5643 125.943 92.3484 125.977 92.1153C126.011 91.8822 126.123 91.6983 126.315 91.5636C126.521 91.4185 126.739 91.3692 126.97 91.4157C127.201 91.4622 127.384 91.5811 127.519 91.7724C127.653 91.9637 127.697 92.1748 127.651 92.4058C127.604 92.6367 127.485 92.8195 127.294 92.9542ZM131.334 95.3433C131.163 95.1005 131.049 94.8449 130.992 94.5767C130.943 94.3033 130.947 94.036 131.005 93.7749C131.058 93.5063 131.167 93.2538 131.331 93.0174C131.496 92.7685 131.712 92.5507 131.977 92.3641C132.33 92.1154 132.686 91.9964 133.046 92.0071C133.406 92.0179 133.685 92.163 133.881 92.4426C133.99 92.5972 134.032 92.7497 134.006 92.9002C133.987 93.0455 133.904 93.1699 133.757 93.2736C133.587 93.3928 133.432 93.4305 133.291 93.3866C133.145 93.3355 133.005 93.2691 132.871 93.1877C132.731 93.0989 132.595 93.0237 132.464 92.9621C132.333 92.9006 132.197 92.9191 132.057 93.0175C131.895 93.1315 131.808 93.2973 131.797 93.5149C131.785 93.7324 131.851 93.9442 131.996 94.1502C132.167 94.393 132.398 94.5719 132.688 94.6868C132.98 94.7892 133.295 94.8922 133.632 94.9959C133.97 95.0997 134.304 95.2384 134.636 95.4122C134.974 95.5808 135.273 95.849 135.533 96.2169C135.709 96.4671 135.819 96.7414 135.865 97.0399C135.917 97.3332 135.911 97.6293 135.846 97.9281C135.784 98.2143 135.668 98.4882 135.5 98.7497C135.332 99.0112 135.123 99.23 134.873 99.4062C134.431 99.7172 134.011 99.8703 133.611 99.8656C133.219 99.8557 132.914 99.6962 132.696 99.3871C132.546 99.1738 132.477 98.9745 132.49 98.7894C132.505 98.5918 132.597 98.4334 132.766 98.3142C133.082 98.0913 133.416 98.1814 133.766 98.5844C133.953 98.8043 134.102 98.9366 134.21 98.9813C134.321 99.0134 134.461 98.9699 134.63 98.8507C134.895 98.6641 135.05 98.4391 135.096 98.1758C135.136 97.9051 135.058 97.6299 134.861 97.3503C134.654 97.056 134.396 96.8466 134.089 96.7221C133.781 96.5977 133.463 96.491 133.137 96.402C132.804 96.3056 132.479 96.1878 132.161 96.0487C131.843 95.9095 131.567 95.6744 131.334 95.3433ZM140.561 92.5758C140.683 93.4042 140.651 94.1254 140.467 94.7394C140.29 95.3482 139.97 95.8158 139.507 96.1423C139.029 96.4792 138.532 96.5868 138.017 96.4652C137.497 96.3362 137.045 95.9994 136.661 95.4549C136.433 95.1312 136.248 94.7664 136.105 94.3605C135.962 93.9547 135.861 93.5366 135.8 93.1062C135.739 92.6757 135.72 92.243 135.744 91.8079C135.768 91.3728 135.832 90.9642 135.937 90.5819C136.042 90.1997 136.186 89.8564 136.368 89.5521C136.552 89.2353 136.773 88.9862 137.03 88.8048C137.383 88.556 137.741 88.447 138.104 88.4776C138.467 88.5083 138.75 88.6671 138.952 88.954C139.081 89.138 139.132 89.3277 139.105 89.5232C139.08 89.7061 138.982 89.8571 138.813 89.9763C138.644 90.0955 138.468 90.1425 138.285 90.1172C138.104 90.0794 137.959 89.9833 137.85 89.8287C137.783 89.7331 137.743 89.6455 137.731 89.5659C137.719 89.4863 137.695 89.4207 137.659 89.3692C137.586 89.2662 137.462 89.2769 137.285 89.4013C137.042 89.5723 136.876 89.86 136.787 90.2643C136.697 90.6686 136.676 91.1236 136.724 91.6292C136.78 92.1297 136.899 92.651 137.083 93.1931C137.269 93.7227 137.517 94.2082 137.828 94.6497C138.077 95.0029 138.34 95.2359 138.618 95.3486C138.897 95.4488 139.159 95.4134 139.401 95.2424C139.534 95.1491 139.644 95.0164 139.732 94.8444C139.827 94.6671 139.904 94.4641 139.964 94.2354C140.017 93.9993 140.048 93.7463 140.056 93.4764C140.072 93.2014 140.06 92.9183 140.02 92.6272L140.561 92.5758ZM144.71 92.4776C144.46 92.6539 144.19 92.7719 143.902 92.8317C143.616 92.879 143.325 92.864 143.028 92.7867C142.732 92.7094 142.44 92.5683 142.152 92.3634C141.86 92.1512 141.592 91.8722 141.348 91.5263C141.011 91.0481 140.768 90.515 140.618 89.927C140.475 89.3339 140.424 88.7534 140.465 88.1856C140.505 87.6177 140.635 87.0913 140.855 86.6062C141.082 86.116 141.398 85.7283 141.803 85.4433C142.068 85.2567 142.347 85.1372 142.64 85.0847C142.935 85.0197 143.228 85.0285 143.517 85.1109C143.809 85.1809 144.092 85.3172 144.367 85.5199C144.644 85.71 144.894 85.9633 145.116 86.2797C145.443 86.7433 145.68 87.2753 145.828 87.8758C145.975 88.4763 146.031 89.0704 145.993 89.6581C145.963 90.2407 145.842 90.7881 145.631 91.3004C145.414 91.8054 145.107 92.1978 144.71 92.4776ZM144.387 91.8791C144.637 91.7029 144.793 91.4006 144.855 90.972C144.923 90.5383 144.916 90.059 144.833 89.5343C144.752 88.997 144.607 88.4552 144.398 87.9087C144.196 87.357 143.948 86.8715 143.653 86.4521C143.378 86.0621 143.119 85.8428 142.875 85.7941C142.639 85.7402 142.404 85.7962 142.168 85.962C142.006 86.0761 141.882 86.2515 141.796 86.4885C141.712 86.7128 141.666 86.9762 141.659 87.2785C141.651 87.5808 141.672 87.9074 141.721 88.2582C141.778 88.6039 141.859 88.9538 141.965 89.3082C142.072 89.6625 142.206 90.0087 142.367 90.3466C142.522 90.6772 142.696 90.9786 142.888 91.2509C143.178 91.6629 143.449 91.9069 143.701 91.9829C143.952 92.0588 144.181 92.0243 144.387 91.8791ZM150.593 82.2734C150.49 82.1262 150.382 82.0042 150.269 81.9072C150.159 81.7976 150.047 81.7006 149.932 81.6162C149.825 81.5265 149.721 81.4406 149.619 81.3583C149.524 81.2708 149.438 81.1719 149.36 81.0615C149.065 80.6421 149.108 80.2977 149.491 80.0282C149.719 79.8675 149.938 79.8344 150.148 79.9289C150.365 80.0183 150.605 80.2505 150.87 80.6258C151.144 81.0158 151.376 81.4468 151.566 81.9189C151.75 82.3836 151.889 82.8632 151.985 83.3576C152.074 83.8447 152.119 84.3305 152.119 84.8149C152.119 85.2993 152.076 85.7536 151.989 86.1778C151.903 86.602 151.769 86.9825 151.588 87.3192C151.414 87.6508 151.191 87.9125 150.919 88.1042C150.72 88.2441 150.507 88.3395 150.278 88.3903C150.052 88.4286 149.827 88.4219 149.604 88.3702C149.38 88.3185 149.164 88.2229 148.956 88.0834C148.755 87.9387 148.577 87.756 148.421 87.5353C148.126 87.1159 147.893 86.5426 147.722 85.8153C147.551 85.0881 147.462 84.2751 147.457 83.3763L147.411 83.3588C147.213 83.4987 147.026 83.5859 146.853 83.6203C146.679 83.6547 146.518 83.6688 146.37 83.6626C146.23 83.6512 146.103 83.642 145.988 83.635C145.88 83.6228 145.789 83.6426 145.716 83.6944C145.591 83.7825 145.572 83.8891 145.66 84.0142C145.707 84.0804 145.767 84.1263 145.84 84.1519C145.92 84.1723 146.001 84.1927 146.081 84.2131C146.169 84.2284 146.255 84.2561 146.338 84.2964C146.424 84.3242 146.498 84.3822 146.56 84.4705C146.653 84.603 146.679 84.7496 146.638 84.9105C146.592 85.064 146.488 85.1977 146.327 85.3117C146.135 85.4465 145.947 85.4913 145.761 85.4461C145.575 85.4009 145.407 85.2717 145.256 85.0583C145.127 84.8743 145.042 84.6755 145.001 84.4618C144.956 84.2407 144.951 84.0236 144.988 83.8104C145.025 83.5972 145.099 83.3968 145.209 83.2092C145.326 83.0165 145.477 82.8553 145.661 82.7257C145.808 82.6221 145.951 82.5597 146.091 82.5387C146.225 82.5103 146.359 82.4981 146.494 82.5021C146.624 82.4988 146.747 82.4944 146.865 82.4889C146.984 82.4708 147.103 82.4203 147.22 82.3374C147.36 82.2389 147.446 82.0956 147.479 81.9075C147.535 81.6589 147.579 81.5017 147.609 81.436C147.642 81.3578 147.703 81.2875 147.791 81.2254C147.938 81.1217 148.056 81.1324 148.144 81.2575C148.165 81.2869 148.179 81.3153 148.187 81.3425C148.196 81.3698 148.201 81.4159 148.202 81.4807C148.211 81.5404 148.209 81.6304 148.194 81.7506C148.187 81.8657 148.175 82.0283 148.158 82.2385C148.134 82.5637 148.143 82.9043 148.184 83.2603C148.226 83.6163 148.294 83.9704 148.387 84.3225C148.481 84.6747 148.6 85.015 148.743 85.3434C148.881 85.6645 149.038 85.9501 149.215 86.2003C149.494 86.5976 149.786 86.871 150.09 87.0206C150.395 87.1576 150.655 87.1509 150.868 87.0006C151.074 86.8555 151.217 86.5897 151.297 86.2031C151.377 85.8165 151.406 85.3888 151.384 84.9199C151.357 84.4437 151.275 83.9676 151.138 83.4917C151.008 83.0106 150.827 82.6045 150.593 82.2734ZM157.722 80.9511C157.823 82.4542 157.406 83.5348 156.472 84.193C155.964 84.5506 155.465 84.6707 154.976 84.5535C154.48 84.4288 154.031 84.0795 153.627 83.5056C153.269 82.9979 153.014 82.4176 152.863 81.7648C152.719 81.1068 152.673 80.4563 152.727 79.8132C152.775 79.1627 152.921 78.5647 153.164 78.0191C153.402 77.4662 153.73 77.042 154.15 76.7466C154.503 76.4979 154.855 76.3877 155.205 76.4162C155.558 76.4321 155.832 76.5799 156.029 76.8595C156.211 77.117 156.302 77.4493 156.302 77.8563C156.302 78.2633 156.223 78.7048 156.063 79.1808C155.91 79.6517 155.683 80.1419 155.381 80.6515C155.087 81.156 154.732 81.637 154.317 82.0946C154.375 82.208 154.436 82.3188 154.502 82.427C154.562 82.5278 154.628 82.6297 154.7 82.7327C155.265 83.5348 155.831 83.7362 156.398 83.3372C156.67 83.1454 156.874 82.8418 157.011 82.4263C157.155 82.0056 157.22 81.5195 157.206 80.9681L157.722 80.9511ZM154.295 77.4208C154.103 77.5556 153.956 77.7691 153.854 78.0614C153.752 78.3536 153.693 78.6922 153.678 79.0772C153.665 79.4495 153.693 79.8483 153.761 80.2736C153.829 80.6988 153.935 81.1143 154.078 81.5202C154.363 81.1758 154.603 80.8201 154.795 80.453C154.988 80.086 155.124 79.7317 155.203 79.3901C155.284 79.036 155.311 78.7082 155.286 78.4067C155.256 78.0978 155.163 77.833 155.007 77.6123C154.79 77.3033 154.552 77.2394 154.295 77.4208ZM156.887 77.279C156.838 77.0381 156.828 76.7649 156.855 76.4596C156.884 76.1418 156.94 75.8382 157.023 75.5489C157.107 75.2471 157.213 74.9747 157.339 74.7318C157.465 74.4889 157.601 74.3156 157.749 74.2119C157.925 74.0875 158.101 74.063 158.275 74.1385C158.449 74.2139 158.64 74.3988 158.847 74.6931C158.93 74.8108 159.003 74.9301 159.066 75.0508C159.136 75.1664 159.209 75.3081 159.283 75.476L159.339 75.4858C159.277 75.2102 159.255 74.9124 159.271 74.5923C159.288 74.2723 159.334 73.9702 159.409 73.6862C159.487 73.3895 159.587 73.126 159.711 72.8956C159.837 72.6527 159.985 72.4716 160.154 72.3524C160.368 72.2021 160.593 72.1476 160.832 72.189C161.072 72.2178 161.262 72.3315 161.402 72.5302C161.537 72.7215 161.586 72.9237 161.549 73.1369C161.519 73.3449 161.409 73.5163 161.217 73.651C161.1 73.734 160.989 73.7793 160.884 73.7869C160.787 73.7894 160.697 73.7867 160.614 73.7789C160.526 73.7636 160.445 73.7495 160.369 73.7365C160.294 73.7234 160.223 73.7402 160.157 73.7868C160.017 73.8853 159.923 74.095 159.874 74.4159C159.819 74.7294 159.807 75.118 159.836 75.5817C159.866 76.0453 159.934 76.5642 160.041 77.1383C160.155 77.7071 160.308 78.2987 160.498 78.9131L161.075 80.7861L160.048 81.509L159.156 78.719C158.985 78.1791 158.843 77.7345 158.729 77.3854C158.617 77.0237 158.52 76.7291 158.436 76.5015C158.348 76.2665 158.272 76.0887 158.209 75.9679C158.154 75.842 158.097 75.7386 158.04 75.6577C157.926 75.4958 157.814 75.4537 157.704 75.5315C157.63 75.5833 157.559 75.6775 157.49 75.8141C157.428 75.9455 157.377 76.0917 157.336 76.2525C157.296 76.4134 157.266 76.5827 157.248 76.7604C157.238 76.933 157.247 77.0863 157.275 77.2204L156.887 77.279ZM73.0042 158.113C72.9081 157.773 72.8288 157.504 72.7663 157.306C72.7111 157.103 72.6672 156.947 72.6344 156.838C72.5965 156.721 72.563 156.635 72.5341 156.578C72.5052 156.521 72.4752 156.471 72.4441 156.427C72.2938 156.213 72.1451 156.159 71.9979 156.262C71.7992 156.402 71.6597 156.704 71.5792 157.168C71.4935 157.625 71.4713 158.218 71.5125 158.949C71.5265 159.203 71.5504 159.456 71.5843 159.707C71.6131 159.951 71.6681 160.248 71.7495 160.598C71.8257 160.941 71.9353 161.37 72.0784 161.886C72.2215 162.402 72.407 163.063 72.635 163.872L71.5975 164.602L70.7634 161.871C70.5862 161.291 70.4377 160.807 70.3179 160.418C70.1928 160.021 70.0846 159.696 69.9932 159.441C69.9017 159.186 69.823 158.988 69.757 158.848C69.6983 158.702 69.6405 158.589 69.5835 158.508C69.4124 158.265 69.235 158.208 69.051 158.338C68.9038 158.441 68.7868 158.65 68.7 158.965C68.6132 159.279 68.559 159.648 68.5373 160.07C68.5157 160.493 68.5274 160.947 68.5723 161.433C68.6194 161.906 68.7011 162.366 68.8174 162.812L69.655 165.971L68.6837 166.655L67.7202 163.552C67.5594 163.027 67.4221 162.589 67.3083 162.24C67.1893 161.884 67.0908 161.595 67.0127 161.375C66.9295 161.148 66.86 160.971 66.8043 160.845C66.7487 160.719 66.6949 160.619 66.6431 160.546C66.498 160.34 66.3629 160.281 66.2378 160.369C66.1569 160.426 66.0949 160.541 66.0519 160.714C66.0163 160.883 66.0029 161.09 66.0117 161.337C66.0153 161.577 66.0371 161.842 66.077 162.133C66.1243 162.419 66.1904 162.708 66.2753 163.001L65.8276 163.069C65.5513 162.129 65.4444 161.368 65.5069 160.785C65.5767 160.196 65.8176 159.757 66.2296 159.466C66.4651 159.301 66.6773 159.25 66.8662 159.315C67.0625 159.375 67.2695 159.56 67.4872 159.869C67.736 160.222 67.9118 160.604 68.0148 161.016L68.0712 161.026C67.8589 159.271 68.1354 158.124 68.9006 157.585C69.1876 157.383 69.4742 157.313 69.7604 157.376C70.0415 157.431 70.2909 157.613 70.5086 157.922C70.5811 158.025 70.6493 158.153 70.7132 158.306C70.7844 158.454 70.8739 158.683 70.9817 158.992L71.0271 159.01C70.9844 158.512 70.9695 158.076 70.9824 157.704C70.9975 157.319 71.0389 156.987 71.1067 156.708C71.1744 156.429 71.2707 156.191 71.3955 155.993C71.5276 155.79 71.6893 155.621 71.8806 155.486C72.1676 155.284 72.4354 155.211 72.684 155.267C72.94 155.318 73.1846 155.509 73.4178 155.84C73.4904 155.943 73.5597 156.065 73.6257 156.205C73.6866 156.339 73.7545 156.506 73.8296 156.706C73.8994 156.899 73.9753 157.132 74.0572 157.404C74.1413 157.664 74.2391 157.975 74.3508 158.337C74.49 158.8 74.6032 159.172 74.6903 159.452C74.7722 159.724 74.8414 159.94 74.8978 160.098C74.9543 160.256 74.9986 160.374 75.0305 160.451C75.0698 160.522 75.1127 160.591 75.1594 160.657C75.2578 160.797 75.3439 160.841 75.4175 160.789C75.5278 160.711 75.6208 160.492 75.6964 160.13C75.7669 159.761 75.8232 159.232 75.8655 158.541L76.2613 158.494C76.3072 158.825 76.3163 159.182 76.2887 159.564C76.2632 159.935 76.2112 160.29 76.1326 160.632C76.0487 160.966 75.9416 161.267 75.8111 161.535C75.688 161.798 75.5492 161.984 75.3947 162.093C75.2108 162.223 75.0092 162.249 74.79 162.172C74.5729 162.083 74.3711 161.906 74.1846 161.641C74.1224 161.553 74.0598 161.448 73.9967 161.327C73.9411 161.201 73.8701 161.015 73.7839 160.767C73.705 160.514 73.6015 160.18 73.4735 159.764C73.3528 159.342 73.1964 158.792 73.0042 158.113ZM80.0205 158.835C79.7703 159.011 79.5012 159.129 79.2131 159.189C78.9272 159.236 78.6359 159.221 78.3392 159.144C78.0426 159.067 77.7506 158.925 77.4632 158.721C77.1706 158.508 76.9025 158.229 76.6589 157.883C76.3221 157.405 76.0787 156.872 75.9288 156.284C75.7862 155.691 75.7351 155.111 75.7755 154.543C75.8159 153.975 75.9459 153.448 76.1657 152.963C76.3929 152.473 76.7088 152.085 77.1135 151.8C77.3784 151.614 77.6575 151.494 77.9508 151.442C78.2462 151.377 78.5386 151.386 78.8279 151.468C79.1193 151.538 79.4025 151.674 79.6773 151.877C79.9544 152.067 80.2043 152.32 80.4272 152.637C80.7537 153.1 80.9908 153.632 81.1385 154.233C81.2863 154.833 81.3415 155.427 81.3041 156.015C81.2741 156.598 81.1533 157.145 80.9417 157.658C80.7249 158.163 80.4179 158.555 80.0205 158.835ZM79.698 158.236C79.9482 158.06 80.104 157.758 80.1654 157.329C80.2342 156.895 80.2269 156.416 80.1436 155.891C80.0624 155.354 79.9174 154.812 79.7086 154.266C79.5072 153.714 79.2588 153.229 78.9634 152.809C78.6887 152.419 78.4296 152.2 78.1862 152.151C77.9501 152.097 77.7143 152.153 77.4788 152.319C77.317 152.433 77.1929 152.609 77.1066 152.846C77.0224 153.07 76.9767 153.333 76.9695 153.636C76.9623 153.938 76.9831 154.265 77.0321 154.615C77.0884 154.961 77.1698 155.311 77.2762 155.665C77.3827 156.02 77.5164 156.366 77.6774 156.704C77.8332 157.034 78.007 157.336 78.1987 157.608C78.489 158.02 78.7599 158.264 79.0115 158.34C79.2632 158.416 79.492 158.381 79.698 158.236ZM80.8482 151.63C80.7996 151.389 80.7889 151.116 80.816 150.811C80.8453 150.493 80.9012 150.189 80.9837 149.9C81.0683 149.598 81.1737 149.326 81.2998 149.083C81.4259 148.84 81.5626 148.667 81.7097 148.563C81.8863 148.439 82.0617 148.414 82.2359 148.49C82.4102 148.565 82.6009 148.75 82.8082 149.044C82.8912 149.162 82.9641 149.281 83.0272 149.402C83.0975 149.518 83.1698 149.659 83.2441 149.827L83.3005 149.837C83.2385 149.561 83.2159 149.264 83.2326 148.944C83.2494 148.623 83.2953 148.321 83.3705 148.037C83.4477 147.741 83.5484 147.477 83.6723 147.247C83.7984 147.004 83.9461 146.823 84.1153 146.704C84.3287 146.553 84.5545 146.499 84.7928 146.54C85.0332 146.569 85.2234 146.683 85.3634 146.881C85.4981 147.073 85.547 147.275 85.51 147.488C85.4804 147.696 85.3699 147.867 85.1786 148.002C85.0609 148.085 84.9497 148.13 84.845 148.138C84.7477 148.141 84.6577 148.138 84.5751 148.13C84.4873 148.115 84.4058 148.101 84.3306 148.088C84.2553 148.075 84.1846 148.091 84.1184 148.138C83.9786 148.236 83.8841 148.446 83.8349 148.767C83.7805 149.081 83.768 149.469 83.7973 149.933C83.8267 150.397 83.895 150.915 84.0021 151.489C84.1165 152.058 84.269 152.65 84.4596 153.264L85.0357 155.137L84.0092 155.86L83.1175 153.07C82.9463 152.53 82.8038 152.086 82.69 151.737C82.5783 151.375 82.4809 151.08 82.3977 150.853C82.3092 150.618 82.2335 150.44 82.1705 150.319C82.1148 150.193 82.0585 150.09 82.0015 150.009C81.8875 149.847 81.7753 149.805 81.6649 149.883C81.5913 149.934 81.5201 150.029 81.4512 150.165C81.3896 150.297 81.3384 150.443 81.2976 150.604C81.2568 150.765 81.2274 150.934 81.2095 151.112C81.1989 151.284 81.2079 151.437 81.2363 151.572L80.8482 151.63ZM91.6642 148.272C91.7651 149.775 91.3484 150.856 90.4139 151.514C89.9062 151.872 89.4074 151.992 88.9175 151.875C88.4224 151.75 87.9727 151.401 87.5684 150.827C87.2108 150.319 86.9563 149.739 86.8047 149.086C86.6605 148.428 86.6151 147.778 86.6685 147.134C86.7167 146.484 86.8625 145.886 87.1057 145.34C87.3437 144.787 87.6724 144.363 88.0918 144.068C88.445 143.819 88.7967 143.709 89.147 143.737C89.4995 143.753 89.7742 143.901 89.9712 144.181C90.1526 144.438 90.2435 144.771 90.2439 145.178C90.2444 145.585 90.1646 146.026 90.0045 146.502C89.8517 146.973 89.6246 147.463 89.3231 147.973C89.0289 148.477 88.6741 148.958 88.2589 149.416C88.3167 149.529 88.3782 149.64 88.4434 149.748C88.5035 149.849 88.5697 149.951 88.6423 150.054C89.2072 150.856 89.7729 151.058 90.3395 150.658C90.6118 150.467 90.8162 150.163 90.9529 149.748C91.0969 149.327 91.1619 148.841 91.1477 148.289L91.6642 148.272ZM88.2364 144.742C88.0451 144.877 87.8983 145.09 87.7959 145.383C87.6935 145.675 87.6348 146.014 87.6197 146.398C87.6068 146.771 87.6345 147.17 87.7028 147.595C87.7712 148.02 87.8767 148.436 88.0194 148.841C88.3052 148.497 88.5446 148.141 88.7374 147.774C88.9303 147.407 89.066 147.053 89.1446 146.711C89.2255 146.357 89.2533 146.029 89.228 145.728C89.1977 145.419 89.1047 145.154 88.9492 144.934C88.7316 144.625 88.494 144.561 88.2364 144.742ZM95.4763 140.452L95.5249 140.451C95.4999 139.962 95.5808 139.514 95.7677 139.107C95.9567 138.688 96.2314 138.351 96.592 138.097C97.0408 137.781 97.4851 137.677 97.9249 137.786C98.3646 137.895 98.7555 138.192 99.0976 138.677C99.3412 139.023 99.5384 139.413 99.6894 139.846C99.8403 140.279 99.9404 140.726 99.9897 141.186C100.046 141.642 100.057 142.102 100.021 142.568C99.9806 143.026 99.8982 143.463 99.7741 143.881C99.6522 144.286 99.4807 144.66 99.2598 145.003C99.0462 145.341 98.7923 145.613 98.4979 145.82C98.0785 146.116 97.6446 146.234 97.1961 146.176C96.7499 146.105 96.3842 145.867 96.0992 145.462C95.9644 145.271 95.8157 144.974 95.6531 144.571C95.4852 144.161 95.3076 143.659 95.12 143.064L93.4237 137.819C93.3672 137.661 93.3107 137.502 93.2542 137.344C93.1925 137.178 93.1384 137.062 93.0917 136.996C92.9103 136.738 92.5363 136.809 91.9698 137.208L91.8359 136.807L93.885 135.215L95.4763 140.452ZM98.2781 145.133C98.4473 145.014 98.5861 144.828 98.6945 144.576C98.7977 144.316 98.8687 144.018 98.9076 143.682C98.9464 143.347 98.9546 142.983 98.932 142.592C98.9095 142.2 98.8571 141.813 98.7749 141.431C98.6875 141.041 98.5744 140.67 98.4355 140.316C98.2987 139.95 98.1345 139.631 97.9427 139.359C97.7613 139.101 97.5522 138.929 97.3153 138.843C97.0783 138.757 96.8752 138.773 96.706 138.892C96.5441 139.006 96.4116 139.193 96.3084 139.453C96.2074 139.7 96.14 139.995 96.1064 140.338C96.0749 140.669 96.0704 141.03 96.0929 141.421C96.1176 141.8 96.17 142.187 96.25 142.582C96.3322 142.964 96.4428 143.332 96.5817 143.686C96.7206 144.039 96.886 144.352 97.0777 144.624C97.5027 145.228 97.9028 145.397 98.2781 145.133ZM99.7643 138.307C99.7157 138.066 99.7049 137.793 99.732 137.487C99.7614 137.17 99.8172 136.866 99.8997 136.577C99.9844 136.275 100.09 136.002 100.216 135.76C100.342 135.517 100.479 135.343 100.626 135.24C100.802 135.115 100.978 135.091 101.152 135.166C101.326 135.242 101.517 135.427 101.724 135.721C101.807 135.839 101.88 135.958 101.943 136.079C102.014 136.194 102.086 136.336 102.16 136.504L102.217 136.514C102.155 136.238 102.132 135.94 102.149 135.62C102.165 135.3 102.211 134.998 102.287 134.714C102.364 134.417 102.464 134.154 102.588 133.923C102.714 133.68 102.862 133.499 103.031 133.38C103.245 133.23 103.471 133.175 103.709 133.217C103.949 133.246 104.139 133.359 104.279 133.558C104.414 133.749 104.463 133.951 104.426 134.165C104.396 134.373 104.286 134.544 104.095 134.679C103.977 134.762 103.866 134.807 103.761 134.815C103.664 134.817 103.574 134.814 103.491 134.807C103.403 134.791 103.322 134.777 103.247 134.764C103.171 134.751 103.101 134.768 103.034 134.815C102.895 134.913 102.8 135.123 102.751 135.444C102.697 135.757 102.684 136.146 102.713 136.609C102.743 137.073 102.811 137.592 102.918 138.166C103.033 138.735 103.185 139.327 103.376 139.941L103.952 141.814L102.925 142.537L102.034 139.747C101.862 139.207 101.72 138.762 101.606 138.413C101.494 138.051 101.397 137.757 101.314 137.529C101.225 137.294 101.15 137.116 101.087 136.996C101.031 136.87 100.975 136.766 100.918 136.685C100.804 136.524 100.691 136.481 100.581 136.559C100.507 136.611 100.436 136.705 100.367 136.842C100.306 136.973 100.254 137.119 100.214 137.28C100.173 137.441 100.143 137.61 100.126 137.788C100.115 137.961 100.124 138.114 100.152 138.248L99.7643 138.307ZM107.368 131.349C107.089 131.546 106.889 131.88 106.769 132.35C106.656 132.814 106.615 133.327 106.647 133.888C106.674 134.442 106.768 134.998 106.929 135.555C107.086 136.106 107.299 136.572 107.568 136.955C107.755 137.22 107.96 137.394 108.185 137.478C108.404 137.555 108.609 137.526 108.801 137.391C108.97 137.272 109.1 137.081 109.19 136.819C109.276 136.55 109.326 136.245 109.339 135.906C109.355 135.553 109.339 135.179 109.292 134.783C109.244 134.387 109.173 133.997 109.078 133.612C108.978 133.221 108.858 132.854 108.717 132.513C108.576 132.172 108.422 131.884 108.256 131.648C108.122 131.457 107.975 131.335 107.816 131.281C107.658 131.228 107.508 131.251 107.368 131.349ZM108.179 130.085L109.095 129.44L109.655 131.571C109.749 131.924 109.856 132.294 109.976 132.683C110.103 133.067 110.23 133.434 110.356 133.786C110.49 134.132 110.62 134.442 110.747 134.716C110.874 134.99 110.979 135.186 111.062 135.303C111.212 135.517 111.357 135.574 111.497 135.476C111.6 135.403 111.672 135.193 111.713 134.845C111.761 134.491 111.788 134.06 111.792 133.55L112.242 133.58C112.317 134.342 112.28 135.001 112.132 135.557C111.986 136.1 111.748 136.488 111.416 136.721C111.247 136.84 111.071 136.871 110.887 136.813C110.705 136.743 110.511 136.561 110.304 136.267C110.257 136.2 110.203 136.123 110.14 136.035C110.086 135.941 110.014 135.816 109.925 135.658L109.873 135.678C109.908 135.962 109.91 136.247 109.88 136.532C109.852 136.805 109.796 137.07 109.713 137.327C109.624 137.576 109.508 137.801 109.363 138.002C109.224 138.211 109.062 138.38 108.878 138.509C108.503 138.774 108.11 138.841 107.7 138.712C107.291 138.57 106.911 138.249 106.559 137.748C106.201 137.241 105.942 136.647 105.783 135.967C105.623 135.287 105.562 134.614 105.6 133.949C105.633 133.276 105.759 132.659 105.979 132.096C106.194 131.527 106.501 131.102 106.898 130.822C107.141 130.651 107.381 130.57 107.618 130.579C107.851 130.58 108.105 130.676 108.382 130.866L108.179 130.085ZM114.689 126.193C114.513 126.317 114.375 126.551 114.277 126.896C114.18 127.228 114.121 127.628 114.098 128.095C114.077 128.55 114.095 129.044 114.151 129.577C114.207 130.11 114.301 130.627 114.434 131.128L115.172 133.911L114.201 134.595L113.237 131.492C113.085 130.994 112.951 130.571 112.838 130.222C112.724 129.872 112.625 129.584 112.542 129.356C112.461 129.116 112.39 128.93 112.329 128.796C112.263 128.656 112.204 128.549 112.152 128.475C112.012 128.276 111.88 128.221 111.755 128.309C111.674 128.366 111.615 128.485 111.577 128.666C111.539 128.847 111.521 129.063 111.522 129.315C111.526 129.555 111.551 129.818 111.599 130.103C111.646 130.389 111.71 130.669 111.792 130.941L111.345 131.009C111.068 130.07 110.961 129.308 111.024 128.725C111.094 128.136 111.335 127.697 111.747 127.407C111.982 127.241 112.194 127.19 112.383 127.256C112.58 127.315 112.789 127.504 113.012 127.82C113.276 128.195 113.45 128.574 113.532 128.956L113.588 128.966C113.497 128.04 113.537 127.291 113.707 126.72C113.879 126.136 114.193 125.683 114.649 125.362C114.973 125.134 115.274 125.038 115.552 125.073C115.83 125.108 116.07 125.27 116.272 125.556C116.34 125.652 116.404 125.767 116.465 125.9C116.533 126.028 116.605 126.192 116.68 126.393C116.75 126.585 116.824 126.825 116.904 127.11C116.991 127.39 117.096 127.734 117.219 128.143C117.402 128.762 117.558 129.28 117.686 129.696C117.814 130.113 117.927 130.391 118.026 130.53C118.103 130.641 118.179 130.67 118.253 130.618C118.356 130.546 118.447 130.355 118.526 130.046C118.606 129.737 118.683 129.275 118.757 128.661L119.152 128.614C119.19 128.918 119.189 129.243 119.148 129.592C119.109 129.927 119.046 130.252 118.959 130.566C118.88 130.876 118.777 131.152 118.651 131.395C118.525 131.638 118.388 131.811 118.241 131.914C118.057 132.044 117.853 132.067 117.628 131.983C117.411 131.893 117.209 131.716 117.023 131.451C116.95 131.348 116.885 131.24 116.827 131.127C116.772 131.001 116.703 130.818 116.622 130.578C116.541 130.338 116.439 130.013 116.316 129.604C116.196 129.183 116.04 128.626 115.85 127.934C115.782 127.696 115.723 127.496 115.674 127.332C115.625 127.169 115.577 127.031 115.532 126.92C115.489 126.796 115.445 126.695 115.401 126.616C115.364 126.532 115.322 126.457 115.275 126.391C115.083 126.119 114.888 126.053 114.689 126.193ZM120.498 118.733C120.417 118.493 120.344 118.296 120.281 118.143C120.217 117.99 120.164 117.884 120.123 117.825C120.045 117.715 119.917 117.689 119.739 117.749C119.56 117.808 119.28 117.973 118.897 118.242L118.708 117.715L120.838 116.215L122.761 121.548C123.011 122.23 123.227 122.81 123.409 123.288C123.591 123.765 123.747 124.167 123.878 124.493C124.011 124.807 124.128 125.06 124.231 125.252C124.333 125.444 124.426 125.599 124.509 125.716C124.628 125.886 124.736 125.985 124.835 126.015C124.933 126.045 125.022 126.032 125.103 125.975C125.265 125.861 125.342 125.603 125.334 125.201C125.334 124.794 125.252 124.318 125.088 123.773L125.577 123.577C125.84 124.481 125.943 125.213 125.885 125.771C125.829 126.317 125.613 126.722 125.238 126.986C124.973 127.173 124.707 127.233 124.441 127.168C124.182 127.097 123.941 126.903 123.718 126.587C123.661 126.506 123.609 126.416 123.561 126.318C123.514 126.219 123.473 126.121 123.438 126.025L123.334 126.065C123.396 126.748 123.322 127.361 123.111 127.906C122.896 128.443 122.607 128.839 122.247 129.093C122.055 129.228 121.85 129.312 121.631 129.345C121.407 129.37 121.185 129.351 120.963 129.287C120.737 129.215 120.514 129.102 120.295 128.948C120.079 128.781 119.88 128.569 119.699 128.312C119.476 127.995 119.293 127.634 119.15 127.228C119.01 126.81 118.912 126.383 118.859 125.947C118.807 125.499 118.795 125.051 118.821 124.604C118.847 124.156 118.91 123.738 119.009 123.348C119.111 122.946 119.251 122.589 119.428 122.277C119.612 121.96 119.833 121.711 120.09 121.53C120.34 121.354 120.562 121.269 120.754 121.277C120.954 121.279 121.189 121.339 121.459 121.457L120.498 118.733ZM120.579 122.061C120.388 122.195 120.237 122.395 120.127 122.66C120.018 122.913 119.945 123.207 119.906 123.542C119.862 123.87 119.852 124.224 119.877 124.603C119.909 124.977 119.967 125.348 120.052 125.718C120.136 126.088 120.245 126.446 120.379 126.792C120.52 127.133 120.681 127.433 120.862 127.69C121.049 127.955 121.266 128.122 121.512 128.19C121.753 128.252 121.984 128.205 122.205 128.049C122.374 127.93 122.5 127.742 122.584 127.485C122.662 127.221 122.708 126.919 122.722 126.579C122.735 126.239 122.717 125.877 122.668 125.494C122.62 125.098 122.548 124.714 122.451 124.342C122.356 123.958 122.241 123.599 122.105 123.265C121.964 122.924 121.81 122.636 121.644 122.4C121.484 122.172 121.315 122.027 121.139 121.964C120.957 121.894 120.771 121.926 120.579 122.061ZM125.15 120.493C124.979 120.25 124.865 119.994 124.808 119.726C124.759 119.453 124.763 119.185 124.821 118.924C124.874 118.656 124.983 118.403 125.146 118.167C125.312 117.918 125.528 117.7 125.793 117.514C126.146 117.265 126.502 117.146 126.862 117.157C127.222 117.167 127.5 117.312 127.697 117.592C127.806 117.747 127.847 117.899 127.821 118.05C127.803 118.195 127.72 118.319 127.573 118.423C127.403 118.542 127.248 118.58 127.107 118.536C126.961 118.485 126.821 118.419 126.686 118.337C126.547 118.248 126.411 118.173 126.28 118.112C126.148 118.05 126.013 118.068 125.873 118.167C125.711 118.281 125.624 118.447 125.612 118.664C125.6 118.882 125.667 119.094 125.812 119.3C125.983 119.542 126.214 119.721 126.504 119.836C126.796 119.939 127.111 120.042 127.448 120.145C127.785 120.249 128.12 120.388 128.451 120.562C128.79 120.73 129.089 120.998 129.348 121.366C129.525 121.617 129.635 121.891 129.68 122.189C129.733 122.483 129.727 122.779 129.662 123.077C129.599 123.364 129.484 123.638 129.316 123.899C129.148 124.161 128.939 124.379 128.689 124.556C128.247 124.867 127.827 125.02 127.427 125.015C127.035 125.005 126.73 124.846 126.512 124.537C126.362 124.323 126.293 124.124 126.306 123.939C126.321 123.741 126.413 123.583 126.582 123.464C126.898 123.241 127.231 123.331 127.581 123.734C127.769 123.954 127.917 124.086 128.026 124.131C128.137 124.163 128.277 124.119 128.446 124C128.711 123.813 128.866 123.589 128.912 123.325C128.952 123.054 128.874 122.779 128.677 122.5C128.47 122.205 128.212 121.996 127.904 121.872C127.597 121.747 127.279 121.64 126.952 121.551C126.62 121.455 126.295 121.337 125.977 121.198C125.659 121.059 125.383 120.824 125.15 120.493ZM133.67 113.501L134.892 117.181C135.047 117.666 135.193 118.015 135.331 118.226C135.378 118.292 135.434 118.341 135.499 118.371C135.572 118.397 135.649 118.381 135.73 118.324C135.863 118.231 135.969 118.085 136.049 117.885C136.123 117.679 136.18 117.463 136.219 117.237C136.261 116.999 136.284 116.773 136.288 116.561C136.295 116.336 136.296 116.165 136.29 116.048L136.742 116.01C136.793 116.348 136.806 116.702 136.781 117.073C136.75 117.435 136.69 117.78 136.601 118.107C136.512 118.434 136.396 118.73 136.253 118.996C136.112 119.25 135.954 119.438 135.777 119.563C135.52 119.744 135.293 119.821 135.098 119.794C134.91 119.761 134.725 119.616 134.543 119.359C134.44 119.211 134.326 118.995 134.201 118.708C134.076 118.422 133.923 118.017 133.743 117.495L132.655 114.216L131.706 114.884L131.492 114.276L132.452 113.599L131.689 111.297L132.704 110.581L133.467 112.884L134.67 112.037L134.873 112.653L133.67 113.501ZM140.724 116.078C140.474 116.255 140.205 116.373 139.917 116.432C139.631 116.48 139.34 116.465 139.043 116.387C138.746 116.31 138.454 116.169 138.167 115.964C137.874 115.752 137.606 115.473 137.363 115.127C137.026 114.649 136.782 114.116 136.633 113.528C136.49 112.935 136.439 112.354 136.479 111.786C136.52 111.218 136.65 110.692 136.87 110.207C137.097 109.717 137.413 109.329 137.817 109.044C138.082 108.857 138.361 108.738 138.655 108.685C138.95 108.62 139.242 108.629 139.532 108.712C139.823 108.782 140.106 108.918 140.381 109.121C140.658 109.311 140.908 109.564 141.131 109.88C141.457 110.344 141.695 110.876 141.842 111.476C141.99 112.077 142.045 112.671 142.008 113.259C141.978 113.841 141.857 114.389 141.645 114.901C141.429 115.406 141.122 115.798 140.724 116.078ZM140.402 115.48C140.652 115.304 140.808 115.001 140.869 114.573C140.938 114.139 140.931 113.66 140.847 113.135C140.766 112.598 140.621 112.056 140.412 111.509C140.211 110.958 139.963 110.472 139.667 110.053C139.392 109.663 139.133 109.443 138.89 109.395C138.654 109.341 138.418 109.397 138.183 109.563C138.021 109.677 137.897 109.852 137.81 110.089C137.726 110.314 137.681 110.577 137.673 110.879C137.666 111.182 137.687 111.508 137.736 111.859C137.792 112.205 137.874 112.555 137.98 112.909C138.087 113.263 138.22 113.609 138.381 113.947C138.537 114.278 138.711 114.579 138.903 114.852C139.193 115.264 139.464 115.508 139.715 115.584C139.967 115.66 140.196 115.625 140.402 115.48ZM75.906 175.971C75.735 175.728 75.6211 175.473 75.5643 175.204C75.5148 174.931 75.5192 174.664 75.5774 174.402C75.6305 174.134 75.7388 173.881 75.9026 173.645C76.0685 173.396 76.2839 173.178 76.5488 172.992C76.902 172.743 77.2585 172.624 77.6183 172.635C77.9782 172.645 78.2565 172.791 78.4535 173.07C78.5623 173.225 78.6037 173.377 78.5776 173.528C78.5588 173.673 78.4759 173.798 78.3287 173.901C78.1595 174.02 78.0044 174.058 77.8634 174.014C77.7173 173.963 77.577 173.897 77.4426 173.815C77.303 173.727 77.1675 173.651 77.036 173.59C76.9046 173.528 76.769 173.547 76.6292 173.645C76.4673 173.759 76.3804 173.925 76.3685 174.142C76.3566 174.36 76.4232 174.572 76.5683 174.778C76.7394 175.021 76.9699 175.2 77.26 175.314C77.5523 175.417 77.8671 175.52 78.2043 175.624C78.5416 175.727 78.876 175.866 79.2075 176.04C79.5465 176.208 79.8455 176.477 80.1046 176.845C80.2808 177.095 80.3915 177.369 80.4366 177.668C80.4891 177.961 80.4829 178.257 80.4182 178.556C80.3556 178.842 80.2403 179.116 80.0722 179.377C79.9041 179.639 79.695 179.858 79.4448 180.034C79.0033 180.345 78.5827 180.498 78.1831 180.493C77.7908 180.483 77.4859 180.324 77.2682 180.015C77.1179 179.801 77.0491 179.602 77.0618 179.417C77.0767 179.219 77.1688 179.061 77.3381 178.942C77.6545 178.719 77.9876 178.809 78.3375 179.212C78.5254 179.432 78.6737 179.564 78.7822 179.609C78.8929 179.641 79.0328 179.597 79.2021 179.478C79.467 179.292 79.6222 179.067 79.6679 178.803C79.7084 178.533 79.6302 178.258 79.4333 177.978C79.226 177.684 78.9684 177.474 78.6606 177.35C78.3528 177.225 78.0354 177.119 77.7085 177.03C77.3764 176.933 77.0513 176.815 76.7331 176.676C76.4149 176.537 76.1392 176.302 75.906 175.971ZM83.7797 171.68C83.6405 171.217 83.5189 170.856 83.415 170.599C83.3183 170.337 83.2104 170.122 83.0912 169.952C82.972 169.783 82.8597 169.686 82.7542 169.661C82.6508 169.624 82.533 169.652 82.4005 169.745C82.1724 169.906 82.0102 170.152 81.9138 170.484C81.8175 170.816 81.7874 171.25 81.8236 171.786C81.8672 172.317 81.9723 172.959 82.1389 173.711C82.3055 174.463 82.5377 175.34 82.8355 176.341L83.1181 177.281L82.191 177.934L79.1056 168.912C79.0276 168.692 78.954 168.502 78.885 168.341C78.8159 168.18 78.7529 168.06 78.6959 167.979C78.5923 167.832 78.4498 167.778 78.2685 167.817C78.0873 167.857 77.8038 168.002 77.4182 168.251L77.1845 167.755L79.4361 166.169L81.1786 171.316L81.2272 171.315C81.2191 170.803 81.3048 170.346 81.4842 169.945C81.6585 169.536 81.9149 169.212 82.2534 168.974C82.6066 168.725 82.9477 168.639 83.2768 168.715C83.6058 168.792 83.9077 169.025 84.1824 169.415C84.3534 169.658 84.5161 169.967 84.6706 170.343C84.825 170.718 84.9727 171.17 85.1136 171.698C85.2463 172.199 85.3525 172.592 85.4322 172.877C85.512 173.163 85.5775 173.381 85.6288 173.532C85.6749 173.675 85.7062 173.774 85.7226 173.829C85.7463 173.878 85.7685 173.918 85.7893 173.947C85.9085 174.116 86.038 174.152 86.1778 174.053C86.3249 173.949 86.4456 173.738 86.5398 173.418C86.6361 173.086 86.6858 172.688 86.6889 172.223L87.1612 172.238C87.1938 172.534 87.1891 172.84 87.1473 173.156C87.1128 173.466 87.0444 173.767 86.942 174.06C86.8418 174.339 86.7161 174.599 86.5649 174.837C86.4159 175.063 86.2494 175.241 86.0655 175.371C85.8668 175.511 85.6844 175.556 85.5184 175.508C85.3524 175.46 85.1838 175.315 85.0128 175.072C84.9247 174.947 84.8425 174.806 84.7661 174.651C84.6897 174.496 84.6047 174.297 84.5111 174.055C84.4196 173.8 84.3155 173.488 84.1987 173.119C84.084 172.737 83.9444 172.258 83.7797 171.68ZM90.7476 172.073C90.4974 172.249 90.2283 172.367 89.9402 172.427C89.6542 172.474 89.3629 172.459 89.0663 172.382C88.7697 172.305 88.4777 172.163 88.1903 171.959C87.8977 171.746 87.6296 171.467 87.386 171.121C87.0491 170.643 86.8057 170.11 86.6558 169.522C86.5133 168.929 86.4622 168.349 86.5026 167.781C86.5429 167.213 86.673 166.686 86.8928 166.201C87.1199 165.711 87.4359 165.324 87.8405 165.038C88.1054 164.852 88.3845 164.732 88.6778 164.68C88.9733 164.615 89.2657 164.624 89.5549 164.706C89.8464 164.776 90.1295 164.912 90.4044 165.115C90.6814 165.305 90.9314 165.558 91.1542 165.875C91.4807 166.338 91.7179 166.87 91.8656 167.471C92.0133 168.071 92.0685 168.666 92.0312 169.253C92.0011 169.836 91.8803 170.383 91.6688 170.896C91.452 171.401 91.1449 171.793 90.7476 172.073ZM90.4251 171.474C90.6753 171.298 90.8311 170.996 90.8925 170.567C90.9613 170.133 90.954 169.654 90.8706 169.129C90.7894 168.592 90.6445 168.05 90.4357 167.504C90.2343 166.952 89.9859 166.467 89.6904 166.047C89.4158 165.657 89.1567 165.438 88.9132 165.389C88.6772 165.335 88.4414 165.391 88.2059 165.557C88.044 165.671 87.9199 165.847 87.8336 166.084C87.7495 166.308 87.7038 166.571 87.6966 166.874C87.6893 167.176 87.7102 167.503 87.7592 167.853C87.8155 168.199 87.8968 168.549 88.0033 168.903C88.1098 169.258 88.2435 169.604 88.4045 169.942C88.5603 170.272 88.7341 170.574 88.9258 170.846C89.216 171.258 89.487 171.502 89.7386 171.578C89.9903 171.654 90.2191 171.619 90.4251 171.474ZM91.6335 165.091C91.6881 164.591 91.7991 164.1 91.9665 163.618C92.1288 163.13 92.3431 162.676 92.6095 162.257L91.8845 160.126L92.7233 159.535L93.3709 161.275C93.4731 161.17 93.5742 161.072 93.6742 160.979C93.7815 160.881 93.8941 160.791 94.0118 160.708C94.6373 160.268 95.2421 160.095 95.8263 160.19C96.4105 160.285 96.9177 160.638 97.3479 161.248C97.6899 161.734 97.8961 162.277 97.9664 162.877C98.0389 163.464 97.9994 164.064 97.8478 164.677C97.7036 165.285 97.458 165.882 97.1109 166.468C96.766 167.041 96.3473 167.556 95.8546 168.013L96.5268 169.835C96.5678 169.971 96.6068 170.082 96.6439 170.165C96.6884 170.244 96.7313 170.313 96.7728 170.372C96.9024 170.556 97.0666 170.633 97.2656 170.603C97.472 170.567 97.769 170.419 98.1568 170.157L98.4016 170.645L95.2781 172.845L95.0334 172.357C95.3424 172.139 95.5409 171.944 95.6289 171.772C95.7168 171.6 95.7229 171.398 95.647 171.165L92.8405 162.937C92.6645 163.281 92.5203 163.647 92.4079 164.034C92.2903 164.414 92.204 164.8 92.1491 165.191L91.6335 165.091ZM94.1058 161.451C94.0101 161.519 93.9197 161.593 93.8344 161.675C93.7512 161.745 93.6707 161.818 93.5928 161.895L95.6417 167.453C95.9578 167.121 96.2188 166.733 96.4247 166.291C96.638 165.843 96.7771 165.377 96.842 164.891C96.9069 164.404 96.8934 163.924 96.8013 163.45C96.7114 162.962 96.5265 162.52 96.2467 162.123C95.9357 161.681 95.5839 161.401 95.1913 161.281C94.8061 161.156 94.4442 161.213 94.1058 161.451ZM104.579 160.96C104.917 161.845 105.156 162.591 105.296 163.196C105.442 163.809 105.5 164.33 105.471 164.757C105.442 165.185 105.339 165.539 105.161 165.818C104.976 166.102 104.725 166.356 104.409 166.579C104.1 166.796 103.789 166.894 103.476 166.872C103.164 166.85 102.924 166.722 102.759 166.486C102.629 166.302 102.573 166.121 102.591 165.944C102.614 165.773 102.71 165.628 102.88 165.509C103.034 165.4 103.169 165.366 103.285 165.405C103.401 165.445 103.515 165.497 103.626 165.561C103.73 165.631 103.837 165.688 103.945 165.733C104.054 165.778 104.182 165.748 104.329 165.644C104.498 165.525 104.59 165.328 104.606 165.053C104.621 164.778 104.565 164.471 104.436 164.132L101.66 156.791L100.6 157.537L100.386 156.929L101.435 156.19C101.13 155.414 100.91 154.727 100.775 154.128C100.64 153.53 100.579 153.006 100.592 152.556C100.601 152.099 100.683 151.716 100.84 151.407C100.992 151.091 101.211 150.832 101.498 150.63C101.932 150.324 102.354 150.165 102.763 150.152C103.167 150.132 103.465 150.258 103.657 150.53C103.776 150.699 103.829 150.876 103.816 151.061C103.811 151.241 103.724 151.391 103.554 151.51C103.415 151.609 103.286 151.661 103.169 151.666C103.059 151.666 102.953 151.642 102.852 151.592C102.759 151.537 102.669 151.473 102.585 151.4C102.508 151.322 102.427 151.253 102.34 151.193C102.254 151.133 102.163 151.098 102.068 151.088C101.973 151.078 101.866 151.114 101.749 151.197C101.601 151.301 101.511 151.485 101.478 151.751C101.447 152.004 101.466 152.32 101.536 152.701C101.601 153.073 101.711 153.496 101.868 153.969C102.025 154.442 102.219 154.944 102.45 155.475L103.565 154.69L103.768 155.306L102.686 156.068L104.579 160.96ZM104.348 155.872C104.299 155.631 104.288 155.358 104.315 155.053C104.345 154.735 104.401 154.431 104.483 154.142C104.568 153.84 104.673 153.568 104.799 153.325C104.925 153.082 105.062 152.909 105.209 152.805C105.386 152.681 105.561 152.656 105.735 152.732C105.91 152.807 106.1 152.992 106.308 153.286C106.391 153.404 106.464 153.523 106.527 153.644C106.597 153.759 106.669 153.901 106.743 154.069L106.8 154.079C106.738 153.803 106.715 153.505 106.732 153.185C106.749 152.865 106.795 152.563 106.87 152.279C106.947 151.983 107.048 151.719 107.172 151.489C107.298 151.246 107.446 151.065 107.615 150.945C107.828 150.795 108.054 150.741 108.292 150.782C108.533 150.811 108.723 150.925 108.863 151.123C108.998 151.315 109.046 151.517 109.009 151.73C108.98 151.938 108.869 152.109 108.678 152.244C108.56 152.327 108.449 152.372 108.344 152.38C108.247 152.382 108.157 152.38 108.075 152.372C107.987 152.357 107.905 152.343 107.83 152.33C107.755 152.316 107.684 152.333 107.618 152.38C107.478 152.478 107.384 152.688 107.334 153.009C107.28 153.322 107.267 153.711 107.297 154.175C107.326 154.638 107.394 155.157 107.501 155.731C107.616 156.3 107.768 156.892 107.959 157.506L108.535 159.379L107.509 160.102L106.617 157.312C106.446 156.772 106.303 156.328 106.189 155.978C106.078 155.617 105.98 155.322 105.897 155.095C105.809 154.86 105.733 154.682 105.67 154.561C105.614 154.435 105.558 154.332 105.501 154.251C105.387 154.089 105.275 154.047 105.164 154.125C105.091 154.176 105.02 154.271 104.951 154.407C104.889 154.539 104.838 154.685 104.797 154.846C104.756 155.006 104.727 155.176 104.709 155.353C104.698 155.526 104.707 155.679 104.736 155.813L104.348 155.872ZM114.309 155.477C114.059 155.654 113.79 155.772 113.502 155.831C113.216 155.879 112.924 155.864 112.628 155.786C112.331 155.709 112.039 155.568 111.752 155.363C111.459 155.151 111.191 154.872 110.948 154.526C110.611 154.048 110.367 153.515 110.217 152.927C110.075 152.334 110.024 151.753 110.064 151.185C110.104 150.617 110.235 150.091 110.454 149.606C110.681 149.116 110.997 148.728 111.402 148.443C111.667 148.256 111.946 148.137 112.239 148.084C112.535 148.019 112.827 148.028 113.116 148.111C113.408 148.181 113.691 148.317 113.966 148.52C114.243 148.71 114.493 148.963 114.716 149.279C115.042 149.743 115.279 150.275 115.427 150.875C115.575 151.476 115.63 152.07 115.593 152.658C115.563 153.24 115.442 153.788 115.23 154.3C115.014 154.805 114.706 155.197 114.309 155.477ZM113.987 154.879C114.237 154.703 114.393 154.4 114.454 153.972C114.523 153.538 114.516 153.059 114.432 152.534C114.351 151.997 114.206 151.455 113.997 150.908C113.796 150.357 113.547 149.871 113.252 149.452C112.977 149.062 112.718 148.842 112.475 148.794C112.239 148.74 112.003 148.796 111.767 148.962C111.606 149.076 111.481 149.251 111.395 149.488C111.311 149.713 111.265 149.976 111.258 150.278C111.251 150.581 111.272 150.907 111.321 151.258C111.377 151.604 111.458 151.954 111.565 152.308C111.671 152.662 111.805 153.008 111.966 153.346C112.122 153.677 112.296 153.978 112.487 154.251C112.778 154.663 113.048 154.907 113.3 154.983C113.552 155.059 113.781 155.024 113.987 154.879ZM122.674 143.922C122.577 143.583 122.498 143.314 122.436 143.115C122.38 142.912 122.336 142.756 122.304 142.647C122.266 142.531 122.232 142.444 122.203 142.387C122.175 142.331 122.145 142.28 122.113 142.236C121.963 142.023 121.814 141.968 121.667 142.071C121.469 142.211 121.329 142.513 121.248 142.977C121.163 143.434 121.141 144.028 121.182 144.758C121.196 145.012 121.22 145.265 121.254 145.517C121.282 145.761 121.337 146.058 121.419 146.408C121.495 146.75 121.605 147.179 121.748 147.695C121.891 148.211 122.076 148.873 122.304 149.681L121.267 150.412L120.433 147.68C120.256 147.1 120.107 146.616 119.987 146.227C119.862 145.831 119.754 145.505 119.663 145.25C119.571 144.995 119.492 144.798 119.426 144.657C119.368 144.511 119.31 144.398 119.253 144.317C119.082 144.074 118.904 144.018 118.72 144.147C118.573 144.251 118.456 144.46 118.369 144.774C118.283 145.088 118.228 145.457 118.207 145.879C118.185 146.302 118.197 146.756 118.242 147.242C118.289 147.715 118.37 148.175 118.487 148.621L119.324 151.78L118.353 152.464L117.39 149.361C117.229 148.836 117.091 148.399 116.978 148.05C116.859 147.693 116.76 147.405 116.682 147.184C116.599 146.957 116.529 146.78 116.474 146.654C116.418 146.528 116.364 146.429 116.312 146.355C116.167 146.149 116.032 146.09 115.907 146.178C115.826 146.235 115.764 146.35 115.721 146.524C115.686 146.692 115.672 146.899 115.681 147.146C115.685 147.386 115.706 147.651 115.746 147.943C115.794 148.229 115.86 148.518 115.945 148.81L115.497 148.878C115.221 147.939 115.114 147.177 115.176 146.594C115.246 146.005 115.487 145.566 115.899 145.276C116.134 145.11 116.347 145.059 116.536 145.124C116.732 145.184 116.939 145.369 117.157 145.678C117.405 146.031 117.581 146.414 117.684 146.825L117.741 146.835C117.528 145.08 117.805 143.933 118.57 143.394C118.857 143.192 119.144 143.122 119.43 143.185C119.711 143.24 119.96 143.422 120.178 143.731C120.25 143.834 120.319 143.963 120.383 144.116C120.454 144.264 120.543 144.492 120.651 144.802L120.696 144.819C120.654 144.321 120.639 143.886 120.652 143.513C120.667 143.128 120.708 142.796 120.776 142.518C120.844 142.239 120.94 142 121.065 141.802C121.197 141.599 121.359 141.43 121.55 141.295C121.837 141.093 122.105 141.02 122.353 141.076C122.609 141.127 122.854 141.318 123.087 141.649C123.16 141.752 123.229 141.874 123.295 142.015C123.356 142.148 123.424 142.315 123.499 142.515C123.569 142.708 123.645 142.941 123.727 143.213C123.811 143.473 123.908 143.784 124.02 144.146C124.159 144.609 124.273 144.981 124.36 145.261C124.441 145.534 124.511 145.749 124.567 145.907C124.624 146.066 124.668 146.183 124.7 146.26C124.739 146.331 124.782 146.4 124.829 146.466C124.927 146.606 125.013 146.65 125.087 146.598C125.197 146.52 125.29 146.301 125.366 145.939C125.436 145.57 125.493 145.041 125.535 144.351L125.931 144.303C125.977 144.634 125.986 144.991 125.958 145.374C125.933 145.744 125.881 146.1 125.802 146.441C125.718 146.776 125.611 147.077 125.48 147.345C125.357 147.608 125.219 147.793 125.064 147.902C124.88 148.032 124.679 148.058 124.459 147.981C124.242 147.892 124.04 147.715 123.854 147.45C123.792 147.362 123.729 147.257 123.666 147.136C123.61 147.011 123.539 146.824 123.453 146.576C123.374 146.324 123.271 145.989 123.143 145.573C123.022 145.152 122.866 144.601 122.674 143.922ZM129.401 144.848C129.21 144.982 129.001 145.03 128.775 144.991C128.55 144.952 128.369 144.837 128.235 144.645C128.095 144.447 128.044 144.234 128.083 144.009C128.125 143.77 128.241 143.584 128.432 143.449C128.624 143.314 128.835 143.27 129.066 143.317C129.304 143.358 129.491 143.474 129.625 143.666C129.76 143.857 129.804 144.068 129.758 144.299C129.718 144.525 129.6 144.708 129.401 144.848ZM126.484 141.948C126.235 141.595 126.096 141.242 126.067 140.888C126.04 140.522 126.071 140.159 126.159 139.799C126.255 139.435 126.378 139.078 126.529 138.73C126.674 138.374 126.802 138.031 126.91 137.701C127.027 137.366 127.091 137.051 127.103 136.756C127.123 136.456 127.045 136.181 126.869 135.931C126.651 135.622 126.365 135.449 126.009 135.414C125.648 135.37 125.291 135.473 124.938 135.722C124.629 135.94 124.422 136.201 124.318 136.506C124.216 136.798 124.247 137.062 124.413 137.297C124.517 137.444 124.627 137.515 124.744 137.51C124.856 137.497 124.973 137.475 125.095 137.445C125.211 137.407 125.328 137.385 125.445 137.379C125.562 137.374 125.678 137.452 125.792 137.614C125.911 137.783 125.949 137.954 125.906 138.128C125.871 138.296 125.757 138.448 125.566 138.582C125.264 138.795 124.935 138.867 124.579 138.799C124.23 138.725 123.944 138.53 123.721 138.214C123.566 137.993 123.47 137.747 123.433 137.476C123.403 137.2 123.428 136.923 123.509 136.646C123.589 136.37 123.726 136.103 123.919 135.845C124.107 135.581 124.341 135.35 124.62 135.153C124.9 134.956 125.185 134.822 125.475 134.749C125.76 134.67 126.035 134.653 126.298 134.698C126.569 134.739 126.826 134.838 127.07 134.997C127.308 135.148 127.521 135.356 127.707 135.621C127.972 135.996 128.121 136.381 128.156 136.774C128.194 137.155 128.172 137.539 128.092 137.926C128.007 138.305 127.884 138.678 127.724 139.044C127.564 139.41 127.423 139.757 127.301 140.085C127.18 140.412 127.098 140.718 127.055 141.001C127.015 141.272 127.064 141.507 127.204 141.705C127.411 142 127.684 142.028 128.023 141.789C128.361 141.551 128.501 141.171 128.443 140.651L128.865 140.618C128.99 141.389 128.784 141.963 128.247 142.341C127.923 142.569 127.612 142.651 127.313 142.586C127.009 142.514 126.733 142.302 126.484 141.948ZM134.564 141.211C134.372 141.346 134.164 141.394 133.938 141.354C133.712 141.315 133.532 141.2 133.397 141.009C133.258 140.81 133.207 140.598 133.246 140.372C133.288 140.134 133.404 139.947 133.595 139.813C133.787 139.678 133.998 139.634 134.229 139.68C134.467 139.722 134.653 139.838 134.788 140.029C134.923 140.221 134.967 140.432 134.92 140.663C134.881 140.888 134.762 141.071 134.564 141.211ZM131.647 138.312C131.398 137.959 131.259 137.605 131.23 137.251C131.203 136.885 131.234 136.522 131.322 136.163C131.417 135.798 131.541 135.442 131.691 135.094C131.837 134.738 131.964 134.395 132.073 134.065C132.19 133.73 132.254 133.415 132.266 133.12C132.286 132.82 132.208 132.545 132.032 132.294C131.814 131.985 131.527 131.813 131.172 131.777C130.811 131.734 130.454 131.837 130.101 132.085C129.792 132.303 129.585 132.564 129.481 132.869C129.378 133.161 129.41 133.425 129.576 133.661C129.68 133.808 129.79 133.879 129.907 133.873C130.019 133.86 130.136 133.839 130.258 133.808C130.374 133.77 130.491 133.748 130.608 133.743C130.725 133.737 130.841 133.816 130.955 133.978C131.074 134.147 131.112 134.318 131.069 134.491C131.034 134.66 130.92 134.811 130.729 134.946C130.427 135.158 130.098 135.23 129.742 135.162C129.393 135.089 129.107 134.894 128.884 134.577C128.729 134.357 128.632 134.111 128.596 133.84C128.566 133.563 128.591 133.287 128.672 133.01C128.752 132.733 128.889 132.466 129.082 132.209C129.27 131.944 129.504 131.714 129.783 131.517C130.063 131.32 130.348 131.185 130.638 131.113C130.923 131.033 131.197 131.016 131.461 131.062C131.731 131.102 131.989 131.202 132.232 131.36C132.471 131.512 132.684 131.72 132.87 131.985C133.135 132.36 133.284 132.744 133.319 133.138C133.357 133.519 133.335 133.903 133.255 134.289C133.17 134.669 133.047 135.041 132.887 135.407C132.726 135.774 132.585 136.121 132.464 136.448C132.343 136.776 132.261 137.081 132.218 137.365C132.177 137.635 132.227 137.87 132.367 138.069C132.574 138.363 132.847 138.391 133.186 138.153C133.524 137.914 133.664 137.535 133.606 137.015L134.028 136.981C134.153 137.752 133.947 138.327 133.41 138.705C133.086 138.933 132.775 139.015 132.476 138.95C132.172 138.878 131.895 138.665 131.647 138.312ZM139.727 137.575C139.535 137.709 139.327 137.757 139.101 137.718C138.875 137.679 138.695 137.564 138.56 137.372C138.42 137.174 138.37 136.962 138.409 136.736C138.45 136.497 138.567 136.311 138.758 136.176C138.949 136.041 139.161 135.997 139.391 136.044C139.63 136.085 139.816 136.202 139.951 136.393C140.086 136.584 140.13 136.795 140.083 137.026C140.044 137.252 139.925 137.435 139.727 137.575ZM136.809 134.676C136.561 134.322 136.422 133.969 136.393 133.615C136.366 133.249 136.397 132.886 136.485 132.527C136.58 132.162 136.703 131.806 136.854 131.457C137 131.101 137.127 130.758 137.236 130.429C137.352 130.093 137.417 129.778 137.429 129.483C137.449 129.183 137.371 128.908 137.195 128.658C136.977 128.349 136.69 128.177 136.335 128.141C135.974 128.098 135.617 128.2 135.264 128.449C134.955 128.667 134.748 128.928 134.644 129.233C134.541 129.525 134.573 129.789 134.739 130.024C134.842 130.172 134.953 130.242 135.07 130.237C135.182 130.224 135.299 130.202 135.421 130.172C135.537 130.134 135.654 130.112 135.771 130.107C135.888 130.101 136.004 130.179 136.118 130.341C136.237 130.51 136.275 130.682 136.232 130.855C136.196 131.023 136.083 131.175 135.892 131.309C135.59 131.522 135.261 131.594 134.905 131.526C134.556 131.452 134.27 131.257 134.047 130.941C133.891 130.72 133.795 130.474 133.758 130.203C133.729 129.927 133.754 129.65 133.834 129.373C133.915 129.097 134.051 128.83 134.245 128.573C134.433 128.308 134.666 128.077 134.946 127.88C135.226 127.683 135.511 127.549 135.801 127.476C136.086 127.397 136.36 127.38 136.624 127.425C136.894 127.466 137.152 127.565 137.395 127.724C137.634 127.875 137.846 128.083 138.033 128.348C138.297 128.723 138.447 129.108 138.482 129.501C138.519 129.883 138.498 130.266 138.418 130.653C138.333 131.032 138.21 131.405 138.05 131.771C137.889 132.137 137.748 132.484 137.627 132.812C137.505 133.14 137.423 133.445 137.381 133.728C137.34 133.999 137.39 134.234 137.53 134.432C137.737 134.727 138.01 134.755 138.349 134.516C138.687 134.278 138.827 133.898 138.769 133.378L139.191 133.345C139.316 134.116 139.11 134.69 138.572 135.069C138.249 135.297 137.937 135.378 137.639 135.314C137.335 135.241 137.058 135.029 136.809 134.676Z" fill="#65493B"/>
</svg>
