<svg width="229" height="230" viewBox="0 0 229 230" fill="none" xmlns="http://www.w3.org/2000/svg">
<path d="M156.859 87.9778C160.854 89.4973 162.757 94.3345 160.969 98.4381C156.93 107.704 151.609 122.602 151.671 136.876C151.701 144.039 153.088 151.161 156.778 157.346C158.531 160.284 160.784 162.975 163.608 165.342C155.142 162.782 144.502 159.499 132.887 155.879C96.5249 144.549 50.6859 129.958 32.3212 124.1C28.7733 122.969 26.7445 119.261 27.6946 115.644L44.0548 53.3839C45.1148 49.3501 49.4383 47.1256 53.3367 48.6082L156.859 87.9778Z" fill="#FCFDE5" stroke="#CC99D8" stroke-width="4.05452"/>
<path d="M67.6764 75.7019C68.3262 75.3014 68.8132 74.9892 69.1375 74.7655C69.4648 74.5336 69.6541 74.3482 69.7055 74.2093C69.7478 74.0949 69.7097 73.9972 69.591 73.9162C69.4836 73.83 69.2991 73.7385 69.0377 73.6418L69.3416 73.1969L72.5159 74.3712L72.2119 74.8161C72.0158 74.7436 71.8021 74.7063 71.5706 74.7042C71.3503 74.6971 71.0884 74.7395 70.785 74.8316C70.4927 74.9186 70.1477 75.0603 69.7499 75.2568C69.3521 75.4533 68.8914 75.7195 68.3677 76.0552L60.7188 80.8748L59.6893 80.494L63.1757 75.1376L56.5273 79.3242L55.4978 78.9433L59.9853 72.0484C60.2405 71.6598 60.4059 71.3634 60.4815 71.1591C60.5691 70.9222 60.5505 70.7341 60.4254 70.595C60.3004 70.4559 60.0132 70.3032 59.5638 70.1369L59.8678 69.692L63.2504 70.9434L62.9465 71.3883C62.7749 71.3248 62.6203 71.2909 62.4826 71.2864C62.3561 71.2767 62.2227 71.311 62.0823 71.3891C61.9501 71.4702 61.8095 71.5993 61.6604 71.7764C61.5194 71.9565 61.3518 72.1963 61.1573 72.496L57.8746 77.5654L57.9236 77.5836L64.0507 73.7893L64.1768 73.5991C64.432 73.2105 64.5974 72.9141 64.673 72.7098C64.7606 72.4728 64.7501 72.2878 64.6415 72.1547C64.5328 72.0216 64.2783 71.881 63.8779 71.7329L64.1818 71.288L67.687 72.5848L67.3831 73.0297C67.1462 72.942 66.9425 72.8899 66.7722 72.8733C66.6048 72.8486 66.4469 72.8737 66.2984 72.9488C66.1528 73.0158 66.0055 73.1377 65.8564 73.3148C65.7155 73.4949 65.5463 73.7388 65.3488 74.0466L62.0661 79.1161L62.1151 79.1342L67.6764 75.7019ZM73.0385 80.96C73.3316 80.5946 73.552 80.3 73.6999 80.076C73.856 79.8551 73.9687 79.6507 74.0383 79.4628C74.1078 79.2748 74.1235 79.132 74.0853 79.0343C74.0583 78.9314 73.9713 78.8528 73.8243 78.7984C73.571 78.7047 73.2855 78.7105 72.9678 78.8159C72.6502 78.9214 72.2876 79.1356 71.8802 79.4586C71.4809 79.7846 71.027 80.2204 70.5186 80.7662C70.0102 81.3119 69.4386 81.9782 68.8037 82.7652L68.209 83.5065L67.1795 83.1257L72.6803 75.7139C72.8131 75.5308 72.9245 75.3677 73.0146 75.2245C73.1047 75.0814 73.1664 74.9649 73.1997 74.875C73.2601 74.7116 73.2248 74.5685 73.0938 74.4457C72.9627 74.3229 72.6918 74.1762 72.2812 74.0057L72.5483 73.5472L75.0485 74.4722L71.9012 78.6861L71.9289 78.7242C72.3324 78.4369 72.7436 78.2546 73.1623 78.1773C73.5841 78.0918 73.9829 78.1186 74.3587 78.2576C74.7509 78.4027 75.0068 78.6274 75.1264 78.9318C75.2461 79.2361 75.2258 79.6048 75.0656 80.0379C74.9658 80.3075 74.8086 80.607 74.5939 80.9362C74.3792 81.2655 74.0999 81.6313 73.756 82.0335C73.4294 82.4143 73.1743 82.7147 72.9907 82.9347C72.8071 83.1548 72.6692 83.3267 72.5769 83.4505C72.4877 83.5661 72.4259 83.6454 72.3914 83.6883C72.3651 83.7343 72.3459 83.7737 72.3338 83.8064C72.2643 83.9943 72.3071 84.117 72.4624 84.1744C72.6258 84.2349 72.8607 84.215 73.1672 84.1147C73.4849 84.0093 73.8297 83.8303 74.2018 83.5778L74.4498 83.9622C74.2314 84.1508 73.9848 84.315 73.7101 84.4549C73.4436 84.5978 73.1658 84.7086 72.8765 84.7874C72.5985 84.861 72.3229 84.9031 72.0496 84.9134C71.7876 84.9187 71.5545 84.8835 71.3502 84.808C71.1296 84.7263 70.9929 84.6061 70.9402 84.4473C70.8875 84.2885 70.911 84.0742 71.0108 83.8046C71.0622 83.6657 71.1289 83.5232 71.2108 83.377C71.2927 83.2308 71.4046 83.0539 71.5465 82.8463C71.6995 82.6335 71.8911 82.3793 72.1212 82.0836C72.3626 81.7827 72.6683 81.4082 73.0385 80.96ZM80.5845 81.2854C80.274 81.1705 79.8984 81.1941 79.4576 81.3562C79.0249 81.5212 78.5937 81.7704 78.1639 82.1037C77.7371 82.4288 77.3457 82.8088 76.9897 83.2438C76.6368 83.6705 76.3817 84.0963 76.2245 84.5212C76.1157 84.8154 76.0893 85.075 76.1454 85.3001C76.2045 85.517 76.3402 85.6648 76.5527 85.7433C76.7406 85.8129 76.9639 85.8119 77.2226 85.7404C77.4842 85.6607 77.7544 85.5331 78.033 85.3575C78.3228 85.1767 78.6124 84.9588 78.9019 84.7036C79.1914 84.4484 79.4634 84.1775 79.7181 83.8909C79.9758 83.5961 80.2019 83.2989 80.3963 82.9993C80.5907 82.6996 80.7363 82.4191 80.8331 82.1576C80.9116 81.9452 80.9287 81.7611 80.8841 81.6053C80.8396 81.4495 80.7397 81.3428 80.5845 81.2854ZM82.0373 81.2377L83.0545 81.614L81.6622 83.2307C81.4329 83.4989 81.1961 83.7875 80.9518 84.0965C80.7156 84.4085 80.4921 84.7113 80.2813 85.0049C80.0787 85.3015 79.903 85.5755 79.7542 85.827C79.6054 86.0785 79.5069 86.2696 79.4585 86.4004C79.3709 86.6373 79.4046 86.7845 79.5599 86.8419C79.6743 86.8843 79.8815 86.8262 80.1816 86.6679C80.4899 86.5126 80.8483 86.2968 81.257 86.0207L81.4805 86.396C80.9136 86.8737 80.368 87.2059 79.8437 87.3928C79.3307 87.5746 78.8903 87.5974 78.5226 87.4614C78.3347 87.3919 78.2133 87.268 78.1585 87.0898C78.1148 86.9065 78.1535 86.6514 78.2744 86.3246C78.3016 86.251 78.3333 86.1652 78.3696 86.0672C78.414 85.9722 78.4746 85.846 78.5514 85.6886L78.5069 85.6582C78.2998 85.8416 78.0741 85.9997 77.83 86.1323C77.597 86.2598 77.3553 86.3608 77.1048 86.4353C76.8573 86.5016 76.6138 86.5323 76.3741 86.5272C76.1315 86.5303 75.908 86.4941 75.7037 86.4185C75.287 86.2644 75.0176 85.9882 74.8956 85.5901C74.7847 85.1868 74.832 84.7074 75.0375 84.1518C75.2461 83.588 75.5777 83.0558 76.0323 82.5552C76.4868 82.0545 76.9897 81.6368 77.5409 81.302C78.0951 80.9589 78.6569 80.7209 79.2263 80.5879C79.7987 80.4467 80.3055 80.4577 80.7467 80.6209C81.0163 80.7206 81.2128 80.8676 81.336 81.0618C81.4622 81.2479 81.5256 81.5035 81.526 81.8288L82.0373 81.2377ZM86.1994 83.9339L83.9353 86.928C83.6332 87.3178 83.4357 87.6256 83.3429 87.8514C83.3157 87.9249 83.3079 87.9963 83.3194 88.0656C83.3391 88.1379 83.3939 88.1907 83.4838 88.2239C83.6308 88.2783 83.8057 88.2827 84.0084 88.2369C84.2142 88.183 84.4178 88.1097 84.6192 88.017C84.8319 87.9192 85.0242 87.8138 85.196 87.7009C85.379 87.5828 85.5157 87.4894 85.6062 87.4207L85.8845 87.7606C85.6428 87.987 85.3674 88.1916 85.0583 88.3745C84.7521 88.5492 84.4443 88.6907 84.1348 88.7992C83.8253 88.9076 83.5253 88.9778 83.2349 89.0096C82.9556 89.0364 82.7179 89.0135 82.5218 88.9409C82.2359 88.8351 82.0502 88.6968 81.9648 88.5258C81.8876 88.3579 81.9019 88.131 82.0077 87.845C82.0681 87.6816 82.1783 87.4716 82.3383 87.215C82.4983 86.9583 82.7369 86.6147 83.0541 86.184L85.0719 83.5168L84.0179 83.1269L84.3858 82.622L85.4521 83.0165L86.8692 81.1443L87.9968 81.5614L86.5796 83.4336L87.9155 83.9279L87.5353 84.4282L86.1994 83.9339ZM94.254 90.8986C93.6599 91.4499 93.0676 91.8206 92.477 92.0108C91.8947 92.2041 91.3461 92.2055 90.8313 92.015C90.3003 91.8186 89.9419 91.4816 89.7562 91.0042C89.5736 90.5187 89.5941 89.9736 89.8178 89.369C89.9508 89.0094 90.1399 88.6614 90.3852 88.3249C90.6305 87.9883 90.908 87.6776 91.2177 87.3928C91.5274 87.1079 91.8623 86.8556 92.2223 86.6358C92.5822 86.416 92.9435 86.2431 93.3059 86.1171C93.6683 85.9911 94.0208 85.9172 94.3633 85.8952C94.717 85.8682 95.0368 85.9076 95.3228 86.0134C95.715 86.1584 95.9984 86.3841 96.1731 86.6902C96.3478 86.9963 96.3762 87.3087 96.2584 87.6274C96.1828 87.8317 96.0595 87.9765 95.8886 88.0619C95.7289 88.1421 95.5551 88.1475 95.3671 88.0779C95.1792 88.0084 95.0451 87.8938 94.9649 87.7341C94.8958 87.5692 94.8931 87.401 94.9565 87.2294C94.9958 87.1232 95.0439 87.0434 95.1008 86.9901C95.1576 86.9369 95.1967 86.8816 95.2178 86.8244C95.2601 86.7101 95.1832 86.6166 94.9871 86.544C94.7175 86.4443 94.397 86.4697 94.0254 86.6202C93.6539 86.7707 93.2797 87.0038 92.9029 87.3195C92.5341 87.6383 92.184 88.0197 91.8526 88.4637C91.5323 88.9025 91.2815 89.3671 91.1001 89.8573C90.9551 90.2495 90.9137 90.5872 90.9762 90.8704C91.0498 91.1484 91.2214 91.3373 91.491 91.437C91.6381 91.4914 91.8044 91.5065 91.9899 91.4822C92.1835 91.461 92.3877 91.4111 92.6025 91.3327C92.8203 91.2461 93.0391 91.1319 93.2587 90.9902C93.4865 90.8516 93.7055 90.6864 93.9157 90.4948L94.254 90.8986ZM100.644 88.7064C100.333 88.5916 99.9578 88.6152 99.517 88.7772C99.0844 88.9423 98.6532 89.1914 98.2233 89.5247C97.7965 89.8499 97.4051 90.2299 97.0492 90.6648C96.6962 91.0916 96.4412 91.5174 96.284 91.9423C96.1752 92.2364 96.1488 92.496 96.2048 92.7211C96.2639 92.938 96.3997 93.0858 96.6121 93.1644C96.8 93.2339 97.0233 93.2329 97.282 93.1614C97.5437 93.0817 97.8139 92.9541 98.0925 92.7785C98.3823 92.5978 98.6719 92.3798 98.9614 92.1246C99.2508 91.8695 99.5229 91.5986 99.7776 91.3119C100.035 91.0171 100.261 90.7199 100.456 90.4203C100.65 90.1207 100.796 89.8401 100.893 89.5787C100.971 89.3662 100.988 89.1821 100.944 89.0263C100.899 88.8705 100.799 88.7639 100.644 88.7064ZM102.097 88.6587L103.114 89.035L101.722 90.6518C101.492 90.9199 101.256 91.2085 101.011 91.5175C100.775 91.8296 100.552 92.1324 100.341 92.4259C100.138 92.7225 99.9625 92.9966 99.8137 93.2481C99.6649 93.4996 99.5663 93.6907 99.518 93.8214C99.4303 94.0584 99.4641 94.2056 99.6194 94.263C99.7337 94.3053 99.941 94.2473 100.241 94.0889C100.549 93.9336 100.908 93.7179 101.316 93.4418L101.54 93.817C100.973 94.2947 100.428 94.627 99.9032 94.8139C99.3901 94.9956 98.9497 95.0185 98.5821 94.8824C98.3941 94.8129 98.2728 94.6891 98.2179 94.5109C98.1743 94.3275 98.2129 94.0724 98.3338 93.7456C98.361 93.6721 98.3928 93.5863 98.429 93.4882C98.4735 93.3932 98.5341 93.267 98.6109 93.1096L98.5664 93.0793C98.3592 93.2627 98.1336 93.4207 97.8894 93.5533C97.6565 93.6808 97.4148 93.7818 97.1643 93.8563C96.9168 93.9227 96.6732 93.9533 96.4336 93.9483C96.1909 93.9514 95.9675 93.9152 95.7632 93.8396C95.3465 93.6854 95.0771 93.4093 94.955 93.0111C94.8441 92.6078 94.8915 92.1284 95.097 91.5728C95.3056 91.009 95.6371 90.4768 96.0917 89.9762C96.5463 89.4756 97.0492 89.0578 97.6004 88.723C98.1545 88.38 98.7163 88.1419 99.2857 88.0089C99.8581 87.8677 100.365 87.8787 100.806 88.0419C101.076 88.1417 101.272 88.2887 101.395 88.4829C101.522 88.6689 101.585 88.9246 101.585 89.2498L102.097 88.6587ZM108.773 91.714C108.577 91.6414 108.315 91.6604 107.986 91.771C107.668 91.8764 107.317 92.0482 106.931 92.2865C106.557 92.5196 106.173 92.8048 105.779 93.142C105.385 93.4792 105.024 93.8382 104.698 94.219L102.884 96.3346L101.806 95.9356L103.751 93.4645C104.064 93.0696 104.329 92.7309 104.545 92.4485C104.761 92.1661 104.936 91.9293 105.072 91.738C105.219 91.5416 105.329 91.3826 105.402 91.2609C105.478 91.1311 105.531 91.0253 105.561 90.9436C105.643 90.723 105.614 90.587 105.475 90.5356C105.385 90.5024 105.258 90.5202 105.093 90.5893C104.928 90.6583 104.746 90.7626 104.545 90.9022C104.356 91.0366 104.161 91.2011 103.959 91.3958C103.757 91.5904 103.569 91.7952 103.397 92.0101L103.097 91.6902C103.695 90.9544 104.243 90.4513 104.743 90.181C105.25 89.9136 105.733 89.8645 106.19 90.0338C106.452 90.1305 106.608 90.2721 106.66 90.4585C106.72 90.6479 106.685 90.9182 106.555 91.2695C106.401 91.6863 106.194 92.0323 105.934 92.3078L105.957 92.3581C106.646 91.7769 107.265 91.3974 107.814 91.2196C108.374 91.0367 108.907 91.0389 109.414 91.2263C109.773 91.3593 110.015 91.5463 110.14 91.7874C110.264 92.0286 110.267 92.3084 110.149 92.6271C110.11 92.7333 110.054 92.8472 109.981 92.9689C109.916 93.0936 109.825 93.2408 109.706 93.4106C109.591 93.5722 109.441 93.7631 109.258 93.9831C109.082 94.2062 108.865 94.4789 108.607 94.8012C108.213 95.2873 107.886 95.6956 107.624 96.0261C107.362 96.3566 107.203 96.5995 107.145 96.7547C107.1 96.8773 107.118 96.9536 107.2 96.9839C107.314 97.0262 107.517 96.9942 107.807 96.8879C108.097 96.7816 108.507 96.5896 109.037 96.3119L109.292 96.6014C109.071 96.7982 108.81 96.9757 108.51 97.1341C108.221 97.2873 107.927 97.4155 107.629 97.5188C107.339 97.6251 107.062 97.6947 106.8 97.7274C106.537 97.7602 106.323 97.7464 106.16 97.6859C105.956 97.6104 105.826 97.46 105.77 97.2349C105.722 97.0129 105.752 96.7548 105.861 96.4606C105.903 96.3462 105.954 96.2349 106.012 96.1265C106.082 96.013 106.191 95.8581 106.338 95.6616C106.485 95.4652 106.687 95.2058 106.946 94.8835C107.216 94.556 107.574 94.1267 108.022 93.5955C108.174 93.4103 108.302 93.2532 108.405 93.1243C108.508 92.9953 108.592 92.8823 108.656 92.7851C108.731 92.6828 108.788 92.5923 108.826 92.5137C108.872 92.438 108.909 92.3634 108.937 92.2899C109.048 91.9875 108.994 91.7956 108.773 91.714ZM115.559 98.683C115.328 99.0062 115.173 99.2741 115.095 99.4865C114.992 99.7643 115.008 99.984 115.143 100.145C115.287 100.31 115.555 100.465 115.947 100.61L115.618 101.046L111.709 99.5994L112.025 99.159C112.27 99.2497 112.485 99.3104 112.668 99.3412C112.855 99.3639 113.029 99.3447 113.191 99.2839C113.361 99.226 113.526 99.1197 113.685 98.9651C113.845 98.8104 114.021 98.597 114.215 98.3249L117.653 93.4383C117.941 93.0343 118.127 92.7219 118.208 92.5013C118.302 92.2481 118.267 92.054 118.103 91.9191C117.951 91.779 117.654 91.6274 117.213 91.4642L117.529 91.0238L121.512 92.4974L121.196 92.9378C120.926 92.838 120.691 92.7835 120.49 92.7742C120.292 92.7567 120.1 92.7973 119.915 92.896C119.73 92.9947 119.536 93.1552 119.333 93.3773C119.138 93.6025 118.911 93.9038 118.651 94.2812L115.559 98.683ZM125.724 102.931C124.581 103.836 123.49 104.097 122.453 103.713C121.889 103.505 121.519 103.173 121.344 102.718C121.172 102.255 121.203 101.705 121.439 101.067C121.648 100.504 121.971 99.9821 122.408 99.5029C122.853 99.0268 123.347 98.6336 123.889 98.3232C124.434 98.0047 124.991 97.7927 125.56 97.6872C126.131 97.5736 126.65 97.6029 127.116 97.7752C127.508 97.9202 127.789 98.1403 127.958 98.4352C128.139 98.725 128.172 99.0252 128.057 99.3356C127.951 99.6216 127.736 99.8765 127.412 100.1C127.088 100.324 126.692 100.503 126.224 100.636C125.765 100.773 125.25 100.861 124.678 100.9C124.114 100.942 123.536 100.923 122.943 100.843C122.884 100.952 122.83 101.062 122.779 101.173C122.732 101.276 122.687 101.385 122.645 101.499C122.315 102.39 122.465 102.952 123.094 103.184C123.396 103.296 123.751 103.293 124.157 103.174C124.572 103.058 124.995 102.843 125.427 102.529L125.724 102.931ZM126.657 98.2605C126.445 98.1819 126.194 98.182 125.905 98.2608C125.616 98.3396 125.313 98.4785 124.998 98.6778C124.694 98.8718 124.391 99.1128 124.09 99.4006C123.788 99.6885 123.515 100.001 123.27 100.337C123.701 100.376 124.116 100.372 124.515 100.324C124.913 100.276 125.27 100.19 125.586 100.065C125.912 99.9355 126.189 99.7778 126.415 99.5922C126.645 99.3985 126.805 99.1791 126.896 98.9339C127.023 98.5908 126.943 98.3663 126.657 98.2605ZM133.432 102.662C133.492 102.498 133.53 102.345 133.546 102.202C133.573 102.054 133.588 101.911 133.593 101.774C133.606 101.639 133.617 101.509 133.626 101.382C133.644 101.259 133.676 101.136 133.721 101.013C133.893 100.547 134.192 100.393 134.617 100.55C134.87 100.644 135.017 100.8 135.056 101.019C135.104 101.241 135.051 101.561 134.897 101.978C134.737 102.411 134.52 102.832 134.248 103.242C133.979 103.644 133.673 104.019 133.331 104.366C132.992 104.705 132.629 105.007 132.243 105.273C131.856 105.539 131.47 105.754 131.085 105.918C130.699 106.081 130.322 106.184 129.954 106.224C129.594 106.267 129.263 106.233 128.961 106.121C128.74 106.04 128.547 105.922 128.381 105.767C128.227 105.608 128.109 105.425 128.027 105.218C127.946 105.012 127.903 104.787 127.9 104.544C127.905 104.305 127.953 104.062 128.044 103.817C128.216 103.352 128.545 102.851 129.031 102.316C129.517 101.78 130.117 101.264 130.831 100.766L130.82 100.72C130.599 100.638 130.428 100.538 130.305 100.418C130.182 100.298 130.082 100.178 130.006 100.057C129.939 99.9388 129.876 99.832 129.818 99.7365C129.769 99.6439 129.703 99.5825 129.622 99.5523C129.483 99.5009 129.388 99.5446 129.336 99.6835C129.309 99.7571 129.305 99.83 129.325 99.9023C129.353 99.9776 129.381 100.053 129.409 100.128C129.445 100.207 129.47 100.29 129.483 100.379C129.508 100.462 129.502 100.553 129.466 100.651C129.412 100.798 129.309 100.9 129.158 100.955C129.011 101.003 128.847 100.993 128.667 100.927C128.455 100.848 128.316 100.722 128.25 100.549C128.184 100.376 128.194 100.171 128.282 99.9344C128.358 99.7302 128.47 99.5533 128.618 99.4038C128.769 99.2461 128.94 99.1235 129.13 99.0359C129.32 98.9484 129.52 98.8971 129.73 98.8819C129.949 98.8697 130.16 98.9014 130.364 98.9769C130.527 99.0374 130.656 99.1174 130.749 99.2169C130.845 99.3082 130.929 99.4088 131 99.5186C131.074 99.6203 131.145 99.7163 131.214 99.8067C131.293 99.892 131.399 99.9589 131.53 100.007C131.685 100.065 131.846 100.055 132.014 99.9776C132.243 99.8858 132.392 99.8341 132.462 99.8226C132.542 99.8059 132.631 99.8157 132.729 99.852C132.893 99.9125 132.949 100.012 132.897 100.151C132.885 100.184 132.871 100.211 132.853 100.232C132.836 100.254 132.802 100.283 132.751 100.32C132.709 100.36 132.636 100.407 132.532 100.462C132.436 100.519 132.3 100.599 132.123 100.701C131.85 100.86 131.584 101.054 131.323 101.282C131.062 101.511 130.816 101.759 130.587 102.027C130.358 102.295 130.152 102.577 129.968 102.871C129.788 103.158 129.647 103.44 129.544 103.717C129.381 104.159 129.323 104.541 129.37 104.865C129.429 105.184 129.576 105.387 129.813 105.475C130.042 105.56 130.332 105.528 130.685 105.379C131.037 105.231 131.394 105.019 131.755 104.745C132.12 104.462 132.455 104.135 132.759 103.764C133.071 103.397 133.296 103.029 133.432 102.662ZM138.398 107.62C137.255 108.526 136.165 108.786 135.127 108.402C134.564 108.194 134.194 107.862 134.019 107.407C133.846 106.944 133.878 106.394 134.114 105.756C134.322 105.193 134.645 104.671 135.083 104.192C135.528 103.716 136.022 103.323 136.564 103.012C137.109 102.694 137.666 102.482 138.235 102.376C138.806 102.263 139.325 102.292 139.79 102.464C140.183 102.609 140.463 102.829 140.633 103.124C140.814 103.414 140.847 103.714 140.732 104.025C140.626 104.311 140.411 104.566 140.087 104.789C139.762 105.013 139.367 105.192 138.899 105.325C138.44 105.462 137.924 105.55 137.352 105.589C136.789 105.631 136.211 105.612 135.618 105.532C135.559 105.641 135.505 105.751 135.454 105.862C135.407 105.965 135.362 106.074 135.319 106.188C134.99 107.079 135.14 107.641 135.769 107.873C136.071 107.985 136.426 107.982 136.832 107.863C137.246 107.747 137.67 107.532 138.102 107.218L138.398 107.62ZM139.332 102.95C139.12 102.871 138.869 102.871 138.58 102.95C138.29 103.029 137.988 103.168 137.673 103.367C137.369 103.561 137.066 103.802 136.765 104.09C136.463 104.378 136.19 104.69 135.944 105.026C136.376 105.065 136.791 105.061 137.189 105.013C137.588 104.966 137.945 104.879 138.26 104.755C138.587 104.625 138.864 104.467 139.09 104.281C139.32 104.088 139.48 103.868 139.571 103.623C139.698 103.28 139.618 103.055 139.332 102.95ZM146.259 105.582C146.063 105.509 145.801 105.528 145.472 105.639C145.154 105.744 144.803 105.916 144.417 106.154C144.043 106.388 143.659 106.673 143.265 107.01C142.871 107.347 142.51 107.706 142.184 108.087L140.37 110.203L139.291 109.804L141.237 107.333C141.55 106.938 141.815 106.599 142.03 106.316C142.246 106.034 142.422 105.797 142.558 105.606C142.705 105.41 142.815 105.251 142.888 105.129C142.964 104.999 143.017 104.893 143.047 104.812C143.129 104.591 143.1 104.455 142.961 104.404C142.871 104.37 142.744 104.388 142.579 104.457C142.414 104.526 142.232 104.631 142.031 104.77C141.842 104.905 141.647 105.069 141.445 105.264C141.243 105.458 141.055 105.663 140.883 105.878L140.583 105.558C141.181 104.822 141.729 104.319 142.228 104.049C142.736 103.782 143.219 103.733 143.676 103.902C143.938 103.999 144.094 104.14 144.146 104.326C144.206 104.516 144.171 104.786 144.041 105.138C143.887 105.554 143.68 105.9 143.42 106.176L143.443 106.226C144.132 105.645 144.751 105.265 145.3 105.088C145.86 104.905 146.393 104.907 146.899 105.094C147.259 105.227 147.501 105.414 147.625 105.655C147.75 105.897 147.753 106.176 147.635 106.495C147.596 106.601 147.54 106.715 147.467 106.837C147.402 106.962 147.311 107.109 147.192 107.279C147.077 107.44 146.927 107.631 146.743 107.851C146.568 108.074 146.351 108.347 146.092 108.669C145.699 109.155 145.371 109.564 145.11 109.894C144.848 110.225 144.689 110.467 144.631 110.623C144.586 110.745 144.604 110.822 144.686 110.852C144.8 110.894 145.002 110.862 145.293 110.756C145.583 110.65 145.993 110.458 146.523 110.18L146.778 110.469C146.557 110.666 146.296 110.844 145.996 111.002C145.707 111.155 145.413 111.283 145.115 111.387C144.825 111.493 144.548 111.563 144.285 111.595C144.022 111.628 143.809 111.614 143.646 111.554C143.442 111.478 143.311 111.328 143.255 111.103C143.207 110.881 143.238 110.623 143.347 110.329C143.389 110.214 143.44 110.103 143.498 109.994C143.568 109.881 143.677 109.726 143.823 109.53C143.97 109.333 144.173 109.074 144.432 108.751C144.702 108.424 145.06 107.995 145.507 107.463C145.66 107.278 145.787 107.121 145.891 106.992C145.994 106.863 146.078 106.75 146.142 106.653C146.217 106.551 146.273 106.46 146.312 106.382C146.358 106.306 146.395 106.231 146.422 106.158C146.534 105.856 146.48 105.664 146.259 105.582ZM50.5521 88.8091C50.9814 88.5778 51.4338 88.3969 51.9094 88.2663C52.388 88.1275 52.8674 88.0494 53.3476 88.032L54.6491 86.2842L55.5805 86.6288L54.5485 88.1001C54.6883 88.1239 54.8225 88.1504 54.9511 88.1794C55.0879 88.2114 55.2217 88.2516 55.3524 88.3C56.0469 88.5569 56.5166 88.9443 56.7616 89.4622C57.0066 89.9801 57.0036 90.5782 56.7527 91.2563C56.5532 91.7956 56.2336 92.2579 55.7938 92.6432C55.3652 93.0234 54.8648 93.3213 54.2927 93.537C53.7288 93.7557 53.1181 93.8873 52.4606 93.9321C51.8144 93.9716 51.1738 93.9204 50.5389 93.7785L49.4552 95.3143C49.369 95.4217 49.3027 95.5133 49.2561 95.5889C49.2177 95.6676 49.1864 95.7396 49.1622 95.805C49.0866 96.0093 49.1155 96.1825 49.2486 96.3246C49.39 96.4698 49.6716 96.6251 50.0934 96.7904L49.8385 97.2535L46.3701 95.9703L46.625 95.5073C46.9682 95.6342 47.2325 95.6856 47.418 95.6613C47.6034 95.637 47.7682 95.5308 47.9121 95.3425L52.9325 88.589C52.5616 88.6376 52.1908 88.7234 51.8202 88.8463C51.4526 88.9611 51.0979 89.1039 50.756 89.2747L50.5521 88.8091ZM54.8116 88.7826C54.7053 88.7433 54.5961 88.7122 54.4838 88.6892C54.3828 88.6611 54.2802 88.6371 54.1761 88.6172L50.8687 93.3013C51.3075 93.3708 51.7597 93.3662 52.2253 93.2877C52.6991 93.2122 53.1476 93.0669 53.5708 92.8519C53.9941 92.6369 54.3696 92.3625 54.6975 92.0287C55.0365 91.6897 55.2877 91.2995 55.4509 90.8583C55.6323 90.3681 55.663 89.9336 55.543 89.5548C55.4312 89.1791 55.1874 88.9217 54.8116 88.7826ZM61.8555 91.4164C61.545 91.3015 61.1694 91.3251 60.7286 91.4871C60.2959 91.6522 59.8647 91.9014 59.4349 92.2347C59.0081 92.5598 58.6167 92.9398 58.2607 93.3748C57.9078 93.8015 57.6527 94.2273 57.4955 94.6522C57.3867 94.9463 57.3603 95.206 57.4164 95.4311C57.4755 95.648 57.6112 95.7957 57.8237 95.8743C58.0116 95.9438 58.2349 95.9429 58.4936 95.8714C58.7552 95.7917 59.0254 95.664 59.304 95.4885C59.5938 95.3077 59.8834 95.0898 60.1729 94.8346C60.4624 94.5794 60.7344 94.3085 60.9891 94.0219C61.2468 93.7271 61.4729 93.4299 61.6673 93.1302C61.8617 92.8306 62.0073 92.5501 62.1041 92.2886C62.1826 92.0762 62.1997 91.8921 62.1551 91.7362C62.1106 91.5804 62.0107 91.4738 61.8555 91.4164ZM63.3083 91.3686L64.3255 91.745L62.9332 93.3617C62.7039 93.6299 62.4671 93.9184 62.2228 94.2275C61.9866 94.5395 61.7631 94.8423 61.5523 95.1359C61.3497 95.4325 61.174 95.7065 61.0252 95.958C60.8764 96.2095 60.7779 96.4006 60.7295 96.5314C60.6419 96.7683 60.6756 96.9155 60.8309 96.9729C60.9453 97.0152 61.1525 96.9572 61.4526 96.7989C61.7609 96.6435 62.1193 96.4278 62.528 96.1517L62.7515 96.527C62.1846 97.0046 61.639 97.3369 61.1147 97.5238C60.6017 97.7055 60.1613 97.7284 59.7936 97.5924C59.6057 97.5228 59.4843 97.399 59.4295 97.2208C59.3858 97.0374 59.4245 96.7824 59.5454 96.4555C59.5726 96.382 59.6043 96.2962 59.6406 96.1982C59.685 96.1031 59.7456 95.9769 59.8224 95.8196L59.7779 95.7892C59.5707 95.9726 59.3451 96.1307 59.101 96.2633C58.868 96.3907 58.6263 96.4917 58.3758 96.5663C58.1283 96.6326 57.8848 96.6633 57.6451 96.6582C57.4025 96.6613 57.179 96.6251 56.9747 96.5495C56.558 96.3954 56.2886 96.1192 56.1666 95.7211C56.0557 95.3178 56.103 94.8383 56.3085 94.2827C56.5171 93.719 56.8487 93.1868 57.3033 92.6861C57.7578 92.1855 58.2607 91.7678 58.8119 91.4329C59.3661 91.0899 59.9279 90.8519 60.4973 90.7188C61.0697 90.5776 61.5765 90.5886 62.0177 90.7519C62.2873 90.8516 62.4838 90.9986 62.607 91.1928C62.7332 91.3788 62.7966 91.6345 62.797 91.9598L63.3083 91.3686ZM65.6653 95.0273C65.8976 94.751 66.0745 94.5238 66.1961 94.3459C66.3177 94.1679 66.3996 94.0217 66.4419 93.9074C66.4843 93.793 66.491 93.7119 66.4623 93.6641C66.4447 93.6111 66.4155 93.5771 66.3746 93.562C66.2848 93.5287 66.1701 93.5374 66.0306 93.588C65.8942 93.6304 65.7517 93.6892 65.6032 93.7642C65.4546 93.8393 65.3183 93.919 65.1943 94.0031C65.0703 94.0873 64.9798 94.156 64.923 94.2093L64.6492 93.8572C64.8137 93.7137 65.0226 93.5634 65.2758 93.4063C65.5372 93.2522 65.8129 93.122 66.103 93.0156C66.3932 92.9093 66.6794 92.8387 66.9617 92.8038C67.247 92.7608 67.4958 92.7785 67.7083 92.8571C67.9125 92.9327 68.041 93.0499 68.0937 93.2087C68.1576 93.3624 68.1322 93.5945 68.0173 93.905C67.9296 94.1419 67.7382 94.4334 67.443 94.7793C67.156 95.1283 66.7817 95.575 66.3202 96.1195L65.4088 97.1896C65.3773 97.2244 65.3287 97.2807 65.2627 97.3585C65.208 97.4311 65.1461 97.5104 65.0772 97.5964C65.0194 97.6772 64.9617 97.758 64.9039 97.8388C64.8543 97.9226 64.8189 97.9932 64.7978 98.0503C64.7706 98.1239 64.7668 98.1968 64.7865 98.2691C64.8062 98.3414 64.861 98.3942 64.9509 98.4274C65.0734 98.4728 65.2182 98.4706 65.3852 98.4209C65.5552 98.3631 65.7272 98.2874 65.9012 98.1938C66.0751 98.1003 66.2368 98.0022 66.3862 97.8995C66.5387 97.7887 66.6545 97.7016 66.7338 97.638L67.0244 97.9824C66.8538 98.1422 66.6389 98.3088 66.3796 98.4823C66.1286 98.6588 65.859 98.8099 65.571 98.9355C65.286 99.053 64.9912 99.1344 64.6865 99.1796C64.3849 99.2166 64.0992 99.1853 63.8296 99.0855C63.5927 98.9978 63.4356 98.8701 63.3584 98.7022C63.2893 98.5373 63.3077 98.3119 63.4135 98.0259C63.5011 97.7889 63.6316 97.5493 63.8049 97.3068C63.9894 97.0593 64.2322 96.7543 64.5335 96.392L65.6653 95.0273ZM69.1627 91.1101C68.9584 91.0346 68.8044 90.8986 68.7005 90.7023C68.6048 90.509 68.5978 90.302 68.6794 90.0814C68.761 89.8608 68.9041 89.7001 69.1086 89.5992C69.3131 89.4984 69.5216 89.4873 69.734 89.5659C69.9628 89.6505 70.122 89.7977 70.2116 90.0073C70.3013 90.217 70.3068 90.428 70.2282 90.6404C70.1496 90.8529 70.0055 91.0039 69.7958 91.0935C69.5862 91.1832 69.3751 91.1887 69.1627 91.1101ZM68.8067 95.3396C68.9722 95.1685 69.1841 95.0101 69.4424 94.8641C69.712 94.713 69.9847 94.591 70.2606 94.498C70.5477 94.3999 70.8227 94.3344 71.0856 94.3016C71.3486 94.2689 71.5617 94.2827 71.7252 94.3432C71.9212 94.4157 72.037 94.5421 72.0725 94.7225C72.108 94.9028 72.0652 95.1564 71.9443 95.4832C71.896 95.6139 71.8409 95.7375 71.7793 95.854C71.7258 95.9736 71.6524 96.109 71.5593 96.2603L71.5825 96.3107C71.7682 96.11 71.9932 95.9286 72.2576 95.7663C72.522 95.604 72.7881 95.4749 73.0558 95.3788C73.3347 95.2777 73.6001 95.2133 73.8518 95.1857C74.1147 95.1529 74.3401 95.1713 74.5281 95.2408C74.765 95.3284 74.9324 95.4786 75.0302 95.6913C75.1392 95.8988 75.1529 96.1129 75.0713 96.3335C74.9927 96.5459 74.8583 96.6959 74.668 96.7834C74.4859 96.8739 74.2886 96.8799 74.0761 96.8013C73.9454 96.753 73.8483 96.6891 73.7847 96.6099C73.7293 96.5337 73.6821 96.4605 73.643 96.3903C73.607 96.3119 73.5735 96.2392 73.5426 96.172C73.5117 96.1048 73.4595 96.0577 73.386 96.0305C73.2308 95.973 73.0117 96.0127 72.7288 96.1496C72.449 96.2783 72.1323 96.4816 71.7787 96.7595C71.4251 97.0374 71.0488 97.3766 70.6499 97.777C70.2591 98.1805 69.871 98.6268 69.4857 99.1159L68.3085 100.603L67.1687 100.181L68.9039 97.9392C69.2405 97.5064 69.5168 97.1488 69.7327 96.8665C69.9599 96.5789 70.1413 96.3395 70.2771 96.1482C70.4159 95.9488 70.5161 95.7908 70.5778 95.6743C70.6477 95.5608 70.6992 95.4591 70.7325 95.3693C70.799 95.1895 70.771 95.077 70.6484 95.0316C70.5667 95.0014 70.4525 94.9963 70.3057 95.0163C70.1672 95.0394 70.0225 95.0787 69.8719 95.1345C69.7212 95.1902 69.5701 95.2597 69.4185 95.343C69.2752 95.4292 69.1578 95.5205 69.0665 95.6168L68.8067 95.3396ZM80.4205 98.8558L78.1564 101.85C77.8543 102.24 77.6568 102.547 77.564 102.773C77.5368 102.847 77.529 102.918 77.5405 102.987C77.5602 103.06 77.615 103.113 77.7048 103.146C77.8519 103.2 78.0268 103.205 78.2295 103.159C78.4352 103.105 78.6388 103.032 78.8403 102.939C79.053 102.841 79.2452 102.736 79.4171 102.623C79.6001 102.505 79.7368 102.411 79.8273 102.343L80.1056 102.682C79.8639 102.909 79.5885 103.114 79.2793 103.296C78.9732 103.471 78.6654 103.613 78.3559 103.721C78.0464 103.83 77.7464 103.9 77.456 103.932C77.1767 103.958 76.939 103.935 76.7429 103.863C76.457 103.757 76.2713 103.619 76.1859 103.448C76.1087 103.28 76.123 103.053 76.2288 102.767C76.2892 102.604 76.3994 102.393 76.5594 102.137C76.7194 101.88 76.958 101.537 77.2752 101.106L79.293 98.4387L78.239 98.0488L78.6069 97.5439L79.6731 97.9384L81.0903 96.0662L82.2179 96.4833L80.8007 98.3555L82.1366 98.8498L81.7564 99.3501L80.4205 98.8558ZM85.7631 102.727C86.0562 102.362 86.2767 102.067 86.4245 101.843C86.5806 101.622 86.6934 101.418 86.7629 101.23C86.8324 101.042 86.8481 100.899 86.8099 100.802C86.783 100.699 86.696 100.62 86.5489 100.566C86.2956 100.472 86.0101 100.478 85.6925 100.583C85.3748 100.689 85.0122 100.903 84.6048 101.226C84.2055 101.552 83.7517 101.988 83.2432 102.533C82.7348 103.079 82.1632 103.746 81.5284 104.532L80.9336 105.274L79.9041 104.893L85.4049 97.4812C85.5377 97.2981 85.6491 97.135 85.7392 96.9918C85.8294 96.8487 85.891 96.7322 85.9243 96.6423C85.9847 96.4789 85.9494 96.3358 85.8184 96.213C85.6873 96.0902 85.4165 95.9435 85.0058 95.773L85.273 95.3145L87.7732 96.2395L84.6258 100.453L84.6535 100.492C85.0571 100.204 85.4682 100.022 85.8869 99.9446C86.3087 99.8591 86.7075 99.8859 87.0833 100.025C87.4755 100.17 87.7314 100.395 87.8511 100.699C87.9707 101.003 87.9504 101.372 87.7902 101.805C87.6904 102.075 87.5332 102.374 87.3185 102.704C87.1038 103.033 86.8245 103.399 86.4806 103.801C86.154 104.182 85.8989 104.482 85.7153 104.702C85.5317 104.922 85.3938 105.094 85.3016 105.218C85.2124 105.333 85.1505 105.413 85.116 105.456C85.0897 105.502 85.0705 105.541 85.0584 105.574C84.9889 105.762 85.0318 105.884 85.187 105.942C85.3504 106.002 85.5854 105.982 85.8918 105.882C86.2095 105.777 86.5544 105.598 86.9264 105.345L87.1744 105.729C86.956 105.918 86.7095 106.082 86.4348 106.222C86.1683 106.365 85.8904 106.476 85.6012 106.555C85.3231 106.628 85.0475 106.67 84.7743 106.681C84.5122 106.686 84.2791 106.651 84.0748 106.575C83.8542 106.494 83.7176 106.373 83.6649 106.215C83.6122 106.056 83.6357 105.842 83.7354 105.572C83.7868 105.433 83.8535 105.29 83.9354 105.144C84.0174 104.998 84.1293 104.821 84.2711 104.614C84.4241 104.401 84.6157 104.147 84.8458 103.851C85.0872 103.55 85.393 103.176 85.7631 102.727ZM90.1293 104.078C90.3615 103.801 90.5385 103.574 90.66 103.396C90.7816 103.218 90.8636 103.072 90.9059 102.958C90.9482 102.843 90.955 102.762 90.9262 102.715C90.9086 102.662 90.8794 102.628 90.8386 102.612C90.7487 102.579 90.634 102.588 90.4946 102.638C90.3581 102.681 90.2156 102.74 90.0671 102.815C89.9185 102.89 89.7823 102.969 89.6582 103.054C89.5342 103.138 89.4438 103.206 89.3869 103.26L89.1131 102.908C89.2777 102.764 89.4865 102.614 89.7397 102.457C90.0011 102.303 90.2768 102.172 90.567 102.066C90.8571 101.96 91.1433 101.889 91.4256 101.854C91.7109 101.811 91.9598 101.829 92.1722 101.908C92.3765 101.983 92.505 102.1 92.5577 102.259C92.6216 102.413 92.5961 102.645 92.4812 102.955C92.3936 103.192 92.2021 103.484 91.907 103.83C91.6199 104.179 91.2457 104.626 90.7841 105.17L89.8727 106.24C89.8413 106.275 89.7926 106.331 89.7266 106.409C89.6719 106.482 89.6101 106.561 89.5411 106.647C89.4833 106.728 89.4256 106.808 89.3678 106.889C89.3182 106.973 89.2829 107.044 89.2617 107.101C89.2345 107.174 89.2307 107.247 89.2504 107.32C89.2701 107.392 89.3249 107.445 89.4148 107.478C89.5373 107.523 89.6821 107.521 89.8491 107.471C90.0192 107.414 90.1911 107.338 90.3651 107.244C90.539 107.151 90.7007 107.053 90.8502 106.95C91.0026 106.839 91.1185 106.752 91.1977 106.688L91.4883 107.033C91.3177 107.193 91.1028 107.359 90.8436 107.533C90.5925 107.709 90.323 107.86 90.0349 107.986C89.75 108.104 89.4551 108.185 89.1505 108.23C88.8488 108.267 88.5632 108.236 88.2935 108.136C88.0566 108.048 87.8995 107.921 87.8223 107.753C87.7532 107.588 87.7716 107.362 87.8774 107.076C87.9651 106.839 88.0955 106.6 88.2688 106.357C88.4533 106.11 88.6962 105.805 88.9974 105.443L90.1293 104.078ZM93.6266 100.161C93.4224 100.085 93.2683 99.9491 93.1645 99.7528C93.0688 99.5594 93.0617 99.3525 93.1434 99.1319C93.225 98.9113 93.368 98.7506 93.5725 98.6497C93.777 98.5489 93.9855 98.5378 94.1979 98.6164C94.4267 98.701 94.5859 98.8481 94.6756 99.0578C94.7652 99.2674 94.7707 99.4785 94.6921 99.6909C94.6135 99.9034 94.4694 100.054 94.2598 100.144C94.0501 100.234 93.8391 100.239 93.6266 100.161ZM93.9389 104.693C94.0386 104.423 94.1798 104.192 94.3625 104C94.5534 103.81 94.7689 103.667 95.0091 103.57C95.2523 103.465 95.5131 103.413 95.7915 103.414C96.0811 103.409 96.3729 103.462 96.6671 103.57C97.0593 103.716 97.3498 103.935 97.5387 104.227C97.7276 104.52 97.7647 104.822 97.6498 105.132C97.5863 105.304 97.4874 105.421 97.3531 105.482C97.2269 105.547 97.0822 105.549 96.9188 105.489C96.7308 105.419 96.6157 105.316 96.5733 105.18C96.5339 105.035 96.5098 104.887 96.5009 104.735C96.4951 104.575 96.4807 104.426 96.4576 104.287C96.4346 104.149 96.3455 104.051 96.1902 103.993C96.0105 103.927 95.8306 103.948 95.6506 104.058C95.4706 104.168 95.3383 104.338 95.2537 104.566C95.1539 104.836 95.1378 105.118 95.2054 105.412C95.2842 105.702 95.3748 106.009 95.4771 106.335C95.5795 106.661 95.6524 107.004 95.6958 107.363C95.7474 107.726 95.6976 108.112 95.5465 108.52C95.4437 108.798 95.2857 109.037 95.0725 109.237C94.8674 109.439 94.628 109.597 94.3542 109.709C94.0916 109.817 93.8099 109.875 93.5092 109.884C93.2084 109.894 92.9191 109.847 92.6413 109.744C92.1511 109.563 91.7982 109.312 91.5826 108.991C91.3753 108.672 91.335 108.342 91.462 107.998C91.5497 107.761 91.6708 107.597 91.8254 107.506C91.9911 107.409 92.168 107.396 92.3559 107.465C92.7072 107.595 92.8183 107.91 92.6889 108.411C92.6167 108.681 92.5926 108.872 92.6165 108.983C92.6517 109.089 92.7632 109.176 92.9511 109.246C93.2453 109.355 93.5099 109.355 93.7449 109.247C93.983 109.131 94.1595 108.917 94.2743 108.607C94.3953 108.28 94.4209 107.96 94.3511 107.646C94.2814 107.332 94.1924 107.021 94.0839 106.711C93.9785 106.394 93.894 106.07 93.8303 105.74C93.7667 105.41 93.8028 105.061 93.9389 104.693ZM104.19 107.65L101.926 110.644C101.624 111.033 101.427 111.341 101.334 111.567C101.307 111.64 101.299 111.712 101.31 111.781C101.33 111.853 101.385 111.906 101.475 111.939C101.622 111.994 101.797 111.998 101.999 111.952C102.205 111.899 102.409 111.825 102.61 111.733C102.823 111.635 103.015 111.529 103.187 111.416C103.37 111.298 103.507 111.205 103.597 111.136L103.875 111.476C103.634 111.703 103.358 111.907 103.049 112.09C102.743 112.265 102.435 112.406 102.126 112.515C101.816 112.623 101.516 112.693 101.226 112.725C100.946 112.752 100.709 112.729 100.513 112.656C100.227 112.551 100.041 112.412 99.9556 112.241C99.8784 112.074 99.8927 111.847 99.9985 111.561C100.059 111.397 100.169 111.187 100.329 110.931C100.489 110.674 100.728 110.33 101.045 109.9L103.063 107.232L102.009 106.842L102.377 106.338L103.443 106.732L104.86 104.86L105.988 105.277L104.57 107.149L105.906 107.643L105.526 108.144L104.19 107.65ZM106.006 114.689C105.728 114.586 105.487 114.436 105.281 114.239C105.086 114.037 104.938 113.797 104.837 113.518C104.736 113.239 104.688 112.929 104.694 112.587C104.702 112.237 104.778 111.87 104.92 111.486C105.116 110.955 105.408 110.469 105.794 110.026C106.189 109.587 106.624 109.228 107.099 108.948C107.574 108.669 108.065 108.484 108.572 108.393C109.088 108.305 109.57 108.344 110.02 108.51C110.314 108.619 110.562 108.776 110.765 108.981C110.979 109.181 111.133 109.419 111.226 109.695C111.33 109.966 111.376 110.266 111.366 110.597C111.366 110.922 111.301 111.26 111.171 111.612C110.981 112.126 110.687 112.607 110.289 113.055C109.891 113.502 109.448 113.872 108.959 114.165C108.478 114.461 107.975 114.665 107.45 114.777C106.929 114.882 106.447 114.852 106.006 114.689ZM106.306 114.103C106.584 114.206 106.911 114.164 107.286 113.978C107.67 113.795 108.048 113.526 108.421 113.172C108.804 112.812 109.157 112.399 109.478 111.933C109.807 111.469 110.058 111.005 110.231 110.539C110.391 110.106 110.423 109.779 110.329 109.558C110.242 109.34 110.068 109.183 109.807 109.086C109.627 109.02 109.419 109.017 109.183 109.078C108.957 109.134 108.722 109.243 108.477 109.403C108.232 109.563 107.983 109.759 107.73 109.99C107.486 110.225 107.251 110.482 107.027 110.761C106.803 111.041 106.601 111.337 106.419 111.651C106.241 111.957 106.096 112.261 105.985 112.563C105.815 113.021 105.769 113.37 105.847 113.613C105.924 113.855 106.078 114.019 106.306 114.103ZM112.059 111.564C112.488 111.332 112.941 111.151 113.416 111.021C113.895 110.882 114.374 110.804 114.855 110.787L116.156 109.039L117.087 109.383L116.055 110.855C116.195 110.879 116.329 110.905 116.458 110.934C116.595 110.966 116.729 111.006 116.859 111.055C117.554 111.312 118.024 111.699 118.269 112.217C118.513 112.735 118.511 113.333 118.26 114.011C118.06 114.55 117.74 115.013 117.301 115.398C116.872 115.778 116.372 116.076 115.8 116.292C115.236 116.51 114.625 116.642 113.968 116.687C113.321 116.726 112.681 116.675 112.046 116.533L110.962 118.069C110.876 118.176 110.81 118.268 110.763 118.344C110.725 118.422 110.693 118.494 110.669 118.56C110.594 118.764 110.622 118.937 110.756 119.079C110.897 119.224 111.179 119.38 111.6 119.545L111.345 120.008L107.877 118.725L108.132 118.262C108.475 118.389 108.739 118.44 108.925 118.416C109.11 118.392 109.275 118.285 109.419 118.097L114.439 111.344C114.068 111.392 113.698 111.478 113.327 111.601C112.96 111.716 112.605 111.859 112.263 112.029L112.059 111.564ZM116.318 111.537C116.212 111.498 116.103 111.467 115.991 111.444C115.89 111.416 115.787 111.392 115.683 111.372L112.376 116.056C112.814 116.125 113.267 116.121 113.732 116.042C114.206 115.967 114.655 115.822 115.078 115.607C115.501 115.392 115.877 115.117 116.204 114.783C116.543 114.444 116.795 114.054 116.958 113.613C117.139 113.123 117.17 112.688 117.05 112.309C116.938 111.934 116.694 111.676 116.318 111.537ZM48.5444 109C48.0195 109.289 47.5146 109.473 47.0296 109.554C46.5477 109.626 46.1065 109.589 45.7061 109.441C45.2567 109.274 44.9583 109.001 44.8108 108.622C44.6663 108.234 44.6908 107.778 44.8843 107.255C45.2621 106.234 46.241 105.208 47.821 104.176L47.8101 104.13C47.5895 104.048 47.4177 103.948 47.2948 103.828C47.172 103.708 47.0725 103.588 46.9965 103.467C46.9287 103.349 46.866 103.242 46.8085 103.146C46.7592 103.054 46.6895 102.991 46.5997 102.958C46.4689 102.909 46.3779 102.955 46.3265 103.093C46.2993 103.167 46.2955 103.24 46.3152 103.312C46.3431 103.388 46.371 103.463 46.3988 103.538C46.4349 103.617 46.4597 103.7 46.4733 103.789C46.4982 103.872 46.4925 103.963 46.4562 104.061C46.4018 104.208 46.2993 104.31 46.1486 104.365C46.001 104.413 45.8373 104.403 45.6575 104.337C45.4451 104.258 45.3058 104.132 45.2398 103.959C45.1738 103.786 45.1846 103.581 45.2723 103.344C45.3448 103.148 45.4552 102.975 45.6034 102.826C45.7546 102.668 45.9254 102.546 46.1157 102.458C46.309 102.362 46.5106 102.307 46.7206 102.292C46.9387 102.28 47.1459 102.31 47.342 102.382C47.5135 102.446 47.646 102.527 47.7392 102.627C47.8354 102.718 47.919 102.819 47.9898 102.929C48.0637 103.03 48.135 103.126 48.2037 103.217C48.2836 103.302 48.3848 103.367 48.5074 103.413C48.5728 103.437 48.6345 103.446 48.6926 103.439C48.7589 103.436 48.8424 103.411 48.9431 103.365C49.0662 103.308 49.1848 103.264 49.2989 103.232C49.416 103.191 49.5317 103.192 49.6461 103.235C49.8177 103.298 49.8732 103.412 49.8128 103.575C49.8037 103.6 49.789 103.627 49.7688 103.656C49.7515 103.678 49.7134 103.706 49.6544 103.739C49.6036 103.776 49.5304 103.824 49.4348 103.881C49.3422 103.931 49.2146 103.999 49.0518 104.088C48.7121 104.278 48.3909 104.493 48.0881 104.734C47.7935 104.978 47.5259 105.237 47.2855 105.51C47.0481 105.776 46.8392 106.051 46.659 106.338C46.4818 106.616 46.3433 106.89 46.2436 107.159C46.0955 107.56 46.0444 107.898 46.0905 108.175C46.1397 108.444 46.2827 108.623 46.5196 108.71C46.7402 108.792 47.0369 108.781 47.4096 108.677C47.7854 108.566 48.2133 108.376 48.6934 108.107C48.7405 107.93 48.7892 107.748 48.8393 107.562C48.8977 107.379 48.954 107.214 49.0085 107.067C49.1717 106.626 49.3809 106.211 49.6361 105.823C49.9026 105.429 50.1794 105.095 50.4668 104.82C50.7572 104.538 51.0463 104.333 51.3343 104.208C51.6223 104.082 51.8767 104.06 52.0973 104.142C52.277 104.208 52.4076 104.345 52.4891 104.551C52.5787 104.761 52.5555 105.05 52.4195 105.417C52.2563 105.858 51.9489 106.325 51.4973 106.818C51.0458 107.31 50.4774 107.792 49.7923 108.263C49.7207 108.682 49.7376 109.051 49.843 109.369C49.9566 109.689 50.1319 109.893 50.3688 109.981C50.5976 110.066 50.8698 110.046 51.1853 109.921C51.5008 109.796 51.8171 109.607 52.1341 109.352C52.4541 109.09 52.7495 108.781 53.0202 108.426C53.302 108.066 53.514 107.694 53.6561 107.31C53.7256 107.122 53.7697 106.952 53.7884 106.802C53.8153 106.654 53.8295 106.515 53.8309 106.385C53.8436 106.251 53.8532 106.124 53.8598 106.006C53.8776 105.882 53.9107 105.755 53.9591 105.625C54.1314 105.159 54.43 105.005 54.8548 105.162C55.1081 105.255 55.2531 105.416 55.2898 105.643C55.3347 105.873 55.2755 106.209 55.1123 106.65C54.8704 107.304 54.5209 107.922 54.0636 108.506C53.6094 109.081 53.1124 109.57 52.5728 109.974C52.0443 110.373 51.5072 110.658 50.9614 110.827C50.4157 110.997 49.9303 111.003 49.5055 110.846C49.1623 110.719 48.909 110.5 48.7455 110.189C48.5819 109.877 48.5149 109.481 48.5444 109ZM49.9109 107.415C50.2533 107.142 50.5548 106.855 50.8155 106.552C51.0844 106.252 51.2854 105.922 51.4184 105.562C51.5332 105.252 51.5294 105.074 51.4068 105.029C51.3251 104.998 51.2278 105.023 51.115 105.102C51.0022 105.181 50.8839 105.3 50.7602 105.458C50.6447 105.62 50.5252 105.817 50.4019 106.05C50.2815 106.275 50.1715 106.522 50.0717 106.792C50.0294 106.906 49.9942 107.014 49.9661 107.115C49.938 107.216 49.9196 107.316 49.9109 107.415ZM56.631 108.745C56.8632 108.469 57.0402 108.241 57.1617 108.063C57.2833 107.885 57.3652 107.739 57.4076 107.625C57.4499 107.51 57.4566 107.429 57.4279 107.382C57.4103 107.329 57.3811 107.295 57.3403 107.28C57.2504 107.246 57.1357 107.255 56.9962 107.306C56.8598 107.348 56.7173 107.407 56.5688 107.482C56.4202 107.557 56.2839 107.636 56.1599 107.721C56.0359 107.805 55.9455 107.874 55.8886 107.927L55.6148 107.575C55.7793 107.431 55.9882 107.281 56.2414 107.124C56.5028 106.97 56.7785 106.839 57.0686 106.733C57.3588 106.627 57.645 106.556 57.9273 106.521C58.2126 106.478 58.4615 106.496 58.6739 106.575C58.8782 106.65 59.0066 106.767 59.0593 106.926C59.1232 107.08 59.0978 107.312 58.9829 107.622C58.8952 107.859 58.7038 108.151 58.4086 108.497C58.1216 108.846 57.7473 109.293 57.2858 109.837L56.3744 110.907C56.343 110.942 56.2943 110.998 56.2283 111.076C56.1736 111.149 56.1117 111.228 56.0428 111.314C55.985 111.395 55.9273 111.476 55.8695 111.556C55.8199 111.64 55.7845 111.711 55.7634 111.768C55.7362 111.841 55.7324 111.914 55.7521 111.987C55.7718 112.059 55.8266 112.112 55.9165 112.145C56.039 112.19 56.1838 112.188 56.3508 112.138C56.5208 112.081 56.6928 112.005 56.8668 111.911C57.0407 111.818 57.2024 111.72 57.3518 111.617C57.5043 111.506 57.6201 111.419 57.6994 111.356L57.99 111.7C57.8194 111.86 57.6045 112.026 57.3452 112.2C57.0942 112.376 56.8246 112.527 56.5366 112.653C56.2516 112.771 55.9568 112.852 55.6521 112.897C55.3505 112.934 55.0648 112.903 54.7952 112.803C54.5583 112.715 54.4012 112.588 54.324 112.42C54.2549 112.255 54.2733 112.029 54.3791 111.743C54.4668 111.506 54.5972 111.267 54.7705 111.024C54.955 110.777 55.1978 110.472 55.4991 110.11L56.631 108.745ZM60.1283 104.828C59.9241 104.752 59.77 104.616 59.6661 104.42C59.5705 104.226 59.5634 104.02 59.645 103.799C59.7267 103.578 59.8697 103.418 60.0742 103.317C60.2787 103.216 60.4872 103.205 60.6996 103.283C60.9284 103.368 61.0876 103.515 61.1772 103.725C61.2669 103.934 61.2724 104.146 61.1938 104.358C61.1152 104.57 60.9711 104.721 60.7615 104.811C60.5518 104.901 60.3408 104.906 60.1283 104.828ZM62.649 109.341L60.3849 112.335C60.0828 112.725 59.8853 113.033 59.7925 113.258C59.7653 113.332 59.7575 113.403 59.769 113.473C59.7887 113.545 59.8435 113.598 59.9333 113.631C60.0804 113.685 60.2553 113.69 60.458 113.644C60.6637 113.59 60.8673 113.517 61.0688 113.424C61.2815 113.326 61.4737 113.221 61.6456 113.108C61.8286 112.99 61.9653 112.897 62.0557 112.828L62.3341 113.168C62.0924 113.394 61.817 113.599 61.5078 113.782C61.2017 113.956 60.8939 114.098 60.5844 114.206C60.2749 114.315 59.9749 114.385 59.6845 114.417C59.4052 114.443 59.1675 114.421 58.9714 114.348C58.6854 114.242 58.4998 114.104 58.4144 113.933C58.3372 113.765 58.3514 113.538 58.4572 113.252C58.5177 113.089 58.6279 112.879 58.7879 112.622C58.9478 112.365 59.1864 112.022 59.5037 111.591L61.5215 108.924L60.4675 108.534L60.8354 108.029L61.9016 108.424L63.3188 106.551L64.4463 106.969L63.0292 108.841L64.3651 109.335L63.9849 109.835L62.649 109.341ZM67.9916 113.212C68.2847 112.847 68.5052 112.553 68.653 112.329C68.8091 112.108 68.9219 111.903 68.9914 111.715C69.0609 111.527 69.0766 111.385 69.0384 111.287C69.0115 111.184 68.9244 111.105 68.7774 111.051C68.5241 110.957 68.2386 110.963 67.9209 111.068C67.6033 111.174 67.2407 111.388 66.8333 111.711C66.434 112.037 65.9801 112.473 65.4717 113.019C64.9633 113.564 64.3917 114.231 63.7569 115.018L63.1621 115.759L62.1326 115.378L67.6334 107.966C67.7662 107.783 67.8776 107.62 67.9677 107.477C68.0578 107.334 68.1195 107.217 68.1528 107.128C68.2132 106.964 68.1779 106.821 68.0469 106.698C67.9158 106.575 67.645 106.429 67.2343 106.258L67.5015 105.8L70.0017 106.725L66.8543 110.939L66.882 110.977C67.2856 110.689 67.6967 110.507 68.1154 110.43C68.5372 110.344 68.936 110.371 69.3118 110.51C69.704 110.655 69.9599 110.88 70.0795 111.184C70.1992 111.489 70.1789 111.857 70.0187 112.29C69.9189 112.56 69.7617 112.859 69.547 113.189C69.3323 113.518 69.053 113.884 68.7091 114.286C68.3825 114.667 68.1274 114.967 67.9438 115.187C67.7602 115.407 67.6223 115.579 67.5301 115.703C67.4408 115.819 67.379 115.898 67.3445 115.941C67.3182 115.987 67.299 116.026 67.2869 116.059C67.2174 116.247 67.2603 116.37 67.4155 116.427C67.5789 116.487 67.8139 116.467 68.1203 116.367C68.438 116.262 68.7829 116.083 69.1549 115.83L69.4029 116.215C69.1845 116.403 68.938 116.568 68.6633 116.707C68.3968 116.85 68.1189 116.961 67.8296 117.04C67.5516 117.114 67.276 117.156 67.0028 117.166C66.7407 117.171 66.5076 117.136 66.3033 117.06C66.0827 116.979 65.9461 116.859 65.8934 116.7C65.8406 116.541 65.8642 116.327 65.9639 116.057C66.0153 115.918 66.082 115.776 66.1639 115.63C66.2459 115.483 66.3577 115.306 66.4996 115.099C66.6526 114.886 66.8442 114.632 67.0743 114.336C67.3157 114.035 67.6214 113.661 67.9916 113.212ZM71.2056 118.874C70.9931 118.795 70.8406 118.655 70.7479 118.454C70.6553 118.252 70.6482 118.046 70.7268 117.833C70.8084 117.612 70.95 117.456 71.1515 117.363C71.3641 117.265 71.5767 117.256 71.7891 117.334C72.0016 117.413 72.1526 117.557 72.2422 117.767C72.3401 117.979 72.3497 118.192 72.2711 118.404C72.1925 118.617 72.0484 118.768 71.8387 118.858C71.6372 118.95 71.4262 118.956 71.2056 118.874ZM71.9163 114.957C72.0613 114.565 72.267 114.26 72.5332 114.043C72.8105 113.82 73.1167 113.646 73.4516 113.519C73.7947 113.395 74.1465 113.297 74.5072 113.226C74.8708 113.147 75.2141 113.061 75.5369 112.966C75.8679 112.875 76.1543 112.754 76.3964 112.602C76.6465 112.453 76.823 112.239 76.9258 111.961C77.0527 111.618 77.0329 111.295 76.8664 110.992C76.7029 110.681 76.4251 110.453 76.0329 110.308C75.6897 110.181 75.3679 110.159 75.0675 110.243C74.7783 110.322 74.5853 110.492 74.4885 110.753C74.4281 110.917 74.4322 111.044 74.5009 111.134C74.5727 111.216 74.6541 111.298 74.7452 111.378C74.8393 111.45 74.9208 111.531 74.9895 111.621C75.0582 111.712 75.0593 111.847 74.9928 112.027C74.9233 112.215 74.8076 112.339 74.6457 112.4C74.4921 112.464 74.309 112.456 74.0966 112.378C73.7616 112.254 73.5235 112.031 73.3824 111.71C73.2494 111.391 73.248 111.056 73.3779 110.705C73.4686 110.46 73.612 110.248 73.808 110.07C74.0121 109.894 74.2466 109.763 74.5113 109.675C74.776 109.587 75.0639 109.55 75.375 109.563C75.689 109.567 76.0013 109.627 76.3118 109.742C76.6223 109.857 76.886 110.01 77.103 110.202C77.3231 110.385 77.4871 110.595 77.5953 110.83C77.7115 111.068 77.7733 111.328 77.7807 111.609C77.7911 111.882 77.7419 112.166 77.6331 112.46C77.4789 112.877 77.2545 113.207 76.9599 113.451C76.6765 113.69 76.3587 113.884 76.0066 114.032C75.6574 114.172 75.2929 114.279 74.9129 114.352C74.5329 114.425 74.1789 114.503 73.8509 114.586C73.523 114.669 73.2343 114.771 72.9851 114.893C72.747 115.009 72.5871 115.177 72.5055 115.398C72.3846 115.725 72.5121 115.958 72.8879 116.097C73.2638 116.236 73.6432 116.139 74.0261 115.807L74.2845 116.126C73.7382 116.648 73.1669 116.799 72.5704 116.578C72.2109 116.445 71.975 116.242 71.8626 115.968C71.7533 115.686 71.7712 115.349 71.9163 114.957Z" fill="#65493B"/>
</svg>
