<svg width="206" height="163" viewBox="0 0 206 163" fill="none" xmlns="http://www.w3.org/2000/svg">
<path d="M18.4317 58.9877C17.9356 54.7615 20.9628 50.9345 25.1897 50.4449L148.559 36.1586C152.124 35.746 155.536 37.8398 156.845 41.2328C160.582 50.9239 167.755 68.483 176.059 83.4517C180.205 90.9239 184.691 97.8601 189.237 102.858C190.908 104.695 192.666 106.358 194.488 107.689C193.075 107.865 191.535 108.058 189.878 108.262C177.93 109.735 159.953 111.906 140.186 114.276C100.653 119.017 53.9727 124.557 34.074 126.917C29.876 127.414 26.1119 124.412 25.613 120.162L18.4317 58.9877Z" fill="#FCFDE5" stroke="#CC99D8" stroke-width="4.44673"/>
<path d="M37.4462 71.7242C37.4187 71.9363 37.3923 72.1211 37.3669 72.2786C37.3404 72.4271 37.3351 72.5639 37.351 72.6889C37.3872 72.9746 37.5288 73.1607 37.7757 73.2473C38.0225 73.3339 38.4272 73.3415 38.9897 73.2701L38.897 73.8262L34.2364 74.4178L34.3157 73.8634C34.5836 73.8294 34.8134 73.7821 35.0053 73.7215C35.1972 73.6608 35.3623 73.5673 35.5004 73.4409C35.6475 73.3133 35.7616 73.1401 35.8427 72.9211C35.9316 72.6921 36.003 72.3973 36.057 72.0366L36.9157 65.7222C36.9553 65.3906 36.9614 65.1176 36.9342 64.9034C36.9014 64.6444 36.8201 64.4688 36.6904 64.3764C36.5596 64.275 36.3648 64.2408 36.1058 64.2737C35.3201 64.3734 34.6626 64.661 34.1333 65.1364C33.6129 65.6107 33.2066 66.2339 32.9145 67.0058L32.3788 67.0738L33.289 64.0597L42.2352 62.9241L42.3294 65.8107L41.8205 65.8753C41.7117 65.0181 41.4756 64.4448 41.1123 64.1553C40.7567 63.8557 40.2664 63.7455 39.6415 63.8249C39.4183 63.8532 39.2291 63.8999 39.0741 63.9649C38.928 64.0288 38.7998 64.1267 38.6895 64.2587C38.5882 64.3895 38.5014 64.5638 38.4293 64.7816C38.3661 64.9983 38.3147 65.2725 38.2751 65.6041L37.4462 71.7242ZM46.8392 68.5859C46.9331 68.1112 46.9944 67.736 47.0229 67.4603C47.0603 67.1833 47.066 66.9422 47.0399 66.7369C47.0139 66.5315 46.96 66.3932 46.8784 66.3219C46.8045 66.2405 46.6873 66.2101 46.5266 66.2305C46.2498 66.2656 45.9911 66.4073 45.7504 66.6556C45.5098 66.9039 45.28 67.2733 45.061 67.7637C44.8509 68.2531 44.6434 68.8691 44.4383 69.6119C44.2332 70.3546 44.0278 71.238 43.8221 72.2621L43.6314 73.2252L42.5064 73.368L44.0055 63.9513C44.0396 63.7202 44.0638 63.5175 44.078 63.3433C44.0922 63.1692 44.093 63.033 44.0806 62.9348C44.0579 62.7562 43.9572 62.642 43.7785 62.5921C43.5998 62.5422 43.2816 62.5372 42.824 62.5771L42.8498 62.0295L45.5819 61.6827L44.7113 67.0461L44.7549 67.0677C44.9873 66.6118 45.2769 66.2485 45.6235 65.9777C45.9691 65.6979 46.3472 65.532 46.7579 65.4799C47.1864 65.4255 47.5282 65.5091 47.7831 65.7308C48.0381 65.9524 48.1956 66.2998 48.2557 66.773C48.2931 67.0677 48.2921 67.4171 48.2526 67.8213C48.2132 68.2255 48.1321 68.6939 48.0092 69.2266C47.8918 69.7314 47.8016 70.1284 47.7385 70.4177C47.6754 70.7069 47.6312 70.9303 47.6058 71.0877C47.5793 71.2362 47.5605 71.3384 47.5495 71.3943C47.5474 71.449 47.5486 71.4942 47.5531 71.5299C47.5792 71.7352 47.677 71.8272 47.8466 71.8056C48.0252 71.783 48.2309 71.6525 48.4638 71.4143C48.7044 71.166 48.9349 70.8374 49.1551 70.4284L49.5658 70.662C49.4558 70.9391 49.3084 71.2073 49.1236 71.4666C48.9477 71.7248 48.7461 71.9591 48.5188 72.1694C48.2993 72.3696 48.0668 72.5397 47.8215 72.6797C47.584 72.8097 47.3536 72.8888 47.1304 72.9172C46.8894 72.9478 46.7068 72.9029 46.5826 72.7826C46.4585 72.6622 46.3777 72.4548 46.3403 72.1601C46.321 72.0084 46.314 71.8459 46.3193 71.6729C46.3245 71.4999 46.3425 71.2844 46.3733 71.0265C46.4119 70.7585 46.4659 70.4341 46.5355 70.0533C46.6129 69.6624 46.7141 69.1733 46.8392 68.5859ZM51.4838 67.7377C51.5646 67.3736 51.6182 67.0811 51.6445 66.86C51.6709 66.6389 51.6762 66.4659 51.6603 66.3409C51.6444 66.2159 51.6119 66.1383 51.5627 66.1083C51.5213 66.0682 51.4783 66.051 51.4337 66.0566C51.3355 66.0691 51.2346 66.1318 51.131 66.2448C51.0262 66.3488 50.9238 66.4706 50.8236 66.6104C50.7234 66.7501 50.6366 66.8881 50.5631 67.0245C50.4897 67.1608 50.4397 67.2669 50.413 67.3429L49.9941 67.1511C50.0763 66.9411 50.1958 66.7037 50.3527 66.4388C50.5185 66.1728 50.7089 65.9218 50.9239 65.6859C51.1389 65.4499 51.3674 65.2486 51.6093 65.0818C51.8501 64.906 52.0866 64.8034 52.3187 64.774C52.5419 64.7456 52.7156 64.7916 52.8397 64.912C52.9717 65.0222 53.0592 65.247 53.1022 65.5863C53.1351 65.8452 53.099 66.2036 52.9938 66.6615C52.8975 67.1182 52.768 67.7062 52.6053 68.4255L52.2815 69.841C52.2693 69.8879 52.2516 69.9627 52.2283 70.0655C52.2129 70.1582 52.1941 70.2603 52.172 70.372C52.1577 70.4736 52.1434 70.5752 52.129 70.6769C52.1237 70.7773 52.1249 70.8588 52.1329 70.9213C52.1431 71.0017 52.1745 71.0703 52.227 71.1271C52.2796 71.1839 52.355 71.2061 52.4532 71.1936C52.5871 71.1766 52.7187 71.1055 52.848 70.9802C52.9761 70.846 53.0975 70.6945 53.2121 70.5258C53.3268 70.357 53.4281 70.1899 53.5159 70.0245C53.6027 69.8502 53.6672 69.715 53.7094 69.6189L54.1401 69.7956C54.0601 70.0235 53.9429 70.2788 53.7882 70.5615C53.6425 70.8431 53.4678 71.1102 53.264 71.3629C53.059 71.6066 52.8278 71.822 52.5703 72.0089C52.3117 72.1869 52.035 72.2946 51.7404 72.332C51.4815 72.3648 51.2765 72.3228 51.1256 72.2059C50.9836 72.0878 50.8928 71.8726 50.8531 71.5601C50.8202 71.3011 50.8253 71.0193 50.8682 70.7144C50.919 70.3995 50.9958 70.0042 51.0987 69.5285L51.4838 67.7377ZM52.8167 62.479C52.5935 62.5073 52.3874 62.4564 52.1985 62.3261C52.0185 62.1947 51.9132 62.0085 51.8826 61.7675C51.852 61.5264 51.9063 61.3108 52.0455 61.1208C52.1847 60.9308 52.3703 60.821 52.6025 60.7915C52.8525 60.7598 53.0686 60.8186 53.2508 60.9678C53.4331 61.117 53.5389 61.3077 53.5684 61.5399C53.5979 61.772 53.538 61.9792 53.3887 62.1614C53.2395 62.3437 53.0488 62.4495 52.8167 62.479ZM55.2674 66.4818C55.23 66.1871 55.249 65.908 55.3244 65.6444C55.4087 65.3797 55.5378 65.1456 55.7115 64.9421C55.8841 64.7296 56.0981 64.5573 56.3535 64.4251C56.6167 64.2828 56.909 64.1913 57.2304 64.1505C57.659 64.0961 58.0297 64.1579 58.3426 64.3359C58.6555 64.5139 58.8335 64.7726 58.8766 65.1118C58.9004 65.2993 58.8655 65.4535 58.772 65.5742C58.6874 65.6938 58.5558 65.7649 58.3772 65.7876C58.1719 65.8137 58.0172 65.7743 57.9132 65.6696C57.808 65.5559 57.7151 65.4317 57.6345 65.2967C57.5527 65.1529 57.4682 65.023 57.3809 64.9071C57.2936 64.7911 57.1651 64.7439 56.9955 64.7655C56.7991 64.7904 56.6447 64.8962 56.5323 65.0828C56.4199 65.2695 56.3796 65.4878 56.4113 65.7378C56.4487 66.0324 56.5686 66.2984 56.7712 66.5358C56.9815 66.7631 57.2113 67.0016 57.4607 67.2512C57.7101 67.5007 57.9406 67.7799 58.1522 68.0888C58.3727 68.3964 58.5113 68.7735 58.568 69.2199C58.6065 69.5235 58.5758 69.8177 58.4759 70.1025C58.3849 70.3863 58.2408 70.645 58.0437 70.8786C57.8543 71.1023 57.6242 71.2902 57.3532 71.4426C57.0822 71.5949 56.7949 71.6904 56.4914 71.7289C55.9557 71.7969 55.5124 71.7352 55.1615 71.5439C54.8195 71.3514 54.6248 71.0677 54.5772 70.6927C54.5443 70.4338 54.5768 70.2255 54.6748 70.0679C54.7805 69.9003 54.936 69.8034 55.1414 69.7774C55.5253 69.7286 55.7775 69.9642 55.8979 70.4842C55.961 70.7665 56.03 70.9528 56.1049 71.0431C56.1877 71.1233 56.3318 71.1504 56.5371 71.1243C56.8585 71.0835 57.1011 70.9575 57.2648 70.7462C57.4273 70.5259 57.4871 70.2462 57.444 69.9069C57.3987 69.5498 57.2692 69.2442 57.0555 68.99C56.8418 68.7359 56.6113 68.493 56.3642 68.2613C56.1159 68.0206 55.8838 67.7643 55.6678 67.4924C55.4519 67.2204 55.3184 66.8835 55.2674 66.4818ZM64.959 61.1146C64.9833 60.9482 65.0075 60.7818 65.0317 60.6154C65.0548 60.4401 65.0613 60.3123 65.0511 60.2319C65.0114 59.9195 64.6523 59.8063 63.9738 59.8924L64.0299 59.477L66.4654 59.0454L65.1851 68.1486C65.1443 68.3987 65.1179 68.6198 65.106 68.8118C65.0929 68.9949 65.0944 69.149 65.1102 69.274C65.1204 69.3543 65.1518 69.4229 65.2044 69.4798C65.257 69.5366 65.3324 69.5588 65.4306 69.5463C65.5734 69.5282 65.7178 69.4509 65.8638 69.3144C66.0087 69.169 66.1423 69.0069 66.2648 68.828C66.395 68.6391 66.5074 68.4525 66.6019 68.2681C66.6953 68.0748 66.7626 67.9257 66.8037 67.8207L67.2344 67.9973C67.139 68.3179 67.0023 68.6346 66.8243 68.9475C66.6451 69.2515 66.4486 69.5259 66.2347 69.7708C66.0209 70.0157 65.7975 70.221 65.5645 70.3866C65.3393 70.5422 65.124 70.6331 64.9186 70.6591C64.6061 70.6988 64.3655 70.6613 64.1967 70.5466C64.0369 70.4309 63.9371 70.2167 63.8974 69.9042C63.8748 69.7257 63.871 69.4812 63.886 69.1708C63.901 68.8605 63.9421 68.4334 64.0091 67.8896L64.959 61.1146ZM70.4026 69.963C70.099 70.0015 69.8059 69.9798 69.5233 69.8977C69.2485 69.8056 68.9982 69.6559 68.7723 69.4487C68.5464 69.2415 68.3545 68.9801 68.1965 68.6645C68.0373 68.3399 67.9311 67.9678 67.8779 67.5482C67.8042 66.9679 67.8388 66.3829 67.9817 65.7932C68.1335 65.2024 68.3602 64.6655 68.6618 64.1827C68.9634 63.6999 69.3249 63.2956 69.7462 62.97C70.1765 62.6432 70.6372 62.4486 71.1282 62.3863C71.4496 62.3455 71.7522 62.3706 72.0359 62.4616C72.3274 62.5425 72.5817 62.6872 72.7986 62.8955C73.0234 63.0938 73.2097 63.3468 73.3577 63.6547C73.5134 63.9524 73.6157 64.2933 73.6644 64.6772C73.7358 65.2397 73.6962 65.8208 73.5455 66.4205C73.3948 67.0203 73.1653 67.5711 72.8571 68.0729C72.5577 68.5735 72.1946 69.0007 71.7678 69.3542C71.3398 69.6989 70.8847 69.9018 70.4026 69.963ZM70.3979 69.2832C70.7015 69.2446 70.9807 69.0504 71.2357 68.7005C71.4996 68.3495 71.7176 67.9227 71.8897 67.42C72.0695 66.9073 72.1952 66.3606 72.2666 65.78C72.347 65.1982 72.3549 64.6529 72.2903 64.144C72.2302 63.6708 72.104 63.3556 71.9117 63.1986C71.7284 63.0404 71.4938 62.9795 71.2081 63.0158C71.0117 63.0407 70.8199 63.1376 70.6326 63.3065C70.4532 63.4654 70.2895 63.6767 70.1416 63.9404C69.9936 64.2042 69.8591 64.5025 69.7381 64.8354C69.6259 65.1671 69.5339 65.5145 69.4621 65.8774C69.3902 66.2404 69.3463 66.6088 69.3302 66.9828C69.3131 67.3479 69.3255 67.6956 69.3674 68.0259C69.4309 68.5259 69.556 68.8684 69.7428 69.0534C69.9295 69.2383 70.1479 69.3149 70.3979 69.2832ZM77.4127 69.0731C77.1091 69.1117 76.8161 69.0899 76.5335 69.0078C76.2587 68.9157 76.0084 68.766 75.7825 68.5588C75.5566 68.3516 75.3646 68.0902 75.2066 67.7746C75.0475 67.4501 74.9413 67.078 74.888 66.6584C74.8144 66.078 74.849 65.493 74.9918 64.9033C75.1436 64.3125 75.3703 63.7757 75.6719 63.2928C75.9735 62.81 76.335 62.4058 76.7564 62.0801C77.1866 61.7533 77.6473 61.5588 78.1384 61.4964C78.4598 61.4556 78.7624 61.4807 79.0461 61.5717C79.3376 61.6527 79.5918 61.7973 79.8088 62.0056C80.0335 62.2039 80.2199 62.457 80.3678 62.7648C80.5236 63.0625 80.6258 63.4034 80.6745 63.7873C80.7459 64.3498 80.7063 64.9309 80.5556 65.5307C80.405 66.1304 80.1755 66.6812 79.8672 67.183C79.5679 67.6837 79.2048 68.1108 78.7779 68.4644C78.3499 68.809 77.8948 69.0119 77.4127 69.0731ZM77.4081 68.3933C77.7116 68.3548 77.9909 68.1606 78.2459 67.8107C78.5098 67.4596 78.7277 67.0328 78.8998 66.5301C79.0797 66.0174 79.2053 65.4707 79.2768 64.8901C79.3572 64.3083 79.3651 63.763 79.3005 63.2541C79.2404 62.7809 79.1142 62.4658 78.9219 62.3087C78.7385 62.1506 78.504 62.0896 78.2183 62.1259C78.0218 62.1508 77.83 62.2478 77.6428 62.4167C77.4634 62.5755 77.2997 62.7868 77.1517 63.0506C77.0038 63.3143 76.8692 63.6126 76.7482 63.9455C76.6361 64.2773 76.5441 64.6246 76.4722 64.9876C76.4004 65.3505 76.3564 65.719 76.3404 66.093C76.3232 66.458 76.3356 66.8057 76.3775 67.1361C76.441 67.6361 76.5661 67.9785 76.7529 68.1635C76.9397 68.3484 77.1581 68.4251 77.4081 68.3933ZM86.5466 66.6889C86.8055 66.6561 87.1291 66.2748 87.5173 65.5451L87.8893 65.6884C87.4176 67.1182 86.838 67.8767 86.1505 67.964C85.9362 67.9912 85.748 67.938 85.5859 67.8043C85.4327 67.6695 85.2464 67.4165 85.0269 67.0452L83.8575 65.0163L83.5799 65.1876L83.1068 68.2143L81.8881 68.369L83.2539 58.4384C83.2858 58.1894 83.2961 58.0203 83.2847 57.931C83.2609 57.7435 83.1603 57.6293 82.9827 57.5883C82.804 57.5384 82.4646 57.5452 81.9646 57.6087L82.0476 57.1899L84.6957 56.7176L83.9574 62.0506L84.0126 62.0572C84.4206 61.1254 85.0218 60.6091 85.8164 60.5082C86.2361 60.4549 86.5795 60.5157 86.8466 60.6904C87.1126 60.8562 87.2671 61.1088 87.3102 61.4481C87.3635 61.8677 87.2069 62.314 86.8405 62.7869C86.4831 63.2586 85.9554 63.7112 85.2574 64.1445L84.9296 64.3494L85.837 66.0306C86.0779 66.4989 86.3145 66.7184 86.5466 66.6889ZM83.6154 64.5027C83.9824 64.32 84.3197 64.1184 84.6273 63.8979C84.935 63.6774 85.1925 63.4542 85.3997 63.2283C85.6158 63.0013 85.7784 62.7811 85.8874 62.5677C85.9952 62.3453 86.0378 62.1448 86.0151 61.9663C85.9687 61.6002 85.7624 61.4404 85.3963 61.4869C85.2088 61.5107 85.0221 61.6115 84.836 61.7894C84.6488 61.9583 84.4728 62.1802 84.3081 62.4551C84.1434 62.7301 83.9978 63.0479 83.8712 63.4087C83.7524 63.7595 83.6672 64.1241 83.6154 64.5027ZM89.1411 62.1818C89.1037 61.8872 89.1227 61.6081 89.1981 61.3445C89.2824 61.0798 89.4114 60.8457 89.5852 60.6422C89.7578 60.4297 89.9718 60.2574 90.2272 60.1252C90.4904 59.9829 90.7827 59.8914 91.1041 59.8506C91.5327 59.7962 91.9034 59.858 92.2163 60.036C92.5292 60.214 92.7072 60.4727 92.7503 60.8119C92.7741 60.9994 92.7392 61.1535 92.6457 61.2743C92.5611 61.3939 92.4295 61.465 92.2509 61.4877C92.0456 61.5138 91.8909 61.4744 91.7868 61.3697C91.6817 61.256 91.5888 61.1317 91.5082 60.9968C91.4264 60.853 91.3419 60.7231 91.2546 60.6072C91.1673 60.4912 91.0388 60.444 90.8692 60.4656C90.6728 60.4905 90.5184 60.5963 90.406 60.7829C90.2936 60.9696 90.2532 61.1879 90.285 61.4379C90.3224 61.7325 90.4423 61.9985 90.6448 62.2359C90.8551 62.4632 91.085 62.7017 91.3344 62.9513C91.5838 63.2008 91.8143 63.48 92.0259 63.7889C92.2464 64.0965 92.385 64.4736 92.4416 64.92C92.4802 65.2236 92.4495 65.5178 92.3496 65.8026C92.2586 66.0863 92.1145 66.345 91.9174 66.5787C91.728 66.8024 91.4978 66.9903 91.2269 67.1427C90.9559 67.295 90.6686 67.3904 90.3651 67.429C89.8294 67.497 89.3861 67.4353 89.0352 67.244C88.6932 67.0515 88.4984 66.7678 88.4508 66.3928C88.418 66.1339 88.4505 65.9256 88.5484 65.768C88.6542 65.6004 88.8097 65.5035 89.0151 65.4774C89.399 65.4287 89.6512 65.6643 89.7716 66.1843C89.8347 66.4666 89.9037 66.6529 89.9786 66.7432C90.0614 66.8234 90.2054 66.8505 90.4108 66.8244C90.7322 66.7836 90.9748 66.6576 91.1385 66.4463C91.301 66.226 91.3608 65.9463 91.3177 65.607C91.2724 65.2499 91.1429 64.9443 90.9292 64.6901C90.7155 64.436 90.485 64.1931 90.2379 63.9614C89.9896 63.7207 89.7575 63.4644 89.5415 63.1925C89.3255 62.9205 89.1921 62.5836 89.1411 62.1818ZM103.506 66.6181C103.555 67.0021 103.514 67.3566 103.383 67.6817C103.262 68.0146 103.059 68.308 102.773 68.5619C102.498 68.8237 102.149 69.0403 101.726 69.212C101.304 69.3836 100.82 69.5039 100.275 69.5731C99.7843 69.6354 99.3322 69.6474 98.9191 69.6091C98.506 69.5709 98.1458 69.485 97.8386 69.3517C97.5224 69.2194 97.2737 69.0469 97.0924 68.834C96.9034 68.6312 96.7907 68.3869 96.7545 68.1012C96.708 67.7352 96.79 67.4163 97.0005 67.1446C97.202 66.8741 97.4858 66.7156 97.8519 66.6691C97.959 66.6555 98.0634 66.6559 98.165 66.6702C98.2666 66.6845 98.3978 66.7178 98.5587 66.7699C98.0848 67.0387 97.8841 67.4589 97.9566 68.0303C98.0042 68.4053 98.2291 68.6761 98.6313 68.8428C99.0424 69.0083 99.5783 69.0492 100.239 68.9653C100.596 68.92 100.921 68.8378 101.215 68.719C101.508 68.6001 101.754 68.4645 101.952 68.3123C102.16 68.159 102.311 67.9946 102.407 67.8192C102.513 67.6515 102.556 67.4918 102.537 67.34C102.505 67.09 102.324 66.8816 101.995 66.7148C101.675 66.5558 101.237 66.4617 100.68 66.4327C99.6849 66.3865 98.9457 66.2808 98.462 66.1154C97.9783 65.95 97.711 65.6664 97.66 65.2646C97.6271 65.0057 97.7109 64.7728 97.9115 64.5659C98.1209 64.3578 98.509 64.1271 99.0756 63.8738L99.0956 63.8168C98.3558 63.4208 97.9378 62.8434 97.8414 62.0844C97.7893 61.6737 97.8248 61.2746 97.948 60.887C98.07 60.4905 98.2563 60.1357 98.5069 59.8226C98.7653 59.4995 99.0762 59.2333 99.4397 59.0238C99.8122 58.8132 100.213 58.6807 100.641 58.6263C101.302 58.5425 101.886 58.7133 102.394 59.1387C102.753 58.6123 103.129 58.3241 103.522 58.2742C103.808 58.238 104.069 58.2955 104.306 58.4469C104.542 58.5893 104.675 58.7766 104.704 59.0087C104.727 59.1873 104.684 59.347 104.575 59.4879C104.473 59.6187 104.333 59.6954 104.155 59.7181C104.021 59.7351 103.91 59.7219 103.823 59.6785C103.744 59.6251 103.673 59.5661 103.61 59.5014C103.547 59.4368 103.477 59.3822 103.399 59.3377C103.328 59.2832 103.235 59.2633 103.119 59.278C103.057 59.2859 103 59.3067 102.95 59.3403C102.899 59.3649 102.808 59.4354 102.677 59.5518C102.738 59.6711 102.785 59.7877 102.817 59.9015C102.849 60.0064 102.875 60.1436 102.897 60.3132C103.021 61.2954 102.849 62.1156 102.379 62.774C101.908 63.4235 101.199 63.8446 100.253 64.0373C99.829 64.1274 99.5278 64.2201 99.3494 64.3153C99.1799 64.4094 99.1042 64.5279 99.1223 64.6707C99.1461 64.8582 99.2625 64.9886 99.4714 65.0619C99.688 65.1251 99.9521 65.1687 100.264 65.1927C100.575 65.2166 100.909 65.2378 101.265 65.2561C101.621 65.2744 101.959 65.3267 102.278 65.4132C102.597 65.4907 102.867 65.6197 103.09 65.8001C103.322 65.9883 103.461 66.261 103.506 66.6181ZM100.245 63.4395C100.459 63.4123 100.659 63.3009 100.842 63.1052C101.026 62.9095 101.181 62.663 101.306 62.3658C101.44 62.0586 101.533 61.7202 101.586 61.3506C101.639 60.981 101.641 60.6087 101.594 60.2337C101.548 59.8766 101.432 59.6055 101.246 59.4206C101.058 59.2267 100.834 59.1462 100.575 59.179C100.37 59.2051 100.172 59.3255 99.9816 59.5402C99.79 59.746 99.623 60.003 99.4807 60.3114C99.3473 60.6186 99.2503 60.9621 99.1896 61.3418C99.1278 61.7125 99.119 62.072 99.1632 62.4202C99.2063 62.7594 99.3262 63.0255 99.5231 63.2182C99.7188 63.402 99.9595 63.4758 100.245 63.4395ZM107.441 65.2613C107.138 65.2999 106.845 65.2781 106.562 65.196C106.287 65.1039 106.037 64.9542 105.811 64.747C105.585 64.5398 105.393 64.2784 105.235 63.9628C105.076 63.6383 104.97 63.2662 104.917 62.8465C104.843 62.2662 104.878 61.6812 105.02 61.0915C105.172 60.5007 105.399 59.9639 105.701 59.481C106.002 58.9982 106.364 58.594 106.785 58.2683C107.215 57.9415 107.676 57.747 108.167 57.6846C108.488 57.6438 108.791 57.6689 109.075 57.7599C109.366 57.8409 109.62 57.9855 109.837 58.1938C110.062 58.3921 110.248 58.6452 110.396 58.953C110.552 59.2507 110.654 59.5916 110.703 59.9755C110.775 60.538 110.735 61.1191 110.584 61.7188C110.434 62.3186 110.204 62.8694 109.896 63.3712C109.596 63.8719 109.233 64.299 108.806 64.6526C108.378 64.9972 107.923 65.2001 107.441 65.2613ZM107.437 64.5815C107.74 64.543 108.019 64.3488 108.274 63.9989C108.538 63.6478 108.756 63.221 108.928 62.7183C109.108 62.2056 109.234 61.6589 109.305 61.0783C109.386 60.4965 109.394 59.9512 109.329 59.4423C109.269 58.9691 109.143 58.654 108.95 58.4969C108.767 58.3388 108.533 58.2778 108.247 58.3141C108.05 58.339 107.859 58.4359 107.671 58.6049C107.492 58.7637 107.328 58.975 107.18 59.2388C107.032 59.5025 106.898 59.8008 106.777 60.1337C106.665 60.4655 106.573 60.8128 106.501 61.1757C106.429 61.5387 106.385 61.9072 106.369 62.2811C106.352 62.6462 106.364 62.9939 106.406 63.3243C106.47 63.8243 106.595 64.1667 106.781 64.3517C106.968 64.5366 107.187 64.6132 107.437 64.5815ZM114.451 64.3715C114.148 64.41 113.855 64.3882 113.572 64.3062C113.297 64.214 113.047 64.0644 112.821 63.8572C112.595 63.65 112.403 63.3886 112.245 63.0729C112.086 62.7484 111.98 62.3763 111.927 61.9567C111.853 61.3763 111.888 60.7913 112.031 60.2016C112.182 59.6108 112.409 59.074 112.711 58.5912C113.012 58.1083 113.374 57.7041 113.795 57.3785C114.225 57.0517 114.686 56.8571 115.177 56.7948C115.499 56.754 115.801 56.7791 116.085 56.8701C116.376 56.951 116.631 57.0956 116.848 57.304C117.072 57.5022 117.259 57.7553 117.407 58.0631C117.562 58.3609 117.665 58.7017 117.713 59.0856C117.785 59.6481 117.745 60.2292 117.594 60.829C117.444 61.4287 117.214 61.9795 116.906 62.4813C116.607 62.982 116.244 63.4091 115.817 63.7627C115.389 64.1073 114.934 64.3103 114.451 64.3715ZM114.447 63.6916C114.75 63.6531 115.03 63.4589 115.285 63.109C115.548 62.758 115.766 62.3311 115.939 61.8285C116.118 61.3157 116.244 60.769 116.316 60.1884C116.396 59.6067 116.404 59.0613 116.339 58.5524C116.279 58.0792 116.153 57.7641 115.961 57.6071C115.777 57.4489 115.543 57.388 115.257 57.4242C115.061 57.4492 114.869 57.5461 114.682 57.715C114.502 57.8739 114.338 58.0852 114.19 58.3489C114.042 58.6126 113.908 58.9109 113.787 59.2438C113.675 59.5756 113.583 59.9229 113.511 60.2859C113.439 60.6488 113.395 61.0173 113.379 61.3913C113.362 61.7564 113.374 62.1041 113.416 62.4344C113.48 62.9344 113.605 63.2769 113.792 63.4618C113.978 63.6468 114.197 63.7234 114.447 63.6916ZM124.031 53.6023C124.072 53.3522 124.1 53.1445 124.116 52.9793C124.131 52.814 124.134 52.6957 124.125 52.6243C124.108 52.4903 124.007 52.4079 123.821 52.377C123.636 52.3461 123.311 52.3601 122.847 52.4191L122.926 51.8647L125.511 51.5366L124.713 57.1492C124.614 57.8695 124.533 58.483 124.47 58.99C124.408 59.4969 124.358 59.9251 124.32 60.2746C124.291 60.614 124.276 60.8925 124.277 61.1102C124.277 61.3279 124.287 61.5081 124.305 61.651C124.331 61.8564 124.38 61.9952 124.453 62.0677C124.526 62.1401 124.611 62.1701 124.709 62.1576C124.906 62.1327 125.094 61.9409 125.276 61.5822C125.466 61.2224 125.616 60.7633 125.727 60.2049L126.251 60.2608C126.06 61.1833 125.808 61.8775 125.495 62.3436C125.19 62.7997 124.81 63.0566 124.354 63.1144C124.033 63.1552 123.77 63.0843 123.565 62.9016C123.37 62.7178 123.247 62.4339 123.199 62.05C123.186 61.9518 123.182 61.8479 123.186 61.7385C123.191 61.6291 123.2 61.5236 123.214 61.422L123.104 61.4088C122.839 62.0412 122.486 62.5486 122.045 62.9313C121.602 63.305 121.162 63.5196 120.725 63.5751C120.493 63.6046 120.272 63.5827 120.063 63.5094C119.853 63.4272 119.666 63.3059 119.5 63.1454C119.333 62.9761 119.19 62.7721 119.069 62.5334C118.955 62.2847 118.879 62.0041 118.839 61.6916C118.791 61.3077 118.798 60.903 118.862 60.4775C118.934 60.042 119.048 59.6193 119.205 59.2093C119.369 58.7893 119.568 58.3876 119.8 58.0042C120.033 57.6209 120.284 57.2805 120.555 56.983C120.833 56.6755 121.124 56.4255 121.426 56.2329C121.737 56.0392 122.049 55.9225 122.361 55.8828C122.665 55.8443 122.9 55.8734 123.066 55.9702C123.242 56.0659 123.421 56.2291 123.605 56.4598L124.031 53.6023ZM122.545 56.5807C122.313 56.6102 122.086 56.7161 121.864 56.8985C121.65 57.0708 121.448 57.2961 121.256 57.5745C121.063 57.8439 120.889 58.1517 120.734 58.4981C120.587 58.8433 120.464 59.1991 120.366 59.5654C120.267 59.9318 120.196 60.2992 120.152 60.6676C120.117 61.035 120.119 61.3749 120.159 61.6874C120.2 62.0088 120.313 62.2575 120.498 62.4336C120.683 62.6006 120.909 62.6672 121.177 62.6332C121.382 62.6071 121.582 62.5001 121.776 62.3122C121.969 62.1154 122.151 61.87 122.322 61.5761C122.493 61.2822 122.647 60.9542 122.782 60.5923C122.926 60.2203 123.041 59.8472 123.13 59.4731C123.226 59.0889 123.293 58.7176 123.329 58.3592C123.364 57.9918 123.363 57.6653 123.327 57.3796C123.292 57.1028 123.211 56.8954 123.085 56.7572C122.957 56.6101 122.777 56.5512 122.545 56.5807ZM132.178 55.9431L132.222 55.9648C132.429 55.5212 132.71 55.1634 133.065 54.8915C133.429 54.6095 133.829 54.4407 134.267 54.3852C134.811 54.316 135.252 54.4324 135.59 54.7343C135.928 55.0362 136.134 55.4817 136.209 56.071C136.262 56.4906 136.254 56.9271 136.185 57.3805C136.115 57.8338 135.994 58.2756 135.822 58.7057C135.659 59.1347 135.452 59.5464 135.203 59.941C134.953 60.3266 134.675 60.6748 134.37 60.9857C134.072 61.2866 133.746 61.5367 133.39 61.7361C133.043 61.9344 132.691 62.0561 132.334 62.1015C131.825 62.1661 131.386 62.0676 131.017 61.8059C130.656 61.5342 130.444 61.1529 130.382 60.6618C130.353 60.4297 130.36 60.0976 130.405 59.6655C130.449 59.2244 130.527 58.6974 130.64 58.0843L131.598 52.6555C131.622 52.4891 131.646 52.3228 131.67 52.1564C131.693 51.9811 131.7 51.8532 131.69 51.7729C131.65 51.4604 131.286 51.3478 130.599 51.4351L130.668 51.018L133.224 50.571L132.178 55.9431ZM132.461 61.3913C132.667 61.3652 132.877 61.266 133.091 61.0937C133.303 60.9124 133.506 60.6826 133.697 60.4043C133.889 60.126 134.066 59.8086 134.229 59.4522C134.393 59.0958 134.528 58.7294 134.634 58.353C134.739 57.9676 134.814 57.5863 134.856 57.2089C134.907 56.8214 134.911 56.4625 134.869 56.1322C134.83 55.8197 134.725 55.5698 134.557 55.3826C134.388 55.1954 134.2 55.1148 133.995 55.1409C133.799 55.1658 133.594 55.2689 133.381 55.4502C133.176 55.6213 132.978 55.8506 132.788 56.1378C132.605 56.415 132.433 56.7318 132.269 57.0882C132.113 57.4346 131.979 57.801 131.864 58.1875C131.758 58.5639 131.683 58.9408 131.64 59.3182C131.598 59.6956 131.597 60.0494 131.639 60.3798C131.732 61.1119 132.006 61.4491 132.461 61.3913ZM139.513 60.2104C139.656 60.1923 139.831 60.0702 140.038 59.8444C140.244 59.6095 140.456 59.3105 140.673 58.9473C140.888 58.5752 141.09 58.1595 141.276 57.7003C141.472 57.24 141.625 56.767 141.736 56.2812L142.387 53.4769L143.632 53.3188L143.031 56.5115C142.944 56.976 142.873 57.3752 142.815 57.7091C142.757 58.0341 142.71 58.3121 142.676 58.5433C142.641 58.7655 142.619 58.9497 142.61 59.096C142.6 59.2333 142.601 59.3421 142.611 59.4225C142.64 59.6546 142.735 59.7605 142.896 59.7401C142.985 59.7288 143.087 59.675 143.202 59.5788C143.316 59.4736 143.426 59.3417 143.533 59.183C143.648 59.0142 143.752 58.8331 143.845 58.6398C143.946 58.4365 144.028 58.2264 144.092 58.0098L144.519 58.1597C144.44 58.469 144.325 58.7785 144.174 59.088C144.022 59.3885 143.848 59.6646 143.653 59.9161C143.467 60.1666 143.262 60.374 143.038 60.5386C142.814 60.7031 142.586 60.8001 142.354 60.8295C142.077 60.8647 141.877 60.7903 141.754 60.6063C141.631 60.4224 141.546 60.1473 141.5 59.7813C141.48 59.6295 141.464 59.4682 141.452 59.2974C141.447 59.1166 141.452 58.9391 141.466 58.7649L141.421 58.7299C141.234 59.189 141.042 59.5717 140.845 59.878C140.657 60.1831 140.467 60.4341 140.274 60.6309C140.081 60.8277 139.886 60.9704 139.689 61.059C139.492 61.1565 139.296 61.2177 139.1 61.2427C138.68 61.2959 138.371 61.2173 138.171 61.0066C137.981 60.7949 137.865 60.5194 137.822 60.1801C137.774 59.8051 137.793 59.3854 137.879 58.9208C137.964 58.4473 138.062 57.9995 138.172 57.5773C138.281 57.1552 138.372 56.7989 138.444 56.5085C138.525 56.217 138.585 55.9735 138.624 55.7781C138.671 55.5815 138.701 55.4235 138.713 55.304C138.734 55.1834 138.74 55.0874 138.731 55.016C138.726 54.9803 138.714 54.9502 138.692 54.9256C138.679 54.8911 138.645 54.8772 138.592 54.884C138.476 54.8987 138.319 55.0229 138.122 55.2566C137.934 55.4892 137.681 55.8569 137.364 56.3599L136.992 56.2166C137.093 55.9406 137.23 55.6602 137.402 55.3752C137.575 55.0902 137.764 54.8303 137.97 54.5955C138.176 54.3607 138.396 54.1649 138.63 54.0082C138.864 53.8514 139.089 53.7595 139.303 53.7323C139.749 53.6756 140.005 53.9062 140.071 54.424C140.111 54.7365 140.073 55.1541 139.958 55.6767C139.851 56.1893 139.702 56.8069 139.513 57.5296C139.39 57.9897 139.292 58.4013 139.22 58.7642C139.149 59.1271 139.131 59.4515 139.167 59.7372C139.191 59.9247 139.235 60.0552 139.298 60.1287C139.361 60.1934 139.432 60.2206 139.513 60.2104ZM147.681 53.9343L147.037 57.7584C146.946 58.2598 146.912 58.636 146.935 58.8872C146.945 58.9675 146.972 59.0367 147.016 59.0946C147.069 59.1515 147.144 59.1737 147.242 59.1612C147.403 59.1408 147.565 59.0612 147.729 58.9225C147.892 58.7748 148.043 58.6104 148.184 58.4293C148.332 58.2381 148.457 58.0498 148.561 57.8643C148.672 57.6687 148.753 57.5179 148.803 57.4117L149.22 57.5901C149.107 57.9129 148.952 58.2319 148.756 58.5471C148.559 58.8534 148.345 59.1301 148.113 59.3772C147.882 59.6244 147.64 59.8319 147.389 59.9998C147.146 60.1577 146.918 60.2502 146.703 60.2774C146.391 60.3171 146.155 60.279 145.995 60.1632C145.844 60.0463 145.749 59.8316 145.709 59.5191C145.686 59.3405 145.687 59.0955 145.711 58.784C145.735 58.4725 145.789 58.0437 145.874 57.4977L146.449 54.0907L145.297 54.2369L145.393 53.5988L146.558 53.4509L146.962 51.059L148.194 50.9025L147.79 53.2945L149.25 53.1092L149.141 53.749L147.681 53.9343ZM39.7077 89.5397C39.3649 90.055 38.9906 90.4654 38.5848 90.7709C38.178 91.0675 37.7558 91.2436 37.3183 91.2991C36.8272 91.3615 36.4235 91.254 36.107 90.9766C35.7894 90.6903 35.5944 90.2615 35.5218 89.69C35.3802 88.574 35.7866 87.1661 36.7412 85.4664L36.7093 85.4296C36.4682 85.4602 36.2628 85.45 36.093 85.399C35.9232 85.3479 35.7747 85.2851 35.6472 85.2106C35.5288 85.1349 35.4204 85.067 35.322 85.0069C35.2326 84.9457 35.1388 84.9213 35.0406 84.9338C34.8977 84.9519 34.8359 85.0369 34.8552 85.1887C34.8654 85.269 34.8968 85.3376 34.9493 85.3944C35.0108 85.4501 35.0724 85.5058 35.1339 85.5615C35.2043 85.6161 35.2669 85.6807 35.3218 85.7554C35.3844 85.82 35.4225 85.9059 35.4361 86.0131C35.4565 86.1738 35.411 86.3156 35.2996 86.4386C35.1871 86.5527 35.0326 86.6222 34.8362 86.6472C34.6041 86.6766 34.4164 86.6279 34.2733 86.5009C34.1302 86.3739 34.0422 86.1809 34.0093 85.922C33.9821 85.7077 34.0007 85.4967 34.065 85.289C34.1282 85.0723 34.2261 84.8784 34.3586 84.7074C34.49 84.5274 34.6482 84.3803 34.8333 84.2661C35.0273 84.1507 35.2315 84.0794 35.4458 84.0522C35.6333 84.0284 35.7935 84.0399 35.9264 84.0865C36.0582 84.1242 36.1828 84.1764 36.3001 84.2432C36.4163 84.301 36.5275 84.3549 36.6336 84.405C36.7476 84.4449 36.8715 84.4564 37.0054 84.4394C37.0769 84.4303 37.1377 84.409 37.1878 84.3754C37.2469 84.3407 37.3116 84.2781 37.3817 84.1875C37.4675 84.0768 37.5549 83.9796 37.6441 83.8957C37.7321 83.8028 37.8386 83.7485 37.9636 83.7326C38.1511 83.7088 38.2561 83.7862 38.2788 83.9648C38.2822 83.9916 38.2817 84.0234 38.2773 84.0602C38.2718 84.0881 38.2501 84.1317 38.2123 84.191C38.1834 84.2491 38.1389 84.3273 38.0788 84.4256C38.0175 84.5151 37.9335 84.6391 37.8266 84.7979C37.6062 85.1343 37.4149 85.4852 37.2526 85.8505C37.0993 86.2147 36.9777 86.5794 36.888 86.9446C36.7971 87.3009 36.7375 87.6532 36.7092 88.0016C36.6797 88.341 36.6836 88.658 36.721 88.9527C36.7766 89.3901 36.8916 89.7248 37.0662 89.9567C37.2397 90.1796 37.4559 90.2746 37.7148 90.2418C37.9558 90.2112 38.2224 90.0594 38.5143 89.7865C38.8051 89.5046 39.1064 89.1262 39.418 88.6511C39.3764 88.4659 39.3341 88.2762 39.2914 88.082C39.2575 87.8868 39.2304 87.7088 39.21 87.548C39.1488 87.0659 39.1423 86.5859 39.1905 86.108C39.2465 85.6201 39.3405 85.1818 39.4726 84.793C39.6036 84.3954 39.771 84.0702 39.9748 83.8175C40.1786 83.5649 40.401 83.4232 40.6421 83.3926C40.8385 83.3677 41.0234 83.4304 41.1967 83.5808C41.3789 83.73 41.4956 84.0055 41.5466 84.4073C41.6078 84.8894 41.5491 85.4639 41.3707 86.1307C41.1922 86.7974 40.9017 87.5102 40.499 88.269C40.6338 88.6873 40.8253 89.0168 41.0736 89.2575C41.3308 89.497 41.5888 89.6003 41.8478 89.5674C42.0978 89.5357 42.3375 89.3873 42.5669 89.1223C42.7964 88.8573 42.9956 88.5327 43.1645 88.1483C43.3324 87.7551 43.4555 87.3312 43.5338 86.8767C43.62 86.4122 43.6365 85.9701 43.5832 85.5504C43.5572 85.3451 43.5166 85.1688 43.4616 85.0215C43.4156 84.8731 43.3623 84.7393 43.3018 84.62C43.2491 84.4906 43.1975 84.3701 43.1471 84.2586C43.1044 84.137 43.074 84.0047 43.0559 83.8619C42.9913 83.353 43.1911 83.069 43.6554 83.0101C43.9322 82.975 44.1416 83.0527 44.2838 83.2433C44.4348 83.4328 44.541 83.7686 44.6022 84.2508C44.6928 84.965 44.668 85.6985 44.5277 86.4512C44.3862 87.1949 44.1648 87.8807 43.8635 88.5087C43.57 89.1266 43.2137 89.6435 42.7948 90.0596C42.3758 90.4757 41.9342 90.7132 41.47 90.7721C41.095 90.8197 40.7582 90.74 40.4598 90.5329C40.1613 90.3259 39.9107 89.9948 39.7077 89.5397ZM40.2027 87.4356C40.3861 87.0223 40.5249 86.6145 40.619 86.2125C40.722 85.8093 40.7486 85.4113 40.6988 85.0184C40.6557 84.6791 40.5672 84.518 40.4333 84.535C40.344 84.5463 40.2665 84.6151 40.2009 84.7414C40.1353 84.8677 40.0837 85.033 40.0461 85.2374C40.0175 85.4406 40.0023 85.6784 40.0006 85.9508C39.9978 86.2142 40.015 86.4933 40.0524 86.7879C40.0683 86.9129 40.0875 87.0284 40.11 87.1344C40.1326 87.2404 40.1635 87.3408 40.2027 87.4356ZM46.9937 85.4441C47.0745 85.08 47.1281 84.7875 47.1545 84.5664C47.1808 84.3453 47.1861 84.1723 47.1702 84.0473C47.1543 83.9223 47.1218 83.8447 47.0726 83.8147C47.0313 83.7746 46.9883 83.7574 46.9436 83.763C46.8454 83.7755 46.7445 83.8382 46.6409 83.9511C46.5362 84.0552 46.4337 84.177 46.3335 84.3168C46.2333 84.4565 46.1465 84.5945 46.0731 84.7309C45.9996 84.8672 45.9496 84.9733 45.923 85.0493L45.504 84.8575C45.5862 84.6475 45.7057 84.4101 45.8626 84.1452C46.0285 83.8792 46.2189 83.6282 46.4339 83.3923C46.6489 83.1563 46.8773 82.9549 47.1192 82.7881C47.36 82.6124 47.5965 82.5098 47.8286 82.4804C48.0518 82.452 48.2255 82.498 48.3497 82.6184C48.4816 82.7286 48.5691 82.9534 48.6122 83.2927C48.645 83.5516 48.6089 83.91 48.5037 84.3679C48.4075 84.8246 48.278 85.4126 48.1152 86.1318L47.7914 87.5474C47.7792 87.5943 47.7615 87.6691 47.7383 87.7719C47.7228 87.8646 47.704 87.9667 47.6819 88.0784C47.6676 88.18 47.6533 88.2816 47.639 88.3832C47.6336 88.4837 47.6348 88.5652 47.6428 88.6277C47.653 88.7081 47.6844 88.7767 47.7369 88.8335C47.7895 88.8903 47.8649 88.9125 47.9631 88.9C48.0971 88.883 48.2286 88.8119 48.3579 88.6866C48.486 88.5524 48.6074 88.4009 48.7221 88.2321C48.8367 88.0634 48.938 87.8963 49.0259 87.7309C49.1126 87.5566 49.1771 87.4214 49.2193 87.3253L49.65 87.502C49.5701 87.7299 49.4528 87.9852 49.2981 88.2679C49.1524 88.5495 48.9777 88.8166 48.7739 89.0693C48.569 89.313 48.3377 89.5284 48.0802 89.7153C47.8216 89.8933 47.5449 90.001 47.2503 90.0384C46.9914 90.0712 46.7865 90.0292 46.6355 89.9123C46.4935 89.7942 46.4027 89.5789 46.363 89.2664C46.3302 89.0075 46.3352 88.7256 46.3782 88.4208C46.4289 88.1059 46.5057 87.7106 46.6086 87.2348L46.9937 85.4441ZM48.3266 80.1854C48.1034 80.2137 47.8973 80.1628 47.7084 80.0325C47.5284 79.9011 47.4232 79.7149 47.3926 79.4738C47.362 79.2328 47.4162 79.0172 47.5554 78.8272C47.6946 78.6371 47.8803 78.5274 48.1124 78.4979C48.3624 78.4662 48.5785 78.5249 48.7607 78.6742C48.943 78.8234 49.0488 79.0141 49.0783 79.2462C49.1078 79.4784 49.0479 79.6856 48.8987 79.8678C48.7494 80.0501 48.5587 80.1559 48.3266 80.1854ZM51.6801 79.9366C51.7043 79.7702 51.7286 79.6039 51.7528 79.4375C51.7759 79.2622 51.7824 79.1343 51.7722 79.054C51.7325 78.7415 51.3734 78.6283 50.6948 78.7144L50.751 78.2991L53.1865 77.8674L51.9062 86.9706C51.8653 87.2208 51.839 87.4418 51.8271 87.6339C51.814 87.817 51.8154 87.971 51.8313 88.096C51.8415 88.1764 51.8729 88.245 51.9255 88.3018C51.978 88.3586 52.0534 88.3808 52.1516 88.3683C52.2945 88.3502 52.4389 88.2729 52.5849 88.1364C52.7297 87.991 52.8634 87.8289 52.9858 87.6501C53.1161 87.4612 53.2285 87.2745 53.323 87.0902C53.4164 86.8969 53.4837 86.7477 53.5248 86.6427L53.9554 86.8194C53.86 87.1399 53.7233 87.4567 53.5453 87.7696C53.3662 88.0736 53.1697 88.348 52.9558 88.5929C52.742 88.8377 52.5185 89.043 52.2855 89.2087C52.0603 89.3643 51.8451 89.4551 51.6397 89.4812C51.3272 89.5208 51.0866 89.4833 50.9178 89.3687C50.7579 89.2529 50.6582 89.0388 50.6185 88.7263C50.5958 88.5477 50.592 88.3032 50.6071 87.9929C50.6221 87.6825 50.6631 87.2554 50.7302 86.7117L51.6801 79.9366ZM55.8783 79.4037C55.9026 79.2373 55.9268 79.0709 55.9511 78.9046C55.9742 78.7292 55.9806 78.6014 55.9704 78.5211C55.9307 78.2086 55.5716 78.0954 54.8931 78.1815L54.9492 77.7661L57.3848 77.3345L56.1044 86.4377C56.0636 86.6878 56.0372 86.9089 56.0253 87.101C56.0123 87.2841 56.0137 87.4381 56.0295 87.5631C56.0397 87.6435 56.0711 87.712 56.1237 87.7689C56.1763 87.8257 56.2517 87.8479 56.3499 87.8354C56.4927 87.8173 56.6372 87.74 56.7831 87.6035C56.928 87.4581 57.0616 87.296 57.1841 87.1172C57.3143 86.9283 57.4267 86.7416 57.5213 86.5572C57.6147 86.3639 57.6819 86.2148 57.723 86.1098L58.1537 86.2864C58.0583 86.607 57.9216 86.9237 57.7436 87.2367C57.5644 87.5406 57.3679 87.8151 57.1541 88.0599C56.9402 88.3048 56.7168 88.5101 56.4838 88.6758C56.2586 88.8314 56.0433 88.9222 55.8379 88.9483C55.5255 88.9879 55.2848 88.9504 55.116 88.8358C54.9562 88.72 54.8564 88.5058 54.8168 88.1933C54.7941 88.0148 54.7903 87.7703 54.8053 87.4599C54.8203 87.1496 54.8614 86.7225 54.9284 86.1787L55.8783 79.4037ZM63.0412 83.407C63.122 83.043 63.1756 82.7504 63.202 82.5293C63.2283 82.3082 63.2336 82.1352 63.2177 82.0102C63.2018 81.8852 63.1693 81.8077 63.1201 81.7776C63.0788 81.7375 63.0358 81.7203 62.9911 81.726C62.8929 81.7384 62.792 81.8011 62.6884 81.9141C62.5837 82.0181 62.4812 82.14 62.381 82.2797C62.2808 82.4194 62.194 82.5575 62.1206 82.6938C62.0471 82.8301 61.9971 82.9363 61.9705 83.0122L61.5515 82.8205C61.6337 82.6104 61.7532 82.373 61.9101 82.1081C62.076 81.8421 62.2664 81.5912 62.4814 81.3552C62.6964 81.1193 62.9248 80.9179 63.1667 80.7511C63.4075 80.5754 63.644 80.4728 63.8761 80.4433C64.0993 80.415 64.273 80.461 64.3972 80.5813C64.5291 80.6916 64.6166 80.9163 64.6597 81.2556C64.6925 81.5145 64.6564 81.8729 64.5512 82.3308C64.4549 82.7876 64.3255 83.3756 64.1627 84.0948L63.8389 85.5103C63.8267 85.5572 63.809 85.6321 63.7858 85.7348C63.7703 85.8275 63.7515 85.9297 63.7294 86.0413C63.7151 86.143 63.7008 86.2446 63.6865 86.3462C63.6811 86.4467 63.6823 86.5281 63.6903 86.5906C63.7005 86.671 63.7319 86.7396 63.7844 86.7964C63.837 86.8533 63.9124 86.8754 64.0106 86.863C64.1445 86.846 64.2761 86.7748 64.4054 86.6496C64.5335 86.5154 64.6549 86.3639 64.7696 86.1951C64.8842 86.0263 64.9855 85.8592 65.0734 85.6938C65.1601 85.5195 65.2246 85.3843 65.2668 85.2882L65.6975 85.4649C65.6176 85.6928 65.5003 85.9481 65.3456 86.2308C65.1999 86.5124 65.0252 86.7795 64.8214 87.0322C64.6165 87.276 64.3852 87.4913 64.1277 87.6782C63.8691 87.8562 63.5924 87.9639 63.2978 88.0013C63.0389 88.0342 62.8339 87.9921 62.683 87.8752C62.541 87.7572 62.4502 87.5419 62.4105 87.2294C62.3777 86.9705 62.3827 86.6886 62.4257 86.3838C62.4764 86.0689 62.5532 85.6735 62.6561 85.1978L63.0412 83.407ZM64.3741 78.1483C64.1509 78.1767 63.9448 78.1257 63.7559 77.9955C63.5759 77.8641 63.4707 77.6779 63.4401 77.4368C63.4094 77.1957 63.4637 76.9802 63.6029 76.7901C63.7421 76.6001 63.9277 76.4903 64.1599 76.4609C64.4099 76.4291 64.626 76.4879 64.8082 76.6371C64.9905 76.7864 65.0963 76.9771 65.1258 77.2092C65.1553 77.4413 65.0954 77.6485 64.9462 77.8308C64.7969 78.013 64.6062 78.1189 64.3741 78.1483ZM68.8388 81.0789L68.1947 84.903C68.1042 85.4044 68.0703 85.7806 68.0931 86.0318C68.1033 86.1121 68.1302 86.1813 68.1738 86.2392C68.2264 86.2961 68.3018 86.3183 68.4 86.3058C68.5607 86.2854 68.723 86.2058 68.8868 86.0671C69.0495 85.9194 69.201 85.755 69.3414 85.5739C69.4895 85.3827 69.6152 85.1944 69.7187 85.0089C69.83 84.8133 69.9106 84.6625 69.9606 84.5563L70.3779 84.7347C70.2647 85.0575 70.1101 85.3765 69.9142 85.6917C69.7172 85.998 69.5029 86.2747 69.2712 86.5218C69.0394 86.769 68.7982 86.9765 68.5473 87.1444C68.3042 87.3023 68.0756 87.3948 67.8613 87.422C67.5488 87.4617 67.3126 87.4236 67.1528 87.3078C67.0019 87.1909 66.9066 86.9762 66.8669 86.6637C66.8442 86.4851 66.8449 86.2401 66.8688 85.9286C66.8928 85.6171 66.9472 85.1883 67.0322 84.6423L67.6067 81.2353L66.4549 81.3815L66.5508 80.7434L67.716 80.5955L68.12 78.2036L69.3521 78.0471L68.9481 80.4391L70.4079 80.2538L70.2986 80.8936L68.8388 81.0789ZM75.1951 81.0886C75.1577 80.7939 75.1767 80.5148 75.2521 80.2512C75.3365 79.9865 75.4655 79.7524 75.6393 79.5489C75.8119 79.3364 76.0259 79.1641 76.2813 79.0319C76.5445 78.8896 76.8368 78.7981 77.1582 78.7573C77.5867 78.7029 77.9575 78.7647 78.2704 78.9427C78.5833 79.1207 78.7613 79.3794 78.8043 79.7186C78.8281 79.9061 78.7933 80.0603 78.6997 80.181C78.6151 80.3006 78.4835 80.3717 78.305 80.3944C78.0996 80.4205 77.9449 80.3811 77.8409 80.2764C77.7358 80.1627 77.6429 80.0385 77.5622 79.9035C77.4805 79.7597 77.3959 79.6298 77.3086 79.5139C77.2214 79.3979 77.0929 79.3507 76.9232 79.3723C76.7268 79.3972 76.5724 79.503 76.46 79.6896C76.3476 79.8763 76.3073 80.0946 76.339 80.3446C76.3764 80.6392 76.4964 80.9052 76.6989 81.1426C76.9092 81.3699 77.1391 81.6084 77.3885 81.858C77.6379 82.1076 77.8684 82.3867 78.08 82.6956C78.3005 83.0032 78.439 83.3803 78.4957 83.8267C78.5342 84.1303 78.5035 84.4245 78.4036 84.7093C78.3126 84.9931 78.1686 85.2518 77.9714 85.4854C77.7821 85.7091 77.5519 85.897 77.2809 86.0494C77.01 86.2017 76.7227 86.2972 76.4191 86.3357C75.8834 86.4037 75.4401 86.342 75.0892 86.1507C74.7473 85.9582 74.5525 85.6745 74.5049 85.2995C74.472 85.0406 74.5046 84.8323 74.6025 84.6747C74.7082 84.5071 74.8638 84.4102 75.0691 84.3842C75.453 84.3354 75.7052 84.571 75.8257 85.091C75.8887 85.3733 75.9577 85.5596 76.0327 85.6499C76.1155 85.7301 76.2595 85.7572 76.4649 85.7311C76.7863 85.6903 77.0288 85.5643 77.1925 85.353C77.3551 85.1327 77.4148 84.853 77.3718 84.5137C77.3264 84.1566 77.1969 83.851 76.9832 83.5968C76.7695 83.3427 76.5391 83.0998 76.2919 82.8681C76.0437 82.6274 75.8115 82.3711 75.5956 82.0992C75.3796 81.8272 75.2461 81.4903 75.1951 81.0886ZM82.0804 84.6372C82.2233 84.6191 82.3983 84.4971 82.6055 84.2712C82.8116 84.0364 83.0231 83.7374 83.2401 83.3742C83.4559 83.002 83.6572 82.5864 83.8439 82.1272C84.0395 81.6669 84.1926 81.1938 84.3033 80.708L84.9543 77.9037L86.1999 77.7456L85.5981 80.9383C85.5119 81.4029 85.4401 81.8021 85.3827 82.136C85.3242 82.4609 85.2778 82.739 85.2437 82.9701C85.2084 83.1923 85.1864 83.3766 85.1777 83.5228C85.168 83.6602 85.1682 83.769 85.1784 83.8494C85.2078 84.0815 85.3029 84.1874 85.4636 84.167C85.5529 84.1556 85.6549 84.1018 85.7697 84.0056C85.8834 83.9005 85.9937 83.7685 86.1005 83.6098C86.2152 83.441 86.3192 83.26 86.4126 83.0667C86.5138 82.8633 86.596 82.6533 86.6592 82.4366L87.0865 82.5865C87.0079 82.8959 86.8929 83.2053 86.7417 83.5148C86.5893 83.8154 86.4157 84.0915 86.2208 84.343C86.0349 84.5934 85.8299 84.8009 85.6058 84.9654C85.3817 85.1299 85.1536 85.2269 84.9215 85.2564C84.6447 85.2915 84.4448 85.2171 84.3216 85.0332C84.1985 84.8492 84.1137 84.5742 84.0672 84.2081C84.0479 84.0564 84.032 83.8951 84.0194 83.7243C84.0146 83.5435 84.0193 83.366 84.0334 83.1918L83.9882 83.1567C83.8015 83.6159 83.6097 83.9986 83.4127 84.3048C83.2246 84.6099 83.0342 84.8609 82.8414 85.0578C82.6487 85.2546 82.4536 85.3973 82.2562 85.4859C82.0599 85.5834 81.8635 85.6446 81.6671 85.6695C81.2475 85.7228 80.9381 85.6441 80.739 85.4335C80.5488 85.2218 80.4322 84.9463 80.3891 84.607C80.3415 84.232 80.3608 83.8122 80.447 83.3477C80.5321 82.8742 80.6295 82.4264 80.7392 82.0042C80.8489 81.582 80.9397 81.2257 81.0117 80.9354C81.0927 80.6438 81.1525 80.4004 81.1912 80.2049C81.2388 80.0084 81.2686 79.8504 81.2807 79.7309C81.3017 79.6103 81.3076 79.5143 81.2986 79.4429C81.294 79.4071 81.2811 79.377 81.2599 79.3525C81.2464 79.3179 81.2129 79.304 81.1593 79.3108C81.0433 79.3256 80.8867 79.4498 80.6895 79.6835C80.5013 79.916 80.2486 80.2838 79.9314 80.7867L79.5594 80.6434C79.6605 80.3675 79.7972 80.087 79.9697 79.8021C80.1422 79.5171 80.3315 79.2572 80.5376 79.0223C80.7436 78.7875 80.9637 78.5917 81.1978 78.435C81.432 78.2783 81.6562 78.1863 81.8705 78.1591C82.3169 78.1024 82.573 78.333 82.6387 78.8509C82.6784 79.1634 82.6406 79.5809 82.5255 80.1036C82.4182 80.6162 82.2698 81.2338 82.0803 81.9564C81.9573 82.4166 81.8598 82.8281 81.788 83.1911C81.7161 83.554 81.6983 83.8783 81.7346 84.164C81.7584 84.3515 81.8022 84.4821 81.8659 84.5556C81.9286 84.6202 82.0001 84.6474 82.0804 84.6372ZM89.0546 80.1049C89.1354 79.7408 89.189 79.4483 89.2154 79.2272C89.2417 79.0061 89.247 78.8331 89.2311 78.7081C89.2153 78.5831 89.1827 78.5055 89.1336 78.4755C89.0922 78.4354 89.0492 78.4182 89.0045 78.4238C88.9063 78.4363 88.8054 78.499 88.7018 78.612C88.5971 78.716 88.4946 78.8378 88.3944 78.9776C88.2942 79.1173 88.2074 79.2553 88.134 79.3917C88.0606 79.528 88.0105 79.6341 87.9839 79.7101L87.5649 79.5183C87.6471 79.3083 87.7667 79.0709 87.9236 78.806C88.0894 78.54 88.2798 78.289 88.4948 78.0531C88.7098 77.8171 88.9382 77.6158 89.1802 77.449C89.421 77.2732 89.6574 77.1706 89.8896 77.1412C90.1128 77.1128 90.2864 77.1588 90.4106 77.2792C90.5425 77.3894 90.63 77.6142 90.6731 77.9535C90.7059 78.2124 90.6698 78.5708 90.5646 79.0287C90.4684 79.4854 90.3389 80.0734 90.1762 80.7927L89.8523 82.2082C89.8401 82.2551 89.8224 82.3299 89.7992 82.4327C89.7837 82.5254 89.765 82.6275 89.7428 82.7392C89.7285 82.8408 89.7142 82.9424 89.6999 83.0441C89.6945 83.1445 89.6958 83.226 89.7037 83.2885C89.7139 83.3689 89.7453 83.4375 89.7979 83.4943C89.8504 83.5511 89.9258 83.5733 90.024 83.5608C90.158 83.5438 90.2896 83.4727 90.4188 83.3474C90.5469 83.2132 90.6683 83.0617 90.783 82.893C90.8976 82.7242 90.9989 82.5571 91.0868 82.3917C91.1735 82.2174 91.238 82.0822 91.2802 81.9861L91.7109 82.1628C91.631 82.3907 91.5137 82.646 91.3591 82.9287C91.2134 83.2103 91.0386 83.4774 90.8348 83.7301C90.6299 83.9738 90.3987 84.1892 90.1411 84.3761C89.8825 84.5541 89.6059 84.6618 89.3112 84.6992C89.0523 84.732 88.8474 84.69 88.6964 84.5731C88.5544 84.455 88.4636 84.2398 88.4239 83.9273C88.3911 83.6683 88.3961 83.3865 88.4391 83.0816C88.4898 82.7667 88.5667 82.3714 88.6696 81.8957L89.0546 80.1049ZM90.3875 74.8462C90.1643 74.8745 89.9582 74.8236 89.7693 74.6933C89.5894 74.5619 89.4841 74.3757 89.4535 74.1347C89.4229 73.8936 89.4772 73.678 89.6163 73.488C89.7555 73.298 89.9412 73.1882 90.1733 73.1587C90.4233 73.127 90.6394 73.1858 90.8217 73.335C91.0039 73.4842 91.1098 73.6749 91.1392 73.9071C91.1687 74.1392 91.1088 74.3464 90.9596 74.5286C90.8103 74.7109 90.6196 74.8167 90.3875 74.8462ZM94.8522 77.7768L94.2082 81.6008C94.1176 82.1022 94.0837 82.4785 94.1065 82.7296C94.1167 82.81 94.1436 82.8791 94.1873 82.9371C94.2398 82.9939 94.3152 83.0161 94.4134 83.0037C94.5742 82.9833 94.7364 82.9037 94.9003 82.765C95.063 82.6173 95.2145 82.4529 95.3548 82.2718C95.5029 82.0806 95.6287 81.8923 95.7321 81.7068C95.8434 81.5112 95.924 81.3603 95.9741 81.2542L96.3913 81.4326C96.2781 81.7554 96.1235 82.0744 95.9277 82.3896C95.7307 82.6958 95.5163 82.9725 95.2846 83.2197C95.0529 83.4668 94.8116 83.6744 94.5607 83.8423C94.3177 84.0002 94.089 84.0927 93.8747 84.1199C93.5622 84.1596 93.3261 84.1215 93.1662 84.0057C93.0153 83.8888 92.92 83.6741 92.8803 83.3616C92.8576 83.183 92.8583 82.938 92.8823 82.6265C92.9062 82.315 92.9607 81.8862 93.0456 81.3402L93.6201 77.9332L92.4684 78.0794L92.5643 77.4412L93.7294 77.2933L94.1334 74.9014L95.3655 74.745L94.9615 77.1369L96.4213 76.9516L96.312 77.5915L94.8522 77.7768ZM108.808 77.5566C108.882 77.2115 108.938 76.9368 108.976 76.7324C109.022 76.5269 109.057 76.3683 109.079 76.2567C109.1 76.1361 109.111 76.0439 109.112 75.9803C109.113 75.9167 109.11 75.8581 109.103 75.8045C109.07 75.5456 108.964 75.4275 108.786 75.4501C108.545 75.4807 108.28 75.6822 107.992 76.0544C107.702 76.4178 107.404 76.9319 107.099 77.5967C106.992 77.8279 106.895 78.0626 106.807 78.3005C106.718 78.5295 106.628 78.8177 106.536 79.165C106.443 79.5035 106.339 79.934 106.223 80.4567C106.108 80.9793 105.962 81.6511 105.785 82.4719L104.526 82.6317L105.069 79.8276C105.183 79.2324 105.279 78.7349 105.355 78.3351C105.431 77.9264 105.487 77.588 105.526 77.32C105.564 77.052 105.588 76.8405 105.595 76.6853C105.611 76.529 105.613 76.4017 105.601 76.3035C105.564 76.0088 105.433 75.8757 105.21 75.904C105.032 75.9267 104.83 76.0566 104.606 76.2937C104.382 76.5307 104.162 76.8309 103.945 77.1941C103.728 77.5573 103.526 77.9641 103.338 78.4143C103.158 78.8545 103.015 79.299 102.908 79.748L102.169 82.9309L100.991 83.0805L101.592 79.8878C101.696 79.3484 101.78 78.8978 101.843 78.536C101.905 78.1653 101.953 77.8644 101.987 77.6332C102.02 77.3931 102.041 77.2044 102.051 77.0671C102.061 76.9298 102.06 76.8165 102.049 76.7272C102.017 76.4772 101.925 76.3619 101.773 76.3811C101.675 76.3936 101.566 76.4664 101.447 76.5994C101.337 76.7314 101.228 76.9085 101.12 77.1309C101.011 77.3443 100.906 77.589 100.805 77.8649C100.713 78.1397 100.636 78.4261 100.574 78.7243L100.147 78.5744C100.342 77.6151 100.604 76.8924 100.933 76.4062C101.27 75.9188 101.689 75.6434 102.189 75.5799C102.474 75.5437 102.686 75.5985 102.822 75.7445C102.967 75.8893 103.064 76.1493 103.111 76.5242C103.166 76.9528 103.142 77.3731 103.04 77.7853L103.085 77.8203C103.72 76.1703 104.501 75.2864 105.43 75.1685C105.778 75.1243 106.064 75.1969 106.287 75.3862C106.51 75.5667 106.645 75.8444 106.693 76.2194C106.708 76.3443 106.709 76.4895 106.693 76.6547C106.687 76.8188 106.659 77.0628 106.609 77.3866L106.641 77.4234C106.837 76.9631 107.028 76.5715 107.213 76.2485C107.407 75.9155 107.599 75.6416 107.79 75.4269C107.98 75.2122 108.177 75.0466 108.38 74.9301C108.592 74.8125 108.814 74.739 109.046 74.7095C109.394 74.6653 109.665 74.7262 109.858 74.8921C110.061 75.057 110.187 75.3403 110.238 75.7421C110.254 75.8671 110.258 76.0071 110.251 76.1623C110.242 76.3086 110.224 76.4878 110.196 76.6999C110.168 76.9032 110.126 77.1444 110.071 77.4235C110.023 77.6927 109.964 78.0132 109.893 78.385C109.799 78.8596 109.725 79.241 109.671 79.5291C109.616 79.8083 109.576 80.0311 109.552 80.1975C109.528 80.3638 109.512 80.4883 109.504 80.571C109.505 80.6524 109.511 80.7334 109.521 80.8137C109.543 80.9834 109.598 81.0625 109.687 81.0512C109.821 81.0342 110.006 80.8837 110.242 80.5997C110.477 80.3068 110.775 79.8653 111.136 79.2752L111.508 79.4184C111.393 79.7323 111.234 80.0519 111.031 80.3772C110.835 80.6923 110.622 80.9824 110.393 81.2474C110.162 81.5035 109.926 81.7194 109.686 81.8951C109.454 82.0697 109.244 82.1689 109.057 82.1927C108.833 82.221 108.643 82.15 108.485 81.9795C108.335 81.7989 108.24 81.5479 108.199 81.2265C108.186 81.1194 108.179 80.9977 108.18 80.8615C108.19 80.7242 108.215 80.526 108.254 80.2669C108.303 80.0067 108.368 79.6628 108.45 79.2351C108.541 78.8062 108.66 78.2467 108.808 77.5566ZM113.73 77.4898C113.494 76.7758 113.282 76.2901 113.096 76.0326C112.916 75.765 112.746 75.6414 112.586 75.6618C112.416 75.6833 112.276 75.8326 112.166 76.1097C112.064 76.3767 111.977 76.796 111.904 77.3677L111.392 77.2967C111.429 76.8746 111.497 76.4805 111.595 76.1141C111.703 75.7466 111.826 75.4271 111.964 75.1556C112.109 74.874 112.272 74.6538 112.451 74.4949C112.63 74.3272 112.817 74.2308 113.013 74.2059C113.183 74.1843 113.334 74.2287 113.466 74.339C113.607 74.4481 113.761 74.6644 113.929 74.9878C114.072 75.2599 114.237 75.6246 114.422 76.0819C114.615 76.5292 114.812 77.0485 115.014 77.6397L115.743 79.7381L115.797 79.7313C115.939 79.4955 116.078 79.2329 116.214 78.9435C116.357 78.6441 116.482 78.338 116.587 78.0252C116.692 77.7035 116.769 77.3852 116.82 77.0703C116.869 76.7465 116.877 76.4506 116.843 76.1828C116.832 76.0935 116.813 75.9825 116.787 75.8497C116.76 75.708 116.729 75.5668 116.693 75.4262C116.666 75.2845 116.64 75.1517 116.615 75.0278C116.589 74.8951 116.571 74.7885 116.561 74.7081C116.52 74.3867 116.57 74.1399 116.712 73.9677C116.853 73.7955 117.013 73.6981 117.192 73.6754C117.424 73.646 117.606 73.7227 117.738 73.9055C117.87 74.0883 117.953 74.3092 117.986 74.5681C118.032 74.9342 117.993 75.4154 117.869 76.0117C117.746 76.6081 117.565 77.257 117.327 77.9585C117.089 78.6511 116.803 79.3677 116.471 80.1085C116.137 80.8403 115.783 81.5202 115.41 82.1483C114.843 83.1184 114.297 83.85 113.769 84.3433C113.252 84.8444 112.744 85.1267 112.244 85.1902C111.869 85.2378 111.561 85.1725 111.321 84.9944C111.072 84.8173 110.928 84.5815 110.891 84.2869C110.863 84.0637 110.902 83.8727 111.009 83.714C111.117 83.5642 111.273 83.4763 111.479 83.4502C111.657 83.4275 111.797 83.4596 111.899 83.5465C111.993 83.6435 112.075 83.751 112.144 83.8692C112.215 83.9963 112.288 84.105 112.363 84.1953C112.43 84.2957 112.526 84.3379 112.651 84.322C112.82 84.3005 113.023 84.1796 113.258 83.9592C113.493 83.7388 113.722 83.4694 113.945 83.1508C114.168 82.8411 114.371 82.507 114.552 82.1483C114.742 81.7885 114.869 81.4595 114.93 81.1613L113.73 77.4898ZM124.628 74.0379L124.671 74.0596C124.878 73.6161 125.159 73.2583 125.515 72.9864C125.878 72.7043 126.279 72.5356 126.716 72.48C127.261 72.4109 127.702 72.5273 128.04 72.8292C128.377 73.131 128.584 73.5766 128.658 74.1659C128.712 74.5855 128.704 75.022 128.634 75.4754C128.565 75.9287 128.444 76.3705 128.272 76.8006C128.108 77.2295 127.902 77.6413 127.653 78.0358C127.402 78.4214 127.124 78.7697 126.819 79.0806C126.522 79.3815 126.195 79.6316 125.839 79.831C125.493 80.0292 125.141 80.151 124.783 80.1964C124.275 80.261 123.836 80.1624 123.467 79.9008C123.106 79.6291 122.894 79.2477 122.832 78.7567C122.802 78.5245 122.81 78.1924 122.855 77.7603C122.899 77.3193 122.977 76.7922 123.09 76.1792L124.047 70.7504C124.071 70.584 124.096 70.4176 124.12 70.2513C124.143 70.0759 124.149 69.9481 124.139 69.8678C124.099 69.5553 123.736 69.4427 123.048 69.5299L123.118 69.1129L125.674 68.6659L124.628 74.0379ZM124.911 79.4861C125.116 79.4601 125.326 79.3609 125.54 79.1885C125.753 79.0073 125.955 78.7775 126.147 78.4992C126.338 78.2209 126.515 77.9035 126.679 77.5471C126.842 77.1907 126.977 76.8242 127.084 76.4478C127.189 76.0625 127.263 75.6811 127.306 75.3038C127.357 74.9163 127.361 74.5574 127.319 74.227C127.279 73.9145 127.175 73.6647 127.006 73.4775C126.837 73.2903 126.65 73.2097 126.445 73.2357C126.248 73.2607 126.044 73.3638 125.831 73.545C125.626 73.7162 125.428 73.9454 125.238 74.2327C125.055 74.5099 124.882 74.8267 124.719 75.1831C124.563 75.5295 124.428 75.8959 124.314 76.2823C124.207 76.6587 124.133 77.0356 124.09 77.413C124.047 77.7904 124.047 78.1443 124.089 78.4746C124.182 79.2068 124.456 79.5439 124.911 79.4861ZM132.326 79.2389C132.022 79.2775 131.729 79.2557 131.447 79.1736C131.172 79.0815 130.921 78.9318 130.696 78.7246C130.47 78.5174 130.278 78.256 130.12 77.9404C129.961 77.6159 129.854 77.2438 129.801 76.8241C129.727 76.2438 129.762 75.6588 129.905 75.0691C130.057 74.4783 130.283 73.9414 130.585 73.4586C130.887 72.9758 131.248 72.5716 131.669 72.2459C132.1 71.9191 132.56 71.7246 133.051 71.6622C133.373 71.6214 133.675 71.6465 133.959 71.7375C134.251 71.8185 134.505 71.9631 134.722 72.1714C134.947 72.3697 135.133 72.6227 135.281 72.9306C135.437 73.2283 135.539 73.5692 135.588 73.9531C135.659 74.5156 135.619 75.0967 135.469 75.6964C135.318 76.2962 135.089 76.847 134.78 77.3488C134.481 77.8495 134.118 78.2766 133.691 78.6302C133.263 78.9748 132.808 79.1777 132.326 79.2389ZM132.321 78.5591C132.625 78.5206 132.904 78.3263 133.159 77.9765C133.423 77.6254 133.641 77.1986 133.813 76.6959C133.993 76.1832 134.118 75.6365 134.19 75.0559C134.27 74.4741 134.278 73.9288 134.214 73.4199C134.154 72.9467 134.027 72.6316 133.835 72.4745C133.652 72.3164 133.417 72.2554 133.131 72.2917C132.935 72.3166 132.743 72.4135 132.556 72.5825C132.376 72.7413 132.213 72.9526 132.065 73.2163C131.917 73.4801 131.782 73.7784 131.661 74.1113C131.549 74.443 131.457 74.7904 131.385 75.1533C131.313 75.5163 131.27 75.8847 131.254 76.2587C131.236 76.6238 131.249 76.9715 131.291 77.3019C131.354 77.8018 131.479 78.1443 131.666 78.3293C131.853 78.5142 132.071 78.5908 132.321 78.5591ZM141.906 68.4698C141.947 68.2197 141.975 68.012 141.99 67.8467C142.005 67.6815 142.009 67.5631 141.999 67.4917C141.982 67.3578 141.881 67.2754 141.696 67.2445C141.511 67.2136 141.186 67.2276 140.721 67.2865L140.801 66.7321L143.385 66.404L142.587 72.0167C142.488 72.7369 142.407 73.3505 142.345 73.8574C142.282 74.3643 142.232 74.7925 142.195 75.142C142.165 75.4814 142.151 75.76 142.151 75.9777C142.152 76.1953 142.161 76.3756 142.179 76.5185C142.205 76.7238 142.255 76.8627 142.327 76.9351C142.4 77.0075 142.485 77.0375 142.584 77.025C142.78 77.0001 142.969 76.8083 143.15 76.4496C143.34 76.0898 143.491 75.6307 143.601 75.0723L144.126 75.1283C143.934 76.0507 143.682 76.745 143.369 77.2111C143.064 77.6671 142.684 77.924 142.229 77.9819C141.907 78.0227 141.644 77.9517 141.44 77.769C141.244 77.5852 141.122 77.3013 141.073 76.9174C141.061 76.8192 141.056 76.7154 141.061 76.606C141.065 76.4966 141.074 76.3911 141.089 76.2895L140.978 76.2763C140.714 76.9086 140.361 77.4161 139.919 77.7987C139.477 78.1724 139.037 78.387 138.599 78.4426C138.367 78.472 138.147 78.4501 137.938 78.3768C137.728 78.2946 137.54 78.1733 137.375 78.0129C137.208 77.8435 137.064 77.6395 136.943 77.4009C136.83 77.1521 136.753 76.8715 136.714 76.559C136.665 76.1751 136.673 75.7704 136.736 75.345C136.808 74.9095 136.922 74.4868 137.079 74.0768C137.243 73.6567 137.442 73.255 137.674 72.8717C137.907 72.4883 138.159 72.1479 138.429 71.8505C138.708 71.543 138.998 71.2929 139.3 71.1003C139.611 70.9066 139.923 70.7899 140.236 70.7503C140.539 70.7117 140.774 70.7409 140.941 70.8377C141.116 70.9333 141.296 71.0965 141.479 71.3273L141.906 68.4698ZM140.42 71.4482C140.187 71.4776 139.96 71.5836 139.739 71.7659C139.525 71.9383 139.322 72.1636 139.13 72.4419C138.938 72.7113 138.764 73.0192 138.608 73.3655C138.461 73.7108 138.339 74.0665 138.24 74.4329C138.141 74.7992 138.07 75.1666 138.026 75.5351C137.991 75.9024 137.993 76.2423 138.033 76.5548C138.074 76.8763 138.187 77.125 138.373 77.301C138.557 77.4681 138.784 77.5346 139.051 77.5006C139.257 77.4746 139.456 77.3676 139.65 77.1797C139.843 76.9828 140.025 76.7375 140.196 76.4435C140.368 76.1496 140.521 75.8217 140.657 75.4597C140.8 75.0877 140.916 74.7147 141.004 74.3405C141.101 73.9563 141.167 73.585 141.203 73.2266C141.238 72.8593 141.238 72.5328 141.201 72.2471C141.166 71.9703 141.086 71.7628 140.959 71.6246C140.832 71.4775 140.652 71.4187 140.42 71.4482ZM146.295 73.3559C146.06 72.6419 145.848 72.1562 145.661 71.8987C145.482 71.6311 145.312 71.5075 145.152 71.5279C144.982 71.5494 144.842 71.6987 144.732 71.9758C144.63 72.2428 144.543 72.6621 144.47 73.2338L143.957 73.1628C143.995 72.7408 144.063 72.3466 144.161 71.9802C144.269 71.6128 144.391 71.2933 144.529 71.0217C144.675 70.7401 144.838 70.5199 145.017 70.3611C145.195 70.1933 145.383 70.0969 145.579 70.072C145.749 70.0504 145.9 70.0948 146.032 70.2051C146.172 70.3142 146.327 70.5305 146.495 70.8539C146.638 71.126 146.803 71.4907 146.988 71.948C147.18 72.3953 147.378 72.9146 147.58 73.5058L148.309 75.6042L148.363 75.5974C148.505 75.3616 148.644 75.099 148.78 74.8096C148.923 74.5102 149.048 74.2041 149.153 73.8913C149.257 73.5696 149.335 73.2513 149.386 72.9364C149.435 72.6126 149.443 72.3168 149.409 72.0489C149.398 71.9596 149.379 71.8486 149.353 71.7158C149.326 71.5741 149.295 71.4329 149.259 71.2923C149.232 71.1506 149.206 71.0178 149.181 70.894C149.155 70.7612 149.137 70.6546 149.127 70.5742C149.086 70.2528 149.136 70.006 149.278 69.8338C149.419 69.6617 149.579 69.5642 149.758 69.5416C149.99 69.5121 150.172 69.5888 150.304 69.7716C150.436 69.9544 150.518 70.1753 150.551 70.4342C150.598 70.8003 150.559 71.2815 150.435 71.8778C150.311 72.4742 150.131 73.1231 149.893 73.8246C149.654 74.5172 149.369 75.2338 149.036 75.9746C148.703 76.7064 148.349 77.3864 147.975 78.0144C147.409 78.9845 146.862 79.7162 146.335 80.2095C145.818 80.7106 145.31 80.9928 144.81 81.0563C144.435 81.1039 144.127 81.0386 143.887 80.8605C143.637 80.6835 143.494 80.4476 143.457 80.153C143.428 79.9298 143.468 79.7388 143.575 79.5801C143.683 79.4303 143.839 79.3424 144.045 79.3163C144.223 79.2936 144.363 79.3258 144.465 79.4126C144.559 79.5096 144.641 79.6171 144.71 79.7353C144.781 79.8625 144.853 79.9712 144.928 80.0614C144.996 80.1618 145.092 80.204 145.217 80.1881C145.386 80.1666 145.589 80.0457 145.824 79.8253C146.059 79.6049 146.288 79.3355 146.51 79.0169C146.734 78.7073 146.937 78.3731 147.118 78.0144C147.308 77.6546 147.434 77.3256 147.496 77.0274L146.295 73.3559ZM38.95 102.009L38.3059 105.833C38.2153 106.335 38.1815 106.711 38.2043 106.962C38.2145 107.043 38.2414 107.112 38.285 107.17C38.3376 107.227 38.413 107.249 38.5112 107.236C38.6719 107.216 38.8342 107.136 38.998 106.998C39.1607 106.85 39.3122 106.686 39.4525 106.504C39.6007 106.313 39.7264 106.125 39.8299 105.939C39.9412 105.744 40.0218 105.593 40.0718 105.487L40.4891 105.665C40.3759 105.988 40.2213 106.307 40.0254 106.622C39.8284 106.928 39.6141 107.205 39.3824 107.452C39.1506 107.699 38.9093 107.907 38.6585 108.075C38.4154 108.233 38.1868 108.325 37.9725 108.353C37.66 108.392 37.4238 108.354 37.264 108.238C37.113 108.121 37.0178 107.907 36.9781 107.594C36.9554 107.416 36.9561 107.171 36.98 106.859C37.004 106.548 37.0584 106.119 37.1433 105.573L37.7179 102.166L36.5661 102.312L36.662 101.674L37.8272 101.526L38.2312 99.134L39.4633 98.9776L39.0593 101.37L40.5191 101.184L40.4098 101.824L38.95 102.009ZM43.1139 103.59C42.8781 102.876 42.6667 102.39 42.4798 102.133C42.3007 101.865 42.1308 101.742 41.9701 101.762C41.8004 101.784 41.6606 101.933 41.5506 102.21C41.4484 102.477 41.361 102.896 41.2885 103.468L40.7759 103.397C40.8131 102.975 40.881 102.581 40.9796 102.214C41.0872 101.847 41.21 101.527 41.3479 101.256C41.4936 100.974 41.6561 100.754 41.8356 100.595C42.0138 100.427 42.2012 100.331 42.3976 100.306C42.5673 100.285 42.718 100.329 42.85 100.439C42.9908 100.548 43.1453 100.765 43.3134 101.088C43.4568 101.36 43.621 101.725 43.8061 102.182C43.9989 102.63 44.1964 103.149 44.3985 103.74L45.1275 105.838L45.1811 105.832C45.3235 105.596 45.4626 105.333 45.5982 105.044C45.7416 104.744 45.8661 104.438 45.9715 104.126C46.0759 103.804 46.1534 103.486 46.2041 103.171C46.2538 102.847 46.2616 102.551 46.2276 102.283C46.2162 102.194 46.1976 102.083 46.1717 101.95C46.1446 101.808 46.1131 101.667 46.0771 101.527C46.05 101.385 46.0241 101.252 45.9993 101.128C45.9734 100.995 45.9553 100.889 45.9451 100.808C45.9043 100.487 45.9546 100.24 46.0961 100.068C46.2375 99.8959 46.3975 99.7984 46.5761 99.7758C46.8082 99.7463 46.9903 99.823 47.1224 100.006C47.2545 100.189 47.337 100.41 47.3698 100.668C47.4163 101.034 47.3776 101.516 47.2537 102.112C47.1298 102.708 46.9491 103.357 46.7115 104.059C46.4728 104.751 46.1873 105.468 45.855 106.209C45.5215 106.941 45.1678 107.621 44.7939 108.249C44.2275 109.219 43.6808 109.95 43.1537 110.444C42.6367 110.945 42.1282 111.227 41.6282 111.291C41.2533 111.338 40.9456 111.273 40.7052 111.095C40.456 110.918 40.3126 110.682 40.2752 110.387C40.2469 110.164 40.2861 109.973 40.393 109.814C40.501 109.665 40.6577 109.577 40.863 109.551C41.0416 109.528 41.1818 109.56 41.2835 109.647C41.3775 109.744 41.4592 109.851 41.5286 109.97C41.5992 110.097 41.6719 110.205 41.7469 110.296C41.8141 110.396 41.9102 110.438 42.0352 110.422C42.2048 110.401 42.4072 110.28 42.6423 110.06C42.8774 109.839 43.1063 109.57 43.329 109.251C43.5528 108.941 43.7553 108.607 43.9366 108.249C44.1268 107.889 44.2528 107.56 44.3148 107.262L43.1139 103.59ZM47.9099 101.852C48.1926 101.435 48.5207 101.053 48.894 100.706C49.2661 100.351 49.668 100.05 50.0996 99.8048L50.457 97.5821L51.4748 97.4529L51.2322 99.2936C51.3716 99.2487 51.5072 99.2088 51.6389 99.1739C51.7794 99.138 51.9212 99.1109 52.064 99.0928C52.8229 98.9964 53.4383 99.127 53.91 99.4844C54.3818 99.8418 54.6647 100.391 54.7588 101.132C54.8336 101.721 54.7616 102.298 54.5427 102.861C54.3317 103.414 54.0156 103.925 53.5946 104.396C53.1824 104.866 52.6859 105.278 52.105 105.633C51.5318 105.978 50.9206 106.237 50.2712 106.41L50.012 108.335C49.9844 108.474 49.9673 108.59 49.9608 108.681C49.9632 108.772 49.9689 108.853 49.978 108.924C50.0063 109.147 50.1154 109.292 50.3053 109.359C50.5042 109.424 50.8363 109.432 51.3017 109.382L51.2893 109.928L47.4992 110.409L47.5116 109.863C47.8866 109.816 48.1532 109.736 48.3115 109.626C48.4699 109.515 48.57 109.339 48.6119 109.098L49.9854 100.513C49.6688 100.735 49.3701 100.991 49.0893 101.28C48.8074 101.561 48.5507 101.861 48.3191 102.181L47.9099 101.852ZM51.7991 99.7932C51.683 99.8079 51.5681 99.8316 51.4543 99.8642C51.3483 99.8867 51.2429 99.9137 51.138 99.9452L50.3455 105.816C50.7805 105.67 51.1926 105.45 51.5816 105.155C51.9796 104.86 52.3211 104.513 52.6061 104.113C52.8911 103.714 53.1041 103.284 53.2449 102.821C53.3936 102.349 53.4374 101.871 53.3762 101.389C53.3082 100.854 53.1288 100.441 52.838 100.151C52.5561 99.8604 52.2098 99.7411 51.7991 99.7932ZM60.6354 103.53C60.0207 104.905 59.1464 105.665 58.0125 105.809C57.3965 105.887 56.8995 105.759 56.5215 105.426C56.1424 105.084 55.9087 104.565 55.8203 103.869C55.7421 103.253 55.7889 102.621 55.9607 101.973C56.1414 101.324 56.4059 100.728 56.7543 100.185C57.1016 99.6327 57.5104 99.1725 57.9807 98.8044C58.45 98.4273 58.9391 98.2064 59.448 98.1418C59.8766 98.0874 60.2389 98.1548 60.5351 98.344C60.8391 98.5232 61.0126 98.7824 61.0557 99.1217C61.0953 99.4342 61.0201 99.7703 60.8299 100.13C60.6397 100.49 60.3624 100.843 59.998 101.188C59.6426 101.533 59.2123 101.86 58.7072 102.169C58.211 102.477 57.6723 102.736 57.0911 102.945C57.0891 103.073 57.0916 103.199 57.0986 103.325C57.1044 103.443 57.1152 103.564 57.1311 103.689C57.2546 104.662 57.6601 105.105 58.3476 105.018C58.6779 104.976 59.0008 104.803 59.3161 104.5C59.6404 104.196 59.9254 103.797 60.1712 103.303L60.6354 103.53ZM59.26 98.8053C59.0279 98.8347 58.7982 98.9546 58.5708 99.1649C58.3435 99.3752 58.1331 99.6469 57.9395 99.9799C57.7536 100.303 57.5914 100.668 57.4526 101.076C57.3138 101.484 57.2125 101.9 57.1486 102.326C57.5624 102.155 57.9404 101.953 58.2827 101.719C58.625 101.485 58.9108 101.236 59.1403 100.971C59.3775 100.696 59.5556 100.419 59.6745 100.141C59.7923 99.8536 59.8342 99.5761 59.8002 99.3083C59.7526 98.9333 59.5725 98.7656 59.26 98.8053ZM64.4068 104.997C64.1747 105.026 63.9681 104.971 63.787 104.831C63.6059 104.69 63.5006 104.504 63.4711 104.272C63.4405 104.031 63.4954 103.82 63.6357 103.639C63.7838 103.448 63.9739 103.337 64.206 103.308C64.4382 103.278 64.6454 103.338 64.8276 103.487C65.0188 103.636 65.1291 103.826 65.1586 104.058C65.188 104.29 65.1281 104.497 64.9789 104.679C64.8386 104.86 64.6479 104.966 64.4068 104.997ZM63.187 101.069C63.1326 100.641 63.1754 100.263 63.3155 99.9371C63.4633 99.6008 63.6603 99.2946 63.9065 99.0184C64.1616 98.741 64.4374 98.4837 64.7339 98.2465C65.0292 98.0004 65.3023 97.757 65.553 97.5166C65.8126 97.2749 66.017 97.0267 66.1661 96.7719C66.3241 96.516 66.3839 96.2362 66.3453 95.9327C66.2977 95.5577 66.1253 95.2711 65.8279 95.073C65.5295 94.8659 65.166 94.7896 64.7374 94.844C64.3624 94.8916 64.0574 95.0256 63.8223 95.2459C63.5949 95.4562 63.4994 95.7042 63.5357 95.9899C63.5583 96.1685 63.6227 96.2828 63.7289 96.3328C63.8339 96.3739 63.9473 96.4094 64.069 96.4394C64.1896 96.4603 64.303 96.4958 64.4091 96.5459C64.5153 96.5959 64.5808 96.7191 64.6057 96.9156C64.6318 97.1209 64.5852 97.2901 64.4661 97.4232C64.3558 97.5551 64.1846 97.6358 63.9525 97.6653C63.5864 97.7118 63.2619 97.6214 62.9791 97.3942C62.7051 97.1659 62.5438 96.8598 62.4951 96.4759C62.4611 96.208 62.4913 95.9456 62.5857 95.6887C62.689 95.4306 62.8409 95.1981 63.0415 94.9912C63.242 94.7843 63.4878 94.6125 63.7789 94.4758C64.0689 94.3301 64.3835 94.2357 64.7228 94.1926C65.0621 94.1496 65.3769 94.164 65.6673 94.2361C65.9565 94.2991 66.2068 94.4125 66.4181 94.5762C66.6383 94.7388 66.819 94.9472 66.9601 95.2014C67.1001 95.4467 67.1905 95.7301 67.2313 96.0515C67.2891 96.5069 67.2414 96.9167 67.088 97.2809C66.9424 97.635 66.7438 97.9642 66.4921 98.2683C66.2393 98.5635 65.9562 98.8353 65.643 99.0837C65.3298 99.3321 65.0428 99.5727 64.7821 99.8054C64.5213 100.038 64.3057 100.27 64.1354 100.5C63.9728 100.72 63.9068 100.951 63.9374 101.192C63.9828 101.549 64.2108 101.701 64.6215 101.649C65.0322 101.597 65.3336 101.328 65.5258 100.84L65.9146 101.009C65.6637 101.748 65.2124 102.159 64.5607 102.242C64.1678 102.292 63.8545 102.218 63.6209 102.021C63.386 101.815 63.2414 101.498 63.187 101.069Z" fill="#65493B"/>
</svg>
