<svg width="507" height="96" viewBox="0 0 507 96" fill="none" xmlns="http://www.w3.org/2000/svg">
<path d="M0 20C0 8.9543 8.9543 0 20 0H453C464.046 0 473 8.9543 473 20V76C473 87.0457 464.046 96 453 96H0V20Z" fill="#EF9CAD"/>
<path d="M25.4463 7.5H447.554C456.913 7.5 464.5 15.0873 464.5 24.4463V72.5537C464.5 81.9127 456.913 89.5 447.554 89.5H8.5V24.4463C8.5 15.0873 16.0873 7.5 25.4463 7.5Z" fill="#FBD1DB" stroke="#77191B"/>
<path d="M41.94 59.36C40.4 59.36 39.06 59.08 37.92 58.52C36.78 57.96 35.9 57.18 35.28 56.18C34.66 55.18 34.35 54.02 34.35 52.7H36.99C36.99 53.52 37.18 54.28 37.56 54.98C37.94 55.66 38.49 56.21 39.21 56.63C39.95 57.03 40.86 57.23 41.94 57.23C42.88 57.23 43.68 57.08 44.34 56.78C45.02 56.46 45.53 56.03 45.87 55.49C46.23 54.95 46.41 54.34 46.41 53.66C46.41 52.84 46.23 52.18 45.87 51.68C45.53 51.16 45.06 50.74 44.46 50.42C43.86 50.1 43.16 49.82 42.36 49.58C41.58 49.32 40.76 49.05 39.9 48.77C38.24 48.21 37.02 47.51 36.24 46.67C35.46 45.83 35.07 44.74 35.07 43.4C35.07 42.26 35.33 41.26 35.85 40.4C36.39 39.54 37.15 38.87 38.13 38.39C39.13 37.89 40.31 37.64 41.67 37.64C43.01 37.64 44.17 37.89 45.15 38.39C46.15 38.89 46.93 39.58 47.49 40.46C48.05 41.32 48.33 42.32 48.33 43.46H45.69C45.69 42.88 45.54 42.31 45.24 41.75C44.94 41.19 44.48 40.73 43.86 40.37C43.26 39.99 42.5 39.8 41.58 39.8C40.82 39.78 40.14 39.91 39.54 40.19C38.96 40.45 38.5 40.83 38.16 41.33C37.84 41.83 37.68 42.44 37.68 43.16C37.68 43.84 37.82 44.39 38.1 44.81C38.4 45.23 38.82 45.59 39.36 45.89C39.92 46.17 40.57 46.43 41.31 46.67C42.05 46.91 42.87 47.18 43.77 47.48C44.79 47.82 45.69 48.24 46.47 48.74C47.27 49.22 47.89 49.84 48.33 50.6C48.79 51.36 49.02 52.33 49.02 53.51C49.02 54.51 48.75 55.46 48.21 56.36C47.69 57.24 46.91 57.96 45.87 58.52C44.83 59.08 43.52 59.36 41.94 59.36ZM57.9923 59.36C56.8323 59.36 55.8123 59.13 54.9323 58.67C54.0723 58.21 53.4023 57.5 52.9223 56.54C52.4623 55.58 52.2323 54.38 52.2323 52.94V43.88H54.7523V52.67C54.7523 54.17 55.0823 55.3 55.7423 56.06C56.4023 56.82 57.3323 57.2 58.5323 57.2C59.3723 57.2 60.1323 57 60.8123 56.6C61.4923 56.18 62.0223 55.59 62.4023 54.83C62.8023 54.05 63.0023 53.1 63.0023 51.98V43.88H65.5223V59H63.2423L63.0923 56.36C62.6323 57.3 61.9523 58.04 61.0523 58.58C60.1523 59.1 59.1323 59.36 57.9923 59.36ZM75.6696 65.96C74.3096 65.96 73.0996 65.78 72.0396 65.42C70.9996 65.08 70.1896 64.55 69.6096 63.83C69.0296 63.11 68.7396 62.22 68.7396 61.16C68.7396 60.7 68.8296 60.21 69.0096 59.69C69.2096 59.17 69.5396 58.66 69.9996 58.16C70.4796 57.66 71.1496 57.21 72.0096 56.81L73.7496 57.83C72.6896 58.27 71.9996 58.77 71.6796 59.33C71.3596 59.91 71.1996 60.44 71.1996 60.92C71.1996 61.58 71.3896 62.13 71.7696 62.57C72.1496 63.01 72.6796 63.34 73.3596 63.56C74.0396 63.78 74.8096 63.89 75.6696 63.89C76.5296 63.89 77.2696 63.77 77.8896 63.53C78.5096 63.29 78.9896 62.95 79.3296 62.51C79.6696 62.07 79.8396 61.55 79.8396 60.95C79.8396 60.25 79.5796 59.66 79.0596 59.18C78.5396 58.72 77.5496 58.45 76.0896 58.37C74.9096 58.29 73.9196 58.18 73.1196 58.04C72.3196 57.9 71.6596 57.74 71.1396 57.56C70.6196 57.36 70.1796 57.14 69.8196 56.9C69.4796 56.66 69.1696 56.41 68.8896 56.15V55.46L71.7996 52.58L73.9896 53.36L70.9896 56.06L71.3796 55.01C71.5996 55.17 71.8096 55.32 72.0096 55.46C72.2096 55.6 72.4796 55.72 72.8196 55.82C73.1596 55.92 73.6296 56.01 74.2296 56.09C74.8496 56.17 75.6596 56.25 76.6596 56.33C78.0396 56.43 79.1396 56.67 79.9596 57.05C80.7996 57.43 81.3996 57.94 81.7596 58.58C82.1396 59.22 82.3296 59.98 82.3296 60.86C82.3296 61.72 82.0896 62.53 81.6096 63.29C81.1496 64.07 80.4296 64.71 79.4496 65.21C78.4696 65.71 77.2096 65.96 75.6696 65.96ZM75.6396 54.26C74.3796 54.26 73.2996 54.02 72.3996 53.54C71.5196 53.06 70.8496 52.42 70.3896 51.62C69.9296 50.8 69.6996 49.89 69.6996 48.89C69.6996 47.89 69.9296 46.99 70.3896 46.19C70.8696 45.39 71.5496 44.75 72.4296 44.27C73.3096 43.77 74.3796 43.52 75.6396 43.52C76.8996 43.52 77.9696 43.77 78.8496 44.27C79.7296 44.75 80.3996 45.39 80.8596 46.19C81.3196 46.99 81.5496 47.89 81.5496 48.89C81.5496 49.89 81.3196 50.8 80.8596 51.62C80.3996 52.42 79.7296 53.06 78.8496 53.54C77.9696 54.02 76.8996 54.26 75.6396 54.26ZM75.6396 52.19C76.7196 52.19 77.5696 51.91 78.1896 51.35C78.8096 50.79 79.1196 49.97 79.1196 48.89C79.1196 47.83 78.8096 47.02 78.1896 46.46C77.5696 45.9 76.7196 45.62 75.6396 45.62C74.5796 45.62 73.7196 45.9 73.0596 46.46C72.4196 47.02 72.0996 47.83 72.0996 48.89C72.0996 49.97 72.4196 50.79 73.0596 51.35C73.6996 51.91 74.5596 52.19 75.6396 52.19ZM78.0996 46.01L77.3496 43.88H83.5296V45.77L78.0996 46.01ZM92.3981 65.96C91.0381 65.96 89.8281 65.78 88.7681 65.42C87.7281 65.08 86.9181 64.55 86.3381 63.83C85.7581 63.11 85.4681 62.22 85.4681 61.16C85.4681 60.7 85.5581 60.21 85.7381 59.69C85.9381 59.17 86.2681 58.66 86.7281 58.16C87.2081 57.66 87.8781 57.21 88.7381 56.81L90.4781 57.83C89.4181 58.27 88.7281 58.77 88.4081 59.33C88.0881 59.91 87.9281 60.44 87.9281 60.92C87.9281 61.58 88.1181 62.13 88.4981 62.57C88.8781 63.01 89.4081 63.34 90.0881 63.56C90.7681 63.78 91.5381 63.89 92.3981 63.89C93.2581 63.89 93.9981 63.77 94.6181 63.53C95.2381 63.29 95.7181 62.95 96.0581 62.51C96.3981 62.07 96.5681 61.55 96.5681 60.95C96.5681 60.25 96.3081 59.66 95.7881 59.18C95.2681 58.72 94.2781 58.45 92.8181 58.37C91.6381 58.29 90.6481 58.18 89.8481 58.04C89.0481 57.9 88.3881 57.74 87.8681 57.56C87.3481 57.36 86.9081 57.14 86.5481 56.9C86.2081 56.66 85.8981 56.41 85.6181 56.15V55.46L88.5281 52.58L90.7181 53.36L87.7181 56.06L88.1081 55.01C88.3281 55.17 88.5381 55.32 88.7381 55.46C88.9381 55.6 89.2081 55.72 89.5481 55.82C89.8881 55.92 90.3581 56.01 90.9581 56.09C91.5781 56.17 92.3881 56.25 93.3881 56.33C94.7681 56.43 95.8681 56.67 96.6881 57.05C97.5281 57.43 98.1281 57.94 98.4881 58.58C98.8681 59.22 99.0581 59.98 99.0581 60.86C99.0581 61.72 98.8181 62.53 98.3381 63.29C97.8781 64.07 97.1581 64.71 96.1781 65.21C95.1981 65.71 93.9381 65.96 92.3981 65.96ZM92.3681 54.26C91.1081 54.26 90.0281 54.02 89.1281 53.54C88.2481 53.06 87.5781 52.42 87.1181 51.62C86.6581 50.8 86.4281 49.89 86.4281 48.89C86.4281 47.89 86.6581 46.99 87.1181 46.19C87.5981 45.39 88.2781 44.75 89.1581 44.27C90.0381 43.77 91.1081 43.52 92.3681 43.52C93.6281 43.52 94.6981 43.77 95.5781 44.27C96.4581 44.75 97.1281 45.39 97.5881 46.19C98.0481 46.99 98.2781 47.89 98.2781 48.89C98.2781 49.89 98.0481 50.8 97.5881 51.62C97.1281 52.42 96.4581 53.06 95.5781 53.54C94.6981 54.02 93.6281 54.26 92.3681 54.26ZM92.3681 52.19C93.4481 52.19 94.2981 51.91 94.9181 51.35C95.5381 50.79 95.8481 49.97 95.8481 48.89C95.8481 47.83 95.5381 47.02 94.9181 46.46C94.2981 45.9 93.4481 45.62 92.3681 45.62C91.3081 45.62 90.4481 45.9 89.7881 46.46C89.1481 47.02 88.8281 47.83 88.8281 48.89C88.8281 49.97 89.1481 50.79 89.7881 51.35C90.4281 51.91 91.2881 52.19 92.3681 52.19ZM94.8281 46.01L94.0781 43.88H100.258V45.77L94.8281 46.01ZM109.201 59.36C107.781 59.36 106.521 59.03 105.421 58.37C104.341 57.71 103.491 56.79 102.871 55.61C102.251 54.41 101.941 53.02 101.941 51.44C101.941 49.84 102.241 48.45 102.841 47.27C103.461 46.09 104.321 45.17 105.421 44.51C106.541 43.85 107.821 43.52 109.261 43.52C110.741 43.52 111.991 43.85 113.011 44.51C114.051 45.17 114.841 46.04 115.381 47.12C115.941 48.18 116.221 49.35 116.221 50.63C116.221 50.83 116.221 51.04 116.221 51.26C116.221 51.48 116.211 51.73 116.191 52.01H103.831V50.06H113.761C113.701 48.68 113.241 47.6 112.381 46.82C111.541 46.04 110.481 45.65 109.201 45.65C108.341 45.65 107.541 45.85 106.801 46.25C106.081 46.63 105.501 47.2 105.061 47.96C104.621 48.7 104.401 49.63 104.401 50.75V51.59C104.401 52.83 104.621 53.87 105.061 54.71C105.521 55.55 106.111 56.18 106.831 56.6C107.571 57.02 108.361 57.23 109.201 57.23C110.261 57.23 111.131 57 111.811 56.54C112.511 56.06 113.011 55.42 113.311 54.62H115.801C115.561 55.52 115.141 56.33 114.541 57.05C113.941 57.77 113.191 58.34 112.291 58.76C111.411 59.16 110.381 59.36 109.201 59.36ZM125.321 59.36C124.061 59.36 122.961 59.15 122.021 58.73C121.101 58.31 120.361 57.73 119.801 56.99C119.261 56.23 118.931 55.34 118.811 54.32H121.391C121.491 54.84 121.701 55.32 122.021 55.76C122.341 56.2 122.771 56.56 123.311 56.84C123.871 57.1 124.551 57.23 125.351 57.23C126.051 57.23 126.631 57.13 127.091 56.93C127.551 56.71 127.891 56.42 128.111 56.06C128.351 55.7 128.471 55.31 128.471 54.89C128.471 54.27 128.321 53.8 128.021 53.48C127.741 53.16 127.321 52.91 126.761 52.73C126.201 52.53 125.521 52.36 124.721 52.22C124.061 52.1 123.411 51.94 122.771 51.74C122.131 51.54 121.561 51.28 121.061 50.96C120.561 50.62 120.161 50.21 119.861 49.73C119.581 49.25 119.441 48.66 119.441 47.96C119.441 47.1 119.661 46.34 120.101 45.68C120.541 45 121.171 44.47 121.991 44.09C122.831 43.71 123.801 43.52 124.901 43.52C126.521 43.52 127.831 43.91 128.831 44.69C129.831 45.47 130.421 46.6 130.601 48.08H128.111C128.011 47.32 127.681 46.73 127.121 46.31C126.581 45.87 125.831 45.65 124.871 45.65C123.931 45.65 123.211 45.84 122.711 46.22C122.231 46.6 121.991 47.1 121.991 47.72C121.991 48.12 122.121 48.48 122.381 48.8C122.661 49.1 123.061 49.36 123.581 49.58C124.121 49.8 124.781 49.98 125.561 50.12C126.561 50.3 127.471 50.54 128.291 50.84C129.111 51.14 129.771 51.59 130.271 52.19C130.791 52.77 131.051 53.6 131.051 54.68C131.051 55.62 130.811 56.44 130.331 57.14C129.871 57.84 129.211 58.39 128.351 58.79C127.491 59.17 126.481 59.36 125.321 59.36ZM139.946 59C139.046 59 138.266 58.86 137.606 58.58C136.946 58.3 136.436 57.83 136.076 57.17C135.736 56.49 135.566 55.58 135.566 54.44V46.01H132.926V43.88H135.566L135.896 40.22H138.086V43.88H142.466V46.01H138.086V54.44C138.086 55.38 138.276 56.02 138.656 56.36C139.036 56.68 139.706 56.84 140.666 56.84H142.286V59H139.946ZM160.533 59.36C159.113 59.36 157.833 59.03 156.693 58.37C155.573 57.71 154.693 56.79 154.053 55.61C153.413 54.41 153.093 53.03 153.093 51.47C153.093 49.87 153.413 48.48 154.053 47.3C154.693 46.12 155.573 45.2 156.693 44.54C157.833 43.86 159.113 43.52 160.533 43.52C162.333 43.52 163.833 43.99 165.033 44.93C166.233 45.85 166.993 47.09 167.313 48.65H164.733C164.533 47.71 164.043 46.98 163.263 46.46C162.483 45.94 161.563 45.68 160.503 45.68C159.643 45.68 158.843 45.9 158.103 46.34C157.363 46.76 156.773 47.4 156.333 48.26C155.893 49.12 155.673 50.18 155.673 51.44C155.673 52.38 155.803 53.22 156.063 53.96C156.323 54.68 156.673 55.28 157.113 55.76C157.553 56.24 158.063 56.61 158.643 56.87C159.243 57.11 159.863 57.23 160.503 57.23C161.223 57.23 161.873 57.12 162.453 56.9C163.033 56.66 163.523 56.31 163.923 55.85C164.323 55.39 164.593 54.85 164.733 54.23H167.313C166.993 55.75 166.223 56.99 165.003 57.95C163.803 58.89 162.313 59.36 160.533 59.36ZM177.641 59.36C176.241 59.36 174.981 59.04 173.861 58.4C172.741 57.74 171.861 56.82 171.221 55.64C170.581 54.44 170.261 53.05 170.261 51.47C170.261 49.85 170.581 48.45 171.221 47.27C171.881 46.07 172.771 45.15 173.891 44.51C175.031 43.85 176.301 43.52 177.701 43.52C179.141 43.52 180.411 43.85 181.511 44.51C182.631 45.15 183.511 46.07 184.151 47.27C184.811 48.45 185.141 49.84 185.141 51.44C185.141 53.04 184.811 54.44 184.151 55.64C183.491 56.82 182.601 57.74 181.481 58.4C180.361 59.04 179.081 59.36 177.641 59.36ZM177.671 57.2C178.531 57.2 179.331 56.99 180.071 56.57C180.811 56.13 181.411 55.48 181.871 54.62C182.331 53.76 182.561 52.7 182.561 51.44C182.561 50.16 182.331 49.1 181.871 48.26C181.431 47.4 180.841 46.76 180.101 46.34C179.381 45.9 178.581 45.68 177.701 45.68C176.861 45.68 176.061 45.9 175.301 46.34C174.561 46.76 173.961 47.4 173.501 48.26C173.061 49.1 172.841 50.16 172.841 51.44C172.841 52.7 173.061 53.76 173.501 54.62C173.961 55.48 174.551 56.13 175.271 56.57C176.011 56.99 176.811 57.2 177.671 57.2ZM188.674 59V37.4H191.194V59H188.674ZM195.354 59V37.4H197.874V59H195.354ZM208.664 59.36C207.244 59.36 205.984 59.03 204.884 58.37C203.804 57.71 202.954 56.79 202.334 55.61C201.714 54.41 201.404 53.02 201.404 51.44C201.404 49.84 201.704 48.45 202.304 47.27C202.924 46.09 203.784 45.17 204.884 44.51C206.004 43.85 207.284 43.52 208.724 43.52C210.204 43.52 211.454 43.85 212.474 44.51C213.514 45.17 214.304 46.04 214.844 47.12C215.404 48.18 215.684 49.35 215.684 50.63C215.684 50.83 215.684 51.04 215.684 51.26C215.684 51.48 215.674 51.73 215.654 52.01H203.294V50.06H213.224C213.164 48.68 212.704 47.6 211.844 46.82C211.004 46.04 209.944 45.65 208.664 45.65C207.804 45.65 207.004 45.85 206.264 46.25C205.544 46.63 204.964 47.2 204.524 47.96C204.084 48.7 203.864 49.63 203.864 50.75V51.59C203.864 52.83 204.084 53.87 204.524 54.71C204.984 55.55 205.574 56.18 206.294 56.6C207.034 57.02 207.824 57.23 208.664 57.23C209.724 57.23 210.594 57 211.274 56.54C211.974 56.06 212.474 55.42 212.774 54.62H215.264C215.024 55.52 214.604 56.33 214.004 57.05C213.404 57.77 212.654 58.34 211.754 58.76C210.874 59.16 209.844 59.36 208.664 59.36ZM224.966 65.96C223.606 65.96 222.396 65.78 221.336 65.42C220.296 65.08 219.486 64.55 218.906 63.83C218.326 63.11 218.036 62.22 218.036 61.16C218.036 60.7 218.126 60.21 218.306 59.69C218.506 59.17 218.836 58.66 219.296 58.16C219.776 57.66 220.446 57.21 221.306 56.81L223.046 57.83C221.986 58.27 221.296 58.77 220.976 59.33C220.656 59.91 220.496 60.44 220.496 60.92C220.496 61.58 220.686 62.13 221.066 62.57C221.446 63.01 221.976 63.34 222.656 63.56C223.336 63.78 224.106 63.89 224.966 63.89C225.826 63.89 226.566 63.77 227.186 63.53C227.806 63.29 228.286 62.95 228.626 62.51C228.966 62.07 229.136 61.55 229.136 60.95C229.136 60.25 228.876 59.66 228.356 59.18C227.836 58.72 226.846 58.45 225.386 58.37C224.206 58.29 223.216 58.18 222.416 58.04C221.616 57.9 220.956 57.74 220.436 57.56C219.916 57.36 219.476 57.14 219.116 56.9C218.776 56.66 218.466 56.41 218.186 56.15V55.46L221.096 52.58L223.286 53.36L220.286 56.06L220.676 55.01C220.896 55.17 221.106 55.32 221.306 55.46C221.506 55.6 221.776 55.72 222.116 55.82C222.456 55.92 222.926 56.01 223.526 56.09C224.146 56.17 224.956 56.25 225.956 56.33C227.336 56.43 228.436 56.67 229.256 57.05C230.096 57.43 230.696 57.94 231.056 58.58C231.436 59.22 231.626 59.98 231.626 60.86C231.626 61.72 231.386 62.53 230.906 63.29C230.446 64.07 229.726 64.71 228.746 65.21C227.766 65.71 226.506 65.96 224.966 65.96ZM224.936 54.26C223.676 54.26 222.596 54.02 221.696 53.54C220.816 53.06 220.146 52.42 219.686 51.62C219.226 50.8 218.996 49.89 218.996 48.89C218.996 47.89 219.226 46.99 219.686 46.19C220.166 45.39 220.846 44.75 221.726 44.27C222.606 43.77 223.676 43.52 224.936 43.52C226.196 43.52 227.266 43.77 228.146 44.27C229.026 44.75 229.696 45.39 230.156 46.19C230.616 46.99 230.846 47.89 230.846 48.89C230.846 49.89 230.616 50.8 230.156 51.62C229.696 52.42 229.026 53.06 228.146 53.54C227.266 54.02 226.196 54.26 224.936 54.26ZM224.936 52.19C226.016 52.19 226.866 51.91 227.486 51.35C228.106 50.79 228.416 49.97 228.416 48.89C228.416 47.83 228.106 47.02 227.486 46.46C226.866 45.9 226.016 45.62 224.936 45.62C223.876 45.62 223.016 45.9 222.356 46.46C221.716 47.02 221.396 47.83 221.396 48.89C221.396 49.97 221.716 50.79 222.356 51.35C222.996 51.91 223.856 52.19 224.936 52.19ZM227.396 46.01L226.646 43.88H232.826V45.77L227.396 46.01ZM241.769 59.36C240.349 59.36 239.089 59.03 237.989 58.37C236.909 57.71 236.059 56.79 235.439 55.61C234.819 54.41 234.509 53.02 234.509 51.44C234.509 49.84 234.809 48.45 235.409 47.27C236.029 46.09 236.889 45.17 237.989 44.51C239.109 43.85 240.389 43.52 241.829 43.52C243.309 43.52 244.559 43.85 245.579 44.51C246.619 45.17 247.409 46.04 247.949 47.12C248.509 48.18 248.789 49.35 248.789 50.63C248.789 50.83 248.789 51.04 248.789 51.26C248.789 51.48 248.779 51.73 248.759 52.01H236.399V50.06H246.329C246.269 48.68 245.809 47.6 244.949 46.82C244.109 46.04 243.049 45.65 241.769 45.65C240.909 45.65 240.109 45.85 239.369 46.25C238.649 46.63 238.069 47.2 237.629 47.96C237.189 48.7 236.969 49.63 236.969 50.75V51.59C236.969 52.83 237.189 53.87 237.629 54.71C238.089 55.55 238.679 56.18 239.399 56.6C240.139 57.02 240.929 57.23 241.769 57.23C242.829 57.23 243.699 57 244.379 56.54C245.079 56.06 245.579 55.42 245.879 54.62H248.369C248.129 55.52 247.709 56.33 247.109 57.05C246.509 57.77 245.759 58.34 244.859 58.76C243.979 59.16 242.949 59.36 241.769 59.36ZM266.909 59.36C265.509 59.36 264.249 59.04 263.129 58.4C262.009 57.74 261.129 56.82 260.489 55.64C259.849 54.44 259.529 53.05 259.529 51.47C259.529 49.85 259.849 48.45 260.489 47.27C261.149 46.07 262.039 45.15 263.159 44.51C264.299 43.85 265.569 43.52 266.969 43.52C268.409 43.52 269.679 43.85 270.779 44.51C271.899 45.15 272.779 46.07 273.419 47.27C274.079 48.45 274.409 49.84 274.409 51.44C274.409 53.04 274.079 54.44 273.419 55.64C272.759 56.82 271.869 57.74 270.749 58.4C269.629 59.04 268.349 59.36 266.909 59.36ZM266.939 57.2C267.799 57.2 268.599 56.99 269.339 56.57C270.079 56.13 270.679 55.48 271.139 54.62C271.599 53.76 271.829 52.7 271.829 51.44C271.829 50.16 271.599 49.1 271.139 48.26C270.699 47.4 270.109 46.76 269.369 46.34C268.649 45.9 267.849 45.68 266.969 45.68C266.129 45.68 265.329 45.9 264.569 46.34C263.829 46.76 263.229 47.4 262.769 48.26C262.329 49.1 262.109 50.16 262.109 51.44C262.109 52.7 262.329 53.76 262.769 54.62C263.229 55.48 263.819 56.13 264.539 56.57C265.279 56.99 266.079 57.2 266.939 57.2ZM283.432 59.36C282.272 59.36 281.252 59.13 280.372 58.67C279.512 58.21 278.842 57.5 278.362 56.54C277.902 55.58 277.672 54.38 277.672 52.94V43.88H280.192V52.67C280.192 54.17 280.522 55.3 281.182 56.06C281.842 56.82 282.772 57.2 283.972 57.2C284.812 57.2 285.572 57 286.252 56.6C286.932 56.18 287.462 55.59 287.842 54.83C288.242 54.05 288.442 53.1 288.442 51.98V43.88H290.962V59H288.682L288.532 56.36C288.072 57.3 287.392 58.04 286.492 58.58C285.592 59.1 284.572 59.36 283.432 59.36ZM301.079 59C300.179 59 299.399 58.86 298.739 58.58C298.079 58.3 297.569 57.83 297.209 57.17C296.869 56.49 296.699 55.58 296.699 54.44V46.01H294.059V43.88H296.699L297.029 40.22H299.219V43.88H303.599V46.01H299.219V54.44C299.219 55.38 299.409 56.02 299.789 56.36C300.169 56.68 300.839 56.84 301.799 56.84H303.419V59H301.079ZM307.727 59V46.01H305.417V43.88H307.727V41.54C307.727 40.58 307.887 39.8 308.207 39.2C308.527 38.58 308.997 38.13 309.617 37.85C310.257 37.55 311.037 37.4 311.957 37.4H313.457V39.56H312.347C311.607 39.56 311.067 39.71 310.727 40.01C310.407 40.31 310.247 40.84 310.247 41.6V43.88H319.307V59H316.787V46.01H310.247V59H307.727ZM318.077 41C317.597 41 317.187 40.84 316.847 40.52C316.507 40.18 316.337 39.76 316.337 39.26C316.337 38.76 316.507 38.36 316.847 38.06C317.187 37.74 317.597 37.58 318.077 37.58C318.577 37.58 318.987 37.74 319.307 38.06C319.647 38.36 319.817 38.76 319.817 39.26C319.817 39.76 319.647 40.18 319.307 40.52C318.987 40.84 318.577 41 318.077 41ZM329.731 59C328.831 59 328.051 58.86 327.391 58.58C326.731 58.3 326.221 57.83 325.861 57.17C325.521 56.49 325.351 55.58 325.351 54.44V46.01H322.711V43.88H325.351L325.681 40.22H327.871V43.88H332.251V46.01H327.871V54.44C327.871 55.38 328.061 56.02 328.441 56.36C328.821 56.68 329.491 56.84 330.451 56.84H332.071V59H329.731ZM341.239 59.36C339.979 59.36 338.879 59.15 337.939 58.73C337.019 58.31 336.279 57.73 335.719 56.99C335.179 56.23 334.849 55.34 334.729 54.32H337.309C337.409 54.84 337.619 55.32 337.939 55.76C338.259 56.2 338.689 56.56 339.229 56.84C339.789 57.1 340.469 57.23 341.269 57.23C341.969 57.23 342.549 57.13 343.009 56.93C343.469 56.71 343.809 56.42 344.029 56.06C344.269 55.7 344.389 55.31 344.389 54.89C344.389 54.27 344.239 53.8 343.939 53.48C343.659 53.16 343.239 52.91 342.679 52.73C342.119 52.53 341.439 52.36 340.639 52.22C339.979 52.1 339.329 51.94 338.689 51.74C338.049 51.54 337.479 51.28 336.979 50.96C336.479 50.62 336.079 50.21 335.779 49.73C335.499 49.25 335.359 48.66 335.359 47.96C335.359 47.1 335.579 46.34 336.019 45.68C336.459 45 337.089 44.47 337.909 44.09C338.749 43.71 339.719 43.52 340.819 43.52C342.439 43.52 343.749 43.91 344.749 44.69C345.749 45.47 346.339 46.6 346.519 48.08H344.029C343.929 47.32 343.599 46.73 343.039 46.31C342.499 45.87 341.749 45.65 340.789 45.65C339.849 45.65 339.129 45.84 338.629 46.22C338.149 46.6 337.909 47.1 337.909 47.72C337.909 48.12 338.039 48.48 338.299 48.8C338.579 49.1 338.979 49.36 339.499 49.58C340.039 49.8 340.699 49.98 341.479 50.12C342.479 50.3 343.389 50.54 344.209 50.84C345.029 51.14 345.689 51.59 346.189 52.19C346.709 52.77 346.969 53.6 346.969 54.68C346.969 55.62 346.729 56.44 346.249 57.14C345.789 57.84 345.129 58.39 344.269 58.79C343.409 59.17 342.399 59.36 341.239 59.36ZM359.407 59V41.54C359.407 40.58 359.567 39.8 359.887 39.2C360.207 38.58 360.677 38.13 361.297 37.85C361.937 37.55 362.717 37.4 363.637 37.4H365.347V39.56H364.027C363.287 39.56 362.747 39.71 362.407 40.01C362.087 40.31 361.927 40.84 361.927 41.6V59H359.407ZM357.097 46.01V43.88H365.737V46.01H357.097ZM374.926 59.36C373.526 59.36 372.266 59.04 371.146 58.4C370.026 57.74 369.146 56.82 368.506 55.64C367.866 54.44 367.546 53.05 367.546 51.47C367.546 49.85 367.866 48.45 368.506 47.27C369.166 46.07 370.056 45.15 371.176 44.51C372.316 43.85 373.586 43.52 374.986 43.52C376.426 43.52 377.696 43.85 378.796 44.51C379.916 45.15 380.796 46.07 381.436 47.27C382.096 48.45 382.426 49.84 382.426 51.44C382.426 53.04 382.096 54.44 381.436 55.64C380.776 56.82 379.886 57.74 378.766 58.4C377.646 59.04 376.366 59.36 374.926 59.36ZM374.956 57.2C375.816 57.2 376.616 56.99 377.356 56.57C378.096 56.13 378.696 55.48 379.156 54.62C379.616 53.76 379.846 52.7 379.846 51.44C379.846 50.16 379.616 49.1 379.156 48.26C378.716 47.4 378.126 46.76 377.386 46.34C376.666 45.9 375.866 45.68 374.986 45.68C374.146 45.68 373.346 45.9 372.586 46.34C371.846 46.76 371.246 47.4 370.786 48.26C370.346 49.1 370.126 50.16 370.126 51.44C370.126 52.7 370.346 53.76 370.786 54.62C371.246 55.48 371.836 56.13 372.556 56.57C373.296 56.99 374.096 57.2 374.956 57.2ZM385.959 59V43.88H388.239L388.419 46.76C388.759 46.08 389.189 45.5 389.709 45.02C390.249 44.54 390.889 44.17 391.629 43.91C392.389 43.65 393.249 43.52 394.209 43.52V46.16H393.279C392.639 46.16 392.029 46.25 391.449 46.43C390.869 46.59 390.349 46.86 389.889 47.24C389.449 47.62 389.099 48.14 388.839 48.8C388.599 49.44 388.479 50.24 388.479 51.2V59H385.959ZM405.032 59V43.88H407.312L407.462 46.04C407.942 45.26 408.582 44.65 409.382 44.21C410.202 43.75 411.092 43.52 412.052 43.52C412.832 43.52 413.532 43.63 414.152 43.85C414.792 44.05 415.352 44.37 415.832 44.81C416.312 45.23 416.702 45.77 417.002 46.43C417.522 45.51 418.232 44.8 419.132 44.3C420.052 43.78 421.032 43.52 422.072 43.52C423.232 43.52 424.242 43.76 425.102 44.24C425.982 44.7 426.652 45.41 427.112 46.37C427.592 47.31 427.832 48.51 427.832 49.97V59H425.342V50.24C425.342 48.72 425.032 47.58 424.412 46.82C423.792 46.06 422.922 45.68 421.802 45.68C421.022 45.68 420.322 45.89 419.702 46.31C419.082 46.71 418.592 47.3 418.232 48.08C417.872 48.86 417.692 49.82 417.692 50.96V59H415.172V50.24C415.172 48.72 414.862 47.58 414.242 46.82C413.622 46.06 412.742 45.68 411.602 45.68C410.842 45.68 410.152 45.89 409.532 46.31C408.932 46.71 408.452 47.3 408.092 48.08C407.732 48.86 407.552 49.82 407.552 50.96V59H405.032ZM438.38 59.36C436.96 59.36 435.7 59.03 434.6 58.37C433.52 57.71 432.67 56.79 432.05 55.61C431.43 54.41 431.12 53.02 431.12 51.44C431.12 49.84 431.42 48.45 432.02 47.27C432.64 46.09 433.5 45.17 434.6 44.51C435.72 43.85 437 43.52 438.44 43.52C439.92 43.52 441.17 43.85 442.19 44.51C443.23 45.17 444.02 46.04 444.56 47.12C445.12 48.18 445.4 49.35 445.4 50.63C445.4 50.83 445.4 51.04 445.4 51.26C445.4 51.48 445.39 51.73 445.37 52.01H433.01V50.06H442.94C442.88 48.68 442.42 47.6 441.56 46.82C440.72 46.04 439.66 45.65 438.38 45.65C437.52 45.65 436.72 45.85 435.98 46.25C435.26 46.63 434.68 47.2 434.24 47.96C433.8 48.7 433.58 49.63 433.58 50.75V51.59C433.58 52.83 433.8 53.87 434.24 54.71C434.7 55.55 435.29 56.18 436.01 56.6C436.75 57.02 437.54 57.23 438.38 57.23C439.44 57.23 440.31 57 440.99 56.54C441.69 56.06 442.19 55.42 442.49 54.62H444.98C444.74 55.52 444.32 56.33 443.72 57.05C443.12 57.77 442.37 58.34 441.47 58.76C440.59 59.16 439.56 59.36 438.38 59.36Z" fill="#672576"/>
</svg>
