<svg width="567" height="96" viewBox="0 0 567 96" fill="none" xmlns="http://www.w3.org/2000/svg">
<path d="M0 20C0 8.9543 8.95431 0 20 0H547C558.046 0 567 8.9543 567 20V76C567 87.0457 558.046 96 547 96H0V20Z" fill="#EF9CAD"/>
<path d="M25.4463 7.5H539.554C548.913 7.5 556.5 15.0873 556.5 24.4463V72.5537C556.5 81.9127 548.913 89.5 539.554 89.5H8.5V24.4463C8.5 15.0873 16.0873 7.5 25.4463 7.5Z" fill="#FBD1DB" stroke="#77191B"/>
<path d="M33.9 59L41.64 38H44.31L52.02 59H49.35L42.96 41.15L36.54 59H33.9ZM37.44 53.6L38.16 51.56H47.67L48.39 53.6H37.44ZM60.8316 59.36C59.4116 59.36 58.1516 59.03 57.0516 58.37C55.9716 57.71 55.1216 56.79 54.5016 55.61C53.8816 54.41 53.5716 53.02 53.5716 51.44C53.5716 49.84 53.8716 48.45 54.4716 47.27C55.0916 46.09 55.9516 45.17 57.0516 44.51C58.1716 43.85 59.4516 43.52 60.8916 43.52C62.3716 43.52 63.6216 43.85 64.6416 44.51C65.6816 45.17 66.4716 46.04 67.0116 47.12C67.5716 48.18 67.8516 49.35 67.8516 50.63C67.8516 50.83 67.8516 51.04 67.8516 51.26C67.8516 51.48 67.8416 51.73 67.8216 52.01H55.4616V50.06H65.3916C65.3316 48.68 64.8716 47.6 64.0116 46.82C63.1716 46.04 62.1116 45.65 60.8316 45.65C59.9716 45.65 59.1716 45.85 58.4316 46.25C57.7116 46.63 57.1316 47.2 56.6916 47.96C56.2516 48.7 56.0316 49.63 56.0316 50.75V51.59C56.0316 52.83 56.2516 53.87 56.6916 54.71C57.1516 55.55 57.7416 56.18 58.4616 56.6C59.2016 57.02 59.9916 57.23 60.8316 57.23C61.8916 57.23 62.7616 57 63.4416 56.54C64.1416 56.06 64.6416 55.42 64.9416 54.62H67.4316C67.1916 55.52 66.7716 56.33 66.1716 57.05C65.5716 57.77 64.8216 58.34 63.9216 58.76C63.0416 59.16 62.0116 59.36 60.8316 59.36ZM76.9523 59.36C75.6923 59.36 74.5923 59.15 73.6523 58.73C72.7323 58.31 71.9923 57.73 71.4323 56.99C70.8923 56.23 70.5623 55.34 70.4423 54.32H73.0223C73.1223 54.84 73.3323 55.32 73.6523 55.76C73.9723 56.2 74.4023 56.56 74.9423 56.84C75.5023 57.1 76.1823 57.23 76.9823 57.23C77.6823 57.23 78.2623 57.13 78.7223 56.93C79.1823 56.71 79.5223 56.42 79.7423 56.06C79.9823 55.7 80.1023 55.31 80.1023 54.89C80.1023 54.27 79.9523 53.8 79.6523 53.48C79.3723 53.16 78.9523 52.91 78.3923 52.73C77.8323 52.53 77.1523 52.36 76.3523 52.22C75.6923 52.1 75.0423 51.94 74.4023 51.74C73.7623 51.54 73.1923 51.28 72.6923 50.96C72.1923 50.62 71.7923 50.21 71.4923 49.73C71.2123 49.25 71.0723 48.66 71.0723 47.96C71.0723 47.1 71.2923 46.34 71.7323 45.68C72.1723 45 72.8023 44.47 73.6223 44.09C74.4623 43.71 75.4323 43.52 76.5323 43.52C78.1523 43.52 79.4623 43.91 80.4623 44.69C81.4623 45.47 82.0523 46.6 82.2323 48.08H79.7423C79.6423 47.32 79.3123 46.73 78.7523 46.31C78.2123 45.87 77.4623 45.65 76.5023 45.65C75.5623 45.65 74.8423 45.84 74.3423 46.22C73.8623 46.6 73.6223 47.1 73.6223 47.72C73.6223 48.12 73.7523 48.48 74.0123 48.8C74.2923 49.1 74.6923 49.36 75.2123 49.58C75.7523 49.8 76.4123 49.98 77.1923 50.12C78.1923 50.3 79.1023 50.54 79.9223 50.84C80.7423 51.14 81.4023 51.59 81.9023 52.19C82.4223 52.77 82.6823 53.6 82.6823 54.68C82.6823 55.62 82.4423 56.44 81.9623 57.14C81.5023 57.84 80.8423 58.39 79.9823 58.79C79.1223 59.17 78.1123 59.36 76.9523 59.36ZM91.5771 59C90.6771 59 89.8971 58.86 89.2371 58.58C88.5771 58.3 88.0671 57.83 87.7071 57.17C87.3671 56.49 87.1971 55.58 87.1971 54.44V46.01H84.5571V43.88H87.1971L87.5271 40.22H89.7171V43.88H94.0971V46.01H89.7171V54.44C89.7171 55.38 89.9071 56.02 90.2871 56.36C90.6671 56.68 91.3371 56.84 92.2971 56.84H93.9171V59H91.5771ZM97.3852 59V37.4H99.9052V46.43C100.405 45.53 101.105 44.82 102.005 44.3C102.925 43.78 103.925 43.52 105.005 43.52C106.165 43.52 107.175 43.76 108.035 44.24C108.895 44.7 109.555 45.41 110.015 46.37C110.475 47.33 110.705 48.54 110.705 50V59H108.215V50.27C108.215 48.75 107.895 47.61 107.255 46.85C106.615 46.07 105.685 45.68 104.465 45.68C103.605 45.68 102.825 45.89 102.125 46.31C101.445 46.73 100.905 47.33 100.505 48.11C100.105 48.89 99.9052 49.85 99.9052 50.99V59H97.3852ZM121.271 59.36C119.851 59.36 118.591 59.03 117.491 58.37C116.411 57.71 115.561 56.79 114.941 55.61C114.321 54.41 114.011 53.02 114.011 51.44C114.011 49.84 114.311 48.45 114.911 47.27C115.531 46.09 116.391 45.17 117.491 44.51C118.611 43.85 119.891 43.52 121.331 43.52C122.811 43.52 124.061 43.85 125.081 44.51C126.121 45.17 126.911 46.04 127.451 47.12C128.011 48.18 128.291 49.35 128.291 50.63C128.291 50.83 128.291 51.04 128.291 51.26C128.291 51.48 128.281 51.73 128.261 52.01H115.901V50.06H125.831C125.771 48.68 125.311 47.6 124.451 46.82C123.611 46.04 122.551 45.65 121.271 45.65C120.411 45.65 119.611 45.85 118.871 46.25C118.151 46.63 117.571 47.2 117.131 47.96C116.691 48.7 116.471 49.63 116.471 50.75V51.59C116.471 52.83 116.691 53.87 117.131 54.71C117.591 55.55 118.181 56.18 118.901 56.6C119.641 57.02 120.431 57.23 121.271 57.23C122.331 57.23 123.201 57 123.881 56.54C124.581 56.06 125.081 55.42 125.381 54.62H127.871C127.631 55.52 127.211 56.33 126.611 57.05C126.011 57.77 125.261 58.34 124.361 58.76C123.481 59.16 122.451 59.36 121.271 59.36ZM137.134 59C136.234 59 135.454 58.86 134.794 58.58C134.134 58.3 133.624 57.83 133.264 57.17C132.924 56.49 132.754 55.58 132.754 54.44V46.01H130.114V43.88H132.754L133.084 40.22H135.274V43.88H139.654V46.01H135.274V54.44C135.274 55.38 135.464 56.02 135.844 56.36C136.224 56.68 136.894 56.84 137.854 56.84H139.474V59H137.134ZM143.182 59V43.88H145.702V59H143.182ZM144.442 40.67C143.942 40.67 143.522 40.51 143.182 40.19C142.862 39.85 142.702 39.43 142.702 38.93C142.702 38.43 142.862 38.03 143.182 37.73C143.522 37.41 143.942 37.25 144.442 37.25C144.922 37.25 145.332 37.41 145.672 37.73C146.012 38.03 146.182 38.43 146.182 38.93C146.182 39.43 146.012 39.85 145.672 40.19C145.332 40.51 144.922 40.67 144.442 40.67ZM156.959 59.36C155.539 59.36 154.259 59.03 153.119 58.37C151.999 57.71 151.119 56.79 150.479 55.61C149.839 54.41 149.519 53.03 149.519 51.47C149.519 49.87 149.839 48.48 150.479 47.3C151.119 46.12 151.999 45.2 153.119 44.54C154.259 43.86 155.539 43.52 156.959 43.52C158.759 43.52 160.259 43.99 161.459 44.93C162.659 45.85 163.419 47.09 163.739 48.65H161.159C160.959 47.71 160.469 46.98 159.689 46.46C158.909 45.94 157.989 45.68 156.929 45.68C156.069 45.68 155.269 45.9 154.529 46.34C153.789 46.76 153.199 47.4 152.759 48.26C152.319 49.12 152.099 50.18 152.099 51.44C152.099 52.38 152.229 53.22 152.489 53.96C152.749 54.68 153.099 55.28 153.539 55.76C153.979 56.24 154.489 56.61 155.069 56.87C155.669 57.11 156.289 57.23 156.929 57.23C157.649 57.23 158.299 57.12 158.879 56.9C159.459 56.66 159.949 56.31 160.349 55.85C160.749 55.39 161.019 54.85 161.159 54.23H163.739C163.419 55.75 162.649 56.99 161.429 57.95C160.229 58.89 158.739 59.36 156.959 59.36ZM181.226 59C180.326 59 179.546 58.86 178.886 58.58C178.226 58.3 177.716 57.83 177.356 57.17C177.016 56.49 176.846 55.58 176.846 54.44V46.01H174.206V43.88H176.846L177.176 40.22H179.366V43.88H183.746V46.01H179.366V54.44C179.366 55.38 179.556 56.02 179.936 56.36C180.316 56.68 180.986 56.84 181.946 56.84H183.566V59H181.226ZM188.684 65.6L192.374 57.32H191.504L185.564 43.88H188.294L193.214 55.43L198.374 43.88H200.984L191.324 65.6H188.684ZM203.704 65.6V43.88H205.984L206.194 46.34C206.514 45.86 206.924 45.41 207.424 44.99C207.924 44.55 208.524 44.2 209.224 43.94C209.924 43.66 210.724 43.52 211.624 43.52C213.104 43.52 214.384 43.87 215.464 44.57C216.564 45.27 217.414 46.22 218.014 47.42C218.634 48.6 218.944 49.95 218.944 51.47C218.944 52.99 218.634 54.35 218.014 55.55C217.414 56.73 216.564 57.66 215.464 58.34C214.364 59.02 213.074 59.36 211.594 59.36C210.374 59.36 209.294 59.11 208.354 58.61C207.434 58.11 206.724 57.41 206.224 56.51V65.6H203.704ZM211.324 57.17C212.304 57.17 213.174 56.93 213.934 56.45C214.694 55.97 215.284 55.31 215.704 54.47C216.144 53.61 216.364 52.6 216.364 51.44C216.364 50.3 216.144 49.3 215.704 48.44C215.284 47.58 214.694 46.91 213.934 46.43C213.174 45.95 212.304 45.71 211.324 45.71C210.324 45.71 209.444 45.95 208.684 46.43C207.924 46.91 207.334 47.58 206.914 48.44C206.494 49.3 206.284 50.3 206.284 51.44C206.284 52.6 206.494 53.61 206.914 54.47C207.334 55.31 207.924 55.97 208.684 56.45C209.444 56.93 210.324 57.17 211.324 57.17ZM229.113 59.36C227.693 59.36 226.433 59.03 225.333 58.37C224.253 57.71 223.403 56.79 222.783 55.61C222.163 54.41 221.853 53.02 221.853 51.44C221.853 49.84 222.153 48.45 222.753 47.27C223.373 46.09 224.233 45.17 225.333 44.51C226.453 43.85 227.733 43.52 229.173 43.52C230.653 43.52 231.903 43.85 232.923 44.51C233.963 45.17 234.753 46.04 235.293 47.12C235.853 48.18 236.133 49.35 236.133 50.63C236.133 50.83 236.133 51.04 236.133 51.26C236.133 51.48 236.123 51.73 236.103 52.01H223.743V50.06H233.673C233.613 48.68 233.153 47.6 232.293 46.82C231.453 46.04 230.393 45.65 229.113 45.65C228.253 45.65 227.453 45.85 226.713 46.25C225.993 46.63 225.413 47.2 224.973 47.96C224.533 48.7 224.313 49.63 224.313 50.75V51.59C224.313 52.83 224.533 53.87 224.973 54.71C225.433 55.55 226.023 56.18 226.743 56.6C227.483 57.02 228.273 57.23 229.113 57.23C230.173 57.23 231.043 57 231.723 56.54C232.423 56.06 232.923 55.42 233.223 54.62H235.713C235.473 55.52 235.053 56.33 234.453 57.05C233.853 57.77 233.103 58.34 232.203 58.76C231.323 59.16 230.293 59.36 229.113 59.36ZM240.434 59.15C239.934 59.15 239.514 58.99 239.174 58.67C238.854 58.33 238.694 57.92 238.694 57.44C238.694 56.96 238.854 56.56 239.174 56.24C239.514 55.9 239.934 55.73 240.434 55.73C240.934 55.73 241.344 55.9 241.664 56.24C241.984 56.56 242.144 56.96 242.144 57.44C242.144 57.92 241.984 58.33 241.664 58.67C241.344 58.99 240.934 59.15 240.434 59.15ZM240.434 46.94C239.934 46.94 239.514 46.78 239.174 46.46C238.854 46.12 238.694 45.71 238.694 45.23C238.694 44.75 238.854 44.35 239.174 44.03C239.514 43.69 239.934 43.52 240.434 43.52C240.934 43.52 241.344 43.69 241.664 44.03C241.984 44.35 242.144 44.75 242.144 45.23C242.144 45.71 241.984 46.12 241.664 46.46C241.344 46.78 240.934 46.94 240.434 46.94ZM260.407 59.36C258.867 59.36 257.527 59.08 256.387 58.52C255.247 57.96 254.367 57.18 253.747 56.18C253.127 55.18 252.817 54.02 252.817 52.7H255.457C255.457 53.52 255.647 54.28 256.027 54.98C256.407 55.66 256.957 56.21 257.677 56.63C258.417 57.03 259.327 57.23 260.407 57.23C261.347 57.23 262.147 57.08 262.807 56.78C263.487 56.46 263.997 56.03 264.337 55.49C264.697 54.95 264.877 54.34 264.877 53.66C264.877 52.84 264.697 52.18 264.337 51.68C263.997 51.16 263.527 50.74 262.927 50.42C262.327 50.1 261.627 49.82 260.827 49.58C260.047 49.32 259.227 49.05 258.367 48.77C256.707 48.21 255.487 47.51 254.707 46.67C253.927 45.83 253.537 44.74 253.537 43.4C253.537 42.26 253.797 41.26 254.317 40.4C254.857 39.54 255.617 38.87 256.597 38.39C257.597 37.89 258.777 37.64 260.137 37.64C261.477 37.64 262.637 37.89 263.617 38.39C264.617 38.89 265.397 39.58 265.957 40.46C266.517 41.32 266.797 42.32 266.797 43.46H264.157C264.157 42.88 264.007 42.31 263.707 41.75C263.407 41.19 262.947 40.73 262.327 40.37C261.727 39.99 260.967 39.8 260.047 39.8C259.287 39.78 258.607 39.91 258.007 40.19C257.427 40.45 256.967 40.83 256.627 41.33C256.307 41.83 256.147 42.44 256.147 43.16C256.147 43.84 256.287 44.39 256.567 44.81C256.867 45.23 257.287 45.59 257.827 45.89C258.387 46.17 259.037 46.43 259.777 46.67C260.517 46.91 261.337 47.18 262.237 47.48C263.257 47.82 264.157 48.24 264.937 48.74C265.737 49.22 266.357 49.84 266.797 50.6C267.257 51.36 267.487 52.33 267.487 53.51C267.487 54.51 267.217 55.46 266.677 56.36C266.157 57.24 265.377 57.96 264.337 58.52C263.297 59.08 261.987 59.36 260.407 59.36ZM277.719 59.36C276.319 59.36 275.059 59.04 273.939 58.4C272.819 57.74 271.939 56.82 271.299 55.64C270.659 54.44 270.339 53.05 270.339 51.47C270.339 49.85 270.659 48.45 271.299 47.27C271.959 46.07 272.849 45.15 273.969 44.51C275.109 43.85 276.379 43.52 277.779 43.52C279.219 43.52 280.489 43.85 281.589 44.51C282.709 45.15 283.589 46.07 284.229 47.27C284.889 48.45 285.219 49.84 285.219 51.44C285.219 53.04 284.889 54.44 284.229 55.64C283.569 56.82 282.679 57.74 281.559 58.4C280.439 59.04 279.159 59.36 277.719 59.36ZM277.749 57.2C278.609 57.2 279.409 56.99 280.149 56.57C280.889 56.13 281.489 55.48 281.949 54.62C282.409 53.76 282.639 52.7 282.639 51.44C282.639 50.16 282.409 49.1 281.949 48.26C281.509 47.4 280.919 46.76 280.179 46.34C279.459 45.9 278.659 45.68 277.779 45.68C276.939 45.68 276.139 45.9 275.379 46.34C274.639 46.76 274.039 47.4 273.579 48.26C273.139 49.1 272.919 50.16 272.919 51.44C272.919 52.7 273.139 53.76 273.579 54.62C274.039 55.48 274.629 56.13 275.349 56.57C276.089 56.99 276.889 57.2 277.749 57.2ZM289.592 59V41.54C289.592 40.58 289.752 39.8 290.072 39.2C290.392 38.58 290.862 38.13 291.482 37.85C292.122 37.55 292.902 37.4 293.822 37.4H295.532V39.56H294.212C293.472 39.56 292.932 39.71 292.592 40.01C292.272 40.31 292.112 40.84 292.112 41.6V59H289.592ZM287.282 46.01V43.88H295.922V46.01H287.282ZM304.888 59C303.988 59 303.208 58.86 302.548 58.58C301.888 58.3 301.378 57.83 301.018 57.17C300.678 56.49 300.508 55.58 300.508 54.44V46.01H297.868V43.88H300.508L300.838 40.22H303.028V43.88H307.408V46.01H303.028V54.44C303.028 55.38 303.218 56.02 303.598 56.36C303.978 56.68 304.648 56.84 305.608 56.84H307.228V59H304.888ZM324.634 65.96C323.274 65.96 322.064 65.78 321.004 65.42C319.964 65.08 319.154 64.55 318.574 63.83C317.994 63.11 317.704 62.22 317.704 61.16C317.704 60.7 317.794 60.21 317.974 59.69C318.174 59.17 318.504 58.66 318.964 58.16C319.444 57.66 320.114 57.21 320.974 56.81L322.714 57.83C321.654 58.27 320.964 58.77 320.644 59.33C320.324 59.91 320.164 60.44 320.164 60.92C320.164 61.58 320.354 62.13 320.734 62.57C321.114 63.01 321.644 63.34 322.324 63.56C323.004 63.78 323.774 63.89 324.634 63.89C325.494 63.89 326.234 63.77 326.854 63.53C327.474 63.29 327.954 62.95 328.294 62.51C328.634 62.07 328.804 61.55 328.804 60.95C328.804 60.25 328.544 59.66 328.024 59.18C327.504 58.72 326.514 58.45 325.054 58.37C323.874 58.29 322.884 58.18 322.084 58.04C321.284 57.9 320.624 57.74 320.104 57.56C319.584 57.36 319.144 57.14 318.784 56.9C318.444 56.66 318.134 56.41 317.854 56.15V55.46L320.764 52.58L322.954 53.36L319.954 56.06L320.344 55.01C320.564 55.17 320.774 55.32 320.974 55.46C321.174 55.6 321.444 55.72 321.784 55.82C322.124 55.92 322.594 56.01 323.194 56.09C323.814 56.17 324.624 56.25 325.624 56.33C327.004 56.43 328.104 56.67 328.924 57.05C329.764 57.43 330.364 57.94 330.724 58.58C331.104 59.22 331.294 59.98 331.294 60.86C331.294 61.72 331.054 62.53 330.574 63.29C330.114 64.07 329.394 64.71 328.414 65.21C327.434 65.71 326.174 65.96 324.634 65.96ZM324.604 54.26C323.344 54.26 322.264 54.02 321.364 53.54C320.484 53.06 319.814 52.42 319.354 51.62C318.894 50.8 318.664 49.89 318.664 48.89C318.664 47.89 318.894 46.99 319.354 46.19C319.834 45.39 320.514 44.75 321.394 44.27C322.274 43.77 323.344 43.52 324.604 43.52C325.864 43.52 326.934 43.77 327.814 44.27C328.694 44.75 329.364 45.39 329.824 46.19C330.284 46.99 330.514 47.89 330.514 48.89C330.514 49.89 330.284 50.8 329.824 51.62C329.364 52.42 328.694 53.06 327.814 53.54C326.934 54.02 325.864 54.26 324.604 54.26ZM324.604 52.19C325.684 52.19 326.534 51.91 327.154 51.35C327.774 50.79 328.084 49.97 328.084 48.89C328.084 47.83 327.774 47.02 327.154 46.46C326.534 45.9 325.684 45.62 324.604 45.62C323.544 45.62 322.684 45.9 322.024 46.46C321.384 47.02 321.064 47.83 321.064 48.89C321.064 49.97 321.384 50.79 322.024 51.35C322.664 51.91 323.524 52.19 324.604 52.19ZM327.064 46.01L326.314 43.88H332.494V45.77L327.064 46.01ZM335.633 59V43.88H338.153V59H335.633ZM336.893 40.67C336.393 40.67 335.973 40.51 335.633 40.19C335.313 39.85 335.153 39.43 335.153 38.93C335.153 38.43 335.313 38.03 335.633 37.73C335.973 37.41 336.393 37.25 336.893 37.25C337.373 37.25 337.783 37.41 338.123 37.73C338.463 38.03 338.633 38.43 338.633 38.93C338.633 39.43 338.463 39.85 338.123 40.19C337.783 40.51 337.373 40.67 336.893 40.67ZM342.6 59V43.88H344.88L345.06 46.76C345.4 46.08 345.83 45.5 346.35 45.02C346.89 44.54 347.53 44.17 348.27 43.91C349.03 43.65 349.89 43.52 350.85 43.52V46.16H349.92C349.28 46.16 348.67 46.25 348.09 46.43C347.51 46.59 346.99 46.86 346.53 47.24C346.09 47.62 345.74 48.14 345.48 48.8C345.24 49.44 345.12 50.24 345.12 51.2V59H342.6ZM353.704 59V37.4H356.224V59H353.704ZM375.162 59.36C373.742 59.36 372.462 59.03 371.322 58.37C370.202 57.71 369.322 56.79 368.682 55.61C368.042 54.41 367.722 53.03 367.722 51.47C367.722 49.87 368.042 48.48 368.682 47.3C369.322 46.12 370.202 45.2 371.322 44.54C372.462 43.86 373.742 43.52 375.162 43.52C376.962 43.52 378.462 43.99 379.662 44.93C380.862 45.85 381.622 47.09 381.942 48.65H379.362C379.162 47.71 378.672 46.98 377.892 46.46C377.112 45.94 376.192 45.68 375.132 45.68C374.272 45.68 373.472 45.9 372.732 46.34C371.992 46.76 371.402 47.4 370.962 48.26C370.522 49.12 370.302 50.18 370.302 51.44C370.302 52.38 370.432 53.22 370.692 53.96C370.952 54.68 371.302 55.28 371.742 55.76C372.182 56.24 372.692 56.61 373.272 56.87C373.872 57.11 374.492 57.23 375.132 57.23C375.852 57.23 376.502 57.12 377.082 56.9C377.662 56.66 378.152 56.31 378.552 55.85C378.952 55.39 379.222 54.85 379.362 54.23H381.942C381.622 55.75 380.852 56.99 379.632 57.95C378.432 58.89 376.942 59.36 375.162 59.36ZM390.44 59.36C389.22 59.36 388.2 59.15 387.38 58.73C386.56 58.29 385.95 57.72 385.55 57.02C385.15 56.3 384.95 55.52 384.95 54.68C384.95 53.66 385.21 52.8 385.73 52.1C386.27 51.38 387.02 50.84 387.98 50.48C388.96 50.1 390.11 49.91 391.43 49.91H395.42C395.42 48.97 395.27 48.19 394.97 47.57C394.69 46.93 394.27 46.45 393.71 46.13C393.17 45.81 392.49 45.65 391.67 45.65C390.71 45.65 389.88 45.89 389.18 46.37C388.48 46.85 388.05 47.56 387.89 48.5H385.31C385.43 47.42 385.79 46.52 386.39 45.8C387.01 45.06 387.79 44.5 388.73 44.12C389.67 43.72 390.65 43.52 391.67 43.52C393.07 43.52 394.23 43.78 395.15 44.3C396.09 44.8 396.79 45.51 397.25 46.43C397.71 47.33 397.94 48.4 397.94 49.64V59H395.69L395.54 56.33C395.34 56.75 395.08 57.15 394.76 57.53C394.46 57.89 394.1 58.21 393.68 58.49C393.26 58.75 392.78 58.96 392.24 59.12C391.72 59.28 391.12 59.36 390.44 59.36ZM390.83 57.23C391.53 57.23 392.16 57.09 392.72 56.81C393.3 56.51 393.79 56.11 394.19 55.61C394.59 55.09 394.89 54.52 395.09 53.9C395.31 53.28 395.42 52.63 395.42 51.95V51.86H391.64C390.66 51.86 389.87 51.98 389.27 52.22C388.67 52.44 388.24 52.76 387.98 53.18C387.72 53.58 387.59 54.04 387.59 54.56C387.59 55.1 387.71 55.57 387.95 55.97C388.21 56.37 388.58 56.68 389.06 56.9C389.56 57.12 390.15 57.23 390.83 57.23ZM407.538 59.36C406.278 59.36 405.178 59.15 404.238 58.73C403.318 58.31 402.578 57.73 402.018 56.99C401.478 56.23 401.148 55.34 401.028 54.32H403.608C403.708 54.84 403.918 55.32 404.238 55.76C404.558 56.2 404.988 56.56 405.528 56.84C406.088 57.1 406.768 57.23 407.568 57.23C408.268 57.23 408.848 57.13 409.308 56.93C409.768 56.71 410.108 56.42 410.328 56.06C410.568 55.7 410.688 55.31 410.688 54.89C410.688 54.27 410.538 53.8 410.238 53.48C409.958 53.16 409.538 52.91 408.978 52.73C408.418 52.53 407.738 52.36 406.938 52.22C406.278 52.1 405.628 51.94 404.988 51.74C404.348 51.54 403.778 51.28 403.278 50.96C402.778 50.62 402.378 50.21 402.078 49.73C401.798 49.25 401.658 48.66 401.658 47.96C401.658 47.1 401.878 46.34 402.318 45.68C402.758 45 403.388 44.47 404.208 44.09C405.048 43.71 406.018 43.52 407.118 43.52C408.738 43.52 410.048 43.91 411.048 44.69C412.048 45.47 412.638 46.6 412.818 48.08H410.328C410.228 47.32 409.898 46.73 409.338 46.31C408.798 45.87 408.048 45.65 407.088 45.65C406.148 45.65 405.428 45.84 404.928 46.22C404.448 46.6 404.208 47.1 404.208 47.72C404.208 48.12 404.338 48.48 404.598 48.8C404.878 49.1 405.278 49.36 405.798 49.58C406.338 49.8 406.998 49.98 407.778 50.12C408.778 50.3 409.688 50.54 410.508 50.84C411.328 51.14 411.988 51.59 412.488 52.19C413.008 52.77 413.268 53.6 413.268 54.68C413.268 55.62 413.028 56.44 412.548 57.14C412.088 57.84 411.428 58.39 410.568 58.79C409.708 59.17 408.698 59.36 407.538 59.36ZM422.387 59.36C421.227 59.36 420.207 59.13 419.327 58.67C418.467 58.21 417.797 57.5 417.317 56.54C416.857 55.58 416.627 54.38 416.627 52.94V43.88H419.147V52.67C419.147 54.17 419.477 55.3 420.137 56.06C420.797 56.82 421.727 57.2 422.927 57.2C423.767 57.2 424.527 57 425.207 56.6C425.887 56.18 426.417 55.59 426.797 54.83C427.197 54.05 427.397 53.1 427.397 51.98V43.88H429.917V59H427.637L427.487 56.36C427.027 57.3 426.347 58.04 425.447 58.58C424.547 59.1 423.527 59.36 422.387 59.36ZM439.014 59.36C437.794 59.36 436.774 59.15 435.954 58.73C435.134 58.29 434.524 57.72 434.124 57.02C433.724 56.3 433.524 55.52 433.524 54.68C433.524 53.66 433.784 52.8 434.304 52.1C434.844 51.38 435.594 50.84 436.554 50.48C437.534 50.1 438.684 49.91 440.004 49.91H443.994C443.994 48.97 443.844 48.19 443.544 47.57C443.264 46.93 442.844 46.45 442.284 46.13C441.744 45.81 441.064 45.65 440.244 45.65C439.284 45.65 438.454 45.89 437.754 46.37C437.054 46.85 436.624 47.56 436.464 48.5H433.884C434.004 47.42 434.364 46.52 434.964 45.8C435.584 45.06 436.364 44.5 437.304 44.12C438.244 43.72 439.224 43.52 440.244 43.52C441.644 43.52 442.804 43.78 443.724 44.3C444.664 44.8 445.364 45.51 445.824 46.43C446.284 47.33 446.514 48.4 446.514 49.64V59H444.264L444.114 56.33C443.914 56.75 443.654 57.15 443.334 57.53C443.034 57.89 442.674 58.21 442.254 58.49C441.834 58.75 441.354 58.96 440.814 59.12C440.294 59.28 439.694 59.36 439.014 59.36ZM439.404 57.23C440.104 57.23 440.734 57.09 441.294 56.81C441.874 56.51 442.364 56.11 442.764 55.61C443.164 55.09 443.464 54.52 443.664 53.9C443.884 53.28 443.994 52.63 443.994 51.95V51.86H440.214C439.234 51.86 438.444 51.98 437.844 52.22C437.244 52.44 436.814 52.76 436.554 53.18C436.294 53.58 436.164 54.04 436.164 54.56C436.164 55.1 436.284 55.57 436.524 55.97C436.784 56.37 437.154 56.68 437.634 56.9C438.134 57.12 438.724 57.23 439.404 57.23ZM450.413 59V37.4H452.933V59H450.413ZM468.121 59L463.681 43.88H466.201L469.651 56.63H469.201L472.951 43.88H475.801L479.611 56.6L479.131 56.63L482.551 43.88H485.101L480.691 59H478.111L474.151 45.68H474.661L470.701 59H468.121ZM494.015 59.36C492.595 59.36 491.335 59.03 490.235 58.37C489.155 57.71 488.305 56.79 487.685 55.61C487.065 54.41 486.755 53.02 486.755 51.44C486.755 49.84 487.055 48.45 487.655 47.27C488.275 46.09 489.135 45.17 490.235 44.51C491.355 43.85 492.635 43.52 494.075 43.52C495.555 43.52 496.805 43.85 497.825 44.51C498.865 45.17 499.655 46.04 500.195 47.12C500.755 48.18 501.035 49.35 501.035 50.63C501.035 50.83 501.035 51.04 501.035 51.26C501.035 51.48 501.025 51.73 501.005 52.01H488.645V50.06H498.575C498.515 48.68 498.055 47.6 497.195 46.82C496.355 46.04 495.295 45.65 494.015 45.65C493.155 45.65 492.355 45.85 491.615 46.25C490.895 46.63 490.315 47.2 489.875 47.96C489.435 48.7 489.215 49.63 489.215 50.75V51.59C489.215 52.83 489.435 53.87 489.875 54.71C490.335 55.55 490.925 56.18 491.645 56.6C492.385 57.02 493.175 57.23 494.015 57.23C495.075 57.23 495.945 57 496.625 56.54C497.325 56.06 497.825 55.42 498.125 54.62H500.615C500.375 55.52 499.955 56.33 499.355 57.05C498.755 57.77 498.005 58.34 497.105 58.76C496.225 59.16 495.195 59.36 494.015 59.36ZM509.356 59.36C508.136 59.36 507.116 59.15 506.296 58.73C505.476 58.29 504.866 57.72 504.466 57.02C504.066 56.3 503.866 55.52 503.866 54.68C503.866 53.66 504.126 52.8 504.646 52.1C505.186 51.38 505.936 50.84 506.896 50.48C507.876 50.1 509.026 49.91 510.346 49.91H514.336C514.336 48.97 514.186 48.19 513.886 47.57C513.606 46.93 513.186 46.45 512.626 46.13C512.086 45.81 511.406 45.65 510.586 45.65C509.626 45.65 508.796 45.89 508.096 46.37C507.396 46.85 506.966 47.56 506.806 48.5H504.226C504.346 47.42 504.706 46.52 505.306 45.8C505.926 45.06 506.706 44.5 507.646 44.12C508.586 43.72 509.566 43.52 510.586 43.52C511.986 43.52 513.146 43.78 514.066 44.3C515.006 44.8 515.706 45.51 516.166 46.43C516.626 47.33 516.856 48.4 516.856 49.64V59H514.606L514.456 56.33C514.256 56.75 513.996 57.15 513.676 57.53C513.376 57.89 513.016 58.21 512.596 58.49C512.176 58.75 511.696 58.96 511.156 59.12C510.636 59.28 510.036 59.36 509.356 59.36ZM509.746 57.23C510.446 57.23 511.076 57.09 511.636 56.81C512.216 56.51 512.706 56.11 513.106 55.61C513.506 55.09 513.806 54.52 514.006 53.9C514.226 53.28 514.336 52.63 514.336 51.95V51.86H510.556C509.576 51.86 508.786 51.98 508.186 52.22C507.586 52.44 507.156 52.76 506.896 53.18C506.636 53.58 506.506 54.04 506.506 54.56C506.506 55.1 506.626 55.57 506.866 55.97C507.126 56.37 507.496 56.68 507.976 56.9C508.476 57.12 509.066 57.23 509.746 57.23ZM520.754 59V43.88H523.034L523.214 46.76C523.554 46.08 523.984 45.5 524.504 45.02C525.044 44.54 525.684 44.17 526.424 43.91C527.184 43.65 528.044 43.52 529.004 43.52V46.16H528.074C527.434 46.16 526.824 46.25 526.244 46.43C525.664 46.59 525.144 46.86 524.684 47.24C524.244 47.62 523.894 48.14 523.634 48.8C523.394 49.44 523.274 50.24 523.274 51.2V59H520.754Z" fill="#672576"/>
</svg>
