<svg width="465" height="96" viewBox="0 0 465 96" fill="none" xmlns="http://www.w3.org/2000/svg">
<path d="M0 20C0 8.9543 8.95431 0 20 0H445C456.046 0 465 8.9543 465 20V76C465 87.0457 456.046 96 445 96H0V20Z" fill="#EF9CAD"/>
<path d="M25.4463 7.5H440.554C449.913 7.5 457.5 15.0873 457.5 24.4463V72.5537C457.5 81.9127 449.913 89.5 440.554 89.5H8.5V24.4463C8.5 15.0873 16.0873 7.5 25.4463 7.5Z" fill="#FBD1DB" stroke="#77191B"/>
<path d="M44.37 59.36C42.33 59.36 40.56 58.91 39.06 58.01C37.58 57.09 36.44 55.82 35.64 54.2C34.84 52.56 34.44 50.66 34.44 48.5C34.44 46.34 34.84 44.45 35.64 42.83C36.44 41.19 37.58 39.92 39.06 39.02C40.56 38.1 42.33 37.64 44.37 37.64C46.77 37.64 48.72 38.21 50.22 39.35C51.72 40.49 52.68 42.1 53.1 44.18H50.31C49.99 42.88 49.34 41.84 48.36 41.06C47.38 40.26 46.05 39.86 44.37 39.86C42.87 39.86 41.57 40.21 40.47 40.91C39.37 41.59 38.52 42.58 37.92 43.88C37.32 45.16 37.02 46.7 37.02 48.5C37.02 50.3 37.32 51.85 37.92 53.15C38.52 54.43 39.37 55.42 40.47 56.12C41.57 56.8 42.87 57.14 44.37 57.14C46.05 57.14 47.38 56.76 48.36 56C49.34 55.22 49.99 54.19 50.31 52.91H53.1C52.68 54.93 51.72 56.51 50.22 57.65C48.72 58.79 46.77 59.36 44.37 59.36ZM63.3539 59.36C61.9539 59.36 60.6939 59.04 59.5739 58.4C58.4539 57.74 57.5739 56.82 56.9339 55.64C56.2939 54.44 55.9739 53.05 55.9739 51.47C55.9739 49.85 56.2939 48.45 56.9339 47.27C57.5939 46.07 58.4839 45.15 59.6039 44.51C60.7439 43.85 62.0139 43.52 63.4139 43.52C64.8539 43.52 66.1239 43.85 67.2239 44.51C68.3439 45.15 69.2239 46.07 69.8639 47.27C70.5239 48.45 70.8539 49.84 70.8539 51.44C70.8539 53.04 70.5239 54.44 69.8639 55.64C69.2039 56.82 68.3139 57.74 67.1939 58.4C66.0739 59.04 64.7939 59.36 63.3539 59.36ZM63.3839 57.2C64.2439 57.2 65.0439 56.99 65.7839 56.57C66.5239 56.13 67.1239 55.48 67.5839 54.62C68.0439 53.76 68.2739 52.7 68.2739 51.44C68.2739 50.16 68.0439 49.1 67.5839 48.26C67.1439 47.4 66.5539 46.76 65.8139 46.34C65.0939 45.9 64.2939 45.68 63.4139 45.68C62.5739 45.68 61.7739 45.9 61.0139 46.34C60.2739 46.76 59.6739 47.4 59.2139 48.26C58.7739 49.1 58.5539 50.16 58.5539 51.44C58.5539 52.7 58.7739 53.76 59.2139 54.62C59.6739 55.48 60.2639 56.13 60.9839 56.57C61.7239 56.99 62.5239 57.2 63.3839 57.2ZM74.3871 59V43.88H76.6671L76.7871 46.52C77.2671 45.58 77.9471 44.85 78.8271 44.33C79.7271 43.79 80.7471 43.52 81.8871 43.52C83.0671 43.52 84.0871 43.76 84.9471 44.24C85.8071 44.7 86.4771 45.41 86.9571 46.37C87.4371 47.31 87.6771 48.51 87.6771 49.97V59H85.1571V50.24C85.1571 48.72 84.8171 47.58 84.1371 46.82C83.4771 46.06 82.5371 45.68 81.3171 45.68C80.4771 45.68 79.7271 45.89 79.0671 46.31C78.4071 46.71 77.8771 47.3 77.4771 48.08C77.0971 48.84 76.9071 49.79 76.9071 50.93V59H74.3871ZM97.3137 59.36C96.0537 59.36 94.9537 59.15 94.0137 58.73C93.0937 58.31 92.3537 57.73 91.7937 56.99C91.2537 56.23 90.9237 55.34 90.8037 54.32H93.3837C93.4837 54.84 93.6937 55.32 94.0137 55.76C94.3337 56.2 94.7637 56.56 95.3037 56.84C95.8637 57.1 96.5437 57.23 97.3437 57.23C98.0437 57.23 98.6237 57.13 99.0837 56.93C99.5437 56.71 99.8837 56.42 100.104 56.06C100.344 55.7 100.464 55.31 100.464 54.89C100.464 54.27 100.314 53.8 100.014 53.48C99.7337 53.16 99.3137 52.91 98.7537 52.73C98.1937 52.53 97.5137 52.36 96.7137 52.22C96.0537 52.1 95.4037 51.94 94.7637 51.74C94.1237 51.54 93.5537 51.28 93.0537 50.96C92.5537 50.62 92.1537 50.21 91.8537 49.73C91.5737 49.25 91.4337 48.66 91.4337 47.96C91.4337 47.1 91.6537 46.34 92.0937 45.68C92.5337 45 93.1637 44.47 93.9837 44.09C94.8237 43.71 95.7937 43.52 96.8937 43.52C98.5137 43.52 99.8237 43.91 100.824 44.69C101.824 45.47 102.414 46.6 102.594 48.08H100.104C100.004 47.32 99.6737 46.73 99.1137 46.31C98.5737 45.87 97.8237 45.65 96.8637 45.65C95.9237 45.65 95.2037 45.84 94.7037 46.22C94.2237 46.6 93.9837 47.1 93.9837 47.72C93.9837 48.12 94.1137 48.48 94.3737 48.8C94.6537 49.1 95.0537 49.36 95.5737 49.58C96.1137 49.8 96.7737 49.98 97.5537 50.12C98.5537 50.3 99.4637 50.54 100.284 50.84C101.104 51.14 101.764 51.59 102.264 52.19C102.784 52.77 103.044 53.6 103.044 54.68C103.044 55.62 102.804 56.44 102.324 57.14C101.864 57.84 101.204 58.39 100.344 58.79C99.4837 59.17 98.4737 59.36 97.3137 59.36ZM106.912 59V43.88H109.432V59H106.912ZM108.172 40.67C107.672 40.67 107.252 40.51 106.912 40.19C106.592 39.85 106.432 39.43 106.432 38.93C106.432 38.43 106.592 38.03 106.912 37.73C107.252 37.41 107.672 37.25 108.172 37.25C108.652 37.25 109.062 37.41 109.402 37.73C109.742 38.03 109.912 38.43 109.912 38.93C109.912 39.43 109.742 39.85 109.402 40.19C109.062 40.51 108.652 40.67 108.172 40.67ZM120.539 59.36C119.079 59.36 117.799 59.02 116.699 58.34C115.599 57.64 114.749 56.69 114.149 55.49C113.549 54.29 113.249 52.93 113.249 51.41C113.249 49.89 113.549 48.54 114.149 47.36C114.749 46.16 115.599 45.22 116.699 44.54C117.819 43.86 119.109 43.52 120.569 43.52C121.809 43.52 122.889 43.77 123.809 44.27C124.749 44.77 125.469 45.47 125.969 46.37V37.4H128.489V59H126.209L125.999 56.51C125.679 57.01 125.269 57.48 124.769 57.92C124.269 58.34 123.669 58.69 122.969 58.97C122.269 59.23 121.459 59.36 120.539 59.36ZM120.839 57.17C121.839 57.17 122.719 56.93 123.479 56.45C124.239 55.97 124.829 55.31 125.249 54.47C125.669 53.61 125.879 52.6 125.879 51.44C125.879 50.3 125.669 49.3 125.249 48.44C124.829 47.58 124.239 46.91 123.479 46.43C122.719 45.95 121.839 45.71 120.839 45.71C119.859 45.71 118.989 45.95 118.229 46.43C117.469 46.91 116.879 47.58 116.459 48.44C116.039 49.3 115.829 50.3 115.829 51.44C115.829 52.6 116.039 53.61 116.459 54.47C116.879 55.31 117.469 55.97 118.229 56.45C118.989 56.93 119.859 57.17 120.839 57.17ZM139.318 59.36C137.898 59.36 136.638 59.03 135.538 58.37C134.458 57.71 133.608 56.79 132.988 55.61C132.368 54.41 132.058 53.02 132.058 51.44C132.058 49.84 132.358 48.45 132.958 47.27C133.578 46.09 134.438 45.17 135.538 44.51C136.658 43.85 137.938 43.52 139.378 43.52C140.858 43.52 142.108 43.85 143.128 44.51C144.168 45.17 144.958 46.04 145.498 47.12C146.058 48.18 146.338 49.35 146.338 50.63C146.338 50.83 146.338 51.04 146.338 51.26C146.338 51.48 146.328 51.73 146.308 52.01H133.948V50.06H143.878C143.818 48.68 143.358 47.6 142.498 46.82C141.658 46.04 140.598 45.65 139.318 45.65C138.458 45.65 137.658 45.85 136.918 46.25C136.198 46.63 135.618 47.2 135.178 47.96C134.738 48.7 134.518 49.63 134.518 50.75V51.59C134.518 52.83 134.738 53.87 135.178 54.71C135.638 55.55 136.228 56.18 136.948 56.6C137.688 57.02 138.478 57.23 139.318 57.23C140.378 57.23 141.248 57 141.928 56.54C142.628 56.06 143.128 55.42 143.428 54.62H145.918C145.678 55.52 145.258 56.33 144.658 57.05C144.058 57.77 143.308 58.34 142.408 58.76C141.528 59.16 140.498 59.36 139.318 59.36ZM149.739 59V43.88H152.019L152.199 46.76C152.539 46.08 152.969 45.5 153.489 45.02C154.029 44.54 154.669 44.17 155.409 43.91C156.169 43.65 157.029 43.52 157.989 43.52V46.16H157.059C156.419 46.16 155.809 46.25 155.229 46.43C154.649 46.59 154.129 46.86 153.669 47.24C153.229 47.62 152.879 48.14 152.619 48.8C152.379 49.44 152.259 50.24 152.259 51.2V59H149.739ZM168.811 59V43.88H171.091L171.241 46.04C171.721 45.26 172.361 44.65 173.161 44.21C173.981 43.75 174.871 43.52 175.831 43.52C176.611 43.52 177.311 43.63 177.931 43.85C178.571 44.05 179.131 44.37 179.611 44.81C180.091 45.23 180.481 45.77 180.781 46.43C181.301 45.51 182.011 44.8 182.911 44.3C183.831 43.78 184.811 43.52 185.851 43.52C187.011 43.52 188.021 43.76 188.881 44.24C189.761 44.7 190.431 45.41 190.891 46.37C191.371 47.31 191.611 48.51 191.611 49.97V59H189.121V50.24C189.121 48.72 188.811 47.58 188.191 46.82C187.571 46.06 186.701 45.68 185.581 45.68C184.801 45.68 184.101 45.89 183.481 46.31C182.861 46.71 182.371 47.3 182.011 48.08C181.651 48.86 181.471 49.82 181.471 50.96V59H178.951V50.24C178.951 48.72 178.641 47.58 178.021 46.82C177.401 46.06 176.521 45.68 175.381 45.68C174.621 45.68 173.931 45.89 173.311 46.31C172.711 46.71 172.231 47.3 171.871 48.08C171.511 48.86 171.331 49.82 171.331 50.96V59H168.811ZM196.74 65.6L200.43 57.32H199.56L193.62 43.88H196.35L201.27 55.43L206.43 43.88H209.04L199.38 65.6H196.74ZM227.649 59.36C226.789 59.36 226.009 59.24 225.309 59C224.629 58.74 224.029 58.4 223.509 57.98C222.989 57.56 222.559 57.07 222.219 56.51L222.009 59H219.729V37.4H222.249V46.37C222.729 45.59 223.419 44.92 224.319 44.36C225.219 43.8 226.329 43.52 227.649 43.52C229.109 43.52 230.389 43.87 231.489 44.57C232.589 45.25 233.439 46.19 234.039 47.39C234.659 48.57 234.969 49.92 234.969 51.44C234.969 52.96 234.659 54.32 234.039 55.52C233.439 56.72 232.589 57.66 231.489 58.34C230.389 59.02 229.109 59.36 227.649 59.36ZM227.349 57.17C228.329 57.17 229.199 56.93 229.959 56.45C230.719 55.97 231.309 55.31 231.729 54.47C232.169 53.61 232.389 52.6 232.389 51.44C232.389 50.3 232.169 49.3 231.729 48.44C231.309 47.58 230.719 46.91 229.959 46.43C229.199 45.95 228.329 45.71 227.349 45.71C226.349 45.71 225.469 45.95 224.709 46.43C223.949 46.91 223.359 47.58 222.939 48.44C222.519 49.3 222.309 50.3 222.309 51.44C222.309 52.6 222.519 53.61 222.939 54.47C223.359 55.31 223.949 55.97 224.709 56.45C225.469 56.93 226.349 57.17 227.349 57.17ZM245.258 59.36C243.858 59.36 242.598 59.04 241.478 58.4C240.358 57.74 239.478 56.82 238.838 55.64C238.198 54.44 237.878 53.05 237.878 51.47C237.878 49.85 238.198 48.45 238.838 47.27C239.498 46.07 240.388 45.15 241.508 44.51C242.648 43.85 243.918 43.52 245.318 43.52C246.758 43.52 248.028 43.85 249.128 44.51C250.248 45.15 251.128 46.07 251.768 47.27C252.428 48.45 252.758 49.84 252.758 51.44C252.758 53.04 252.428 54.44 251.768 55.64C251.108 56.82 250.218 57.74 249.098 58.4C247.978 59.04 246.698 59.36 245.258 59.36ZM245.288 57.2C246.148 57.2 246.948 56.99 247.688 56.57C248.428 56.13 249.028 55.48 249.488 54.62C249.948 53.76 250.178 52.7 250.178 51.44C250.178 50.16 249.948 49.1 249.488 48.26C249.048 47.4 248.458 46.76 247.718 46.34C246.998 45.9 246.198 45.68 245.318 45.68C244.478 45.68 243.678 45.9 242.918 46.34C242.178 46.76 241.578 47.4 241.118 48.26C240.678 49.1 240.458 50.16 240.458 51.44C240.458 52.7 240.678 53.76 241.118 54.62C241.578 55.48 242.168 56.13 242.888 56.57C243.628 56.99 244.428 57.2 245.288 57.2ZM262.951 59.36C261.491 59.36 260.211 59.02 259.111 58.34C258.011 57.64 257.161 56.69 256.561 55.49C255.961 54.29 255.661 52.93 255.661 51.41C255.661 49.89 255.961 48.54 256.561 47.36C257.161 46.16 258.011 45.22 259.111 44.54C260.231 43.86 261.521 43.52 262.981 43.52C264.221 43.52 265.301 43.77 266.221 44.27C267.161 44.77 267.881 45.47 268.381 46.37V37.4H270.901V59H268.621L268.411 56.51C268.091 57.01 267.681 57.48 267.181 57.92C266.681 58.34 266.081 58.69 265.381 58.97C264.681 59.23 263.871 59.36 262.951 59.36ZM263.251 57.17C264.251 57.17 265.131 56.93 265.891 56.45C266.651 55.97 267.241 55.31 267.661 54.47C268.081 53.61 268.291 52.6 268.291 51.44C268.291 50.3 268.081 49.3 267.661 48.44C267.241 47.58 266.651 46.91 265.891 46.43C265.131 45.95 264.251 45.71 263.251 45.71C262.271 45.71 261.401 45.95 260.641 46.43C259.881 46.91 259.291 47.58 258.871 48.44C258.451 49.3 258.241 50.3 258.241 51.44C258.241 52.6 258.451 53.61 258.871 54.47C259.291 55.31 259.881 55.97 260.641 56.45C261.401 56.93 262.271 57.17 263.251 57.17ZM276.75 65.6L280.44 57.32H279.57L273.63 43.88H276.36L281.28 55.43L286.44 43.88H289.05L279.39 65.6H276.75ZM305.679 59C304.779 59 303.999 58.86 303.339 58.58C302.679 58.3 302.169 57.83 301.809 57.17C301.469 56.49 301.299 55.58 301.299 54.44V46.01H298.659V43.88H301.299L301.629 40.22H303.819V43.88H308.199V46.01H303.819V54.44C303.819 55.38 304.009 56.02 304.389 56.36C304.769 56.68 305.439 56.84 306.399 56.84H308.019V59H305.679ZM313.137 65.6L316.827 57.32H315.957L310.017 43.88H312.747L317.667 55.43L322.827 43.88H325.437L315.777 65.6H313.137ZM328.157 65.6V43.88H330.437L330.647 46.34C330.967 45.86 331.377 45.41 331.877 44.99C332.377 44.55 332.977 44.2 333.677 43.94C334.377 43.66 335.177 43.52 336.077 43.52C337.557 43.52 338.837 43.87 339.917 44.57C341.017 45.27 341.867 46.22 342.467 47.42C343.087 48.6 343.397 49.95 343.397 51.47C343.397 52.99 343.087 54.35 342.467 55.55C341.867 56.73 341.017 57.66 339.917 58.34C338.817 59.02 337.527 59.36 336.047 59.36C334.827 59.36 333.747 59.11 332.807 58.61C331.887 58.11 331.177 57.41 330.677 56.51V65.6H328.157ZM335.777 57.17C336.757 57.17 337.627 56.93 338.387 56.45C339.147 55.97 339.737 55.31 340.157 54.47C340.597 53.61 340.817 52.6 340.817 51.44C340.817 50.3 340.597 49.3 340.157 48.44C339.737 47.58 339.147 46.91 338.387 46.43C337.627 45.95 336.757 45.71 335.777 45.71C334.777 45.71 333.897 45.95 333.137 46.43C332.377 46.91 331.787 47.58 331.367 48.44C330.947 49.3 330.737 50.3 330.737 51.44C330.737 52.6 330.947 53.61 331.367 54.47C331.787 55.31 332.377 55.97 333.137 56.45C333.897 56.93 334.777 57.17 335.777 57.17ZM353.566 59.36C352.146 59.36 350.886 59.03 349.786 58.37C348.706 57.71 347.856 56.79 347.236 55.61C346.616 54.41 346.306 53.02 346.306 51.44C346.306 49.84 346.606 48.45 347.206 47.27C347.826 46.09 348.686 45.17 349.786 44.51C350.906 43.85 352.186 43.52 353.626 43.52C355.106 43.52 356.356 43.85 357.376 44.51C358.416 45.17 359.206 46.04 359.746 47.12C360.306 48.18 360.586 49.35 360.586 50.63C360.586 50.83 360.586 51.04 360.586 51.26C360.586 51.48 360.576 51.73 360.556 52.01H348.196V50.06H358.126C358.066 48.68 357.606 47.6 356.746 46.82C355.906 46.04 354.846 45.65 353.566 45.65C352.706 45.65 351.906 45.85 351.166 46.25C350.446 46.63 349.866 47.2 349.426 47.96C348.986 48.7 348.766 49.63 348.766 50.75V51.59C348.766 52.83 348.986 53.87 349.426 54.71C349.886 55.55 350.476 56.18 351.196 56.6C351.936 57.02 352.726 57.23 353.566 57.23C354.626 57.23 355.496 57 356.176 56.54C356.876 56.06 357.376 55.42 357.676 54.62H360.166C359.926 55.52 359.506 56.33 358.906 57.05C358.306 57.77 357.556 58.34 356.656 58.76C355.776 59.16 354.746 59.36 353.566 59.36ZM377.895 59C376.995 59 376.215 58.86 375.555 58.58C374.895 58.3 374.385 57.83 374.025 57.17C373.685 56.49 373.515 55.58 373.515 54.44V46.01H370.875V43.88H373.515L373.845 40.22H376.035V43.88H380.415V46.01H376.035V54.44C376.035 55.38 376.225 56.02 376.605 56.36C376.985 56.68 377.655 56.84 378.615 56.84H380.235V59H377.895ZM390.043 59.36C388.643 59.36 387.383 59.04 386.263 58.4C385.143 57.74 384.263 56.82 383.623 55.64C382.983 54.44 382.663 53.05 382.663 51.47C382.663 49.85 382.983 48.45 383.623 47.27C384.283 46.07 385.173 45.15 386.293 44.51C387.433 43.85 388.703 43.52 390.103 43.52C391.543 43.52 392.813 43.85 393.913 44.51C395.033 45.15 395.913 46.07 396.553 47.27C397.213 48.45 397.543 49.84 397.543 51.44C397.543 53.04 397.213 54.44 396.553 55.64C395.893 56.82 395.003 57.74 393.883 58.4C392.763 59.04 391.483 59.36 390.043 59.36ZM390.073 57.2C390.933 57.2 391.733 56.99 392.473 56.57C393.213 56.13 393.813 55.48 394.273 54.62C394.733 53.76 394.963 52.7 394.963 51.44C394.963 50.16 394.733 49.1 394.273 48.26C393.833 47.4 393.243 46.76 392.503 46.34C391.783 45.9 390.983 45.68 390.103 45.68C389.263 45.68 388.463 45.9 387.703 46.34C386.963 46.76 386.363 47.4 385.903 48.26C385.463 49.1 385.243 50.16 385.243 51.44C385.243 52.7 385.463 53.76 385.903 54.62C386.363 55.48 386.953 56.13 387.673 56.57C388.413 56.99 389.213 57.2 390.073 57.2ZM407.827 59.36C406.427 59.36 405.167 59.04 404.047 58.4C402.927 57.74 402.047 56.82 401.407 55.64C400.767 54.44 400.447 53.05 400.447 51.47C400.447 49.85 400.767 48.45 401.407 47.27C402.067 46.07 402.957 45.15 404.077 44.51C405.217 43.85 406.487 43.52 407.887 43.52C409.327 43.52 410.597 43.85 411.697 44.51C412.817 45.15 413.697 46.07 414.337 47.27C414.997 48.45 415.327 49.84 415.327 51.44C415.327 53.04 414.997 54.44 414.337 55.64C413.677 56.82 412.787 57.74 411.667 58.4C410.547 59.04 409.267 59.36 407.827 59.36ZM407.857 57.2C408.717 57.2 409.517 56.99 410.257 56.57C410.997 56.13 411.597 55.48 412.057 54.62C412.517 53.76 412.747 52.7 412.747 51.44C412.747 50.16 412.517 49.1 412.057 48.26C411.617 47.4 411.027 46.76 410.287 46.34C409.567 45.9 408.767 45.68 407.887 45.68C407.047 45.68 406.247 45.9 405.487 46.34C404.747 46.76 404.147 47.4 403.687 48.26C403.247 49.1 403.027 50.16 403.027 51.44C403.027 52.7 403.247 53.76 403.687 54.62C404.147 55.48 404.737 56.13 405.457 56.57C406.197 56.99 406.997 57.2 407.857 57.2Z" fill="#672576"/>
</svg>
